<?xml version="1.0" encoding="UTF-8" standalone="no"?>
<svg
   xmlns:dc="http://purl.org/dc/elements/1.1/"
   xmlns:cc="http://creativecommons.org/ns#"
   xmlns:rdf="http://www.w3.org/1999/02/22-rdf-syntax-ns#"
   xmlns:svg="http://www.w3.org/2000/svg"
   xmlns="http://www.w3.org/2000/svg"
   xmlns:sodipodi="http://sodipodi.sourceforge.net/DTD/sodipodi-0.dtd"
   xmlns:inkscape="http://www.inkscape.org/namespaces/inkscape"
   width="35mm"
   height="35mm"
   viewBox="0 0 35 35"
   version="1.1"
   id="svg8"
   inkscape:version="1.0.2 (e86c8708, 2021-01-15)"
   sodipodi:docname="angel1_33.svg">
  <defs
     id="defs2" />
  <sodipodi:namedview
     id="base"
     pagecolor="#ffffff"
     bordercolor="#666666"
     borderopacity="1.0"
     inkscape:pageopacity="0.0"
     inkscape:pageshadow="2"
     inkscape:zoom="0.78415309"
     inkscape:cx="151.87038"
     inkscape:cy="-183.16587"
     inkscape:document-units="mm"
     inkscape:current-layer="layer1"
     inkscape:document-rotation="0"
     showgrid="false"
     inkscape:window-width="1731"
     inkscape:window-height="1067"
     inkscape:window-x="60"
     inkscape:window-y="25"
     inkscape:window-maximized="0" />
  <metadata
     id="metadata5">
    <rdf:RDF>
      <cc:Work
         rdf:about="">
        <dc:format>image/svg+xml</dc:format>
        <dc:type
           rdf:resource="http://purl.org/dc/dcmitype/StillImage" />
        <dc:title></dc:title>
      </cc:Work>
    </rdf:RDF>
  </metadata>
  <g
     inkscape:label="Layer 1"
     inkscape:groupmode="layer"
     id="layer1">
    <path
       style="fill:#000000;stroke-width:0.037426"
       d="m 14.79351,30.931326 c -0.03995,-0.0308 -0.186916,-0.09152 -0.326574,-0.135025 -0.223324,-0.06963 -0.262549,-0.09603 -0.325479,-0.219373 -0.110785,-0.217162 -0.180709,-0.571714 -0.149257,-0.756833 0.03325,-0.195723 0.216925,-0.887931 0.249656,-0.940885 0.01482,-0.02398 -0.003,-0.0275 -0.04817,-0.0099 -0.143006,0.05676 -0.650688,0.06963 -0.884816,0.02233 -0.567038,-0.114345 -0.906356,-0.233101 -1.296734,-0.45386 -0.672003,-0.380017 -0.822646,-0.57123 -0.940264,-1.193544 -0.08347,-0.441628 -0.08372,-1.003838 -5.32e-4,-1.159301 0.01942,-0.0363 0.08499,-0.232364 0.145727,-0.435754 0.06074,-0.20339 0.14486,-0.46244 0.186935,-0.575653 0.04208,-0.113212 0.09395,-0.306889 0.11528,-0.430397 0.02133,-0.123508 0.05392,-0.291918 0.07242,-0.374264 0.04106,-0.182721 0.129512,-0.616902 0.232545,-1.141481 0.04245,-0.216139 0.110104,-0.485606 0.150341,-0.598818 0.04024,-0.113212 0.09608,-0.306889 0.124109,-0.430397 0.02802,-0.123508 0.07906,-0.325611 0.1134,-0.449108 0.03434,-0.123508 0.09226,-0.350867 0.128686,-0.505252 0.03643,-0.154385 0.08757,-0.345246 0.113655,-0.424138 0.05749,-0.173888 0.03985,-0.339812 -0.130172,-1.225037 -0.06944,-0.361571 -0.13121,-0.79683 -0.137256,-0.967253 -0.01056,-0.296274 -0.03523,-0.38489 -0.08495,-0.304458 -0.03082,0.04983 -0.08791,0.572286 -0.11249,1.02926 -0.02097,0.389785 -0.05821,0.494659 -0.12884,0.362703 -0.02277,-0.04257 -0.03787,-0.09064 -0.03356,-0.10692 0.01856,-0.07007 -0.05622,-0.483066 -0.122183,-0.674785 -0.03948,-0.11473 -0.07178,-0.24585 -0.07178,-0.291357 0,-0.04554 -0.04902,-0.232342 -0.108922,-0.415184 -0.05991,-0.182842 -0.127924,-0.404008 -0.151147,-0.491491 -0.02322,-0.08745 -0.05598,-0.15906 -0.07279,-0.15906 -0.04593,0 -0.315431,0.39886 -0.448866,0.664312 -0.06467,0.128645 -0.134708,0.233915 -0.155643,0.233915 -0.06791,0 -0.08263,-0.10989 -0.0383,-0.285945 0.09264,-0.367928 -0.05633,-0.156684 -0.186332,0.264198 -0.0763,0.247016 -0.254412,0.470855 -0.37468,0.470855 -0.1207797,0 -0.1453427,-0.485155 -0.05211,-1.029215 0.08911,-0.520014 0.299083,-0.936496 0.661869,-1.312861 l 0.291457,-0.302368 -0.07416,-0.14674 c -0.04079,-0.08074 -0.141228,-0.289905 -0.223191,-0.464871 -0.08196,-0.174966 -0.227821,-0.4697 -0.324128,-0.654951 -0.09631,-0.185262 -0.223479,-0.433114 -0.282607,-0.550792 -0.2103878,-0.418726 -0.2767057,-0.893695 -0.1628336,-1.166231 0.031152,-0.07458 0.064746,-0.135565 0.074657,-0.135565 0.0099,0 0.05365,0.07579 0.09718,0.168422 0.04354,0.09262 0.09419,0.16841 0.112567,0.16841 0.01837,0 0.09201,0.0649 0.163643,0.144166 0.277805,0.307494 0.68921,0.487157 0.996626,0.435215 0.149303,-0.02519 0.326713,-0.188111 0.338622,-0.310904 0.02313,-0.23859 0.01496,-0.569779 -0.01679,-0.680153 C 11.599456,12.644659 11.137814,12.105637 10.653726,11.76643 10.232168,11.471025 9.3479479,10.533913 9.3346445,10.368418 9.3320045,10.335748 9.2753324,10.170176 9.2086702,10.000468 9.0565842,9.6132792 8.9855649,9.2993062 9.0117955,9.1301152 c 0.030206,-0.1948101 0.1255859,-0.1720181 0.1566059,0.0374 0.042328,0.28578 0.052943,0.306229 0.551286,1.0611588 0.1211155,0.18348 0.7533156,0.767778 0.9129066,0.843733 0.06661,0.03168 0.127257,0.07238 0.13478,0.09053 0.0075,0.01804 0.112104,0.09647 0.232401,0.174207 0.120297,0.07777 0.206772,0.154594 0.192164,0.170775 -0.01461,0.01617 0.0024,0.01903 0.03774,0.0066 0.03537,-0.01265 0.07586,-0.0044 0.08999,0.01848 0.01555,0.02519 0.0087,0.03102 -0.01751,0.01485 -0.02376,-0.01463 -0.04321,-0.01892 -0.04321,-0.0099 0,0.0099 0.168725,0.120978 0.374945,0.247698 0.523185,0.321508 0.959885,0.695013 1.13595,0.971542 0.07966,0.125125 0.15649,0.227502 0.170718,0.227502 0.04052,0 0.361981,0.668658 0.435515,0.905895 0.0364,0.117436 0.07978,0.205106 0.09639,0.194832 0.03416,-0.02112 0.247457,-0.343365 0.354316,-0.535315 0.05266,-0.0946 0.05876,-0.131164 0.02396,-0.14344 -0.06345,-0.02233 -0.02142,-0.273351 0.08633,-0.515538 0.438582,-0.985842 0.680555,-1.34563 1.083182,-1.610576 0.102927,-0.06776 0.288179,-0.208912 0.411685,-0.313742 0.378968,-0.321695 0.448454,-0.33957 1.160203,-0.298584 0.190922,0.011 0.263022,-0.0055 0.481382,-0.1078 0.162789,-0.07656 0.314809,-0.120714 0.415182,-0.120714 0.249405,0 0.599977,0.139832 1.124435,0.448492 0.08234,0.0484 0.21707,0.121154 0.299408,0.161546 0.175401,0.08602 0.417795,0.269104 0.523962,0.395703 0.09882,0.117843 0.326756,0.513568 0.390766,0.678425 0.02797,0.07205 0.07111,0.181511 0.09586,0.243265 0.02475,0.06171 0.08248,0.247016 0.128268,0.411686 0.09684,0.348282 0.333334,0.916939 0.381325,0.916939 0.01814,0 0.03555,-0.04631 0.03869,-0.10296 0.01372,-0.247665 0.11888,-0.539386 0.384325,-1.066121 0.43392,-0.861036 0.623499,-1.084798 1.401584,-1.654268 0.321714,-0.235455 0.692731,-0.534402 0.824482,-0.664334 0.498661,-0.4917547 0.702815,-0.9754468 0.719287,-1.704186 0.006,-0.268235 0.0362,-0.339911 0.107052,-0.254551 0.069,0.08316 0.02589,0.8369901 -0.07353,1.2857572 -0.106073,0.4787748 -0.183878,0.6266588 -0.840091,1.5969468 -0.218294,0.322773 -0.410579,0.58542 -0.496342,0.677963 -0.122351,0.132022 -0.287802,0.381656 -0.399397,0.602635 -0.127073,0.251625 -0.139725,0.681483 -0.02659,0.903255 0.175528,0.344069 0.670221,0.50688 0.967615,0.318461 0.04689,-0.0297 0.09953,-0.04521 0.116959,-0.03443 0.04598,0.02838 0.317343,-0.177716 0.424795,-0.322674 0.08419,-0.113587 0.145485,-0.221706 0.271986,-0.479744 0.06997,-0.142725 0.242485,-0.69817 0.242485,-0.780725 0,-0.05566 0.0186,-0.0682 0.07832,-0.05258 0.07556,0.0198 0.07781,0.03839 0.06379,0.529815 -0.02002,0.701603 -0.113572,0.967561 -0.51488,1.463694 -0.505249,0.624635 -0.733962,0.95502 -0.84457,1.219988 -0.05931,0.142087 -0.129434,0.292919 -0.155828,0.335192 -0.111368,0.178354 -0.380943,1.120625 -0.465191,1.62602 -0.02231,0.133804 -0.04719,0.486002 -0.0553,0.782661 -0.0081,0.29667 -0.02244,0.547096 -0.03183,0.556501 -0.0094,0.0099 -0.03894,-0.0055 -0.06566,-0.03421 -0.02903,-0.03069 -0.05327,-0.171633 -0.06028,-0.350647 -0.015,-0.383416 -0.07469,-0.894465 -0.117033,-1.001891 -0.01808,-0.04587 -0.06089,-0.176088 -0.09512,-0.2893 -0.03422,-0.113212 -0.100166,-0.290048 -0.146544,-0.392975 l -0.08432,-0.187121 -0.02315,0.193567 c -0.02881,0.240834 -0.172615,0.529892 -0.37034,0.744392 l -0.151154,0.163988 0.10164,0.178827 c 0.0559,0.09834 0.143937,0.254617 0.195638,0.347248 0.0517,0.09262 0.123506,0.202103 0.159566,0.243265 0.03606,0.04114 0.17543,0.251691 0.309713,0.46783 0.303265,0.488125 0.476084,0.95743 0.476084,1.292875 0,0.212421 -0.01254,0.253264 -0.112812,0.367466 -0.09922,0.113003 -0.455229,0.320639 -0.646676,0.377157 -0.102069,0.03014 -0.04317,0.10901 0.400613,0.536437 0.340306,0.327767 0.423383,0.388487 0.60293,0.440682 0.316246,0.09196 0.853428,0.08118 1.13856,-0.02277 0.12567,-0.04587 0.237074,-0.07469 0.247565,-0.06424 0.04084,0.04081 -0.456187,0.406725 -0.680594,0.501006 -0.222566,0.0935 -0.6869,0.201696 -0.86469,0.201487 -0.278385,-3.3e-4 -0.816141,-0.174966 -1.068002,-0.346841 l -0.103598,-0.07073 -2.62e-4,0.779625 c -1.5e-4,0.428791 -0.0097,0.830137 -0.02119,0.891891 -0.05246,0.281501 -0.04789,1.061852 0.0083,1.403468 0.03211,0.195558 0.06497,0.437702 0.07301,0.53811 0.008,0.10043 0.07476,0.417813 0.148257,0.705331 0.0735,0.287529 0.143274,0.626417 0.155046,0.753093 0.03244,0.348986 -0.105787,1.106963 -0.224558,1.231428 -0.02456,0.02574 -0.141995,0.183007 -0.260952,0.34947 -0.483982,0.677248 -1.221646,1.033197 -1.973952,0.95249 -0.560895,-0.06017 -1.238648,-0.252505 -1.598034,-0.453497 l -0.196447,-0.10989 0.07034,0.178068 c 0.03869,0.0979 0.154476,0.380171 0.257308,0.627187 0.102828,0.247005 0.197984,0.536987 0.211446,0.644402 l 0.02447,0.195305 -0.178905,0.133518 c -0.166349,0.124146 -0.194663,0.132572 -0.40346,0.120131 -0.365926,-0.02178 -0.999601,-0.323917 -1.255475,-0.598565 l -0.07742,-0.08305 -0.07236,0.09361 c -0.0398,0.05148 -0.09357,0.143 -0.119495,0.203445 -0.14132,0.329428 -0.207884,0.417813 -0.403445,0.535711 -0.224232,0.135179 -0.457108,0.161491 -0.581543,0.06567 z m 0.563591,-0.201388 c 0.119337,-0.08052 0.163141,-0.143198 0.215949,-0.30888 0.03643,-0.114312 0.12322,-0.271887 0.192856,-0.350163 l 0.12661,-0.142307 -0.06736,-0.157168 c -0.10956,-0.255596 -0.178334,-0.670406 -0.184945,-1.115521 -0.0034,-0.22935 -0.01045,-0.421212 -0.01553,-0.426338 -0.0052,-0.0055 -0.0927,0.05049 -0.194593,0.12364 -0.241468,0.173316 -0.72894,0.419276 -0.906272,0.457259 -0.102509,0.022 -0.13819,0.04796 -0.133816,0.09746 0.0033,0.03718 -0.05383,0.204402 -0.126914,0.37169 -0.122127,0.279543 -0.13321,0.335137 -0.136957,0.686928 -0.0038,0.366564 1.12e-4,0.386947 0.09495,0.481789 0.05446,0.05445 0.239723,0.171919 0.411685,0.260997 0.358621,0.185779 0.474704,0.18909 0.724344,0.02057 z m 2.225794,-0.228701 c 0.08012,-0.04092 0.153927,-0.08767 0.164014,-0.10395 0.0316,-0.05115 -0.0733,-0.467412 -0.172001,-0.682484 -0.05195,-0.113212 -0.10648,-0.245289 -0.121181,-0.293491 -0.0147,-0.04818 -0.07561,-0.186219 -0.135382,-0.306669 -0.05976,-0.12045 -0.108658,-0.234443 -0.108658,-0.253308 0,-0.01892 -0.04052,-0.09405 -0.09006,-0.167024 -0.08289,-0.122133 -0.09131,-0.17699 -0.105688,-0.688237 -0.01416,-0.503327 -0.02821,-0.59774 -0.149582,-1.004641 -0.133781,-0.448536 -0.13401,-0.45056 -0.178729,-1.576047 -0.03372,-0.848453 -0.03434,-1.259996 -0.0025,-1.665445 0.07296,-0.930545 0.07672,-1.337204 0.02041,-2.203982 -0.08742,-1.345168 -0.08296,-1.313433 -0.255549,-1.821171 -0.206368,-0.607124 -0.497513,-1.057222 -0.833317,-1.288255 l -0.161283,-0.110968 -0.403656,0.03828 c -0.222012,0.02101 -0.59508,0.03828 -0.829042,0.03828 l -0.425385,3.3e-5 -0.183054,0.134376 c -0.208344,0.152933 -0.444502,0.42493 -0.444502,0.511951 0,0.03223 -0.01613,0.06413 -0.03584,0.07095 -0.04333,0.01507 -0.28554,0.707917 -0.311983,0.89242 -0.01034,0.07227 -0.08037,0.288882 -0.155571,0.481338 -0.07521,0.192456 -0.130412,0.37752 -0.122687,0.411257 0.0077,0.03377 -0.01023,0.110715 -0.03997,0.171072 -0.06691,0.135938 -0.21793,0.69278 -0.249361,0.919468 -0.01284,0.09262 -0.06314,0.277882 -0.11178,0.411686 -0.127744,0.351428 -0.150919,0.448536 -0.340835,1.428185 -0.09441,0.487036 -0.230914,1.076493 -0.303326,1.309902 -0.07241,0.233421 -0.148588,0.517034 -0.169279,0.630246 -0.04668,0.255431 -0.01639,0.805618 0.06079,1.104059 0.0518,0.200299 0.0874,0.252494 0.329499,0.483098 0.352295,0.335566 0.585631,0.443179 0.953005,0.439483 0.3053,-0.0033 0.667332,-0.09416 0.698645,-0.175736 0.0115,-0.02992 0.04338,-0.05445 0.07087,-0.05445 0.08032,0 0.275055,-0.225599 0.399041,-0.462275 0.09066,-0.173052 0.114726,-0.265749 0.114726,-0.441892 0,-0.218196 -0.04918,-0.499928 -0.113296,-0.649011 -0.0177,-0.04114 -0.07359,-0.192742 -0.124195,-0.336831 -0.0506,-0.144089 -0.142593,-0.371459 -0.204425,-0.505252 -0.06183,-0.133794 -0.17463,-0.378005 -0.250663,-0.542675 -0.274796,-0.595166 -0.464512,-1.320704 -0.494632,-1.891637 -0.02001,-0.379225 0.02959,-0.915607 0.101453,-1.097107 0.01746,-0.04411 0.04226,-0.112926 0.05511,-0.152933 0.02128,-0.06633 0.02808,-0.06369 0.07626,0.02926 0.02909,0.0561 0.07095,0.240394 0.09302,0.409585 0.06112,0.46871 0.211924,1.093345 0.354385,1.467829 0.07048,0.185262 0.15775,0.437888 0.193944,0.561385 0.03619,0.123508 0.138276,0.370029 0.226849,0.547833 0.08857,0.177793 0.161041,0.333487 0.161041,0.345972 0,0.02871 0.784156,1.097702 1.000961,1.364518 0.136872,0.168454 0.455736,0.769615 0.576024,1.085997 0.06537,0.171941 0.147814,0.890241 0.148803,1.296493 0.0017,0.671143 0.133826,1.173271 0.3587,1.362515 0.05771,0.04862 0.157076,0.137401 0.220812,0.197395 0.161822,0.152328 0.742495,0.400499 0.942888,0.402974 0.08998,0.0011 0.224584,-0.03069 0.306225,-0.07238 z m -0.342954,-0.702262 c -0.288396,-0.336127 -0.524941,-0.86636 -0.52176,-1.169564 0.0036,-0.346423 0.05046,-1.252812 0.06558,-1.269367 0.03332,-0.03652 0.04709,0.04037 0.08668,0.483428 0.0546,0.611105 0.177392,1.059927 0.435736,1.592712 0.145639,0.300355 0.163265,0.428285 0.05901,0.428285 -0.03798,0 -0.09434,-0.02948 -0.125248,-0.06545 z M 16.03443,28.470351 c -0.01124,-0.10802 -0.02926,-0.31438 -0.04005,-0.458469 -0.01078,-0.144089 -0.02677,-0.295658 -0.03553,-0.336831 -0.0088,-0.04114 -0.0172,-0.11374 -0.01878,-0.161271 -0.0015,-0.04752 -0.01969,-0.07601 -0.04028,-0.06325 -0.02058,0.01276 -0.03742,-0.0099 -0.03742,-0.04906 0,-0.209165 -0.276812,-0.834449 -0.467053,-1.05501 -0.04439,-0.05148 -0.112176,-0.144089 -0.150646,-0.205843 -0.03847,-0.06171 -0.155217,-0.214379 -0.259441,-0.339174 -0.34559,-0.413809 -0.712844,-0.900725 -0.714127,-0.946804 -3.74e-4,-0.0132 -0.0364,-0.09966 -0.08007,-0.192346 -0.294865,-0.625416 -0.381972,-0.884048 -0.46007,-1.366046 -0.181956,-1.122968 -0.195502,-1.291411 -0.13544,-1.684155 0.05421,-0.354508 0.177147,-0.732116 0.261009,-0.801713 0.09079,-0.07535 0.125632,0.03993 0.14617,0.483582 0.02377,0.513557 0.109703,0.98087 0.237194,1.289893 0.05125,0.124223 0.159652,0.411125 0.240896,0.637549 0.08125,0.226424 0.355095,0.824307 0.608558,1.328613 0.253463,0.504317 0.500153,1.017985 0.548199,1.141493 0.04805,0.123508 0.09913,0.241395 0.11352,0.261987 0.04542,0.06501 0.29106,0.888415 0.334929,1.12277 0.05352,0.285901 0.09478,1.271787 0.0608,1.452902 -0.03695,0.196933 -0.08855,0.169939 -0.112344,-0.05874 z m 0.469889,-2.095852 c -0.102443,-0.179652 -0.379986,-0.782661 -0.379986,-0.825583 0,-0.0099 -0.0946,-0.217789 -0.210222,-0.46177 -0.270874,-0.571582 -0.330298,-0.709313 -0.482013,-1.117259 -0.217404,-0.584573 -0.35569,-1.021372 -0.35569,-1.123496 0,-0.05423 -0.03304,-0.286836 -0.07344,-0.516813 -0.04039,-0.229966 -0.09155,-0.643907 -0.113686,-0.919864 -0.02214,-0.275957 -0.0464,-0.511742 -0.05392,-0.523963 -0.02615,-0.04257 0.08375,-0.622127 0.149681,-0.789448 0.09379,-0.238007 0.339257,-0.580382 0.453395,-0.63239 0.07032,-0.03201 0.129152,-0.03322 0.21682,-0.0044 0.139202,0.04598 0.231805,0.22055 0.357502,0.67408 0.04279,0.154385 0.09585,0.341847 0.117916,0.416592 0.0477,0.161557 0.05881,0.845416 0.02638,1.623116 -0.02336,0.560395 0.0175,1.533873 0.07778,1.852587 0.100661,0.532279 0.161412,0.878251 0.266055,1.515174 0.06421,0.390775 0.132052,0.739134 0.150778,0.774125 0.04435,0.08283 0.04392,0.255662 -6.19e-4,0.255662 -0.01907,0 -0.0851,-0.08844 -0.146723,-0.196482 z m 4.108038,2.388782 c 0.393791,-0.354552 0.61751,-0.713603 0.73936,-1.186614 0.03644,-0.141438 0.07956,-0.257158 0.09584,-0.257158 0.05655,0 -0.0067,-0.670494 -0.08387,-0.888712 -0.04188,-0.118448 -0.08334,-0.257466 -0.09214,-0.308924 -0.0088,-0.05148 -0.04859,-0.219879 -0.08843,-0.374253 -0.03984,-0.154385 -0.08286,-0.381744 -0.09561,-0.505252 -0.03056,-0.296187 -0.09396,-1.572869 -0.114303,-2.301696 -0.02968,-1.063205 -0.05929,-1.38721 -0.15242,-1.667644 -0.09302,-0.280093 -0.310537,-0.67573 -0.431898,-0.785554 -0.07134,-0.06457 -0.07287,-0.06171 -0.0739,0.136345 -0.0036,0.71335 -0.153604,1.951521 -0.303243,2.503985 -0.04181,0.154385 -0.114959,0.432267 -0.162541,0.617529 -0.04759,0.185251 -0.103774,0.378939 -0.124874,0.430397 -0.203378,0.496034 -0.198514,1.583143 0.0099,2.20813 0.0495,0.148434 0.05387,0.152878 0.03682,0.0374 -0.01067,-0.07205 -0.02921,-0.389928 -0.04125,-0.706409 -0.01822,-0.478544 -0.01324,-0.57254 0.02955,-0.558306 0.0312,0.0099 0.06239,0.103951 0.07922,0.237601 0.03552,0.282007 0.166489,0.547426 0.466237,0.944856 0.1316,0.174482 0.262124,0.361438 0.290053,0.415448 0.173735,0.335962 0.231707,0.974171 0.121703,1.339811 -0.05524,0.183623 -0.329612,0.736681 -0.403802,0.813956 -0.01878,0.01958 -0.03413,0.05093 -0.03413,0.06985 0,0.04312 0.166155,-0.0638 0.333748,-0.214753 z m -1.933953,-0.330352 c 0.09175,-0.07051 0.240961,-0.428791 0.288899,-0.693616 0.08568,-0.473352 0.02545,-1.194281 -0.127833,-1.530012 -0.112275,-0.245916 -0.204448,-0.299926 -0.401095,-0.235026 -0.171507,0.05665 -0.504183,0.425843 -0.8376,0.929676 -0.11896,0.179762 -0.126517,0.342661 -0.03597,0.775423 0.06844,0.327096 0.164557,0.440154 0.57663,0.678249 0.222066,0.128315 0.43009,0.157487 0.53697,0.07535 z m -1.153829,-1.60941 c 0.128669,-0.159577 0.25765,-0.336413 0.286621,-0.392964 0.08159,-0.159269 0.432277,-0.593736 0.765196,-0.948002 0.274463,-0.292061 0.386578,-0.437218 0.701765,-0.908601 0.241664,-0.361416 0.541896,-1.055516 0.544588,-1.259016 4.07e-4,-0.03091 0.0083,-0.08987 0.0174,-0.130999 0.02091,-0.09394 -0.03343,-0.612447 -0.0902,-0.860794 -0.05062,-0.221463 -0.131631,-0.392964 -0.185607,-0.392964 -0.02127,0 -0.0286,0.01628 -0.0163,0.03619 0.01231,0.01991 -0.0127,0.05775 -0.05558,0.08415 -0.07045,0.04345 -0.219666,0.317064 -0.393462,0.721677 -0.03536,0.08228 -0.130874,0.351802 -0.212236,0.598807 -0.206822,0.627902 -0.528016,1.220857 -1.094734,2.020998 -0.0729,0.10296 -0.160777,0.262922 -0.195291,0.355553 -0.104841,0.281358 -0.333759,0.827112 -0.460882,1.098757 -0.09666,0.206547 -0.115075,0.283305 -0.0943,0.392975 l 0.02582,0.13629 0.111627,-0.130988 c 0.06139,-0.07205 0.216903,-0.261558 0.345572,-0.421135 z m 0.0099,-1.758923 c 0.154794,-0.163889 0.437856,-0.60368 0.536247,-0.833173 0.140349,-0.327349 0.338693,-0.923868 0.429176,-1.290751 0.04822,-0.195547 0.164937,-0.540804 0.259354,-0.767228 0.09441,-0.226424 0.171757,-0.427416 0.171864,-0.446655 1.13e-4,-0.01925 0.0324,-0.1034 0.07174,-0.187132 0.14696,-0.312543 0.265286,-0.585651 0.265286,-0.612293 0,-0.01518 0.03116,-0.08624 0.06926,-0.157949 0.03809,-0.07172 0.10692,-0.244387 0.152958,-0.383669 0.08968,-0.271326 0.304058,-0.621313 0.494763,-0.807763 l 0.117403,-0.114785 -0.117036,-0.366466 c -0.191769,-0.600479 -0.253886,-0.663982 -0.781404,-0.798897 -0.252205,-0.06446 -0.372554,-0.0704 -1.067295,-0.05258 -0.891565,0.02288 -1.002346,0.04939 -1.207099,0.288563 -0.151612,0.177122 -0.336123,0.549274 -0.372313,0.750927 -0.02505,0.139557 0.03336,0.531377 0.09029,0.605748 0.02513,0.03278 0.05202,0.170918 0.09837,0.505252 0.04749,0.342529 0.09436,1.299573 0.109043,2.22684 0.0095,0.596948 0.03582,1.19482 0.05859,1.328624 0.08946,0.525734 0.350657,1.235048 0.454781,1.235048 0.02813,0 0.10284,-0.05478 0.166029,-0.121628 z m 4.082519,-4.609572 c 0.217144,-0.07667 0.463801,-0.241472 0.485514,-0.3245 0.01034,-0.03938 0.03362,-0.07161 0.0518,-0.07161 0.06116,0 0.03375,-0.401555 -0.04508,-0.660374 -0.08863,-0.290995 -0.160551,-0.425151 -0.538892,-1.005082 -0.233901,-0.358534 -0.451031,-0.702405 -0.649293,-1.028291 -0.10351,-0.170137 -0.389805,-0.450032 -0.460324,-0.450032 -0.03831,0 -0.368634,0.07106 -0.734041,0.15796 -0.749829,0.178266 -0.702926,0.176132 -2.760227,0.125884 -1.412227,-0.03443 -2.777806,-0.21681 -3.539085,-0.472483 -0.335087,-0.112541 -0.55085,-0.161843 -0.770212,-0.176 l -0.304724,-0.01969 -0.163911,0.164087 c -0.267355,0.26763 -0.428289,0.678018 -0.283921,0.723998 0.02573,0.0077 0.189936,0.06556 0.364903,0.127446 0.174966,0.06193 0.486536,0.164483 0.692379,0.227942 0.205843,0.06347 0.425979,0.131901 0.489194,0.152075 0.06322,0.02013 0.164375,0.03674 0.224803,0.03674 0.06042,0 0.167874,0.01661 0.238771,0.03696 0.177997,0.05104 0.749138,0.144782 1.086943,0.178376 0.154382,0.01529 0.638601,0.01947 1.076043,0.0088 0.437441,-0.0099 0.795326,-0.0066 0.7953,0.0077 -2.6e-5,0.01441 0.04627,0.01144 0.102872,-0.0066 0.156103,-0.0495 1.247536,-0.09889 2.076011,-0.09394 l 0.738037,0.0044 0.28182,0.277189 c 0.155001,0.15246 0.28182,0.291698 0.28182,0.309397 0,0.01771 0.056,0.10241 0.124436,0.188188 0.173901,0.21802 0.376145,0.653819 0.497931,1.072941 0.105743,0.363924 0.14989,0.436161 0.313281,0.512567 0.12448,0.05819 0.152087,0.05786 0.327851,-0.0044 z m -8.842639,-0.742335 c 0.07611,-0.231572 0.170643,-0.49203 0.210075,-0.578799 0.09472,-0.208417 0.402723,-0.646899 0.454403,-0.646899 0.123069,0 -0.04421,-0.04136 -0.458741,-0.113443 -0.257029,-0.04466 -0.513639,-0.08987 -0.570245,-0.10043 l -0.102916,-0.01914 3.7e-5,0.275594 c 7.5e-5,0.407451 0.237441,1.604208 0.318182,1.604208 0.0059,0 0.07308,-0.189475 0.149196,-0.421047 z m -2.496511,-1.160204 c 0.04008,-0.06688 0.09286,-0.204182 0.117293,-0.305063 0.04428,-0.182842 0.12231,-0.360041 0.203535,-0.462176 0.08532,-0.10725 0.22287,-0.233904 0.254108,-0.233904 0.04139,0 0.04122,0.136532 -2.99e-4,0.217657 -0.01773,0.03465 -0.04305,0.113564 -0.05625,0.175318 l -0.02401,0.112277 0.06371,-0.112277 c 0.03505,-0.06171 0.06751,-0.134794 0.07214,-0.162316 0.01023,-0.06083 0.202223,-0.342529 0.234385,-0.343948 0.01264,-4.4e-4 0.106601,-0.07535 0.208806,-0.16632 0.102201,-0.09097 0.249977,-0.195712 0.328384,-0.232892 0.07857,-0.03729 0.151792,-0.10307 0.163135,-0.146685 0.02842,-0.10923 0.37244,-0.426558 0.503077,-0.464024 0.163011,-0.04675 0.438901,-0.03685 0.576734,0.02079 0.06784,0.02838 0.133044,0.0418 0.1449,0.02992 0.01186,-0.01188 0.07715,-0.0011 0.145101,0.02365 0.06795,0.02486 0.266699,0.05247 0.441665,0.06116 0.174966,0.0088 0.469695,0.03586 0.654953,0.06028 0.761837,0.10021 2.203108,0.03014 2.844368,-0.138369 0.185259,-0.04873 0.417157,-0.10901 0.515328,-0.134002 0.242675,-0.06182 0.647922,-0.0275 0.733004,0.06204 0.107008,0.112706 0.03441,0.464882 -0.136164,0.660418 -0.05355,0.06138 -0.04388,0.06556 0.154188,0.06556 0.189223,0 0.22367,-0.01276 0.329467,-0.121638 0.134266,-0.138226 0.318029,-0.518353 0.442543,-0.91542 0.07532,-0.240185 0.0975,-0.273812 0.202039,-0.306152 0.197739,-0.06116 0.445838,-0.09449 0.622678,-0.08371 0.49112,0.03003 0.517509,0.04884 0.637722,0.453827 0.104698,0.352715 0.129409,0.568942 0.07634,0.668096 -0.03423,0.06391 -0.02843,0.08415 0.03358,0.117381 0.04122,0.022 0.100804,0.09009 0.132427,0.151272 0.03163,0.06116 0.0719,0.111166 0.08951,0.111166 0.06177,0 0.266672,-0.240845 0.348502,-0.40964 0.04545,-0.09372 0.102905,-0.296769 0.127679,-0.451154 0.04331,-0.269874 0.04157,-0.286693 -0.04507,-0.436469 -0.174022,-0.30085 -0.264272,-0.378741 -0.494455,-0.426745 -0.28427,-0.05929 -1.667971,-0.06567 -2.047742,-0.0099 -0.164675,0.02442 -0.535191,0.07062 -0.82337,0.10263 -0.288179,0.03212 -0.709221,0.08338 -0.935647,0.113982 -0.386873,0.05236 -0.683832,0.08778 -1.437819,0.171919 -0.193791,0.02167 -0.467471,0.02189 -0.711092,8.8e-4 -0.217828,-0.01892 -0.505522,-0.03586 -0.639319,-0.03784 -0.133798,-0.0022 -0.580102,-0.01287 -0.991787,-0.02431 -0.92196,-0.02563 -0.919192,-0.02574 -1.209019,0.04147 -0.130088,0.03014 -0.274079,0.05489 -0.31998,0.05489 -0.151605,0 -0.736572,0.370018 -1.020323,0.645392 -0.149857,0.145431 -0.269601,0.27445 -0.266095,0.286704 0.0035,0.01221 -0.05486,0.131736 -0.1297,0.26554 -0.180434,0.322575 -0.250548,0.577126 -0.279142,1.013441 -0.03507,0.535172 0.02008,0.680317 0.165966,0.43681 z m 1.812784,-2.83943 c 0.043,-0.02299 0.239355,-0.04576 0.436338,-0.0506 l 0.358148,-0.0088 0.06468,-0.321574 c 0.03557,-0.176869 0.114484,-0.438625 0.175358,-0.581669 l 0.110678,-0.260095 -0.113585,-0.02266 c -0.227147,-0.04543 -0.457809,-0.02365 -0.590765,0.05588 -0.302153,0.180653 -0.586466,0.647581 -0.625685,1.027587 -0.02284,0.221221 0.01387,0.253374 0.184833,0.161876 z m 2.612006,-0.02365 c 2.62e-4,-0.03597 0.04275,-0.139491 0.09444,-0.229922 0.0517,-0.09042 0.08939,-0.167101 0.08375,-0.170379 -0.251787,-0.146795 -0.277082,-0.235378 -0.103796,-0.363495 0.141373,-0.1045 0.142039,-0.143781 0.0024,-0.143781 -0.150487,0 -0.31111,-0.06578 -0.293039,-0.119977 0.0081,-0.02464 0.152865,-0.07491 0.321504,-0.111837 0.168638,-0.03696 0.402718,-0.10098 0.520175,-0.142241 0.117459,-0.04125 0.235196,-0.07502 0.26164,-0.07502 0.09459,0 0.04525,0.118503 -0.125172,0.300707 -0.147258,0.157432 -0.166012,0.193952 -0.124992,0.243375 0.02654,0.03201 0.04608,0.116336 0.04341,0.18744 -0.0026,0.07106 0.0084,0.129283 0.02463,0.129283 0.06949,0 0.453053,-0.126258 0.65289,-0.214907 0.159332,-0.07073 0.227892,-0.08514 0.258523,-0.05456 0.04662,0.04664 -0.02065,0.156717 -0.09633,0.157663 -0.04454,4.4e-4 -0.237047,0.148456 -0.627621,0.482185 l -0.236434,0.202026 0.186372,-0.02563 c 0.60578,-0.08349 0.740163,-0.09988 1.028454,-0.125785 0.293853,-0.0264 0.311267,-0.03245 0.228275,-0.07942 -0.04941,-0.02794 -0.154676,-0.04994 -0.233912,-0.04884 -0.135522,0.0022 -0.144066,-0.0044 -0.144066,-0.110132 0,-0.123563 0.155497,-0.342012 0.341177,-0.479292 0.103213,-0.07634 0.119491,-0.07876 0.177646,-0.02607 0.119884,0.10846 0.346734,0.18051 0.486205,0.154341 l 0.132132,-0.02475 -0.16625,-0.10351 c -0.321867,-0.200332 -0.329958,-0.311828 -0.02338,-0.322179 0.200253,-0.0066 0.466152,-0.135828 0.6235,-0.302643 l 0.118899,-0.12606 -0.08709,-0.03366 c -0.338657,-0.130779 -0.439209,-0.178475 -0.554913,-0.263263 -0.159319,-0.116754 -0.193364,-0.161293 -0.153641,-0.201025 0.01671,-0.01672 0.27284,-0.03894 0.569188,-0.0495 0.296347,-0.011 0.551997,-0.03212 0.568109,-0.04785 0.05215,-0.05115 -0.01078,-0.139733 -0.144488,-0.203522 -0.07184,-0.03421 -0.150966,-0.06226 -0.175841,-0.06226 -0.02487,0 -0.201987,-0.07777 -0.393585,-0.172888 -0.253391,-0.125752 -0.344901,-0.189519 -0.335669,-0.233915 0.0091,-0.04389 0.04682,-0.0583 0.134625,-0.05126 0.167001,0.01331 0.268135,-0.04818 0.268135,-0.163218 0,-0.147466 -0.05985,-0.225368 -0.223463,-0.290829 -0.187975,-0.07524 -0.194006,-0.135795 -0.01352,-0.135795 0.08609,0 0.28743,0.06974 0.539965,0.187132 0.221478,0.10296 0.42075,0.187132 0.442825,0.187132 0.06772,0 0.04484,-0.07359 -0.05343,-0.17182 -0.05146,-0.05148 -0.09357,-0.10703 -0.09357,-0.123486 0,-0.01639 -0.03368,-0.06039 -0.07486,-0.09768 -0.182069,-0.164769 0.0278,-0.165176 0.297425,-4.4e-4 0.403665,0.246422 0.644803,0.557194 0.928058,1.196053 0.191954,0.432938 0.447544,0.818312 0.728284,1.098086 0.217287,0.216546 0.516342,0.414491 0.516342,0.34177 0,-0.10472 -0.156938,-0.551221 -0.242244,-0.689183 -0.213051,-0.344564 -0.479549,-0.92268 -0.586543,-1.272404 -0.343269,-1.122 -0.579162,-1.477146 -1.179082,-1.775158 -0.182188,-0.09053 -0.373354,-0.197021 -0.424814,-0.236698 -0.172232,-0.132825 -0.712249,-0.327338 -0.90875,-0.327338 -0.06884,0 -0.209295,0.04059 -0.312117,0.0902 -0.304987,0.147125 -0.481907,0.182028 -0.693126,0.13673 -0.102047,-0.02189 -0.244329,-0.03982 -0.316181,-0.03982 -0.139737,0 -0.38201,0.10648 -0.46222,0.203115 -0.02687,0.03234 -0.07204,0.05885 -0.100376,0.05885 -0.02834,0 -0.117506,0.06402 -0.198163,0.142318 -0.08066,0.07832 -0.219622,0.18941 -0.308807,0.246962 -0.245099,0.158169 -0.493827,0.482152 -0.721158,0.939345 -0.252781,0.508376 -0.404301,0.879505 -0.359072,0.879505 0.01878,0 0.04455,-0.01683 0.05728,-0.0374 0.03892,-0.06303 0.09254,-0.04158 0.07028,0.02805 -0.04247,0.13288 -0.113137,0.261767 -0.358536,0.653906 -0.348907,0.557557 -0.506966,0.86317 -0.612724,1.184744 -0.09871,0.300146 -0.120669,0.623216 -0.04402,0.647834 0.02573,0.0088 0.152835,0.0088 0.282455,4.4e-4 l 0.235672,-0.01441 0.18461,-0.230494 c 0.10153,-0.126775 0.220137,-0.302082 0.263559,-0.389554 0.08093,-0.163042 0.20888,-0.22704 0.168359,-0.08426 -0.01168,0.04114 -0.03002,0.10604 -0.04074,0.144254 -0.01078,0.03817 -0.03303,0.181753 -0.04957,0.319066 -0.03411,0.283349 -0.04491,0.273086 0.312336,0.296736 0.102916,0.0066 0.199761,0.0154 0.215198,0.01914 0.01544,0.0033 0.02827,-0.02277 0.02852,-0.05874 z m -0.835672,-0.894476 c -0.01407,-0.01408 -0.02557,-0.08052 -0.02557,-0.147719 0,-0.119141 -0.0029,-0.121308 -0.117605,-0.08844 -0.220808,0.06336 -0.246399,-0.03179 -0.04146,-0.154 0.07719,-0.04609 0.225549,-0.176759 0.329686,-0.290488 0.137628,-0.150304 0.206857,-0.200057 0.253481,-0.18216 0.05876,0.02255 0.05944,0.03586 0.0081,0.15862 -0.0308,0.0737 -0.08897,0.180312 -0.12927,0.236918 -0.0403,0.05665 -0.102234,0.177716 -0.137621,0.269159 -0.07413,0.191532 -0.104005,0.233871 -0.139791,0.198077 z m 2.070276,-0.122859 c 0,-0.04257 0.02209,-0.07733 0.04908,-0.07733 0.02699,0 0.08845,-0.03674 0.136574,-0.08151 0.159114,-0.148236 0.921161,-0.525239 1.02867,-0.508904 0.06489,0.0099 0.0539,0.02651 -0.07047,0.10714 -0.08581,0.05555 -0.203357,0.188155 -0.281489,0.317438 l -0.134156,0.221991 -0.281,0.02288 c -0.15455,0.01254 -0.318397,0.03476 -0.364106,0.04928 -0.06756,0.02145 -0.08311,0.01188 -0.08311,-0.05104 z m 4.361008,-0.576598 c -0.113702,-0.151063 -0.206733,-0.290653 -0.206733,-0.310178 0,-0.01958 -0.04984,-0.09383 -0.110757,-0.165088 -0.06092,-0.07128 -0.111441,-0.14267 -0.112278,-0.158675 -8.39e-4,-0.01595 -0.05983,-0.147103 -0.131105,-0.291314 -0.105611,-0.213697 -0.122933,-0.279697 -0.09363,-0.356763 0.04367,-0.114862 0.09668,-0.09042 0.129654,0.05962 0.01346,0.06127 0.03953,0.120725 0.05794,0.132099 0.0184,0.01133 0.100177,0.163031 0.181698,0.336997 0.08152,0.173976 0.223254,0.430122 0.314952,0.569206 0.147595,0.223872 0.247701,0.458733 0.19553,0.458733 -0.01023,0 -0.111564,-0.123607 -0.225268,-0.27467 z m -3.949323,0.02101 c 0,-0.01606 0.02299,-0.06237 0.0511,-0.10296 0.02811,-0.04059 0.06292,-0.111716 0.07737,-0.158026 0.02457,-0.07876 0.01537,-0.08415 -0.142453,-0.08415 -0.09281,0 -0.178233,0.0154 -0.189848,0.03421 -0.01162,0.01881 -0.09056,0.04587 -0.17545,0.06028 -0.08489,0.0143 -0.304512,0.07469 -0.488064,0.134244 -0.183553,0.05951 -0.358219,0.10813 -0.388148,0.10813 -0.09884,0 -0.05665,-0.07216 0.08593,-0.146993 0.07719,-0.04048 0.216135,-0.126632 0.308764,-0.191389 l 0.168416,-0.117733 -0.16656,0.02387 c -0.09161,0.01309 -0.184801,0.03894 -0.207097,0.05753 -0.0559,0.04642 -0.162449,-0.02101 -0.112374,-0.07117 0.05676,-0.05676 0.94279,-0.452353 1.013167,-0.452353 0.04572,0 0.05585,-0.02178 0.03913,-0.08415 -0.01241,-0.04631 -0.02279,-0.1221 -0.02308,-0.168421 -4.86e-4,-0.0803 -0.01452,-0.08415 -0.299919,-0.08415 -0.241188,0 -0.299406,-0.011 -0.299406,-0.0561 0,-0.03685 0.03691,-0.0561 0.107602,-0.0561 0.227242,0 0.339518,-0.04191 0.330928,-0.123541 -0.0063,-0.05951 0.01974,-0.08316 0.113274,-0.10307 0.139907,-0.0297 0.234142,-0.09768 0.234142,-0.168729 0,-0.07865 -0.07987,-0.10989 -0.280694,-0.10989 -0.136973,0 -0.18713,-0.0143 -0.18713,-0.05335 0,-0.03333 0.06999,-0.06919 0.18713,-0.0957 0.235524,-0.05335 0.710144,-0.29601 0.870225,-0.444961 0.09014,-0.08382 0.132625,-0.1023 0.163806,-0.07117 0.05188,0.05192 -0.06489,0.26081 -0.262449,0.469601 -0.108669,0.114851 -0.126161,0.153406 -0.09333,0.205843 0.02222,0.03553 0.08378,0.06974 0.136801,0.07612 0.178577,0.02145 0.224348,0.19965 0.06433,0.250448 -0.08399,0.02662 -0.247113,0.236247 -0.320404,0.411653 l -0.05473,0.130977 h 0.143684 c 0.285092,0 0.403168,0.296121 0.214235,0.537274 -0.127316,0.162503 -0.176275,0.21164 -0.350319,0.351593 -0.142213,0.114356 -0.268576,0.157883 -0.268576,0.09251 z m -1.64674,-1.145684 c 0,-0.131274 0.122275,-0.676203 0.184092,-0.820424 0.149347,-0.348403 0.575029,-0.714098 0.946809,-0.813373 0.08817,-0.02354 0.185555,-0.05544 0.216432,-0.07095 0.03088,-0.01551 0.170253,-0.05082 0.309726,-0.07843 0.22623,-0.04477 0.260092,-0.04367 0.313881,0.0099 0.08554,0.08558 0.03684,0.178376 -0.09357,0.178376 -0.20654,0 -0.773907,0.115632 -0.923012,0.188122 -0.397933,0.193446 -0.732634,0.660616 -0.787128,1.098636 -0.01687,0.135652 -0.05422,0.246961 -0.09731,0.290048 -0.05108,0.05104 -0.06993,0.05588 -0.06993,0.01793 z m 4.24784,-0.987415 c -0.164673,-0.09625 -0.40074,-0.278091 -0.524591,-0.404085 -0.211193,-0.214863 -0.422828,-0.333872 -0.547028,-0.307615 -0.02981,0.0066 -0.05116,-0.02046 -0.05116,-0.06402 0,-0.123035 0.16843,-0.07568 0.687106,0.193314 0.482123,0.250008 0.680055,0.398827 0.777227,0.584375 0.05086,0.09713 0.04323,0.179036 -0.01629,0.174867 -0.01422,-8.91e-4 -0.160594,-0.08052 -0.325268,-0.176814 z M 8.5832387,24.693808 c -0.013893,-0.05467 -0.00704,-0.133573 0.015334,-0.175307 0.022341,-0.04169 0.040612,-0.129459 0.040612,-0.194953 0,-0.13794 0.067001,-0.355674 0.2692779,-0.87505 0.1482569,-0.380677 0.268191,-0.940137 0.2475462,-1.154747 -0.00781,-0.08173 0.00462,-0.120318 0.038863,-0.120318 0.059543,0 0.1733403,0.198495 0.3218513,0.561385 0.125125,0.305756 0.2649427,0.510334 0.3302244,0.483164 0.077055,-0.03212 0.2974845,-0.35475 0.3664515,-0.536437 0.09881,-0.260315 0.162255,-0.223157 0.186823,0.10945 0.01141,0.154385 0.0096,0.297539 -0.0042,0.31812 -0.01371,0.02057 -0.03539,0.117711 -0.04818,0.215842 -0.04799,0.368181 -0.27529,0.597025 -0.6349792,0.639298 -0.111298,0.01309 -0.2623137,0.04884 -0.3355902,0.07942 -0.1920161,0.08019 -0.6148286,0.451044 -0.6978534,0.612029 l -0.070939,0.137544 z M 26.416491,24.397721 c -0.132868,-0.02508 -0.196065,-0.06512 -0.299407,-0.189552 -0.182086,-0.219318 -0.452231,-0.481558 -0.496074,-0.481558 -0.02011,0 -0.114617,-0.05654 -0.210004,-0.125697 -0.09539,-0.06908 -0.217316,-0.136213 -0.270954,-0.149061 -0.105765,-0.0253 -0.280773,-0.258434 -0.338787,-0.451242 -0.04024,-0.133716 -0.143792,-0.782001 -0.143792,-0.900163 0,-0.05236 0.02526,-0.0814 0.07412,-0.08503 0.08523,-0.0066 0.110933,0.02519 0.136529,0.168047 0.04396,0.245267 0.527468,0.832106 0.685601,0.832106 0.07996,0 0.247183,-0.174042 0.299004,-0.311201 0.02189,-0.05797 0.03981,-0.230571 0.03981,-0.383614 0,-0.153043 0.01263,-0.277717 0.02807,-0.277068 0.06362,0.0022 0.159072,0.10538 0.159242,0.171358 1.87e-4,0.07194 0.175601,0.562661 0.3464,0.968946 0.05192,0.123497 0.112245,0.317185 0.134055,0.430397 0.04686,0.243254 0.0807,0.825154 0.04763,0.819269 -0.01266,-0.0022 -0.09881,-0.01837 -0.191436,-0.03586 z M 8.5005561,23.91756 c -0.037334,-0.05973 -0.032846,-0.07403 0.028391,-0.09009 0.078133,-0.02046 0.1530771,0.05324 0.079211,0.07788 -0.024354,0.0077 -0.034771,0.03014 -0.023133,0.04895 0.011638,0.01881 0.00737,0.03421 -0.00946,0.03421 -0.016841,0 -0.050589,-0.03201 -0.074987,-0.07106 z m 2.3008399,-0.230857 c -0.126824,-0.138622 -0.255911,-0.578908 -0.307636,-1.049268 -0.02241,-0.203742 0.01966,-0.407858 0.08406,-0.407858 0.01747,0 0.07194,0.128106 0.121048,0.284691 l 0.08929,0.284702 0.08749,-0.10692 c 0.170311,-0.208153 0.312935,-0.33891 0.459533,-0.4213 0.121471,-0.06831 0.14838,-0.07304 0.14838,-0.02629 0,0.03135 -0.03061,0.08723 -0.06804,0.124025 -0.06729,0.06622 -0.16486,0.221331 -0.327404,0.520487 -0.09678,0.178123 -0.165948,0.492217 -0.1549,0.70345 0.0087,0.165594 -0.03683,0.198132 -0.131822,0.09427 z m 12.802396,0.03058 c -0.125351,-0.10197 -0.210043,-0.281006 -0.234628,-0.495891 -0.03003,-0.262471 -0.15086,-0.661705 -0.250291,-0.82698 -0.07284,-0.121088 -0.06224,-0.164802 0.04001,-0.164802 0.06502,0 0.285748,0.217239 0.484835,0.47718 0.067,0.08745 0.13645,0.15906 0.154325,0.15906 0.03808,0 0.48436,-0.455202 0.484844,-0.494538 3.78e-4,-0.03069 0.312724,-0.328317 0.328251,-0.312796 0.0056,0.0055 -0.01521,0.05907 -0.04633,0.118745 -0.03112,0.05962 -0.05668,0.134134 -0.0568,0.165484 -4.29e-4,0.10593 -0.758507,1.421321 -0.819107,1.421321 -0.01519,0 -0.05348,-0.02101 -0.08511,-0.04675 z M 6.2439288,22.914492 c -0.1337974,-0.02717 -0.3274766,-0.06831 -0.4303981,-0.09152 -0.213135,-0.04807 -0.7029837,-0.272668 -0.769481,-0.352792 -0.024387,-0.02937 -0.060434,-0.05346 -0.080113,-0.05346 -0.019679,0 -0.102883,-0.07161 -0.1849023,-0.15906 -0.1865523,-0.198979 -0.1778557,-0.327393 0.033484,-0.494461 0.1574727,-0.124487 0.4107533,-0.38434 0.6101976,-0.626032 0.3495988,-0.423632 0.5936437,-0.929203 0.6928934,-1.43539 0.100562,-0.51292 0.031262,-1.158708 -0.191609,-1.785521 -0.03476,-0.09779 -0.07986,-0.177782 -0.100199,-0.177782 -0.02035,0 -0.026774,-0.02662 -0.014278,-0.05918 0.015851,-0.04125 -0.098428,-0.178706 -0.3783506,-0.454927 C 5.1080599,16.905532 4.9789517,16.805179 4.7668706,16.708049 4.1095908,16.407012 3.9235269,16.312148 3.9235269,16.278059 c 0,-0.172238 1.3045936,0.286275 1.7403047,0.611644 0.6552702,0.489324 0.9156523,0.774983 1.4901032,1.634721 0.2348962,0.351549 0.5038133,1.175725 0.4578377,1.403172 -0.012518,0.06193 -0.023199,0.143319 -0.023749,0.180895 -8.404e-4,0.05852 -0.01012,0.06127 -0.064372,0.01947 -0.034859,-0.02684 -0.1092081,-0.09977 -0.1652146,-0.161887 -0.086218,-0.0957 -0.107844,-0.10439 -0.1410321,-0.05687 -0.034265,0.04906 -0.044066,0.04785 -0.077803,-0.0099 -0.04653,-0.07898 -0.2220119,-0.08877 -0.2220119,-0.01243 0,0.02915 -0.01804,0.05907 -0.040095,0.06633 -0.023562,0.0077 -0.042856,0.144133 -0.046783,0.330594 -0.00627,0.294976 0.00176,0.331793 0.1133265,0.524799 0.066011,0.114169 0.1703691,0.252439 0.2319119,0.307274 0.1562176,0.139194 0.717848,0.450318 1.1693321,0.647768 0.4785254,0.209286 0.4887433,0.217426 0.4256143,0.339108 -0.054164,0.10439 -0.5429546,0.425711 -0.6476119,0.425711 -0.036443,0 -0.1038951,0.0264 -0.1498938,0.05863 -0.045991,0.03223 -0.1971068,0.09812 -0.3358036,0.146465 -0.6114538,0.213103 -0.9904941,0.262174 -1.3936673,0.180444 z m 3.5554613,-0.356235 c 0,-0.05478 0.015741,-0.10945 0.034969,-0.121286 0.09328,-0.05764 0.1679679,-0.45881 0.1640299,-0.881034 C 9.993109,20.989767 9.8887629,20.631761 9.5129787,19.890493 9.183456,19.240481 9.1067552,19.016234 9.0451761,18.522818 c -0.038951,-0.312125 -0.036278,-0.401302 0.020614,-0.687775 0.10461,-0.526757 0.2984015,-1.10737 0.5108126,-1.530463 0.1640859,-0.326832 0.221375,-0.406406 0.3409957,-0.473638 0.079079,-0.04444 0.1437746,-0.07293 0.1437746,-0.06325 0,0.0099 -0.076329,0.141251 -0.1696258,0.292435 -0.219296,0.355377 -0.3416754,0.749188 -0.393305,1.265627 -0.035266,0.352792 -0.032373,0.45496 0.019371,0.685025 0.098725,0.4389 0.3321824,1.100077 0.4078141,1.154978 0.043098,0.03135 0.1776617,0.41458 0.1538907,0.438362 -0.01012,0.0099 0.0051,0.05423 0.0338,0.09812 0.09092,0.138754 0.21004,0.633435 0.21004,0.872223 0,0.467027 -0.08172,0.986876 -0.229968,1.462879 -0.1486521,0.477312 -0.2939952,0.734855 -0.2939952,0.520949 z m 15.8034449,-0.20702 c -0.06192,-0.138941 -0.125066,-0.311564 -0.140322,-0.383614 -0.01526,-0.07205 -0.04043,-0.147829 -0.05595,-0.16841 -0.106601,-0.141449 -0.480711,-1.684738 -0.56111,-2.314697 -0.08685,-0.680439 -0.09913,-1.085602 -0.06147,-2.026707 0.02538,-0.634139 0.0203,-0.752565 -0.04689,-1.094247 -0.04144,-0.210727 -0.125933,-0.48862 -0.187759,-0.617529 -0.122248,-0.254881 -0.461832,-0.792231 -0.525544,-0.831611 -0.02177,-0.01342 -0.0571,-0.0572 -0.07852,-0.09724 -0.03232,-0.06039 -0.02665,-0.07271 0.03332,-0.07271 0.04828,0 0.195032,0.158356 0.442189,0.47718 0.570414,0.735801 0.811674,1.185767 0.948138,1.768371 0.150825,0.643907 0.195726,1.129832 0.147253,1.59357 -0.02134,0.204215 -0.04577,0.438658 -0.05429,0.520993 -0.0085,0.08228 -0.02942,0.259172 -0.04646,0.392976 -0.01705,0.133793 -0.02913,0.588522 -0.02686,1.010493 0.0041,0.747318 0.0073,0.778173 0.12534,1.188671 0.06666,0.231792 0.15206,0.492833 0.189774,0.580107 0.112276,0.259798 0.125728,0.327074 0.0654,0.327074 -0.03016,0 -0.102938,-0.110583 -0.166236,-0.252626 z m 2.273266,-0.06809 c -0.05146,-0.0088 -0.212206,-0.04301 -0.357214,-0.07513 -0.145006,-0.03212 -0.27974,-0.05368 -0.299407,-0.04796 -0.05092,0.01496 -0.525844,-0.135905 -0.775128,-0.246158 -0.178629,-0.07898 -0.289842,-0.178882 -0.289842,-0.260337 0,-0.011 0.164477,-0.10406 0.365506,-0.207273 0.622729,-0.319869 1.490027,-1.185734 1.559699,-1.557127 0.03247,-0.173096 -0.07644,-0.46057 -0.184901,-0.488015 -0.124458,-0.03157 -0.339166,0.06809 -0.526904,0.24442 l -0.177601,0.166804 0.02518,-0.214247 c 0.01385,-0.117832 0.102234,-0.403414 0.196416,-0.634635 0.09418,-0.231209 0.190838,-0.471042 0.214795,-0.532961 0.02396,-0.06193 0.08531,-0.179806 0.13633,-0.261976 0.05103,-0.08217 0.101552,-0.166243 0.112278,-0.186835 0.266899,-0.512072 0.755575,-1.055109 1.360885,-1.512258 0.300757,-0.227139 0.76295,-0.454113 0.915606,-0.449636 0.05546,0.0022 0.07979,0.01144 0.05407,0.02178 -0.02573,0.0099 -0.04678,0.04994 -0.04678,0.088 0,0.03806 -0.103048,0.158675 -0.229152,0.268224 -0.427124,0.37103 -0.667992,0.789536 -0.929429,1.614888 -0.181858,0.574123 -0.224302,1.010097 -0.149754,1.538241 0.04782,0.338778 0.185442,0.775841 0.277749,0.882079 0.02683,0.03091 0.102289,0.151943 0.167696,0.269038 0.123471,0.221045 0.270915,0.372845 0.571363,0.588225 0.161048,0.115445 0.366378,0.365838 0.366378,0.446776 0,0.06699 -0.210305,0.263274 -0.363724,0.339471 -0.279274,0.138688 -0.597635,0.190916 -1.264303,0.207394 -0.349932,0.0088 -0.678344,0.0077 -0.729805,-9.24e-4 z M 6.7304655,16.486366 c 0,-0.07788 0.5203408,-0.647482 0.7536101,-0.824978 l 0.1967406,-0.14971 -0.2412631,-0.01221 c -0.2244748,-0.01133 -0.4339236,0.01694 -0.8026525,0.10868 -0.082335,0.02046 -0.258819,0.06182 -0.392182,0.09185 -0.133364,0.03003 -0.3186227,0.07931 -0.411686,0.10945 -0.2200309,0.07128 -0.4565518,0.08833 -0.4756027,0.03432 -0.023155,-0.06556 0.2175888,-0.188837 0.6544066,-0.334983 0.2197481,-0.07348 0.4208117,-0.151327 0.446808,-0.172898 0.025993,-0.02156 0.047267,-0.02992 0.047267,-0.01848 0,0.01133 0.054736,0.0044 0.1216336,-0.01639 0.8342841,-0.254309 2.0889774,-0.553014 2.3901332,-0.569008 0.2226158,-0.01177 0.6987641,0.02937 0.7327816,0.06336 0.033055,0.03311 -0.095678,0.211112 -0.1526239,0.211112 -0.093599,0 -1.761702,0.853501 -2.0603036,1.054174 -0.453166,0.304535 -0.736162,0.480282 -0.7733981,0.480282 -0.018513,0 -0.033671,-0.02453 -0.033671,-0.05456 z M 2.496292,15.94477 C 2.3597193,15.90781 2.1543108,15.824067 2.0398282,15.758562 1.8162686,15.630654 1.193355,15.036973 1.2595596,15.014907 c 0.021967,-0.0077 0.030679,-0.03751 0.019316,-0.06699 -0.026917,-0.07018 0.064471,-0.0693 0.3254274,0.0033 0.556819,0.154484 0.9702298,0.131725 1.3154143,-0.07238 0.088935,-0.05258 0.1971288,-0.111342 0.2404193,-0.130537 0.103653,-0.04598 0.3316237,-0.312257 0.4675947,-0.546194 0.2137938,-0.367829 0.2538349,-0.532829 0.2787115,-1.148511 0.022374,-0.553806 0.01991,-0.581592 -0.073348,-0.826287 C 3.6636628,11.782765 3.4044687,11.453458 2.9130128,11.05836 2.7792154,10.95078 2.6276408,10.821046 2.5761795,10.770039 2.4621557,10.657014 1.9890181,10.379022 1.7982957,10.313 c -0.2015552,-0.06974 -0.1838474,-0.154374 0.02937,-0.140294 0.3994266,0.0264 1.3232969,0.299255 1.5599191,0.460735 0.086042,0.05874 0.1662089,0.10681 0.1781395,0.10681 0.011935,0 0.1604724,0.08987 0.3300902,0.199782 0.1696179,0.10989 0.4065282,0.262482 0.5264678,0.339119 0.3316347,0.211915 0.8489417,0.693902 1.1378908,1.060213 0.2211375,0.280335 0.2599763,0.351692 0.2652948,0.487432 0.00341,0.08745 -0.00792,0.159016 -0.025124,0.159016 -0.041107,0 -0.1376739,-0.113553 -0.1670846,-0.196482 -0.012771,-0.03597 -0.039831,-0.06556 -0.060126,-0.06556 -0.020295,0 -0.081466,-0.04455 -0.1359336,-0.099 -0.068772,-0.06875 -0.107371,-0.08558 -0.1263273,-0.05489 -0.015015,0.02431 -0.055561,0.03333 -0.090101,0.02002 -0.091487,-0.03509 -0.3036848,0.0781 -0.4272478,0.228063 -0.1738011,0.210848 -0.2524797,0.531367 -0.2524797,1.028556 0,0.404008 0.00693,0.443982 0.1122781,0.652047 0.061754,0.121913 0.1586838,0.26807 0.215402,0.324808 0.106524,0.10648 0.1510102,0.110946 0.62668,0.06204 0.069344,-0.0066 0.096063,0.0099 0.103213,0.06523 0.00704,0.05478 -0.042966,0.10714 -0.1871298,0.195547 -0.108229,0.06633 -0.2860539,0.178266 -0.3951641,0.248633 -0.234894,0.151481 -0.6816745,0.346335 -1.1496652,0.501391 -0.2854467,0.0946 -0.3980944,0.112167 -0.729805,0.113927 -0.2657479,0.0011 -0.4723423,-0.01958 -0.6405708,-0.06501 z m 23.968042,-0.09504 c -0.07005,-0.125169 -0.653644,-0.68596 -1.002203,-0.963039 -0.83162,-0.661089 -1.066638,-0.892551 -1.066638,-1.050478 0,-0.114213 1.169513,0.236544 1.756768,0.526878 0.17301,0.08558 0.654119,0.418396 0.713342,0.493537 0.01034,0.01309 0.0945,0.07535 0.187129,0.138556 0.223588,0.152438 0.748518,0.671979 0.748518,0.74085 0,0.08074 -0.118129,0.02585 -0.547422,-0.254408 -0.34336,-0.224158 -0.963216,-0.545655 -1.16991,-0.606782 -0.08232,-0.02431 -0.0873,-0.01848 -0.06361,0.0759 0.01412,0.05632 0.110023,0.198154 0.2131,0.31526 0.203191,0.230835 0.418169,0.578182 0.38091,0.615439 -0.04106,0.04103 -0.118393,0.02475 -0.149976,-0.03179 z m 2.655605,-0.224466 c -0.610143,-0.137885 -1.12722,-0.390929 -1.454731,-0.711931 -0.244398,-0.239536 -0.313069,-0.341715 -0.313069,-0.465839 0,-0.110121 0.0847,-0.09559 0.177954,0.03058 0.100056,0.135322 0.251552,0.189497 0.411133,0.147015 0.165939,-0.04422 0.439549,-0.338239 0.572873,-0.615692 0.100221,-0.208571 0.110793,-0.267388 0.114342,-0.63624 0.0046,-0.477357 -0.02223,-0.654633 -0.12823,-0.847364 -0.08786,-0.159764 -0.201892,-0.205535 -0.354511,-0.142318 -0.128885,0.05335 -0.489039,0.395208 -0.529956,0.502986 -0.02987,0.07865 -0.03138,0.07832 -0.07621,-0.01826 -0.03954,-0.08525 -0.03006,-0.142714 0.07,-0.42438 0.211284,-0.594748 0.653659,-1.229173 1.148958,-1.647745 0.335786,-0.283778 0.433067,-0.368599 0.498596,-0.43472 0.0949,-0.09581 0.361013,-0.259611 0.787717,-0.4850227 1.376014,-0.7268911 1.499035,-0.7809342 1.499035,-0.6584711 0,0.02739 -0.03789,0.07084 -0.0842,0.09658 -0.284931,0.158191 -0.890767,1.1587398 -1.282378,2.1178848 -0.212513,0.520487 -0.318693,0.813032 -0.311255,0.857571 0.0037,0.02233 -0.01258,0.10824 -0.03625,0.190839 -0.05471,0.190927 -0.06964,0.644688 -0.03077,0.935155 0.03411,0.254881 0.217448,0.633336 0.348376,0.719114 0.04727,0.03102 0.07704,0.07073 0.06616,0.08833 -0.03314,0.05368 0.3348,0.216546 0.57727,0.255596 0.307997,0.04961 0.568701,0.02266 0.843379,-0.08723 0.125917,-0.05038 0.276459,-0.10021 0.334535,-0.110737 0.05808,-0.011 0.130241,-0.0396 0.160366,-0.06457 0.04357,-0.03619 0.06663,-0.03355 0.112738,0.01254 0.05234,0.05236 0.01853,0.09757 -0.348068,0.465773 -0.34133,0.342826 -0.459708,0.435413 -0.742866,0.581009 -0.487072,0.250437 -0.875645,0.351912 -1.474096,0.384945 -0.205756,0.01133 -0.40716,-0.0011 -0.556833,-0.0352 z M 7.0502862,12.847884 c -0.041283,-0.164472 -0.052415,-1.277573 -0.015653,-1.565344 0.060181,-0.471152 0.1359138,-1.160005 0.1285152,-1.168926 -0.00396,-0.0044 -0.064955,0.0077 -0.1355035,0.02805 -0.2029809,0.05819 -1.4246686,0.04422 -1.9079921,-0.02178 -0.4503203,-0.0616 -1.2988649,-0.2631637 -1.5489422,-0.3680047 -0.10593,-0.04444 -0.1355981,-0.07304 -0.106249,-0.1023001 0.029348,-0.02937 0.1541848,-0.01265 0.4469598,0.05984 0.3713677,0.09196 0.4543605,0.09922 0.967042,0.08514 0.7641294,-0.0209 1.2377961,-0.1270391 2.2575436,-0.5056481 0.109835,-0.04081 0.2445663,-0.10725 0.2994068,-0.147752 0.054846,-0.04048 0.1617793,-0.09405 0.2376397,-0.1190421 0.075867,-0.02497 0.1432288,-0.06039 0.1497034,-0.07865 0.014751,-0.04158 0.89872,-0.4916011 0.9212964,-0.4690291 0.00913,0.0088 -0.092906,0.1983521 -0.2266881,0.4205411 C 8.3835854,9.1171792 8.2299704,9.3868112 8.1759989,9.4941602 7.9072688,10.028639 7.5210412,11.099599 7.4028131,11.638104 c -0.02486,0.113212 -0.067254,0.290048 -0.094215,0.392964 -0.06006,0.229273 -0.1257278,0.592086 -0.1383503,0.764357 -0.01166,0.159137 -0.085129,0.191268 -0.1199627,0.05247 z M 25.717709,12.196288 c -0.0241,-0.04972 -0.05394,-0.174581 -0.0663,-0.277508 -0.01236,-0.10296 -0.03739,-0.262911 -0.05563,-0.355542 -0.01824,-0.09262 -0.05084,-0.266321 -0.07247,-0.385968 -0.02163,-0.119647 -0.123052,-0.464904 -0.225405,-0.767228 C 25.195557,10.107718 25.073522,9.7340483 25.026716,9.5796632 24.979911,9.4252782 24.83413,9.0884471 24.702758,8.8311461 24.475068,8.385195 24.419831,8.288802 24.146215,7.8599559 c -0.09963,-0.156134 -0.109956,-0.192313 -0.06549,-0.229218 0.04063,-0.03377 0.06658,-0.03234 0.112642,0.0055 0.142844,0.118547 1.049494,0.3494921 1.830162,0.4661911 0.330173,0.04939 0.5673,0.05687 1.19763,0.03806 0.432269,-0.01287 0.852909,-0.03091 0.934755,-0.03993 0.149144,-0.0165 0.208954,-0.02541 0.487428,-0.07315 0.209733,-0.03586 0.831182,-0.1628331 1.0105,-0.2063931 0.201719,-0.04895 0.205843,-0.0484 0.205843,0.03223 0,0.2629001 -3.142254,1.1282702 -4.093979,1.1274672 l -0.295248,-2.64e-4 0.02488,0.2152041 c 0.01368,0.11836 0.04083,0.31625 0.06031,0.439758 0.09399,0.5956608 0.229247,2.0817058 0.216887,2.3829738 -0.0097,0.235246 -0.01633,0.256872 -0.05482,0.177507 z m -5.289362,-0.522984 c 0,-0.02178 0.01684,-0.02926 0.03742,-0.0165 0.02058,0.01276 0.03742,0.03058 0.03742,0.0396 0,0.0088 -0.01684,0.0165 -0.03742,0.0165 -0.02059,0 -0.03742,-0.01782 -0.03742,-0.0396 z M 0.80925918,9.4960852 C 0.67981226,9.2442842 0.54370043,8.9537631 0.50678113,8.8504951 0.3249885,8.341954 0.15736277,7.5489309 0.10319546,6.9411368 0.08299946,6.7147127 0.04874545,6.3820067 0.02704245,6.2018157 -0.03779156,5.6635416 0.01846245,4.6130084 0.14763987,3.9481023 0.27942869,3.2699852 0.52103383,2.382142 0.66733496,2.038337 0.82803838,1.6606959 1.2341298,0.85942274 1.2648209,0.85942274 c 0.05478,0 0.048235,0.22705106 -0.017237,0.59881816 -0.030811,0.174966 -0.056056,0.406538 -0.056089,0.5146131 -2.64e-5,0.10802 -0.014718,0.196482 -0.032714,0.196482 -0.017952,0 -0.044319,0.315777 -0.058597,0.7017341 -0.020427,0.5526841 -0.013442,0.7852021 0.033022,1.0947092 0.10615,0.7076851 0.153626,0.8557671 0.4979283,1.5531673 0.2314334,0.468787 0.3390365,0.6066391 0.9637805,1.2346732 0.6784284,0.6820001 1.4982531,1.1194921 2.671939,1.4258532 0.5275216,0.137698 0.9141914,0.167431 1.4261975,0.10967 0.1132142,-0.01276 0.2647888,-0.02948 0.3368333,-0.03729 0.07205,-0.0077 0.189937,-0.03828 0.2619815,-0.06798 0.2482998,-0.10219 0.3368333,-0.110627 0.3368333,-0.03223 0,0.07271 -0.1785246,0.144826 -0.5658258,0.228558 -0.095073,0.02057 -0.2155847,0.05357 -0.2678116,0.07348 C 6.6815419,8.496801 6.2037832,8.5657161 5.7386911,8.6059761 5.4067649,8.6346861 4.5624092,8.5775961 4.1254209,8.496746 3.8789779,8.451206 3.1881503,8.220712 2.9158266,8.093189 2.3539047,7.8300579 1.6121009,7.3055118 1.223165,6.8962568 L 1.0116185,6.6736607 0.96593551,6.8635428 c -0.025113,0.10439 -0.053449,0.324588 -0.062931,0.4892251 -0.00946,0.164648 -0.033154,0.318505 -0.052558,0.341913 -0.079816,0.09614 0.069608,1.4987283 0.21004719,1.9716403 0.030855,0.1039501 0.0561,0.2111121 0.0561,0.2382491 0,0.1322417 -0.092686,0.0088 -0.30731791,-0.4084851 z M 32.189396,8.5271501 c 0.0097,-0.09009 0.04559,-0.2628671 0.07979,-0.3839221 0.1264,-0.4473481 0.145544,-1.2449252 0.04547,-1.8944753 -0.03646,-0.2367091 -0.07299,-0.4808981 -0.08114,-0.5426301 -0.0081,-0.06171 -0.03397,-0.1978021 -0.05738,-0.3023681 l -0.04255,-0.190135 -0.472656,0.4752441 c -0.503617,0.5063741 -0.728203,0.6685801 -1.408303,1.0171921 -0.379632,0.1945901 -0.693431,0.3128071 -1.503159,0.5662691 -0.310487,0.09724 -1.288659,0.2005741 -1.505118,0.1590821 -0.05394,-0.0099 -0.224386,-0.02882 -0.378768,-0.04103 -0.449025,-0.03553 -0.667344,-0.1150271 -0.573459,-0.2089121 0.01963,-0.01958 0.08115,-0.02024 0.146786,-0.0011 0.25127,0.07205 1.305327,-0.05115 1.763761,-0.206096 0.497245,-0.168113 1.193478,-0.5650591 1.731837,-0.9874042 0.730715,-0.5732211 1.131248,-0.9852151 1.369687,-1.4088252 0.129401,-0.2299 0.319918,-0.7432261 0.393819,-1.0611152 0.02154,-0.09262 0.04705,-0.202092 0.05669,-0.243265 0.08063,-0.3440471 0.09581,-1.3769363 0.03069,-2.0874044 -0.01471,-0.160435 -0.20509,-0.97388517 -0.26365,-1.12648819 -0.01756,-0.04576001 -0.0014,-0.0606100127 0.06486,-0.0597300126 0.125398,0.0022000026 0.173374,0.0504900126 0.4222,0.4292090726 0.121709,0.18526203 0.266217,0.40419507 0.321128,0.48653008 0.182583,0.27379005 0.256805,0.44524715 0.388806,0.89822715 0.231419,0.7941342 0.354343,2.4988484 0.23479,3.2560556 -0.03249,0.205843 -0.06854,0.5005661 -0.0801,0.6549511 -0.01156,0.154385 -0.03029,0.3985851 -0.04165,0.5426741 -0.03579,0.4545091 -0.195225,1.3736472 -0.288888,1.6654553 -0.189844,0.5914701 -0.389255,0.9266621 -0.353521,0.5942311 z"
       id="path847" />
  </g>
</svg>
