<?xml version="1.0" encoding="UTF-8" standalone="no"?>
<svg
   xmlns:dc="http://purl.org/dc/elements/1.1/"
   xmlns:cc="http://creativecommons.org/ns#"
   xmlns:rdf="http://www.w3.org/1999/02/22-rdf-syntax-ns#"
   xmlns:svg="http://www.w3.org/2000/svg"
   xmlns="http://www.w3.org/2000/svg"
   xmlns:sodipodi="http://sodipodi.sourceforge.net/DTD/sodipodi-0.dtd"
   xmlns:inkscape="http://www.inkscape.org/namespaces/inkscape"
   width="33mm"
   height="33mm"
   viewBox="0 0 33 33"
   version="1.1"
   id="svg8"
   inkscape:version="1.0.2 (e86c8708, 2021-01-15)"
   sodipodi:docname="angel3_33.svg">
  <defs
     id="defs2" />
  <sodipodi:namedview
     id="base"
     pagecolor="#ffffff"
     bordercolor="#666666"
     borderopacity="1.0"
     inkscape:pageopacity="0.0"
     inkscape:pageshadow="2"
     inkscape:zoom="4.0095683"
     inkscape:cx="18.737329"
     inkscape:cy="76.630971"
     inkscape:document-units="mm"
     inkscape:current-layer="layer1"
     inkscape:document-rotation="0"
     showgrid="false"
     inkscape:window-width="1731"
     inkscape:window-height="1067"
     inkscape:window-x="72"
     inkscape:window-y="25"
     inkscape:window-maximized="0" />
  <metadata
     id="metadata5">
    <rdf:RDF>
      <cc:Work
         rdf:about="">
        <dc:format>image/svg+xml</dc:format>
        <dc:type
           rdf:resource="http://purl.org/dc/dcmitype/StillImage" />
        <dc:title></dc:title>
      </cc:Work>
    </rdf:RDF>
  </metadata>
  <g
     inkscape:label="Layer 1"
     inkscape:groupmode="layer"
     id="layer1">
    <path
       style="fill:#000000;stroke-width:0.0563652"
       d="m 12.563051,32.883838 c -0.139503,-0.07401 -0.418511,-0.275313 -0.620017,-0.447335 l -0.366373,-0.312769 -0.02853,0.406962 -0.02853,0.406961 -0.04637,-0.479104 c -0.04239,-0.438002 -0.211506,-1.63952 -0.381403,-2.709792 -0.07668,-0.483056 -0.04704,-0.674922 0.1297,-0.839583 0.121073,-0.112796 0.121769,-0.123921 0.05584,-0.893693 -0.05036,-0.587959 -0.122441,-0.979205 -0.293385,-1.592388 -0.455548,-1.634069 -0.520931,-1.958981 -0.494773,-2.458707 0.02168,-0.414236 0.05248,-0.519367 0.297223,-1.014573 0.161805,-0.327393 0.28328,-0.656996 0.298187,-0.80908 0.0311,-0.317294 -0.08188,-0.769574 -0.380283,-1.52237 -0.126215,-0.318405 -0.280045,-0.796636 -0.341846,-1.062734 -0.10719,-0.461528 -0.285553,-1.812406 -0.245386,-1.858486 0.0105,-0.01205 0.04278,0.03868 0.07173,0.11273 0.02895,0.07405 0.161275,0.236096 0.294054,0.360099 0.156139,0.14582 0.207945,0.175686 0.146657,0.08455 -0.290986,-0.432708 -0.408454,-0.677089 -0.472663,-0.983342 -0.08125,-0.387525 -0.08936,-0.855453 -0.02058,-1.186717 0.03225,-0.155331 0.03828,-0.06767 0.01939,0.281825 -0.01508,0.279008 -0.0033,0.569806 0.02612,0.646218 0.05214,0.135301 0.05542,0.133091 0.125351,-0.08454 0.03949,-0.122913 0.201334,-0.443159 0.359642,-0.711656 0.252528,-0.428299 0.30082,-0.481224 0.393723,-0.431505 0.05824,0.03117 0.202404,0.04747 0.320365,0.03622 0.117962,-0.01125 0.20243,-9.64e-4 0.187709,0.02286 -0.01472,0.02382 -0.07511,0.04331 -0.134189,0.04331 -0.09034,0 -0.224117,0.147079 -0.224117,0.246404 0,0.0156 0.09888,0.02699 0.21974,0.02532 0.409462,-0.0057 0.687364,0.253028 0.698625,0.6503 0.01011,0.356817 -0.359084,0.684768 -0.544402,0.483578 -0.04935,-0.05358 -0.0405,-0.06115 0.03877,-0.03316 0.16544,0.05842 0.320017,-0.05966 0.320017,-0.244477 0,-0.416521 -0.27513,-0.600023 -0.629995,-0.420186 -0.427718,0.216758 -0.61004,0.527442 -0.61004,1.039534 0,0.619809 0.346391,1.048303 0.838452,1.037184 l 0.246619,-0.0056 -0.133888,0.102958 c -0.206978,0.159164 -0.647751,0.140665 -0.911028,-0.03824 l -0.211473,-0.1437 0.03594,0.242339 c 0.01977,0.133285 0.09839,0.394524 0.174718,0.580529 0.34784,0.847635 0.637046,1.632805 0.637046,1.729528 0,0.150021 0.145615,0.187056 0.31055,0.07898 0.330385,-0.216476 0.589312,-0.844195 0.590623,-1.431848 6.33e-4,-0.286997 -0.0047,-0.29776 -0.126152,-0.253643 -0.06975,0.02534 -0.279007,0.04438 -0.465013,0.04232 -0.400345,-0.0044 -0.725286,-0.151852 -0.920897,-0.417788 -0.165789,-0.225391 -0.111914,-0.298223 0.06677,-0.09027 0.109387,0.127301 0.191559,0.159494 0.465302,0.18229 0.272971,0.02273 0.377757,0.0043 0.585644,-0.103226 0.361849,-0.187096 0.507742,-0.431951 0.507742,-0.852149 v -0.338191 l 0.128642,0.191523 c 0.15118,0.225077 0.386831,0.280777 0.552725,0.130646 0.123119,-0.111421 0.144082,-0.410668 0.03729,-0.532282 -0.03875,-0.04413 -0.01339,-0.03259 0.05636,0.02564 0.09432,0.07875 0.126822,0.166121 0.126822,0.340962 0,0.237853 -0.100803,0.383508 -0.361296,0.522054 -0.103665,0.05513 -0.103021,0.05973 0.0174,0.124181 0.0694,0.03714 0.197771,0.05095 0.288477,0.03103 0.188932,-0.04149 0.506343,-0.37618 0.506343,-0.533897 0,-0.05909 0.02536,-0.123118 0.05636,-0.142278 0.117258,-0.07247 0.0597,0.457535 -0.07045,0.648773 -0.25429,0.373631 -0.597645,0.502573 -0.98278,0.369068 -0.108964,-0.03777 -0.127804,-0.01823 -0.162928,0.168996 -0.06215,0.331286 0.0146,1.18391 0.172721,1.918682 0.210275,0.977159 0.180278,0.946338 0.427627,0.439359 0.119356,-0.244635 0.379858,-0.678413 0.578894,-0.96395 0.280905,-0.402987 0.38351,-0.607412 0.458535,-0.913558 0.05316,-0.216919 0.08784,-0.41974 0.07707,-0.45071 -0.01142,-0.03284 -0.121971,-0.01035 -0.265288,0.05399 -0.135139,0.06066 -0.338054,0.108118 -0.450922,0.105454 -0.186284,-0.0044 -0.191912,-0.0089 -0.06101,-0.0486 0.427838,-0.129823 0.705495,-0.387859 0.81533,-0.75771 0.124768,-0.420142 0.102792,-0.71995 -0.08928,-1.218011 -0.136084,-0.352879 -0.227004,-0.495287 -0.430674,-0.674565 -0.141995,-0.124989 -0.303834,-0.227253 -0.359641,-0.227253 -0.05581,0 -0.114557,-0.02118 -0.130555,-0.04706 -0.04729,-0.07652 0.428969,0.01851 0.635798,0.126874 l 0.190627,0.09987 -0.03997,-0.160299 c -0.06197,-0.248551 -0.210154,-0.533962 -0.293912,-0.566104 -0.09403,-0.03608 -0.490199,0.118911 -0.720504,0.28189 l -0.172346,0.121965 0.181407,-0.230347 c 0.09977,-0.126692 0.32025,-0.337465 0.489947,-0.468387 0.169698,-0.130921 0.317852,-0.265967 0.329231,-0.300104 0.01138,-0.03414 0.07652,0.03757 0.144771,0.159354 0.58066,1.036162 0.738193,1.632121 0.736444,2.786035 -10e-4,0.679615 -0.02224,0.845257 -0.198508,1.550043 -0.108546,0.434012 -0.293172,1.080803 -0.410282,1.437312 -0.485647,1.478424 -0.512382,1.654254 -0.342816,2.254608 0.07706,0.272828 0.129951,0.662597 0.149152,1.099122 0.02893,0.657702 0.02327,0.701288 -0.205049,1.578225 -0.129141,0.496014 -0.282403,1.043418 -0.340582,1.216454 -0.129609,0.385479 -0.20378,0.861484 -0.249595,1.601806 -0.01918,0.310008 -0.07267,0.842659 -0.118868,1.183668 -0.04619,0.341009 -0.106364,0.81025 -0.133713,1.042757 -0.03938,0.334817 -0.04869,0.167892 -0.04473,-0.802607 0.0027,-0.673941 -0.0082,-1.238556 -0.02436,-1.2547 -0.04727,-0.04727 -0.224573,0.389322 -0.302126,0.743943 l -0.07151,0.326973 -0.0058,-0.289713 c -0.005,-0.252551 0.176588,-1.314094 0.243303,-1.422039 0.08692,-0.140645 0.440952,-1.672744 0.447489,-1.936561 0.0072,-0.290218 -0.0094,-0.340227 -0.164911,-0.495924 -0.0951,-0.09523 -0.228262,-0.177328 -0.295917,-0.182424 -0.219644,-0.01655 -0.129803,-0.098 0.108088,-0.098 0.188261,0 0.267095,0.036 0.425303,0.194206 l 0.194205,0.194205 0.06363,-0.151931 c 0.035,-0.08356 0.07352,-0.456304 0.08561,-0.828314 0.01904,-0.586138 0.0029,-0.750647 -0.121107,-1.23299 -0.135771,-0.52816 -0.399251,-1.106037 -0.523115,-1.147325 -0.120028,-0.04001 -0.376229,0.852841 -0.464676,1.619381 -0.0304,0.263508 -0.09295,0.732748 -0.138993,1.042756 -0.123452,0.831251 -0.17271,1.696301 -0.09918,1.741745 0.0932,0.0576 0.279318,-0.08454 0.359657,-0.274687 0.03966,-0.09386 0.0721,-0.302153 0.0721,-0.462869 0,-0.259224 0.0077,-0.278314 0.06846,-0.169096 0.03765,0.06771 0.06936,0.259943 0.07045,0.427176 0.0016,0.247703 -0.04763,0.409636 -0.265737,0.873661 l -0.267734,0.5696 -0.0018,0.874571 c -0.0012,0.607858 -0.0253,0.931329 -0.07888,1.060683 l -0.07709,0.18611 -0.118395,-0.328873 c -0.06512,-0.180881 -0.164736,-0.404934 -0.221375,-0.497896 -0.108407,-0.177932 -0.476519,-0.452059 -0.532232,-0.396346 -0.03651,0.03651 0.0954,1.389942 0.156927,1.610001 0.02673,0.09562 0.0521,-0.02215 0.07893,-0.366373 0.05208,-0.668179 0.05127,-0.663749 0.124371,-0.688084 0.04099,-0.01365 0.08697,0.172907 0.130807,0.530798 0.144988,1.183666 0.277758,1.887631 0.376612,1.996864 0.126272,0.139528 0.469253,0.352145 0.507065,0.314333 0.01595,-0.01595 -0.03632,-0.157925 -0.116165,-0.31549 -0.274242,-0.541192 -0.374092,-1.181333 -0.276446,-1.772308 0.04819,-0.291676 0.130219,-0.154553 0.13135,0.219574 0.0011,0.367687 0.124745,0.782936 0.404446,1.358409 0.166895,0.343375 0.219269,0.515208 0.206019,0.675912 -0.02191,0.265725 -0.103024,0.285288 -0.440507,0.106241 z m -0.809976,-1.031211 c -0.01565,-0.05425 -0.04574,-0.295578 -0.06686,-0.536283 -0.02112,-0.240704 -0.06075,-0.451456 -0.08807,-0.468339 -0.05712,-0.0353 -0.06897,1.008805 -0.01209,1.065684 0.07882,0.07882 0.195114,0.03631 0.16702,-0.06106 z m 0.257973,-3.835285 c -0.0091,-0.546437 -0.0244,-1.001389 -0.03402,-1.011004 -0.05746,-0.05746 -0.277313,0.698084 -0.301266,1.035354 -0.02494,0.351144 -0.0096,0.443718 0.120158,0.727239 0.0818,0.178681 0.167392,0.306214 0.190196,0.283404 0.0228,-0.02281 0.03402,-0.488556 0.02493,-1.034993 z m -0.261131,-1.38996 c 0.310953,-0.673018 0.383304,-1.030755 0.382419,-1.89086 -5.71e-4,-0.560012 -0.03232,-0.907999 -0.120242,-1.317915 -0.111312,-0.51899 -0.381722,-1.206471 -0.448344,-1.13985 -0.04944,0.04944 -0.41503,0.944206 -0.528389,1.293208 -0.0619,0.190576 -0.1069,0.489305 -0.1069,0.709641 0,0.362035 0.04136,0.558579 0.360362,1.712527 0.07552,0.273176 0.154532,0.621935 0.175587,0.775022 0.02105,0.153087 0.05023,0.278339 0.06484,0.278339 0.01461,0 0.113908,-0.18905 0.220665,-0.420112 z m 0.904028,-3.750912 c 0.114441,-0.383156 0.110326,-0.620742 -0.01488,-0.859008 l -0.09655,-0.183748 -0.04047,0.140914 c -0.02226,0.0775 -0.04262,0.419919 -0.04523,0.760929 -0.0051,0.665781 0.03237,0.69257 0.197142,0.140913 z m 0.892182,-0.297106 c 0.119736,-0.270744 0.283253,-1.048152 0.231377,-1.100028 -0.01191,-0.01191 -0.05318,0.03759 -0.09173,0.109998 -0.03854,0.07241 -0.140778,0.220425 -0.227185,0.328928 -0.188322,0.236477 -0.277673,0.586249 -0.205185,0.803204 0.07545,0.225817 0.144929,0.192089 0.292723,-0.142102 z m -1.317078,-0.393367 c 0.0023,-0.100754 0.0123,-0.233916 0.02221,-0.295918 0.06044,-0.378181 0.08056,-0.76093 0.03999,-0.76093 -0.02603,0 -0.08127,0.06341 -0.122749,0.140913 -0.04148,0.0775 -0.09015,0.141825 -0.108163,0.14294 -0.01801,0.0011 -0.104935,0.06108 -0.193162,0.133252 l -0.160415,0.131226 0.09869,0.190847 c 0.129669,0.250757 0.316249,0.500857 0.37365,0.500857 0.02517,0 0.04765,-0.08243 0.04995,-0.183187 z m -4.5769588,2.677346 c -0.070112,-0.0894 -0.068122,-0.09139 0.021281,-0.02128 0.054251,0.04255 0.098642,0.08693 0.098642,0.09864 0,0.04639 -0.046291,0.01653 -0.1199201,-0.07736 z M 7.2442286,24.295225 C 6.9279733,23.860727 6.0954176,22.186145 5.8583194,21.507639 5.6537921,20.922345 5.4759125,20.318269 5.4042816,19.965737 5.2428824,19.171409 5.1244983,18.443322 5.0673808,17.893714 5.0009791,17.254734 4.9743884,15.133301 5.0304898,14.949606 5.0481603,14.891755 5.1020617,14.575181 5.150278,14.2461 5.4232911,12.382851 6.6265124,9.4691653 7.7416326,7.9709552 8.2088617,7.3432128 8.5046325,7.0571544 8.7584031,6.9875706 9.3650599,6.8212262 9.6218576,6.9680101 9.7956592,7.580471 9.8898612,7.9124397 9.5273232,8.4469817 9.2079678,8.4469817 9.062205,8.4469817 8.794355,8.2517146 8.8556796,8.190158 8.8781806,8.167567 8.9289116,8.175148 8.9684106,8.206998 9.1815611,8.3788579 9.5272062,7.9168928 9.3978648,7.6330204 9.253861,7.3169662 8.8618948,7.4103456 8.6701768,7.8063819 8.5778144,7.9971849 8.5488706,8.1645183 8.5469136,8.5190895 c -0.0043,0.7845575 0.2466954,1.416993 0.7319761,1.8441525 0.2490435,0.219218 0.4493557,0.297987 0.3945773,0.155162 -0.01647,-0.04295 0.024701,-0.0736 0.1054867,-0.07851 l 0.1325105,-0.0081 -0.1256093,0.102314 -0.1256093,0.102314 0.1658094,0.06345 c 0.091192,0.0349 0.268746,0.05589 0.394556,0.04665 l 0.228747,-0.0168 -0.0027,-0.254942 -0.0027,-0.254941 0.305234,-0.120825 c 0.167877,-0.06645 0.276908,-0.0925 0.242292,-0.05788 -0.07438,0.07438 -0.08297,0.597866 -0.01166,0.710472 0.03779,0.05967 0.08617,0.02289 0.203905,-0.155005 0.180625,-0.272943 0.247921,-0.311995 0.100288,-0.0582 -0.153976,0.264701 -0.665879,0.709165 -0.904653,0.785473 -0.333453,0.106564 -0.347629,0.166588 -0.03983,0.168657 0.270356,0.0018 0.275512,0.0049 0.166277,0.09928 -0.5219615,0.45101 -0.9900957,1.491478 -0.9815725,2.181632 l 0.0035,0.281827 0.097552,-0.394556 C 9.7482229,13.163495 10.067066,12.55409 10.393424,12.192578 l 0.252039,-0.279187 -0.121517,0.338191 c -0.06683,0.186005 -0.143328,0.362976 -0.169986,0.393269 -0.02666,0.03029 -0.01948,-0.02807 0.01594,-0.129698 0.09952,-0.285484 0.03324,-0.26407 -0.187302,0.06051 -0.2749313,0.404632 -0.415262,0.736284 -0.4948841,1.169594 -0.1242692,0.676279 -0.1257282,0.678652 -0.193039,0.313986 l -0.061692,-0.334213 -0.099543,0.587857 c -0.054751,0.32332 -0.11529,0.886217 -0.1345315,1.250879 -0.019241,0.364663 -0.044761,0.653246 -0.056712,0.641296 -0.01195,-0.01195 -0.041561,-0.31031 -0.065802,-0.663023 l -0.044081,-0.641296 -0.1003256,0.223184 c -0.074062,0.164749 -0.094663,0.323396 -0.078702,0.605926 0.027661,0.489522 -0.045121,0.499551 -0.097183,0.01339 -0.059551,-0.556102 -0.01009,-0.858854 0.1972802,-1.207508 0.1009646,-0.169752 0.194124,-0.372667 0.2070194,-0.450921 0.1312974,-0.796708 0.3511291,-1.509527 0.6475499,-2.099719 0.1203211,-0.239568 0.2187667,-0.450589 0.2187667,-0.468933 0,-0.01834 -0.054701,-0.02525 -0.1215552,-0.01534 -0.2258219,0.03346 -0.8135812,1.356937 -1.0843723,2.441715 -0.2239028,0.896944 -0.2542536,2.666122 -0.060432,3.522824 0.1492999,0.659924 0.1450558,0.710431 -0.023271,0.276883 C 8.4695396,17.053109 8.371838,16.260787 8.408892,15.080688 l 0.031521,-1.003727 -0.3341487,0.335187 c -0.1837818,0.184352 -0.3341478,0.36439 -0.3341478,0.400083 0,0.07764 0.2300691,0.398523 0.2857345,0.398523 0.021491,0 0.073592,-0.120481 0.115787,-0.267735 l 0.076712,-0.267735 0.018041,0.422739 c 0.0099,0.232506 0.0021,0.531631 -0.017481,0.66472 l -0.035511,0.241982 -0.2623348,-0.2661 c -0.2578208,-0.26152 -0.2629939,-0.263744 -0.3005729,-0.129251 -0.021031,0.07527 -0.040401,0.428539 -0.043041,0.785049 l -0.0048,0.648199 0.2599478,-0.412805 c 0.1429717,-0.227042 0.2785702,-0.39191 0.3013298,-0.366374 0.022761,0.02554 0.072492,0.312758 0.1105079,0.638266 0.039261,0.336125 0.1387206,0.79275 0.230203,1.056848 0.088592,0.255756 0.1502289,0.465013 0.1369696,0.465013 -0.044581,0 -0.2911066,-0.532266 -0.4170829,-0.900504 -0.1946291,-0.568913 -0.190163,-0.567454 -0.4188459,-0.13679 l -0.2053144,0.386654 0.087602,0.480323 c 0.097553,0.534852 0.2635589,1.166806 0.4297162,1.635811 0.1722125,0.486095 0.026361,0.251941 -0.1726405,-0.277155 C 7.7409745,19.064012 7.4768696,18.07252 7.3778481,17.475057 l -0.068462,-0.413043 -0.1427188,0.21003 c -0.1323744,0.194807 -0.1400386,0.241083 -0.1057497,0.638503 0.020331,0.235662 0.049261,0.504568 0.064292,0.59757 l 0.027321,0.169095 -0.083732,-0.180254 C 7.0227468,18.397815 6.9388466,18.052622 6.8823551,17.729857 L 6.7796444,17.14301 6.9095028,16.953494 c 0.071422,-0.104234 0.1296994,-0.202915 0.1295034,-0.219289 -1.98e-4,-0.01637 -0.076292,-0.07298 -0.1690964,-0.125792 l -0.1687384,-0.09601 v 0.367046 c 0,0.363964 0.061932,1.04243 0.1743975,1.910501 0.081642,0.630143 0.3498522,1.677729 0.5863004,2.289971 0.1097758,0.284247 0.1905209,0.525884 0.1794326,0.536972 C 7.6180913,21.640112 7.2679002,20.854509 7.0972387,20.396356 6.7666281,19.508807 6.5450403,18.339438 6.4350625,16.901885 6.4058417,16.519985 6.3859012,16.464207 6.227853,16.322311 6.1316705,16.235959 5.9832197,16.122613 5.8979675,16.070434 5.7735872,15.994312 5.7429634,15.93408 5.7429634,15.765584 c 0,-0.2358 0.066672,-0.311872 0.1671784,-0.190762 0.036971,0.04455 0.1510049,0.130431 0.2534066,0.190849 l 0.1861848,0.109852 0.034481,-0.318291 c 0.018961,-0.175061 0.048451,-0.495841 0.065522,-0.712848 0.042531,-0.540525 0.1269353,-1.070636 0.2261279,-1.420281 0.074812,-0.263718 0.073892,-0.31602 -0.0092,-0.523716 -0.050781,-0.126907 -0.1028207,-0.220242 -0.11565,-0.207412 -0.01283,0.01283 -0.1108569,0.273866 -0.2178367,0.580081 -0.2390862,0.684349 -0.2525296,0.567602 -0.028271,-0.245508 0.2636928,-0.956089 0.2850684,-1.023894 0.3319096,-1.052842 0.024301,-0.01502 0.090162,0.100551 0.1463638,0.256827 0.071782,0.199607 0.1164441,0.261624 0.150139,0.208461 0.079812,-0.125926 0.055971,-0.361677 -0.065132,-0.644211 -0.1072798,-0.250273 -0.1198382,-0.26071 -0.191163,-0.15888 -0.1542991,0.220292 -0.919848,2.761367 -0.8522752,2.82894 0.0108,0.0108 0.1426637,-0.09575 0.2930306,-0.236787 0.1503679,-0.141031 0.2893035,-0.256851 0.308746,-0.257377 0.01944,-5.06e-4 0.022501,0.113072 0.0068,0.252438 -0.024571,0.217982 -0.078022,0.304083 -0.382457,0.616107 l -0.3538962,0.362712 -0.034951,0.412559 -0.034951,0.412558 0.3397809,0.218295 c 0.3304646,0.212311 0.3397798,0.225059 0.3397798,0.465013 0,0.135696 -0.01371,0.246719 -0.030461,0.246719 -0.01676,0 -0.1052187,-0.05527 -0.1965851,-0.122819 -0.091362,-0.06755 -0.1844828,-0.104454 -0.2069264,-0.08201 -0.022441,0.02244 -0.041781,0.318156 -0.042971,0.657136 -0.0026,0.72925 -0.069792,0.581954 -0.1237692,-0.271165 -0.02018,-0.318883 -0.054751,-0.59095 -0.076822,-0.604594 -0.061022,-0.03771 -0.1250092,1.425125 -0.079812,1.824604 l 0.039721,0.351128 0.1105389,-0.185666 c 0.2561807,-0.430294 0.575366,-0.890231 0.6177991,-0.890231 0.025111,0 0.045231,0.12048 0.044711,0.267734 -7.55e-4,0.21658 -0.049601,0.348506 -0.2556426,0.690474 l -0.2547026,0.422739 0.3125601,0.04875 c 0.2545686,0.03971 0.3167443,0.07108 0.3351097,0.169095 0.188936,1.008336 0.2482285,1.360924 0.2316461,1.377507 -0.01598,0.01598 -0.2761682,-0.771074 -0.343869,-1.040179 -0.009,-0.03566 -0.1258773,-0.0819 -0.2597898,-0.102757 -0.1339114,-0.02085 -0.2878634,-0.05045 -0.3421149,-0.06578 -0.082282,-0.02324 -0.098643,0.01 -0.098643,0.200208 0,0.275128 0.3787049,1.763329 0.6180321,2.42869 0.3346658,0.930411 0.9411416,2.213632 1.185183,2.507683 0.040091,0.04831 0.062842,0.0979 0.050541,0.110194 -0.01229,0.01229 -0.1455088,-0.146846 -0.2960297,-0.353645 z m 0.077082,-8.563042 c 1.24e-4,-0.364261 0.038851,-0.900459 0.086062,-1.191552 0.047211,-0.291092 0.073992,-0.541101 0.059522,-0.555575 -0.01448,-0.01447 -0.1093529,0.05129 -0.2108415,0.146138 -0.1014897,0.09485 -0.1943891,0.162591 -0.2064434,0.150537 -0.01205,-0.01205 -0.0042,-0.150391 0.01735,-0.307413 0.035171,-0.255752 0.067632,-0.307511 0.3114872,-0.496804 0.2859064,-0.221932 0.3404749,-0.330505 0.6161161,-1.225882 0.066802,-0.217007 0.1582001,-0.474484 0.2030993,-0.572171 0.044901,-0.09768 0.081642,-0.195973 0.081642,-0.218412 0,-0.02244 0.066652,-0.18932 0.1481169,-0.370847 0.1407906,-0.313724 0.1435137,-0.33707 0.055061,-0.472061 -0.051181,-0.07811 -0.1114889,-0.141953 -0.1340255,-0.141879 -0.083062,2.86e-4 -0.3746278,0.644781 -0.3802099,0.840458 -0.0072,0.251029 -0.1420937,0.540355 -0.2520016,0.540355 -0.116292,0 -0.2028363,0.274338 -0.1347095,0.427017 0.048501,0.108702 0.088342,0.05601 0.3494671,-0.462171 0.1620962,-0.321675 0.2769732,-0.534134 0.2552807,-0.472133 -0.021691,0.062 -0.1629013,0.485645 -0.3137982,0.94143 C 7.6608137,12.93057 7.5792456,13.11267 7.515488,13.088205 7.470037,13.070765 7.417635,12.995885 7.3990419,12.921797 7.3411499,12.691153 7.2815338,12.770625 7.1512384,13.252114 c -0.3422719,1.264807 -0.4145568,1.927788 -0.2285419,2.096129 0.1053777,0.09536 0.1108739,0.09155 0.1703474,-0.118086 0.033801,-0.119147 0.082642,-0.318089 0.1085229,-0.442092 0.030011,-0.143751 0.037041,0.02988 0.019401,0.479104 -0.01521,0.387511 -0.036271,0.714443 -0.046781,0.726516 -0.01052,0.01207 -0.1079108,-0.04577 -0.2164296,-0.128541 L 6.7604499,15.714651 6.722799,15.864676 c -0.025411,0.101253 -0.01216,0.164708 0.040771,0.195186 0.043131,0.02484 0.1657844,0.110286 0.2725601,0.189885 0.1067758,0.0796 0.2145746,0.144726 0.2395523,0.144726 0.024981,0 0.045511,-0.298031 0.045641,-0.66229 z M 8.333116,13.60743 C 8.331716,13.57476 8.297145,13.471938 8.256284,13.378935 L 8.181992,13.20984 8.0820794,13.548031 c -0.054951,0.186005 -0.1129669,0.376237 -0.1289193,0.422739 -0.01595,0.0465 0.063582,-0.0029 0.1767446,-0.109696 C 8.2430666,13.75424 8.33451,13.6401 8.333112,13.60743 Z m 0.4703093,-1.057951 c -0.041021,-0.07839 -0.4160269,0.144269 -0.3839151,0.227951 0.017,0.0443 0.060432,0.197766 0.096523,0.341027 l 0.065612,0.260478 0.1214471,-0.394556 c 0.066792,-0.217006 0.111946,-0.412712 0.100333,-0.4349 z m 0.057592,-0.496627 c 0.1344295,-0.07931 0.230173,-0.202216 0.3132301,-0.402073 0.1485899,-0.357548 0.1487209,-0.354185 -0.01672,-0.429566 -0.1305124,-0.05946 -0.1461818,-0.04321 -0.3663736,0.380025 -0.3138251,0.603211 -0.3032229,0.671741 0.069862,0.451614 z M 7.336019,11.378393 C 7.38464,11.254622 7.401871,11.139417 7.37431,11.122383 7.346749,11.105353 7.293488,10.988896 7.2559439,10.863599 c -0.061892,-0.206587 -0.055582,-0.251009 0.067722,-0.476738 0.074792,-0.136908 0.153304,-0.248924 0.1744766,-0.248924 0.021171,0 0.055641,0.101457 0.076592,0.22546 0.020951,0.124004 0.056512,0.225461 0.079012,0.225461 0.022511,0 0.1342355,-0.167883 0.2482834,-0.373073 C 8.0770083,9.9009726 8.103896,9.8083542 8.0742082,9.6227013 8.0436674,9.4317144 7.9411048,9.2536567 7.9411048,9.3916243 c 0,0.027201 -0.089252,0.1491769 -0.1983352,0.2710611 -0.2334571,0.2608518 -0.6009917,0.8662876 -0.7070225,1.1646716 -0.065092,0.183164 -0.062412,0.236166 0.020751,0.410559 0.052521,0.110135 0.095493,0.23743 0.095493,0.282881 0,0.156363 0.095782,0.08224 0.1840279,-0.142404 z m 9.642241,12.512651 c 0.07607,-0.139504 0.250716,-0.456558 0.388098,-0.704565 0.619076,-1.117585 1.318139,-2.89254 1.189253,-3.019571 -0.02532,-0.02495 -0.16538,-0.01976 -0.311247,0.01154 -0.19551,0.04195 -0.275126,0.08918 -0.302922,0.179705 -0.05469,0.178095 -0.472927,1.014656 -0.540447,1.081004 -0.03155,0.031 -0.01422,-0.04509 0.0385,-0.169096 0.05272,-0.124004 0.187496,-0.48839 0.299494,-0.809747 0.111998,-0.321357 0.22974,-0.591905 0.261649,-0.601218 0.03191,-0.0093 0.130379,-0.03287 0.21882,-0.05235 0.150867,-0.03323 0.158464,-0.04832 0.122951,-0.24426 -0.02082,-0.114862 -0.09485,-0.335662 -0.164522,-0.490666 -0.112024,-0.249241 -0.119683,-0.314384 -0.06623,-0.563418 l 0.06043,-0.281592 0.174919,0.394322 c 0.0962,0.216878 0.219796,0.53118 0.274644,0.698449 0.07197,0.219483 0.112734,0.280875 0.146475,0.220582 0.08313,-0.148555 0.273082,-0.908104 0.331772,-1.326675 0.07968,-0.568279 0.1358,-2.044656 0.07768,-2.043623 -0.02639,4.51e-4 -0.231872,0.153252 -0.456628,0.339518 -0.306109,0.253686 -0.408648,0.373692 -0.408648,0.478251 0,0.182053 0.02722,0.177046 0.31369,-0.05769 0.132413,-0.108503 0.257042,-0.197278 0.276953,-0.197278 0.04352,0 -0.01555,0.636557 -0.117305,1.264139 l -0.07377,0.454999 0.01159,-0.544862 c 0.0064,-0.299672 -0.0037,-0.560111 -0.0223,-0.578751 -0.01864,-0.01864 -0.142431,0.06243 -0.275096,0.180163 -0.229245,0.203435 -0.249236,0.247055 -0.403066,0.879445 -0.174882,0.718936 -0.580657,1.853439 -1.000654,2.797717 -0.242756,0.545788 -0.86473,1.657389 -0.960465,1.716557 -0.0226,0.01397 0.129437,-0.322153 0.337872,-0.746939 0.604661,-1.232296 0.91346,-2.181692 1.262777,-3.882389 0.249021,-1.212387 0.249249,-1.221927 0.02383,-0.996508 -0.168774,0.168774 -0.171752,0.180032 -0.08331,0.315013 0.08678,0.132448 0.08265,0.165668 -0.07667,0.617069 -0.204047,0.578108 -0.409332,1.034042 -0.376104,0.835319 0.01296,-0.0775 0.06911,-0.389998 0.124776,-0.694436 0.07606,-0.41595 0.08568,-0.578389 0.03874,-0.653565 -0.124522,-0.199391 0.02365,-0.613494 0.328666,-0.918504 0.284882,-0.284883 0.376372,-0.497084 0.165704,-0.384339 -0.06027,0.03226 -0.125182,0.08388 -0.144238,0.114714 -0.124343,0.20119 -0.144681,-0.237852 -0.0444,-0.958512 l 0.03529,-0.253643 0.04796,0.306349 c 0.02638,0.168493 0.06236,0.320679 0.07995,0.338191 0.0176,0.01751 0.08054,-0.02804 0.139875,-0.101224 0.127475,-0.157238 0.144675,-0.763202 0.05062,-1.78335 -0.09001,-0.976321 -0.369508,-2.194434 -0.526816,-2.296019 -0.162797,-0.105129 0.42406,-0.02511 0.724987,0.09885 0.409138,0.168541 0.434457,0.170126 0.253642,0.01587 -0.08946,-0.07632 -0.104894,-0.107151 -0.04227,-0.08444 0.05425,0.01967 0.09735,0.01754 0.09578,-0.0047 -0.008,-0.113022 -0.597725,-1.38679 -0.650195,-1.40428 -0.03358,-0.01119 -0.08745,0.03743 -0.119718,0.10806 -0.04637,0.101499 -0.025,0.221388 0.101958,0.572059 0.08834,0.244006 0.205662,0.478688 0.26071,0.521516 0.09374,0.07293 0.09294,0.07544 -0.01264,0.03967 -0.062,-0.02101 -0.163458,-0.07052 -0.225461,-0.110019 -0.062,-0.0395 -0.222588,-0.08935 -0.356859,-0.110788 -0.155095,-0.02476 -0.217715,-0.05529 -0.171701,-0.08373 0.05865,-0.03625 0.05777,-0.07216 -0.0046,-0.188743 l -0.07705,-0.143979 -0.08283,0.118265 c -0.07018,0.100193 -0.07092,0.126555 -0.0049,0.172514 0.155734,0.108386 -0.485872,-0.01838 -0.790884,-0.156267 L 16.039188,10.9812 16.288006,10.822355 c 0.292532,-0.186752 0.677792,-0.593086 0.816467,-0.8611278 0.382765,-0.7398393 0.301385,-1.8920464 -0.141631,-2.0052664 -0.336719,-0.086052 -0.566934,0.055102 -0.566934,0.3476021 0,0.2169917 0.0875,0.3125452 0.286198,0.3125452 0.162525,0 0.249108,-0.074942 0.293034,-0.2536437 0.02111,-0.085892 0.02926,-0.075822 0.03425,0.042271 0.01621,0.384298 -0.558573,0.5246316 -0.802959,0.1960431 -0.263117,-0.3537773 -0.03928,-0.9043936 0.456872,-1.1238664 0.57405,-0.2539296 0.954026,0.082742 1.606717,1.4235892 0.63124,1.2967797 0.866412,1.9997637 1.168219,3.4920707 0.255004,1.260888 0.280316,1.471404 0.318533,2.649165 0.04065,1.252655 -0.01338,1.905788 -0.263541,3.18601 -0.390311,1.997441 -1.536652,4.625647 -2.507039,5.747873 l -0.146218,0.169095 z m 1.841327,-8.10072 c 0,-0.04167 -0.03805,-0.09037 -0.08455,-0.108215 -0.06488,-0.0249 -0.08455,-0.132012 -0.08455,-0.460592 v -0.428148 l 0.231439,0.222809 0.231439,0.222809 -0.03418,-0.422739 c -0.08476,-1.048438 -0.375842,-2.592799 -0.488694,-2.592799 -0.06313,0 -0.334704,0.336089 -0.333701,0.412973 4.52e-4,0.03637 0.02258,0.100399 0.04912,0.142283 0.03596,0.05674 0.06798,0.0316 0.125628,-0.09864 0.04255,-0.09613 0.09269,-0.17479 0.111415,-0.17479 0.04384,0 0.2137,1.271325 0.246283,1.843273 0.02485,0.436216 0.0246,0.437189 -0.03351,0.129509 -0.163212,-0.864144 -0.23413,-1.131233 -0.294665,-1.109763 -0.03532,0.01253 -0.05545,0.07077 -0.04473,0.129438 0.01072,0.05866 0.03249,0.685817 0.04838,1.393672 l 0.02889,1.287008 0.162994,-0.156158 c 0.08964,-0.08588 0.162995,-0.190255 0.162995,-0.23193 z m -0.620018,-3.848701 c 0,-0.031 -0.02686,-0.05636 -0.05969,-0.05636 -0.03283,0 -0.04401,0.02536 -0.02486,0.05636 0.01916,0.031 0.04602,0.05636 0.05969,0.05636 0.01367,0 0.02486,-0.02536 0.02486,-0.05636 z m -1.718061,7.468388 c 0.08816,-0.276972 0.304019,-1.148939 0.336984,-1.361248 0.02769,-0.178352 0.0083,-0.28885 -0.08155,-0.465012 -0.06483,-0.127088 -0.127952,-0.23107 -0.140259,-0.23107 -0.01231,0 -0.115879,0.280606 -0.230159,0.623568 -0.114279,0.342962 -0.218785,0.612564 -0.232234,0.599116 -0.01345,-0.01345 0.06527,-0.37151 0.174939,-0.79569 0.109665,-0.42418 0.199391,-0.85865 0.199391,-0.965489 0,-0.106839 0.025,-0.194252 0.05555,-0.194252 0.03055,0 0.133672,0.154753 0.229152,0.343895 0.09548,0.189142 0.182234,0.334987 0.19279,0.324099 0.03876,-0.03997 0.140717,-1.245329 0.109598,-1.295682 -0.01769,-0.02862 -0.172888,0.07658 -0.344887,0.233776 -0.172,0.157199 -0.323066,0.275477 -0.335701,0.262841 -0.01263,-0.01264 -0.0062,-0.128135 0.01439,-0.256663 0.03053,-0.190951 0.09862,-0.290403 0.372337,-0.54381 l 0.334969,-0.310121 -0.112875,-0.182371 c -0.06208,-0.100305 -0.188563,-0.254779 -0.28107,-0.343275 -0.134657,-0.128821 -0.175782,-0.226283 -0.20625,-0.488794 -0.03414,-0.294118 -0.02302,-0.350009 0.107881,-0.542654 0.08026,-0.11812 0.146325,-0.253265 0.1468,-0.300319 7.75e-4,-0.07581 0.0071,-0.07592 0.0555,-10e-4 0.07074,0.109462 0.07177,0.5158 0.0018,0.699903 -0.04527,0.119083 -0.03075,0.16932 0.08511,0.294331 0.07683,0.0829 0.157116,0.133324 0.178399,0.11204 0.02128,-0.02128 0.0102,-0.295533 -0.02464,-0.609443 -0.0679,-0.611821 -0.125939,-0.712552 -0.53255,-0.924254 -0.08305,-0.04324 -0.164136,-0.13597 -0.180186,-0.206064 -0.01605,-0.07009 -0.01727,0.06279 -0.0027,0.295296 0.09029,1.442081 0.09022,1.641175 -8.99e-4,2.473223 -0.08409,0.767905 -0.317577,1.896169 -0.409331,1.97798 -0.0184,0.01641 -0.01719,-0.03358 0.0027,-0.111084 0.183811,-0.716839 0.183164,-1.342456 -0.0018,-1.723218 -0.09651,-0.198692 -0.101484,-0.270482 -0.04853,-0.700485 l 0.059,-0.479103 0.01451,0.33819 c 0.01845,0.430079 0.05566,0.591835 0.136139,0.591835 0.129016,0 -0.03853,-2.095802 -0.213031,-2.664757 -0.03317,-0.108167 -0.28896,-0.300052 -0.336543,-0.252468 -0.01597,0.01597 0.0091,0.266707 0.05579,0.557196 0.141773,0.882731 0.16588,1.409531 0.09162,2.002278 -0.0953,0.760756 -0.146833,0.804277 -0.123946,0.104675 0.0105,-0.321099 -0.0078,-0.756958 -0.04062,-0.968574 -0.09782,-0.630198 -0.243191,-1.213718 -0.289975,-1.163986 -0.02405,0.02556 -0.06011,0.287442 -0.08013,0.58195 -0.06451,0.948833 -0.119786,1.068677 -0.142976,0.310009 -0.01137,-0.372011 -0.01288,-0.790523 -0.0033,-0.930026 0.0095,-0.139504 0.02033,-0.408941 0.024,-0.59875 0.0047,-0.243424 0.02663,-0.337448 0.0744,-0.319115 0.0938,0.03599 0.202966,0.390121 0.171311,0.555712 -0.03656,0.191283 0.04324,0.170619 0.127596,-0.03304 0.04202,-0.101444 0.05584,-0.260185 0.03435,-0.394556 -0.03653,-0.228476 0.002,-0.278356 0.122265,-0.158125 0.09696,0.09696 0.130785,0.03297 0.0901,-0.170427 -0.03646,-0.182313 -0.197348,-0.247654 -0.280101,-0.113758 -0.02557,0.04137 -0.107232,-0.01373 -0.228787,-0.154388 -0.218855,-0.253248 -0.243512,-0.342413 -0.0622,-0.224933 0.125003,0.08099 0.47265,0.178549 0.803204,0.225386 0.093,0.01318 0.181778,0.02606 0.197278,0.02863 0.0155,0.0026 0.0331,0.06172 0.03912,0.131457 0.01983,0.22995 0.177287,0.862259 0.181863,0.730332 l 0.0045,-0.129199 0.253644,0.148646 c 0.175636,0.10293 0.253345,0.125328 0.252676,0.07283 -0.0013,-0.102609 -0.201081,-0.86599 -0.245386,-0.937677 -0.03619,-0.05856 0.504709,-0.122583 0.575874,-0.06816 0.02027,0.0155 0.04326,0.167686 0.05109,0.338191 0.0078,0.170505 0.07294,0.588109 0.144685,0.92801 l 0.130446,0.618001 0.106343,-0.180023 c 0.210869,-0.356972 0.279899,0.20588 0.07658,0.624379 l -0.119546,0.246061 0.152958,0.231134 c 0.11911,0.179989 0.144571,0.269306 0.115065,0.403646 -0.04515,0.205565 -0.08753,0.215538 -0.194176,0.04569 l -0.07963,-0.126823 -0.0381,0.14125 c -0.02096,0.07769 -0.04292,0.316411 -0.04881,0.530499 -0.01007,0.366107 -0.06869,0.712792 -0.339135,2.005598 -0.12984,0.62068 -0.414448,1.509493 -0.576339,1.799865 -0.06166,0.110604 -0.09597,0.150371 -0.07624,0.08837 z m -4.162707,-1.869446 c -0.02067,-0.02067 -0.03597,-0.09042 -0.034,-0.155004 0.0033,-0.107973 0.0079,-0.106557 0.05757,0.01758 0.0552,0.137994 0.04375,0.204749 -0.02357,0.137427 z M 9.9747008,17.376167 c 0.0027,-0.06566 0.016061,-0.07902 0.034051,-0.03405 0.01628,0.04069 0.01428,0.0893 -0.0044,0.108033 -0.01873,0.01873 -0.032051,-0.01456 -0.029601,-0.07398 z m -0.056361,-0.22546 c 0.0027,-0.06566 0.01606,-0.07902 0.034051,-0.03405 0.01628,0.04069 0.01428,0.0893 -0.0044,0.108034 -0.018731,0.01873 -0.032051,-0.01456 -0.029601,-0.07398 z m 2.4237032,-0.112731 c 0.0027,-0.06566 0.01606,-0.07902 0.03405,-0.03405 0.01628,0.04069 0.01428,0.0893 -0.0044,0.108034 -0.01873,0.01873 -0.03205,-0.01456 -0.0296,-0.07398 z M 9.866424,16.845395 c 0,-0.0775 0.01279,-0.109208 0.028431,-0.07046 0.01564,0.03875 0.01564,0.102162 0,0.140913 -0.01564,0.03875 -0.028431,0.007 -0.028431,-0.07045 z m 2.531984,-0.03288 c 0.0027,-0.06566 0.01606,-0.07902 0.03405,-0.03405 0.01628,0.04069 0.01428,0.0893 -0.0044,0.108034 -0.01873,0.01873 -0.03205,-0.01456 -0.0296,-0.07398 z M 8.9037659,16.643418 c 0.0027,-0.06566 0.01606,-0.07902 0.034051,-0.03405 0.01628,0.04069 0.01428,0.0893 -0.0045,0.108034 -0.018731,0.01873 -0.032051,-0.01456 -0.029601,-0.07398 z M 12.286052,16.47902 c 0.0059,-0.106768 0.09981,-0.286552 0.103081,-0.197278 0.0017,0.0465 -0.02149,0.122594 -0.05154,0.169095 -0.03005,0.0465 -0.05324,0.05918 -0.05154,0.02818 z M 8.8518505,16.338107 c 0,-0.0775 0.01279,-0.109207 0.028431,-0.07045 0.01564,0.03875 0.01564,0.102161 0,0.140912 -0.01564,0.03875 -0.028431,0.007 -0.028431,-0.07045 z m 4.1621245,-0.584933 c 0,-0.0117 0.04439,-0.05609 0.09864,-0.09864 0.0894,-0.07011 0.09139,-0.06811 0.02128,0.02128 -0.07363,0.09389 -0.11992,0.123748 -0.11992,0.07736 z m 1.158202,-0.190089 c -0.07689,-0.116253 -0.168786,-0.294615 -0.20422,-0.396359 -0.05541,-0.159108 -0.07689,-0.174881 -0.153556,-0.112731 -0.04902,0.03974 0.02715,-0.07127 0.169265,-0.246701 0.451044,-0.556758 0.600516,-1.156107 0.489763,-1.963829 -0.08594,-0.6268 -0.10194,-0.712918 -0.161525,-0.869638 -0.115695,-0.304299 -0.04123,-0.628544 0.09431,-0.410673 0.02479,0.03985 0.161529,0.166426 0.303862,0.281283 l 0.258787,0.208831 -0.07787,0.437372 c -0.130578,0.733429 -0.305038,1.487181 -0.443204,1.914848 -0.163662,0.506591 -0.223057,1.008392 -0.143686,1.213963 0.08293,0.214801 0.03343,0.193651 -0.131925,-0.05636 z m -3.386945,0.09489 c -0.02043,-0.03306 -0.02506,-0.0722 -0.01029,-0.08698 0.01477,-0.01477 0.04188,0.01228 0.06024,0.06011 0.03811,0.09932 0.0056,0.116792 -0.04995,0.02686 z m 0.06188,-0.177888 c -0.106945,-0.152685 -0.107559,-0.210192 -0.0037,-0.347358 0.07323,-0.09673 0.07747,-0.08793 0.04727,0.09816 -0.02061,0.126978 -0.0064,0.236628 0.03739,0.289443 0.03881,0.04676 0.05621,0.08502 0.03867,0.08502 -0.01754,0 -0.07137,-0.05637 -0.119632,-0.125272 z m 0.352238,-0.170644 c 0.242074,-0.430419 0.361972,-0.845764 0.342181,-1.185378 -0.01861,-0.319291 0.09597,-0.632576 0.177841,-0.486278 0.0245,0.04378 0.07163,0.231727 0.104734,0.417661 0.117962,0.662556 -0.07057,1.270663 -0.456012,1.470857 -0.308043,0.159995 -0.350215,0.105799 -0.168744,-0.216862 z m 1.5328,0.255847 c 0,-0.03237 0.04439,-0.09367 0.09864,-0.136216 0.09124,-0.07155 0.09244,-0.0689 0.01595,0.03537 -0.04548,0.062 -0.08986,0.123299 -0.09864,0.136215 -0.0088,0.01292 -0.01595,-0.003 -0.01595,-0.03537 z m -0.731021,-0.10084 c 0,-0.031 0.02459,-0.09441 0.05464,-0.140913 0.03005,-0.0465 0.05464,-0.05918 0.05464,-0.02818 0,0.031 -0.02459,0.09441 -0.05464,0.140913 -0.03005,0.0465 -0.05464,0.05918 -0.05464,0.02818 z m 0.508867,-0.514333 c -0.0018,-0.251881 -0.01934,-0.543572 -0.03894,-0.6482 -0.0294,-0.15697 -0.02251,-0.177913 0.03945,-0.119776 0.0413,0.03875 0.158794,0.07046 0.261097,0.07046 0.207695,0 0.227814,0.05289 0.09641,0.253438 -0.04928,0.0752 -0.149247,0.308935 -0.222154,0.519394 l -0.132557,0.382654 -0.0033,-0.457967 z m -2.032454,0.147959 c 0.03318,-0.062 0.07301,-0.112731 0.08851,-0.112731 0.0155,0 10e-4,0.05073 -0.03215,0.112731 -0.03318,0.062 -0.07301,0.11273 -0.08851,0.11273 -0.0155,0 -10e-4,-0.05073 0.03215,-0.11273 z m 1.636318,0.08454 c 0,-0.031 0.02459,-0.09441 0.05464,-0.140912 0.03005,-0.0465 0.05464,-0.05918 0.05464,-0.02818 0,0.031 -0.02459,0.09441 -0.05464,0.140913 -0.03005,0.0465 -0.05464,0.05918 -0.05464,0.02818 z m -2.026424,-0.230155 c 0.0027,-0.06566 0.01606,-0.07902 0.03405,-0.03405 0.01628,0.04069 0.01428,0.0893 -0.0044,0.108034 -0.01873,0.01873 -0.03205,-0.01456 -0.0296,-0.07398 z m 3.516158,-0.172983 c 0.250323,-0.327837 0.36859,-0.717571 0.36859,-1.214632 0,-0.325696 -0.06008,-0.566625 -0.387528,-1.553905 -0.213141,-0.642643 -0.412225,-1.257217 -0.442408,-1.36572 l -0.05488,-0.197278 -0.04075,0.225461 c -0.151152,0.836266 -0.230455,1.160842 -0.349257,1.429475 -0.159726,0.361169 -0.224213,0.950176 -0.142626,1.302708 0.0799,0.345242 0.0339,0.355504 -0.11228,0.02505 -0.182724,-0.413076 -0.208818,-1.164914 -0.06055,-1.744729 0.06312,-0.246867 0.132077,-0.499578 0.153225,-0.561581 0.02127,-0.06237 -0.01251,-0.03719 -0.07562,0.05636 -0.06274,0.093 -0.181749,0.371242 -0.264458,0.618311 -0.171195,0.511399 -0.198925,0.998367 -0.117256,2.059036 0.05395,0.700734 0.0037,0.814366 -0.08351,0.18873 -0.02958,-0.212302 -0.0976,-0.53162 -0.151155,-0.709594 l -0.09736,-0.323588 -0.366374,0.479775 c -0.201505,0.263877 -0.514837,0.696449 -0.696292,0.961272 -0.181456,0.264824 -0.342263,0.469153 -0.357351,0.454066 -0.01509,-0.01509 0.215679,-0.517642 0.512814,-1.116788 0.665522,-1.341965 0.915582,-2.023383 0.992861,-2.705566 0.03199,-0.282355 0.05,-0.521529 0.04003,-0.531497 -0.01,-0.01 -0.268312,0.336026 -0.574098,0.768875 -0.305787,0.432848 -0.564975,0.786997 -0.575974,0.786997 -0.011,0 0.05786,-0.154228 0.153012,-0.342728 0.192479,-0.3813 0.148805,-0.381885 -0.254352,-0.0034 -0.143946,0.135135 -0.271424,0.235995 -0.283284,0.224135 -0.01186,-0.01186 0.105841,-0.166812 0.26156,-0.344338 0.251779,-0.287041 0.269191,-0.322775 0.157267,-0.322775 -0.107475,0 -0.09311,-0.02372 0.09836,-0.162424 0.467206,-0.338442 0.862684,-1.040596 1.141731,-2.0270895 0.181419,-0.6413617 0.198888,-0.8787729 0.03597,-0.4888537 -0.107966,0.2584017 -0.438695,0.6783027 -0.736136,0.9346174 l -0.22479,0.193708 0.212278,-0.2515425 c 0.368469,-0.4366234 0.59932,-1.0397782 0.602298,-1.5736511 0.0012,-0.2166137 0.03246,-0.2780563 0.254312,-0.4999021 0.218176,-0.2181767 0.27433,-0.2473904 0.408648,-0.2125905 0.158613,0.041091 0.312466,0.047791 0.661371,0.028811 0.355636,-0.01935 0.602834,0.2601858 1.013233,1.145789 0.222552,0.4802475 0.241487,0.5485893 0.143366,0.5174465 -0.112209,-0.035611 -0.112251,-0.034491 -0.0057,0.1512379 0.05906,0.1029147 0.175406,0.3874481 0.25854,0.6322965 0.18368,0.5409821 0.503202,0.9818651 0.950525,1.3115531 0.3452,0.254421 0.539769,0.326528 1.051723,0.389765 0.551271,0.06809 0.460096,0.108788 -0.242957,0.108446 -0.65617,-3.47e-4 -0.703544,-0.0084 -1.053443,-0.178636 -0.374362,-0.182189 -0.491337,-0.286514 -0.752962,-0.671529 -0.08188,-0.120503 -0.148739,-0.181502 -0.148566,-0.135555 8.37e-4,0.223314 0.143007,0.537069 0.415344,0.916651 0.397343,0.553814 0.423396,0.598311 0.28775,0.491472 -0.656512,-0.517092 -1.044129,-1.039086 -1.213797,-1.634591 -0.03974,-0.139504 -0.09335,-0.277739 -0.119131,-0.3071898 -0.156823,-0.1791887 0.105726,1.2005708 0.374855,1.9699628 0.166043,0.474685 0.197064,0.639275 0.196542,1.042757 -9.19e-4,0.709654 -0.216887,1.268094 -0.68665,1.775503 -0.0861,0.093 -0.156667,0.188119 -0.15681,0.211369 -1.69e-4,0.02325 -0.02679,0.04227 -0.05921,0.04227 -0.03242,0 0.03115,-0.118003 0.141279,-0.262228 z M 12.629231,9.0995037 c 0.07211,-0.2456274 0.159579,-0.4559209 0.194384,-0.4673182 0.0738,-0.024161 0.132133,0.1600482 0.133229,0.420719 4.49e-4,0.1007526 0.02613,0.1831867 0.05713,0.1831867 0.031,0 0.05636,-0.076092 0.05636,-0.1690954 0,-0.093002 0.02226,-0.1690964 0.04946,-0.1690964 0.09265,0 0.16335,0.1404717 0.23588,0.4686913 0.08728,0.3949943 0.155783,0.3240464 0.17577,-0.1820568 0.01203,-0.3047349 0.02681,-0.34647 0.114542,-0.3235274 0.08027,0.02099 0.100726,-0.0082 0.100726,-0.1435898 0,-0.154513 0.01319,-0.1666183 0.145411,-0.1334335 0.131336,0.032961 0.141556,0.024011 0.10559,-0.092532 -0.08627,-0.2795453 -0.385756,-0.7772243 -0.467698,-0.7772243 -0.02196,0 -0.03004,0.1036567 -0.01796,0.230348 0.02603,0.2730052 -0.05414,0.3881002 -0.19115,0.2743942 -0.07897,-0.065542 -0.100194,-0.062732 -0.146102,0.0193 -0.02954,0.052791 -0.08252,0.095973 -0.117735,0.095973 -0.108856,0 -0.324797,-0.2388162 -0.327423,-0.3621074 -0.0019,-0.090542 -0.02648,-0.071632 -0.108575,0.083652 -0.159128,0.3009739 -0.262373,1.2343213 -0.224088,2.0257803 0.0107,0.221282 0.01794,0.203302 0.0567,-0.1409121 0.02444,-0.2170059 0.103427,-0.5955248 0.175534,-0.8411522 z M 12.528843,7.8505341 c 0.05319,-0.1386206 0.04033,-0.305399 -0.02355,-0.305399 -0.07163,0 -0.180154,0.2724381 -0.136594,0.342921 0.04874,0.078862 0.122077,0.061672 0.160142,-0.037521 z m 0.654231,-0.192668 c 0,-0.031001 -0.02536,-0.056361 -0.05636,-0.056361 -0.031,0 -0.05636,0.025361 -0.05636,0.056361 0,0.031001 0.02536,0.056361 0.05636,0.056361 0.031,0 0.05636,-0.025361 0.05636,-0.056361 z M 12.003855,14.727 c 0.0027,-0.06566 0.01606,-0.07902 0.03405,-0.03405 0.01628,0.04069 0.01428,0.0893 -0.0044,0.108034 -0.01873,0.01873 -0.03205,-0.01456 -0.0296,-0.07398 z m 0.294841,-0.38986 c 3.47e-4,-0.186005 0.01084,-0.255302 0.02338,-0.153994 0.01255,0.101308 0.01229,0.253494 -5.72e-4,0.338191 -0.01286,0.0847 -0.02312,0.0018 -0.02281,-0.184197 z m -2.7185455,0.164399 c 0.0027,-0.06566 0.016061,-0.07902 0.034051,-0.03405 0.01628,0.04069 0.01428,0.0893 -0.0045,0.108032 -0.018731,0.01873 -0.032051,-0.01456 -0.029601,-0.07398 z m 1.2355855,0.06796 c 0,-0.0117 0.04439,-0.05609 0.09864,-0.09864 0.0894,-0.07011 0.09139,-0.06812 0.02128,0.02128 -0.07363,0.09389 -0.11992,0.123748 -0.11992,0.07736 z m -0.618024,-0.812377 c -0.04191,-0.24845 -0.04754,-0.459572 -0.01551,-0.581423 0.04233,-0.16105 0.05571,-0.102286 0.08453,0.371365 0.01883,0.309478 0.02581,0.571119 0.01551,0.581423 -0.0103,0.0103 -0.04834,-0.15681 -0.08453,-0.371365 z m 3.165445,-0.09636 c 0.0011,-0.093 0.01378,-0.124226 0.02807,-0.06938 0.01429,0.05484 0.01335,0.130934 -0.0021,0.169095 -0.01544,0.03816 -0.02713,-0.0067 -0.02598,-0.09971 z m -1.093837,-0.04868 c -0.05348,-0.04063 -0.110453,-0.184234 -0.127868,-0.322306 l -0.03141,-0.249025 0.08017,0.241339 c 0.04409,0.132735 0.111085,0.278581 0.148862,0.324099 0.08397,0.101186 0.0585,0.103338 -0.06976,0.0059 z m -1.956421,-0.06874 c 0.0027,-0.06566 0.01606,-0.07902 0.03405,-0.03405 0.01628,0.04069 0.01428,0.0893 -0.0044,0.108033 -0.01873,0.01873 -0.03205,-0.01456 -0.0296,-0.07398 z m 2.395097,-0.112059 c -0.02073,-0.0826 -0.02683,-0.16106 -0.01354,-0.174346 0.01329,-0.01328 0.04112,0.04343 0.06185,0.126032 0.02073,0.0826 0.02682,0.161059 0.01354,0.174346 -0.01329,0.01329 -0.04112,-0.04343 -0.06185,-0.126032 z m -1.9469,0.06039 c 0,-0.031 0.02459,-0.09441 0.05464,-0.140914 0.03005,-0.0465 0.05464,-0.05918 0.05464,-0.02818 0,0.031 -0.02459,0.09441 -0.05464,0.140912 -0.03005,0.0465 -0.05464,0.05918 -0.05464,0.02818 z M 10.366683,13.37367 c -0.0032,-0.104124 0.200787,-0.658044 0.352556,-0.957544 0.07912,-0.156142 0.253684,-0.418419 0.387913,-0.582836 0.134229,-0.164418 0.29838,-0.399552 0.364781,-0.52252 0.249906,-0.462805 0.21987,0.09368 -0.04566,0.845997 -0.09489,0.268841 -0.207667,0.538973 -0.250618,0.600293 -0.07714,0.110142 -0.07809,0.110059 -0.07809,-0.0069 0,-0.06511 -0.03974,-0.213492 -0.0883,-0.329729 l -0.0883,-0.211341 -0.09383,0.133964 c -0.05161,0.07368 -0.175898,0.349577 -0.2762,0.613105 -0.100302,0.263527 -0.18321,0.451406 -0.184239,0.417508 z m 1.119365,-1.770236 0.0025,-0.140913 -0.136265,0.154815 c -0.12096,0.137426 -0.129164,0.175189 -0.07303,0.336201 l 0.06323,0.181387 0.07053,-0.195289 c 0.03879,-0.107409 0.07165,-0.258699 0.07303,-0.336201 z m 1.202816,1.40913 c 0,-0.108503 0.0116,-0.152891 0.02578,-0.09864 0.01418,0.05425 0.01418,0.143026 0,0.197278 -0.01418,0.05425 -0.02578,0.0099 -0.02578,-0.09864 z m -2.432331,-0.14561 c 0.0027,-0.06566 0.01606,-0.07902 0.03405,-0.03405 0.01628,0.04069 0.01428,0.0893 -0.0044,0.108033 -0.01873,0.01873 -0.03205,-0.01456 -0.0296,-0.07398 z m 2.536434,-0.338191 c 0.0027,-0.06566 0.01606,-0.07902 0.03405,-0.03405 0.01628,0.04069 0.01428,0.0893 -0.0044,0.108034 -0.01873,0.01873 -0.03205,-0.01456 -0.0296,-0.07398 z m 0.333741,-0.750166 c 0,-0.03839 -0.0293,-0.05098 -0.06594,-0.02833 -0.04496,0.02779 -0.05393,0.0094 -0.02818,-0.05765 0.02077,-0.05412 0.04036,-0.140718 0.04353,-0.192433 0.0032,-0.05172 0.0266,-0.0054 0.05205,0.102867 0.02545,0.108293 0.03554,0.207636 0.02241,0.220764 -0.01313,0.01313 -0.02387,-0.0072 -0.02387,-0.04522 z m 2.247419,-1.288375 c -0.07011,-0.0894 -0.06812,-0.09139 0.02128,-0.02128 0.05425,0.04255 0.09864,0.08693 0.09864,0.09864 0,0.04639 -0.04629,0.01653 -0.11992,-0.07735 z m -5.234774,-0.4308 c 0,-0.01218 0.03936,-0.03726 0.08747,-0.05572 0.05016,-0.01925 0.07278,-0.0098 0.05304,0.02215 -0.0331,0.05356 -0.140514,0.07922 -0.140513,0.03357 z M 10.55647,9.5883784 c 0.01865,-0.1472538 0.05746,-0.8637965 0.08625,-1.5923165 0.05381,-1.3618156 0.100955,-1.800002 0.288047,-2.6773469 C 11.129307,4.3876967 11.29179,3.2935482 11.28651,2.9231945 11.28271,2.6575116 11.240549,2.4658206 11.133059,2.2257073 11.051537,2.0435945 10.984832,1.8223778 10.984832,1.7341135 c 0,-0.088262 -0.03701,-0.345092 -0.08224,-0.5707289 -0.09658,-0.48178963 -0.193163,-1.1356747 -0.171344,-1.16005333 0.04181,-0.04672122 0.262266,0.40682961 0.391986,0.80644404 0.08045,0.24785549 0.238896,0.58582829 0.352087,0.75105159 l 0.205803,0.3004049 0.126307,-0.2092805 c 0.06947,-0.115104 0.112899,-0.2442154 0.09651,-0.2869155 -0.02124,-0.055351 0.0084,-0.071792 0.10329,-0.057292 0.114643,0.017521 0.130349,0.046891 0.113341,0.2119716 -0.01086,0.1053967 -0.03807,0.2043133 -0.06048,0.2198137 -0.0728,0.050361 -0.186141,0.9721194 -0.190597,1.5500425 -0.0024,0.310009 0.01628,0.8299776 0.04149,1.1554861 0.03946,0.5095283 0.0284,0.6776187 -0.07953,1.2086736 -0.08187,0.402833 -0.117932,0.748414 -0.103937,0.9960855 0.05295,0.9370114 -0.262701,-0.1334455 -0.37503,-1.2718442 -0.03452,-0.3498942 0.0099,-0.3785709 0.109481,-0.070612 0.03208,0.099253 0.08369,0.1749896 0.114695,0.1683104 0.221042,-0.047621 0.138077,-2.0451854 -0.08494,-2.0451854 -0.02515,0 -0.07239,0.1712085 -0.104969,0.380465 -0.290288,1.8644366 -0.300294,2.0975897 -0.114663,2.6719117 0.06359,0.1967441 0.217161,0.5303118 0.341265,0.7412613 0.151944,0.2582678 0.208354,0.4055506 0.172706,0.4509218 -0.08367,0.1064948 -0.130252,0.3661566 -0.06938,0.3868121 0.03483,0.01182 0.03659,0.081282 0.0047,0.1878519 -0.02841,0.095102 -0.05264,0.1244743 -0.05537,0.067132 -0.0028,-0.059532 -0.03081,-0.085912 -0.06725,-0.063402 -0.04145,0.025621 -0.05034,5.72e-4 -0.02649,-0.074582 0.04547,-0.1432635 -0.161214,-0.7032821 -0.333465,-0.9035373 l -0.130362,-0.151555 -0.03104,0.2529646 c -0.01708,0.1391297 -0.0441,0.6810258 -0.06006,1.2042115 -0.02878,0.9434706 -0.0281,0.9504278 0.08194,0.8508342 0.06103,-0.055231 0.110958,-0.084392 0.110958,-0.064812 0,0.052031 -0.563658,0.4891507 -0.630753,0.4891507 -0.03516,0 -0.04399,-0.1025346 -0.02307,-0.267735 z m 1.128899,-6.5430587 c -0.01527,-0.4631171 -0.03071,-0.573047 -0.08052,-0.573047 -0.03187,0 -0.05636,0.1612672 -0.05636,0.3710707 0,0.2718061 0.01885,0.3647885 0.07045,0.3475861 0.03875,-0.01292 0.06864,-0.078442 0.06643,-0.1456098 z m 3.164102,6.7145852 c -0.03059,-0.080332 -0.02411,-0.086802 0.03155,-0.031551 0.03852,0.038231 0.05584,0.083712 0.03848,0.1010696 -0.01735,0.017351 -0.04887,-0.01393 -0.07004,-0.069512 z M 11.548483,9.6400468 c 0,-0.098173 0.02585,-0.1784897 0.05744,-0.1784897 0.0341,0 0.04233,0.062982 0.02025,0.1550041 -0.05309,0.2212888 -0.07769,0.2287259 -0.07769,0.023491 z m 4.128751,0.064482 c 0.05425,-0.01418 0.143026,-0.01418 0.197278,0 0.05425,0.01418 0.0099,0.025781 -0.09864,0.025781 -0.108503,0 -0.15289,-0.0116 -0.09864,-0.025781 z m 0.677642,-0.3557023 c 0,-0.1395036 0.01099,-0.1965731 0.02443,-0.1268213 0.01344,0.069752 0.01344,0.1838908 0,0.2536436 -0.01344,0.069752 -0.02443,0.01268 -0.02443,-0.1268223 z M 11.266657,9.2394223 c 0,-0.029171 0.02507,-0.068532 0.05572,-0.087472 0.03195,-0.019751 0.0414,0.0029 0.02215,0.053041 -0.03747,0.097653 -0.07787,0.1155151 -0.07787,0.034441 z m 3.677828,-0.2869085 c -0.179392,-0.072112 -0.157879,-0.11493 0.02818,-0.056091 0.317975,0.1005456 0.327422,0.1052927 0.21137,0.1061958 -0.062,5.1e-4 -0.1698,-0.022061 -0.239552,-0.050101 z m 0.605927,-0.1254372 c 0,-0.008 -0.02421,-0.098873 -0.0538,-0.2020503 -0.04407,-0.153685 -0.04026,-0.1763466 0.02114,-0.1253953 0.06539,0.054271 0.110651,0.341909 0.0538,0.341909 -0.01162,0 -0.02114,-0.0065 -0.02114,-0.01446 z M 14.465382,8.4881627 C 14.243808,8.1472688 14.213634,8.077184 14.315563,8.1401796 14.453988,8.2257319 14.203074,6.5908322 14.023868,6.239561 13.963187,6.1206069 13.900069,6.0232804 13.883617,6.0232804 c -0.08144,0 -0.195217,0.4360604 -0.200185,0.767221 -0.005,0.3343497 0.01335,0.3999775 0.176829,0.6319095 l 0.182427,0.2588108 -0.31932,-0.2794103 -0.319322,-0.2794103 0.02903,-0.6046438 C 13.459128,5.9751391 13.447657,5.8710604 13.321201,5.5031838 13.205081,5.165372 13.175809,4.9544275 13.154816,4.3041415 13.124945,3.3788314 13.106985,3.2775887 12.899506,2.864758 12.813244,2.6931135 12.725639,2.4394699 12.704833,2.3011053 12.684022,2.1627416 12.629931,1.9989284 12.584621,1.9370778 12.513989,1.8406652 12.494639,1.8366461 12.44896,1.908897 c -0.04269,0.067532 -0.05345,0.059082 -0.05414,-0.042551 -4.49e-4,-0.069752 -0.03257,-0.1268263 -0.07132,-0.1268323 -0.04501,-7e-6 -0.07678,-0.1051657 -0.08796,-0.2911826 l -0.0175,-0.2911716 0.259683,0.3187873 c 0.268966,0.3301856 0.403787,0.4326733 0.569173,0.4326733 0.08674,0 0.09304,-0.051421 0.06121,-0.499849 -0.03379,-0.47601048 -0.02882,-0.5075973 0.104221,-0.66229134 0.07683,-0.0893423 0.139889,-0.13707758 0.140118,-0.10607677 2.25e-4,0.0310008 0.04016,-0.0197305 0.08873,-0.11272994 0.04926,-0.0943225 0.0751,-0.23538514 0.05844,-0.31900132 -0.02094,-0.10510675 -0.0029,-0.16024819 0.06032,-0.18451382 0.0496,-0.0190305 0.101314,-0.0234806118 0.114913,-0.0099003 0.06524,0.0652417 0.07782,1.77884049 0.01535,2.09162069 -0.03715,0.1860048 -0.07937,0.4903778 -0.09382,0.6763826 -0.02747,0.3535562 -0.03938,0.3098661 0.489375,1.7950329 0.09764,0.2742481 0.190874,0.6420307 0.207186,0.8172953 0.01631,0.1752646 0.0621,0.420119 0.101761,0.5441222 0.03966,0.1240042 0.08865,0.4156938 0.108889,0.6481999 0.02023,0.2325061 0.07516,0.6645614 0.122071,0.9601211 0.04691,0.2955597 0.07759,0.7013893 0.06819,0.9018425 l -0.0171,0.3644615 z M 13.722469,4.5650823 C 13.669947,4.2977734 13.571484,3.9648397 13.503663,3.82523 l -0.123311,-0.2538356 -0.01691,0.535469 c -0.01767,0.5593606 0.0364,0.8602504 0.235969,1.3130863 l 0.119134,0.27033 0.04971,-0.3195893 c 0.03719,-0.2391273 0.02567,-0.4419546 -0.04578,-0.8056081 z m 0.418499,0.9368195 c -4.49e-4,-0.1731415 -0.108476,-0.5495604 -0.157746,-0.5495604 -0.03984,0 -0.02528,0.4716614 0.01871,0.6059259 0.03894,0.1188401 0.139373,0.078122 0.139039,-0.056361 z M 13.343459,2.6836422 c 0.05885,-0.2262589 0.08611,-0.4178999 0.07156,-0.5029511 -0.01155,-0.067492 -0.344681,0.2976638 -0.344681,0.3778129 0,0.1055667 0.121371,0.3646905 0.170817,0.3646905 0.02199,0 0.06803,-0.1077988 0.102298,-0.2395523 z m -0.964529,4.403582 c 0.03823,-0.038521 0.08371,-0.055841 0.10107,-0.038481 0.01735,0.01735 -0.01393,0.048871 -0.06951,0.070042 -0.08033,0.030591 -0.0868,0.024111 -0.03155,-0.031551 z m 0.508227,-0.032781 c 0.06975,-0.01344 0.183891,-0.01344 0.253642,0 0.06975,0.01343 0.01268,0.024431 -0.126821,0.024431 -0.139504,0 -0.196574,-0.01099 -0.126821,-0.024431 z"
       id="path1520" />
  </g>
</svg>
