<?xml version="1.0" encoding="UTF-8" standalone="no"?>
<svg
   xmlns:dc="http://purl.org/dc/elements/1.1/"
   xmlns:cc="http://creativecommons.org/ns#"
   xmlns:rdf="http://www.w3.org/1999/02/22-rdf-syntax-ns#"
   xmlns:svg="http://www.w3.org/2000/svg"
   xmlns="http://www.w3.org/2000/svg"
   xmlns:sodipodi="http://sodipodi.sourceforge.net/DTD/sodipodi-0.dtd"
   xmlns:inkscape="http://www.inkscape.org/namespaces/inkscape"
   width="35mm"
   height="35mm"
   viewBox="0 0 35 35"
   version="1.1"
   id="svg8"
   inkscape:version="1.0.2 (e86c8708, 2021-01-15)"
   sodipodi:docname="angel1_35.svg">
  <defs
     id="defs2" />
  <sodipodi:namedview
     id="base"
     pagecolor="#ffffff"
     bordercolor="#666666"
     borderopacity="1.0"
     inkscape:pageopacity="0.0"
     inkscape:pageshadow="2"
     inkscape:zoom="0.78415309"
     inkscape:cx="151.87038"
     inkscape:cy="-183.16587"
     inkscape:document-units="mm"
     inkscape:current-layer="layer1"
     inkscape:document-rotation="0"
     showgrid="false"
     inkscape:window-width="1731"
     inkscape:window-height="1067"
     inkscape:window-x="60"
     inkscape:window-y="25"
     inkscape:window-maximized="0" />
  <metadata
     id="metadata5">
    <rdf:RDF>
      <cc:Work
         rdf:about="">
        <dc:format>image/svg+xml</dc:format>
        <dc:type
           rdf:resource="http://purl.org/dc/dcmitype/StillImage" />
        <dc:title></dc:title>
      </cc:Work>
    </rdf:RDF>
  </metadata>
  <g
     inkscape:label="Layer 1"
     inkscape:groupmode="layer"
     id="layer1">
    <path
       style="fill:#000000;stroke-width:0.0396943"
       d="m 15.690095,32.80597 c -0.04237,-0.03267 -0.198244,-0.09707 -0.346367,-0.143209 -0.236858,-0.07385 -0.278461,-0.10185 -0.345205,-0.232668 -0.117499,-0.230323 -0.191661,-0.606364 -0.158303,-0.802702 0.03526,-0.207585 0.230072,-0.941746 0.264787,-0.997909 0.01572,-0.02543 -0.0032,-0.02917 -0.05109,-0.0105 -0.151673,0.0602 -0.690124,0.07385 -0.938442,0.02368 -0.601404,-0.121275 -0.961287,-0.247228 -1.375325,-0.481367 -0.712731,-0.403048 -0.872504,-0.60585 -0.99725,-1.26588 -0.08853,-0.468394 -0.08879,-1.064678 -5.64e-4,-1.229563 0.0206,-0.0385 0.09014,-0.246446 0.154559,-0.462163 0.06442,-0.215717 0.153639,-0.490467 0.198264,-0.610542 0.04463,-0.120073 0.09964,-0.325488 0.122267,-0.456482 0.02262,-0.130993 0.05719,-0.30961 0.07681,-0.396946 0.04355,-0.193796 0.137361,-0.654291 0.246639,-1.210663 0.04502,-0.229238 0.116777,-0.515037 0.159453,-0.63511 0.04268,-0.120074 0.101903,-0.325489 0.13163,-0.456482 0.02972,-0.130993 0.08385,-0.345345 0.120273,-0.476327 0.03642,-0.130993 0.09785,-0.372132 0.136485,-0.535874 0.03864,-0.163741 0.09288,-0.36617 0.120544,-0.449843 0.06097,-0.184427 0.04227,-0.360407 -0.138062,-1.299283 -0.07365,-0.383484 -0.139162,-0.845123 -0.145574,-1.025875 -0.0112,-0.31423 -0.03736,-0.408216 -0.0901,-0.32291 -0.03269,0.05285 -0.09324,0.606971 -0.119307,1.09164 -0.02224,0.413409 -0.06174,0.524639 -0.136649,0.384686 -0.02415,-0.04515 -0.04017,-0.09613 -0.03559,-0.113401 0.01969,-0.07432 -0.05963,-0.512343 -0.129588,-0.715681 -0.04187,-0.121683 -0.07613,-0.26075 -0.07613,-0.309015 0,-0.0483 -0.05199,-0.246424 -0.115524,-0.440347 -0.06354,-0.193924 -0.135677,-0.428494 -0.160307,-0.521279 -0.02463,-0.09275 -0.05937,-0.1687 -0.0772,-0.1687 -0.04871,0 -0.334548,0.423034 -0.47607,0.704574 -0.06859,0.136442 -0.142872,0.248092 -0.165076,0.248092 -0.07203,0 -0.08764,-0.11655 -0.04062,-0.303275 0.09825,-0.390227 -0.05974,-0.166181 -0.197625,0.28021 -0.08092,0.261987 -0.269831,0.499392 -0.397388,0.499392 -0.1281,0 -0.154152,-0.514559 -0.05527,-1.091593 0.09451,-0.55153 0.31721,-0.993253 0.701983,-1.392429 l 0.309121,-0.320693 -0.07865,-0.155634 c -0.04326,-0.08563 -0.149788,-0.307475 -0.236718,-0.493045 -0.08693,-0.18557 -0.241629,-0.498167 -0.343772,-0.694645 -0.102147,-0.19649 -0.237024,-0.459364 -0.299735,-0.584174 -0.223139,-0.444104 -0.293476,-0.947859 -0.172703,-1.236912 0.03304,-0.0791 0.06867,-0.143781 0.07918,-0.143781 0.0105,0 0.0569,0.08038 0.10307,0.178629 0.04618,0.09823 0.0999,0.178617 0.119389,0.178617 0.01948,0 0.09759,0.06883 0.173561,0.152903 0.294642,0.32613 0.730981,0.516682 1.057028,0.461592 0.158352,-0.02672 0.346514,-0.199512 0.359145,-0.329747 0.02453,-0.25305 0.01587,-0.604311 -0.01781,-0.721374 C 12.30246,13.411009 11.81284,12.839319 11.299413,12.479554 10.852305,12.166245 9.9144956,11.172338 9.900386,10.996813 9.897586,10.962163 9.8374792,10.786556 9.7667768,10.606563 9.6054734,10.195908 9.5301498,9.8629059 9.5579702,9.6834608 c 0.032037,-0.2066169 0.1331972,-0.1824435 0.1660972,0.039667 0.044893,0.3031002 0.056152,0.3247882 0.5846976,1.1254722 0.128456,0.1946 0.798972,0.81431 0.968235,0.894868 0.07065,0.0336 0.134969,0.07677 0.142948,0.09602 0.008,0.01913 0.118899,0.102317 0.246486,0.184765 0.127588,0.08248 0.219304,0.163964 0.203811,0.181125 -0.0155,0.01715 0.0025,0.02018 0.04003,0.007 0.03751,-0.01342 0.08046,-0.0047 0.09544,0.0196 0.01649,0.02672 0.0092,0.0329 -0.01857,0.01575 -0.0252,-0.01552 -0.04583,-0.02007 -0.04583,-0.0105 0,0.0105 0.178951,0.12831 0.397669,0.262711 0.554894,0.340993 1.018061,0.737135 1.204796,1.030423 0.08449,0.132709 0.165975,0.241291 0.181065,0.241291 0.04298,0 0.383919,0.709183 0.46191,0.960798 0.03861,0.124553 0.08461,0.217537 0.102232,0.20664 0.03623,-0.0224 0.262455,-0.364175 0.37579,-0.567759 0.05585,-0.100333 0.06232,-0.139113 0.02541,-0.152133 -0.06729,-0.02368 -0.02272,-0.289918 0.09156,-0.546783 0.465163,-1.045591 0.721801,-1.427184 1.14883,-1.708188 0.109165,-0.07187 0.305645,-0.221573 0.436636,-0.332757 0.401936,-0.341191 0.475633,-0.36015 1.230519,-0.31668 0.202493,0.01167 0.278963,-0.0058 0.510557,-0.114333 0.172655,-0.0812 0.333889,-0.12803 0.440345,-0.12803 0.26452,0 0.636339,0.148306 1.192583,0.475673 0.08733,0.05133 0.230226,0.128497 0.317554,0.171337 0.186032,0.09123 0.443116,0.285414 0.555718,0.419685 0.104809,0.124985 0.346559,0.544694 0.414449,0.719542 0.02966,0.07642 0.07542,0.192512 0.10167,0.258009 0.02625,0.06545 0.08748,0.261987 0.136041,0.436637 0.10271,0.36939 0.353537,0.972511 0.404436,0.972511 0.01924,0 0.0377,-0.04912 0.04104,-0.1092 0.01455,-0.262675 0.126085,-0.572076 0.407618,-1.130735 0.460218,-0.91322 0.661287,-1.150544 1.486529,-1.754527 0.341212,-0.249726 0.734715,-0.566791 0.874451,-0.704597 0.528883,-0.521559 0.74541,-1.0345655 0.762881,-1.8074711 0.0064,-0.2844918 0.03839,-0.3605119 0.11354,-0.2699785 0.07318,0.0882 0.02746,0.8877173 -0.07799,1.3636826 -0.112501,0.507791 -0.195022,0.664638 -0.891006,1.693732 -0.231524,0.342335 -0.435463,0.6209 -0.526423,0.719052 -0.129767,0.140024 -0.305245,0.404787 -0.423603,0.639159 -0.134775,0.266875 -0.148194,0.722785 -0.0282,0.957998 0.186166,0.364922 0.710841,0.5376 1.026259,0.337762 0.04973,-0.0315 0.105562,-0.04795 0.124047,-0.03652 0.04877,0.0301 0.336576,-0.188486 0.450541,-0.34223 0.08929,-0.120471 0.154302,-0.235143 0.28847,-0.50882 0.07421,-0.151375 0.257181,-0.740483 0.257181,-0.828042 0,-0.05903 0.01973,-0.07233 0.08307,-0.05577 0.08014,0.021 0.08253,0.04072 0.06766,0.561925 -0.02123,0.744125 -0.120455,1.026202 -0.546085,1.552403 -0.535871,0.662493 -0.778445,1.012901 -0.895757,1.293928 -0.0629,0.150698 -0.137278,0.310672 -0.165272,0.355507 -0.118118,0.189163 -0.404031,1.188542 -0.493385,1.724567 -0.02366,0.141914 -0.05005,0.515457 -0.05865,0.830096 -0.0086,0.31465 -0.0238,0.580253 -0.03376,0.590228 -0.01,0.0105 -0.0413,-0.0058 -0.06964,-0.03628 -0.03079,-0.03255 -0.0565,-0.182035 -0.06393,-0.371898 -0.01591,-0.406654 -0.07922,-0.948676 -0.124126,-1.062613 -0.01918,-0.04865 -0.06458,-0.18676 -0.100885,-0.306833 -0.03629,-0.120074 -0.106237,-0.307627 -0.155425,-0.416792 l -0.08943,-0.198462 -0.02455,0.205299 c -0.03056,0.25543 -0.183077,0.562007 -0.392785,0.789507 l -0.160315,0.173926 0.1078,0.189666 c 0.05929,0.1043 0.152661,0.270048 0.207495,0.368293 0.05483,0.09823 0.130991,0.214352 0.169237,0.258009 0.03824,0.04363 0.186062,0.266945 0.328484,0.496183 0.321644,0.517709 0.504937,1.015457 0.504937,1.371232 0,0.225295 -0.0133,0.268613 -0.119649,0.389737 -0.105233,0.119852 -0.482819,0.340072 -0.685869,0.400015 -0.108255,0.03197 -0.04579,0.115617 0.424893,0.568949 0.360931,0.347632 0.449043,0.412032 0.639472,0.46739 0.335412,0.09753 0.905151,0.0861 1.207564,-0.02415 0.133287,-0.04865 0.251442,-0.07922 0.262569,-0.06813 0.04331,0.04328 -0.483835,0.431375 -0.721842,0.53137 -0.236055,0.09917 -0.728531,0.21392 -0.917096,0.213698 -0.295257,-3.5e-4 -0.865605,-0.18557 -1.13273,-0.367862 l -0.109877,-0.07502 -2.78e-4,0.826875 c -1.59e-4,0.454779 -0.01029,0.880449 -0.02247,0.945946 -0.05564,0.298562 -0.05079,1.126207 0.0088,1.488527 0.03406,0.20741 0.06891,0.46423 0.07744,0.570723 0.0085,0.106517 0.07929,0.443136 0.157242,0.748079 0.07795,0.304955 0.151957,0.664382 0.164443,0.798735 0.03441,0.370137 -0.112198,1.174053 -0.238168,1.306061 -0.02605,0.0273 -0.150601,0.194099 -0.276767,0.37065 -0.513315,0.718294 -1.295686,1.095816 -2.093587,1.010218 -0.594889,-0.06382 -1.313718,-0.267809 -1.694885,-0.480982 l -0.208353,-0.11655 0.0746,0.18886 c 0.04104,0.103833 0.163838,0.403212 0.272902,0.665198 0.10906,0.261976 0.209983,0.569532 0.224261,0.683457 l 0.02595,0.207142 -0.189747,0.14161 c -0.176431,0.13167 -0.206461,0.140607 -0.427913,0.127412 -0.388103,-0.0231 -1.060183,-0.343548 -1.331565,-0.634842 l -0.08211,-0.08808 -0.07675,0.09928 c -0.04221,0.0546 -0.09924,0.151667 -0.126737,0.215775 -0.149885,0.349394 -0.220483,0.443135 -0.427896,0.568179 -0.237822,0.143372 -0.484812,0.171278 -0.616789,0.06965 z m 0.597748,-0.213594 c 0.12657,-0.0854 0.173029,-0.151876 0.229037,-0.3276 0.03864,-0.12124 0.130688,-0.288365 0.204545,-0.371385 l 0.134283,-0.150932 -0.07144,-0.166693 c -0.1162,-0.271087 -0.189143,-0.711037 -0.196154,-1.183129 -0.0036,-0.24325 -0.01108,-0.44674 -0.01647,-0.452177 -0.0055,-0.0058 -0.09832,0.05355 -0.206386,0.131133 -0.256103,0.18382 -0.773119,0.444687 -0.961198,0.484972 -0.108722,0.02333 -0.146565,0.05087 -0.141926,0.103367 0.0035,0.03943 -0.05709,0.21679 -0.134606,0.394217 -0.129529,0.296485 -0.141284,0.355448 -0.145258,0.72856 -0.004,0.38878 1.19e-4,0.410399 0.100705,0.510989 0.05776,0.05775 0.254252,0.182338 0.436636,0.276815 0.380356,0.197038 0.503474,0.20055 0.768244,0.02182 z m 2.360692,-0.242561 c 0.08498,-0.0434 0.163256,-0.09298 0.173955,-0.11025 0.03352,-0.05425 -0.07774,-0.495741 -0.182426,-0.723848 -0.0551,-0.120073 -0.112933,-0.260155 -0.128525,-0.311278 -0.01559,-0.0511 -0.08019,-0.197505 -0.143587,-0.325255 -0.06338,-0.12775 -0.115244,-0.248652 -0.115244,-0.26866 0,-0.02007 -0.04297,-0.09975 -0.09552,-0.177147 -0.08791,-0.129535 -0.09684,-0.187717 -0.112093,-0.729949 -0.01502,-0.533832 -0.02992,-0.633967 -0.158648,-1.065529 -0.141889,-0.47572 -0.142132,-0.477867 -0.189561,-1.671566 -0.03576,-0.899875 -0.03642,-1.33636 -0.0027,-1.766382 0.07738,-0.986942 0.08137,-1.418247 0.02165,-2.337558 -0.09272,-1.426694 -0.08799,-1.393035 -0.271037,-1.931546 -0.218875,-0.643919 -0.527665,-1.121296 -0.883821,-1.366332 l -0.171058,-0.117693 -0.42812,0.0406 c -0.235468,0.02228 -0.631146,0.0406 -0.879288,0.0406 l -0.451166,3.5e-5 -0.194148,0.14252 c -0.220971,0.162202 -0.471442,0.450684 -0.471442,0.542979 0,0.03418 -0.01711,0.06802 -0.03801,0.07525 -0.04596,0.01598 -0.302846,0.750821 -0.330891,0.946506 -0.01097,0.07665 -0.08524,0.306391 -0.165,0.510511 -0.07977,0.20412 -0.138316,0.4004 -0.130123,0.436182 0.0082,0.03582 -0.01085,0.117425 -0.04239,0.18144 -0.07096,0.144176 -0.231138,0.734767 -0.264474,0.975194 -0.01362,0.09823 -0.06697,0.294723 -0.118555,0.436636 -0.135486,0.372727 -0.160065,0.475721 -0.361491,1.514743 -0.100132,0.516554 -0.244909,1.141736 -0.32171,1.389291 -0.0768,0.247568 -0.157593,0.548369 -0.179538,0.668443 -0.04951,0.270912 -0.01738,0.854444 0.06447,1.170972 0.05494,0.212439 0.0927,0.267797 0.349469,0.512377 0.373646,0.355904 0.621124,0.470039 1.010763,0.466119 0.323803,-0.0035 0.707777,-0.09987 0.740988,-0.186387 0.0122,-0.03173 0.04601,-0.05775 0.07517,-0.05775 0.08519,0 0.291725,-0.239272 0.423225,-0.490292 0.09615,-0.18354 0.12168,-0.281855 0.12168,-0.468674 0,-0.23142 -0.05216,-0.530227 -0.120163,-0.688345 -0.01877,-0.04363 -0.07805,-0.204423 -0.131722,-0.357245 -0.05367,-0.152822 -0.151235,-0.393972 -0.216814,-0.535874 -0.06558,-0.141903 -0.185214,-0.400914 -0.265855,-0.575565 -0.291451,-0.631237 -0.492665,-1.400747 -0.52461,-2.006282 -0.02122,-0.402209 0.03138,-0.971099 0.107601,-1.163599 0.01852,-0.04678 0.04482,-0.11977 0.05845,-0.162202 0.02257,-0.07035 0.02978,-0.06755 0.08088,0.03103 0.03085,0.0595 0.07525,0.254964 0.09866,0.434409 0.06482,0.497117 0.224768,1.159609 0.375863,1.556789 0.07475,0.19649 0.167311,0.464427 0.205698,0.595409 0.03838,0.130993 0.146657,0.392455 0.240598,0.581035 0.09394,0.188568 0.170801,0.353699 0.170801,0.36694 0,0.03045 0.831681,1.16423 1.061626,1.447217 0.145167,0.178664 0.483357,0.816259 0.610935,1.151816 0.06933,0.182361 0.156772,0.944195 0.157821,1.375069 0.0018,0.711819 0.141937,1.244379 0.38044,1.445092 0.06121,0.05157 0.166596,0.145729 0.234195,0.209359 0.171629,0.16156 0.787495,0.424772 1.000033,0.427397 0.09543,0.0012 0.238195,-0.03255 0.324784,-0.07677 z m -0.363739,-0.744824 c -0.305875,-0.356499 -0.556756,-0.918867 -0.553382,-1.240448 0.0038,-0.367418 0.05352,-1.32874 0.06955,-1.346299 0.03534,-0.03873 0.04994,0.04282 0.09193,0.512727 0.05791,0.648142 0.188143,1.124166 0.462144,1.689241 0.154466,0.318559 0.17316,0.454242 0.06259,0.454242 -0.04028,0 -0.100058,-0.03127 -0.132839,-0.06942 z m -1.278573,-1.409148 c -0.01192,-0.114566 -0.03103,-0.333433 -0.04248,-0.486255 -0.01143,-0.152822 -0.02839,-0.313577 -0.03768,-0.357245 -0.0093,-0.04363 -0.01824,-0.120633 -0.01992,-0.171045 -0.0016,-0.0504 -0.02088,-0.08062 -0.04272,-0.06708 -0.02183,0.01353 -0.03969,-0.0105 -0.03969,-0.05203 0,-0.221842 -0.293589,-0.885022 -0.49536,-1.118951 -0.04708,-0.0546 -0.118974,-0.152821 -0.159776,-0.218318 -0.0408,-0.06545 -0.164624,-0.227372 -0.275165,-0.35973 -0.366535,-0.438889 -0.756047,-0.955315 -0.757407,-1.004187 -3.97e-4,-0.014 -0.03861,-0.1057 -0.08492,-0.204003 -0.312736,-0.663321 -0.405122,-0.937627 -0.487953,-1.448838 -0.192984,-1.191027 -0.207351,-1.369679 -0.143649,-1.786226 0.0575,-0.375993 0.187883,-0.776487 0.276828,-0.850302 0.09629,-0.07992 0.133246,0.04235 0.155029,0.51289 0.02521,0.544682 0.116351,1.040318 0.251569,1.36807 0.05436,0.131751 0.169328,0.436041 0.255496,0.676188 0.08617,0.240147 0.376616,0.874266 0.645441,1.409136 0.268824,0.534882 0.530465,1.079682 0.581423,1.210675 0.05096,0.130994 0.105138,0.256025 0.1204,0.277865 0.04817,0.06895 0.308701,0.942259 0.355228,1.190818 0.05676,0.303228 0.100525,1.348865 0.06449,1.540957 -0.03919,0.208869 -0.09392,0.180239 -0.119153,-0.0623 z m 0.498367,-2.222874 c -0.108651,-0.19054 -0.403015,-0.830096 -0.403015,-0.875619 0,-0.0105 -0.100334,-0.230988 -0.222963,-0.489756 -0.287291,-0.606224 -0.350316,-0.752302 -0.511226,-1.184973 -0.23058,-0.620002 -0.377248,-1.083274 -0.377248,-1.191587 0,-0.05752 -0.03504,-0.30422 -0.07789,-0.548135 -0.04284,-0.243904 -0.0971,-0.682932 -0.120577,-0.975614 -0.02348,-0.292682 -0.04921,-0.542757 -0.05719,-0.555719 -0.02773,-0.04515 0.08883,-0.659832 0.158753,-0.837294 0.09947,-0.252431 0.359818,-0.615557 0.480874,-0.670717 0.07458,-0.03395 0.136979,-0.03523 0.229961,-0.0047 0.147638,0.04877 0.245854,0.233917 0.379169,0.714933 0.04538,0.163742 0.101659,0.362566 0.125062,0.441841 0.05059,0.171348 0.06237,0.896654 0.02798,1.721487 -0.02478,0.594359 0.01856,1.626836 0.08249,1.964866 0.106762,0.564539 0.171195,0.931479 0.28218,1.607004 0.0681,0.414459 0.140055,0.78393 0.159916,0.821042 0.04704,0.08785 0.04658,0.271157 -6.57e-4,0.271157 -0.02023,0 -0.09026,-0.0938 -0.155615,-0.20839 z m 4.357013,2.533558 c 0.417657,-0.37604 0.654935,-0.756852 0.78417,-1.258531 0.03865,-0.15001 0.08438,-0.272743 0.101648,-0.272743 0.05998,0 -0.0071,-0.711131 -0.08895,-0.942574 -0.04442,-0.125627 -0.08839,-0.27307 -0.09772,-0.327647 -0.0093,-0.0546 -0.05154,-0.233205 -0.09379,-0.396935 -0.04225,-0.163742 -0.08788,-0.40488 -0.101405,-0.535874 -0.03241,-0.314138 -0.09965,-1.668195 -0.121231,-2.441194 -0.03148,-1.127642 -0.06288,-1.471284 -0.161657,-1.768714 -0.09866,-0.297069 -0.329358,-0.716684 -0.458074,-0.833164 -0.07566,-0.06848 -0.07729,-0.06545 -0.07838,0.144608 -0.0038,0.756584 -0.162913,2.069797 -0.321621,2.655744 -0.04434,0.163741 -0.121927,0.458465 -0.172392,0.654955 -0.05047,0.196478 -0.110064,0.401905 -0.132443,0.456482 -0.215704,0.526097 -0.210545,1.679092 0.0105,2.341957 0.0525,0.15743 0.05713,0.162144 0.03905,0.03967 -0.01132,-0.07642 -0.03098,-0.41356 -0.04375,-0.749222 -0.01932,-0.507547 -0.01404,-0.60724 0.03134,-0.592143 0.03309,0.0105 0.06617,0.110251 0.08402,0.252001 0.03767,0.299098 0.176579,0.580604 0.494494,1.00212 0.139576,0.185057 0.278011,0.383344 0.307632,0.440627 0.184265,0.356324 0.24575,1.033213 0.129079,1.421013 -0.05859,0.194752 -0.349588,0.781329 -0.428275,0.863287 -0.01992,0.02077 -0.0362,0.05402 -0.0362,0.07408 0,0.04573 0.176225,-0.06767 0.353975,-0.227768 z m -2.051164,-0.350374 c 0.09731,-0.07478 0.255565,-0.454778 0.306409,-0.735653 0.09087,-0.502041 0.02699,-1.266663 -0.135581,-1.622741 -0.11908,-0.26082 -0.216839,-0.318104 -0.425404,-0.24927 -0.181901,0.06008 -0.53474,0.451652 -0.888364,0.98602 -0.12617,0.190657 -0.134185,0.363429 -0.03815,0.822419 0.07259,0.34692 0.17453,0.46683 0.611577,0.719355 0.235525,0.136092 0.456157,0.167032 0.569514,0.07992 z m -1.223758,-1.706951 c 0.136467,-0.169248 0.273265,-0.356801 0.303992,-0.41678 0.08654,-0.168922 0.458476,-0.62972 0.811572,-1.005457 0.291097,-0.309762 0.410007,-0.463716 0.744296,-0.963668 0.256311,-0.38332 0.574739,-1.119488 0.577594,-1.335321 4.32e-4,-0.03278 0.0088,-0.09532 0.01845,-0.138938 0.02218,-0.09963 -0.03546,-0.649566 -0.09567,-0.912964 -0.05369,-0.234885 -0.139609,-0.41678 -0.196856,-0.41678 -0.02256,0 -0.03033,0.01727 -0.01729,0.03838 0.01306,0.02112 -0.01347,0.06125 -0.05895,0.08925 -0.07472,0.04608 -0.232979,0.33628 -0.417308,0.765415 -0.0375,0.08727 -0.138806,0.373124 -0.225099,0.635099 -0.219357,0.665957 -0.560017,1.294849 -1.161082,2.143484 -0.07732,0.1092 -0.170521,0.278857 -0.207127,0.377102 -0.111195,0.29841 -0.353987,0.87724 -0.488814,1.165349 -0.102519,0.219065 -0.12205,0.300475 -0.100016,0.416792 l 0.02739,0.14455 0.118393,-0.138927 c 0.06511,-0.07642 0.230048,-0.27741 0.366515,-0.446659 z m 0.0105,-1.865525 c 0.164175,-0.173822 0.464393,-0.640267 0.568747,-0.883669 0.148855,-0.347188 0.35922,-0.97986 0.455187,-1.368979 0.05114,-0.207398 0.174933,-0.57358 0.275072,-0.813727 0.100132,-0.240147 0.182167,-0.45332 0.18228,-0.473725 1.2e-4,-0.02042 0.03436,-0.109667 0.07609,-0.198474 0.155867,-0.331485 0.281364,-0.621145 0.281364,-0.649402 0,-0.0161 0.03305,-0.09147 0.07346,-0.167521 0.0404,-0.07607 0.1134,-0.259199 0.162228,-0.406922 0.09511,-0.287771 0.322486,-0.658969 0.524749,-0.856719 l 0.124519,-0.121742 -0.12413,-0.388676 c -0.203391,-0.636872 -0.269273,-0.704224 -0.828762,-0.847316 -0.26749,-0.06837 -0.395133,-0.07467 -1.13198,-0.05577 -0.9456,0.02427 -1.063095,0.05238 -1.280257,0.306051 -0.160801,0.187857 -0.356494,0.582564 -0.394878,0.796439 -0.02657,0.148015 0.03538,0.563582 0.09576,0.64246 0.02665,0.03477 0.05517,0.181277 0.104332,0.535874 0.05037,0.363288 0.100079,1.378335 0.115652,2.361801 0.01008,0.633127 0.03799,1.267234 0.06214,1.409147 0.09488,0.557597 0.371909,1.3099 0.482344,1.3099 0.02983,0 0.109072,-0.0581 0.176091,-0.128999 z m 4.329946,-4.888943 c 0.230305,-0.08132 0.491911,-0.256106 0.51494,-0.344167 0.01097,-0.04177 0.03566,-0.07595 0.05494,-0.07595 0.06487,0 0.0358,-0.425891 -0.04781,-0.700397 -0.094,-0.308631 -0.170281,-0.450918 -0.571552,-1.065996 -0.248077,-0.380264 -0.478367,-0.744976 -0.688645,-1.090613 -0.109783,-0.180448 -0.41343,-0.477306 -0.488223,-0.477306 -0.04063,0 -0.390975,0.07537 -0.778528,0.167533 -0.795274,0.18907 -0.745528,0.186807 -2.927515,0.133513 -1.497818,-0.03652 -2.94616,-0.22995 -3.753577,-0.501118 -0.355396,-0.119362 -0.584236,-0.171652 -0.816892,-0.186667 l -0.323193,-0.02088 -0.173845,0.174031 c -0.283558,0.283851 -0.454246,0.719111 -0.301128,0.767878 0.02729,0.0082 0.201447,0.06953 0.387018,0.13517 0.18557,0.06568 0.516024,0.174451 0.734342,0.241756 0.218318,0.06732 0.451796,0.139895 0.518842,0.161292 0.06705,0.02135 0.174338,0.03897 0.238428,0.03897 0.06408,0 0.178048,0.01762 0.253242,0.0392 0.188785,0.05413 0.794541,0.153557 1.152819,0.189187 0.163739,0.01622 0.677305,0.02065 1.141258,0.0093 0.463953,-0.0105 0.843528,-0.007 0.843501,0.0082 -2.8e-5,0.01528 0.04907,0.01213 0.109107,-0.007 0.165563,-0.0525 1.323145,-0.104884 2.201831,-0.09963 l 0.782767,0.0047 0.2989,0.293988 c 0.164395,0.1617 0.2989,0.309377 0.2989,0.328149 0,0.01878 0.05939,0.108617 0.131978,0.199593 0.18444,0.231234 0.398941,0.693445 0.528109,1.137969 0.112151,0.38598 0.158974,0.462595 0.332267,0.543632 0.132025,0.06172 0.161305,0.06137 0.347721,-0.0047 z m -9.378561,-0.787325 c 0.08072,-0.245607 0.180985,-0.52185 0.222807,-0.613878 0.10046,-0.221049 0.42713,-0.686106 0.481943,-0.686106 0.130527,0 -0.04689,-0.04387 -0.486544,-0.120318 -0.272607,-0.04737 -0.544769,-0.09532 -0.604806,-0.106517 l -0.109153,-0.0203 3.9e-5,0.292297 c 8e-5,0.432145 0.251832,1.701434 0.337466,1.701434 0.0063,0 0.07751,-0.200959 0.158238,-0.446565 z m -2.647816,-1.23052 c 0.04251,-0.07093 0.09849,-0.216557 0.124401,-0.323552 0.04696,-0.193923 0.129723,-0.381862 0.215871,-0.490187 0.09049,-0.11375 0.236377,-0.24808 0.269509,-0.24808 0.0439,0 0.04372,0.144807 -3.18e-4,0.230848 -0.0188,0.03675 -0.04566,0.120447 -0.05966,0.185944 l -0.02547,0.119082 0.06757,-0.119082 c 0.03717,-0.06545 0.0716,-0.142964 0.07651,-0.172154 0.01085,-0.06452 0.214479,-0.363288 0.24859,-0.364793 0.01341,-4.67e-4 0.113062,-0.07992 0.221461,-0.1764 0.108395,-0.09648 0.265127,-0.207574 0.348286,-0.247007 0.08333,-0.03955 0.160992,-0.109317 0.173022,-0.155575 0.03014,-0.11585 0.395013,-0.45241 0.533567,-0.492147 0.172891,-0.04958 0.465501,-0.03908 0.611688,0.02205 0.07195,0.0301 0.141107,0.04433 0.153682,0.03173 0.01258,-0.0126 0.08183,-0.0012 0.153895,0.02508 0.07207,0.02637 0.282863,0.05565 0.468433,0.06487 0.18557,0.0093 0.498161,0.03803 0.694647,0.06393 0.80801,0.106283 2.336631,0.03197 3.016756,-0.146755 0.196487,-0.05168 0.442439,-0.115617 0.54656,-0.142124 0.257383,-0.06557 0.687191,-0.02917 0.777429,0.0658 0.113493,0.119537 0.0365,0.493057 -0.144416,0.700444 -0.0568,0.0651 -0.04654,0.06953 0.163532,0.06953 0.200692,0 0.237226,-0.01353 0.349435,-0.12901 0.142404,-0.146603 0.337304,-0.549768 0.469364,-0.9709 0.07989,-0.254742 0.10341,-0.290407 0.214284,-0.324707 0.209724,-0.06487 0.472859,-0.100217 0.660417,-0.08878 0.520885,0.03185 0.548873,0.0518 0.676372,0.481331 0.111043,0.374092 0.137252,0.603424 0.08097,0.708588 -0.03631,0.06778 -0.03015,0.08925 0.03561,0.124495 0.04372,0.02333 0.106913,0.09555 0.140453,0.16044 0.03355,0.06487 0.07626,0.117903 0.09493,0.117903 0.06551,0 0.282834,-0.255442 0.369623,-0.434467 0.0482,-0.0994 0.109142,-0.314755 0.135417,-0.478497 0.04594,-0.28623 0.04409,-0.304068 -0.0478,-0.462922 -0.184569,-0.319083 -0.280289,-0.401695 -0.524422,-0.452608 -0.301499,-0.06288 -1.769062,-0.06965 -2.171849,-0.0105 -0.174656,0.0259 -0.567627,0.0749 -0.873272,0.10885 -0.305644,0.03407 -0.752204,0.08843 -0.992353,0.12089 -0.41032,0.05553 -0.725277,0.0931 -1.524961,0.182338 -0.205536,0.02298 -0.495803,0.02322 -0.754189,9.34e-4 -0.231029,-0.02007 -0.53616,-0.03803 -0.678066,-0.04013 -0.141907,-0.0023 -0.61526,-0.01365 -1.051895,-0.02578 -0.977837,-0.02718 -0.974902,-0.0273 -1.282294,0.04398 -0.137972,0.03197 -0.29069,0.05822 -0.339373,0.05822 -0.160793,0 -0.781213,0.392444 -1.082161,0.684507 -0.15894,0.154245 -0.285941,0.291083 -0.282222,0.30408 0.0037,0.01295 -0.05818,0.13972 -0.137561,0.281634 -0.19137,0.342125 -0.265733,0.612103 -0.29606,1.074862 -0.0372,0.567607 0.0213,0.721549 0.176025,0.463284 z m 1.92265,-3.011518 c 0.04561,-0.02438 0.253862,-0.04853 0.462783,-0.05367 l 0.379855,-0.0093 0.0686,-0.341063 c 0.03773,-0.187588 0.121422,-0.465209 0.185985,-0.616922 l 0.117386,-0.275859 -0.120469,-0.02403 c -0.240913,-0.04818 -0.485555,-0.02508 -0.626569,0.05927 -0.320466,0.191602 -0.62201,0.686829 -0.663606,1.089865 -0.02422,0.234629 0.01471,0.268731 0.196035,0.171687 z m 2.770311,-0.02508 c 2.78e-4,-0.03815 0.04534,-0.147945 0.100164,-0.243857 0.05483,-0.0959 0.09481,-0.177228 0.08883,-0.180705 -0.267047,-0.155691 -0.293875,-0.249643 -0.110087,-0.385525 0.149941,-0.110833 0.150648,-0.152495 0.0025,-0.152495 -0.159608,0 -0.329966,-0.06977 -0.3108,-0.127248 0.0086,-0.02613 0.16213,-0.07945 0.34099,-0.118615 0.178858,-0.0392 0.427125,-0.107101 0.551701,-0.150862 0.124578,-0.04375 0.24945,-0.07957 0.277497,-0.07957 0.100323,0 0.04799,0.125685 -0.132758,0.318932 -0.156183,0.166973 -0.176074,0.205707 -0.132568,0.258125 0.02815,0.03395 0.04887,0.123387 0.04604,0.1988 -0.0028,0.07537 0.0089,0.137119 0.02612,0.137119 0.0737,0 0.480511,-0.133911 0.692459,-0.227932 0.168989,-0.07502 0.241704,-0.0903 0.274192,-0.05787 0.04945,0.04947 -0.0219,0.166215 -0.102169,0.167218 -0.04724,4.67e-4 -0.251413,0.157454 -0.665659,0.511409 l -0.250763,0.21427 0.197667,-0.02718 c 0.642495,-0.08855 0.785022,-0.105934 1.090785,-0.133409 0.311663,-0.028 0.330132,-0.03442 0.24211,-0.08423 -0.0524,-0.02963 -0.16405,-0.05297 -0.248088,-0.0518 -0.143736,0.0023 -0.152798,-0.0047 -0.152798,-0.116807 0,-0.131051 0.164922,-0.36274 0.361855,-0.50834 0.109468,-0.08097 0.126733,-0.08353 0.188413,-0.02765 0.127149,0.115033 0.367748,0.19145 0.515672,0.163695 l 0.14014,-0.02625 -0.176326,-0.109783 c -0.341374,-0.212474 -0.349956,-0.330727 -0.0248,-0.341705 0.21239,-0.007 0.494404,-0.144061 0.661288,-0.320986 l 0.126105,-0.1337 -0.09237,-0.0357 c -0.359182,-0.138705 -0.465828,-0.189292 -0.588544,-0.279218 -0.168975,-0.12383 -0.205083,-0.171069 -0.162953,-0.213209 0.01772,-0.01773 0.289376,-0.0413 0.603685,-0.0525 0.314307,-0.01167 0.585451,-0.03407 0.60254,-0.05075 0.05531,-0.05425 -0.01143,-0.148201 -0.153245,-0.215857 -0.07619,-0.03628 -0.160116,-0.06603 -0.186498,-0.06603 -0.02638,0 -0.214229,-0.08248 -0.417439,-0.183366 -0.268748,-0.133373 -0.365804,-0.201005 -0.356013,-0.248092 0.0097,-0.04655 0.04966,-0.06183 0.142784,-0.05437 0.177123,0.01412 0.284386,-0.0511 0.284386,-0.17311 0,-0.156403 -0.06348,-0.239026 -0.237006,-0.308455 -0.199368,-0.0798 -0.205764,-0.144025 -0.01434,-0.144025 0.09131,0 0.30485,0.07397 0.572691,0.198474 0.234901,0.1092 0.44625,0.198473 0.469663,0.198473 0.07182,0 0.04756,-0.07805 -0.05667,-0.182233 -0.05458,-0.0546 -0.09924,-0.113517 -0.09924,-0.130971 0,-0.01738 -0.03572,-0.06405 -0.0794,-0.1036 -0.193104,-0.174755 0.02949,-0.175186 0.315451,-4.66e-4 0.428129,0.261357 0.683882,0.590963 0.984304,1.268542 0.203588,0.459176 0.474668,0.867907 0.772423,1.164637 0.230456,0.22967 0.547636,0.439612 0.547636,0.362483 0,-0.111066 -0.16645,-0.584628 -0.256926,-0.730952 -0.225963,-0.365447 -0.508613,-0.9786 -0.622091,-1.34952 -0.364074,-1.190001 -0.614263,-1.566671 -1.250542,-1.882744 -0.19323,-0.09602 -0.395982,-0.208962 -0.450561,-0.251044 -0.18267,-0.140875 -0.755416,-0.347177 -0.963826,-0.347177 -0.07301,0 -0.22198,0.04305 -0.331034,0.09567 -0.323471,0.156042 -0.511113,0.19306 -0.735134,0.145017 -0.108231,-0.02322 -0.259137,-0.04223 -0.335343,-0.04223 -0.148206,0 -0.405163,0.112933 -0.490234,0.215425 -0.0285,0.0343 -0.07641,0.06242 -0.106459,0.06242 -0.03006,0 -0.124628,0.0679 -0.210173,0.150944 -0.08555,0.08307 -0.232933,0.200889 -0.327523,0.261929 -0.259954,0.167755 -0.523756,0.511374 -0.764865,0.996276 -0.268101,0.539187 -0.428804,0.932809 -0.380834,0.932809 0.01992,0 0.04725,-0.01785 0.06075,-0.03967 0.04128,-0.06685 0.09815,-0.0441 0.07454,0.02975 -0.04504,0.140933 -0.119994,0.277632 -0.380266,0.693537 -0.370053,0.591349 -0.537691,0.915484 -0.649859,1.256547 -0.104693,0.318337 -0.127982,0.660987 -0.04669,0.687098 0.02729,0.0093 0.162098,0.0093 0.299574,4.66e-4 l 0.249955,-0.01528 0.195798,-0.244464 c 0.107684,-0.134458 0.233479,-0.32039 0.279533,-0.413163 0.08584,-0.172924 0.221539,-0.2408 0.178563,-0.08937 -0.01239,0.04363 -0.03184,0.112467 -0.04321,0.152997 -0.01143,0.04048 -0.03503,0.192768 -0.05257,0.338403 -0.03618,0.300522 -0.04763,0.289637 0.331266,0.314721 0.109153,0.007 0.211868,0.01633 0.22824,0.0203 0.01638,0.0035 0.02998,-0.02415 0.03025,-0.0623 z M 14.707392,15.6916 c -0.01492,-0.01493 -0.02712,-0.0854 -0.02712,-0.156672 0,-0.126362 -0.0031,-0.12866 -0.124732,-0.0938 -0.234191,0.0672 -0.261333,-0.03372 -0.04397,-0.163333 0.08187,-0.04888 0.239219,-0.187472 0.349667,-0.308094 0.145969,-0.159413 0.219394,-0.212182 0.268844,-0.1932 0.06232,0.02392 0.06304,0.03803 0.0086,0.168234 -0.03267,0.07817 -0.09436,0.19124 -0.137105,0.251276 -0.04274,0.06008 -0.10843,0.188487 -0.145962,0.285472 -0.07862,0.20314 -0.110308,0.248045 -0.148263,0.210082 z m 2.195748,-0.130305 c 0,-0.04515 0.02343,-0.08202 0.05205,-0.08202 0.02863,0 0.09381,-0.03897 0.144851,-0.08645 0.168758,-0.15722 0.97699,-0.557072 1.091015,-0.539747 0.06882,0.0105 0.05717,0.02812 -0.07474,0.113634 -0.09101,0.05892 -0.215682,0.199558 -0.298549,0.336676 l -0.142287,0.235446 -0.298031,0.02427 c -0.163916,0.0133 -0.337694,0.03687 -0.386173,0.05227 -0.07165,0.02275 -0.08815,0.0126 -0.08815,-0.05413 z m 4.625315,-0.611544 c -0.120594,-0.160218 -0.219263,-0.308268 -0.219263,-0.328977 0,-0.02077 -0.05286,-0.09952 -0.117469,-0.175093 -0.06461,-0.0756 -0.118196,-0.151317 -0.119083,-0.168292 -8.9e-4,-0.01692 -0.06346,-0.156018 -0.139051,-0.308969 -0.112012,-0.226649 -0.130384,-0.296649 -0.09931,-0.378386 0.04632,-0.121823 0.10254,-0.0959 0.137512,0.06323 0.01428,0.06498 0.04193,0.128042 0.06145,0.140105 0.01951,0.01202 0.106248,0.172912 0.19271,0.357421 0.08646,0.18452 0.236785,0.45619 0.33404,0.603704 0.15654,0.23744 0.262713,0.486535 0.20738,0.486535 -0.01085,0 -0.118325,-0.131098 -0.23892,-0.291317 z m -4.188679,0.02228 c 0,-0.01703 0.02438,-0.06615 0.0542,-0.1092 0.02981,-0.04305 0.06673,-0.118487 0.08206,-0.167604 0.02606,-0.08353 0.0163,-0.08925 -0.151086,-0.08925 -0.09844,0 -0.189035,0.01633 -0.201354,0.03628 -0.01232,0.01995 -0.09605,0.04865 -0.186084,0.06393 -0.09004,0.01517 -0.322967,0.07922 -0.517644,0.14238 -0.194677,0.06312 -0.379929,0.114683 -0.411672,0.114683 -0.10483,0 -0.06008,-0.07653 0.09114,-0.155902 0.08187,-0.04293 0.229234,-0.134306 0.327477,-0.202988 l 0.178623,-0.124868 -0.176654,0.02532 c -0.09716,0.01388 -0.196001,0.0413 -0.219649,0.06102 -0.05929,0.04923 -0.172294,-0.02228 -0.119184,-0.07548 0.0602,-0.0602 0.999929,-0.479769 1.074571,-0.479769 0.04849,0 0.05924,-0.0231 0.0415,-0.08925 -0.01316,-0.04912 -0.02417,-0.1295 -0.02448,-0.178628 -5.15e-4,-0.08517 -0.0154,-0.08925 -0.318096,-0.08925 -0.255806,0 -0.317552,-0.01167 -0.317552,-0.0595 0,-0.03908 0.03915,-0.0595 0.114123,-0.0595 0.241015,0 0.360095,-0.04445 0.350985,-0.131028 -0.0067,-0.06312 0.02094,-0.0882 0.120139,-0.109317 0.148386,-0.0315 0.248332,-0.1036 0.248332,-0.178955 0,-0.08342 -0.08471,-0.11655 -0.297705,-0.11655 -0.145275,0 -0.198472,-0.01517 -0.198472,-0.05658 0,-0.03535 0.07423,-0.07338 0.198472,-0.1015 0.249798,-0.05658 0.753183,-0.31395 0.922966,-0.471929 0.0956,-0.0889 0.140663,-0.1085 0.173734,-0.07548 0.05502,0.05507 -0.06882,0.276617 -0.278355,0.498062 -0.115256,0.121811 -0.133808,0.162703 -0.09899,0.218318 0.02357,0.03768 0.08886,0.07397 0.145092,0.08073 0.1894,0.02275 0.237945,0.21175 0.06823,0.265626 -0.08908,0.02823 -0.26209,0.250566 -0.339823,0.436602 l -0.05805,0.138915 h 0.152393 c 0.30237,0 0.427602,0.314068 0.227219,0.569837 -0.135033,0.172351 -0.186959,0.224467 -0.371551,0.372902 -0.150832,0.121286 -0.284853,0.167451 -0.284853,0.09812 z m -1.746543,-1.21512 c 0,-0.139231 0.129686,-0.717186 0.195249,-0.870148 0.158399,-0.369518 0.60988,-0.757377 1.004192,-0.862668 0.09351,-0.02497 0.196801,-0.0588 0.229549,-0.07525 0.03275,-0.01645 0.180572,-0.0539 0.328498,-0.08318 0.239941,-0.04748 0.275855,-0.04632 0.332904,0.0105 0.09072,0.09077 0.03907,0.189187 -0.09924,0.189187 -0.219058,0 -0.820811,0.12264 -0.978953,0.199523 -0.42205,0.20517 -0.777036,0.700654 -0.834833,1.165221 -0.01789,0.143873 -0.05751,0.261928 -0.103207,0.307627 -0.05418,0.05413 -0.07417,0.05927 -0.07417,0.01902 z m 4.505287,-1.047259 c -0.174653,-0.102084 -0.425027,-0.294946 -0.556384,-0.428576 -0.223993,-0.227885 -0.448455,-0.354106 -0.580182,-0.326258 -0.03162,0.007 -0.05426,-0.0217 -0.05426,-0.0679 0,-0.130492 0.178638,-0.08027 0.72875,0.20503 0.511342,0.26516 0.72127,0.422999 0.824332,0.619792 0.05394,0.103017 0.04585,0.189887 -0.01728,0.185465 -0.01508,-9.45e-4 -0.170327,-0.0854 -0.344981,-0.18753 z M 9.10344,26.190417 c -0.014735,-0.05798 -0.00747,-0.141669 0.016263,-0.185932 0.023695,-0.04422 0.043073,-0.137305 0.043073,-0.206768 0,-0.1463 0.071062,-0.377231 0.2855979,-0.928084 0.1572423,-0.403749 0.2844452,-0.997116 0.2625492,-1.224733 -0.00828,-0.08668 0.0049,-0.12761 0.041218,-0.12761 0.063152,0 0.1838459,0.210525 0.3413579,0.595409 0.132708,0.324287 0.281,0.541264 0.350238,0.512447 0.08173,-0.03407 0.315514,-0.37625 0.388661,-0.568949 0.104798,-0.276092 0.172089,-0.236681 0.198146,0.116084 0.0121,0.163741 0.01018,0.315572 -0.0045,0.3374 -0.01454,0.02182 -0.03754,0.124845 -0.0511,0.228923 -0.0509,0.390496 -0.291974,0.633209 -0.673463,0.678044 -0.118044,0.01388 -0.278212,0.0518 -0.3559294,0.08423 C 9.7418981,25.585928 9.2934603,25.979259 9.2054037,26.15 l -0.075238,0.145881 z m 18.914066,-0.314032 c -0.140921,-0.0266 -0.207948,-0.06907 -0.317553,-0.20104 -0.193122,-0.23261 -0.479639,-0.510744 -0.52614,-0.510744 -0.02133,0 -0.121563,-0.05997 -0.222731,-0.133315 -0.101171,-0.07327 -0.230487,-0.144468 -0.287376,-0.158095 -0.112175,-0.02683 -0.29779,-0.274097 -0.35932,-0.47859 -0.04268,-0.14182 -0.152506,-0.829396 -0.152506,-0.954719 0,-0.05553 0.02679,-0.08633 0.07861,-0.09018 0.09039,-0.007 0.117656,0.02672 0.144803,0.178231 0.04662,0.260132 0.559436,0.882537 0.727153,0.882537 0.08481,0 0.262164,-0.18459 0.317126,-0.330061 0.02322,-0.06148 0.04222,-0.244545 0.04222,-0.406864 0,-0.162318 0.01339,-0.294548 0.02977,-0.29386 0.06748,0.0023 0.168713,0.111767 0.168893,0.181743 1.98e-4,0.0763 0.186244,0.596762 0.367394,1.027671 0.05507,0.130982 0.119048,0.336408 0.14218,0.456482 0.0497,0.257997 0.08559,0.875164 0.05052,0.868922 -0.01343,-0.0023 -0.104799,-0.01948 -0.203039,-0.03803 z M 9.0157463,25.367123 c -0.039597,-0.06335 -0.034837,-0.07852 0.030112,-0.09555 0.082868,-0.0217 0.1623545,0.05647 0.084012,0.0826 -0.02583,0.0082 -0.036878,0.03197 -0.024535,0.05192 0.012343,0.01995 0.00782,0.03628 -0.010033,0.03628 -0.017862,0 -0.053655,-0.03395 -0.079532,-0.07537 z m 2.4402857,-0.244848 c -0.13451,-0.147024 -0.271421,-0.613994 -0.32628,-1.112861 -0.02377,-0.21609 0.02085,-0.432577 0.08915,-0.432577 0.01853,0 0.0763,0.13587 0.128384,0.301945 l 0.0947,0.301957 0.09279,-0.1134 c 0.180632,-0.220768 0.3319,-0.35945 0.487383,-0.446834 0.128833,-0.07245 0.157373,-0.07747 0.157373,-0.02788 0,0.03325 -0.03247,0.09252 -0.07216,0.131542 -0.07137,0.07023 -0.174851,0.234745 -0.347246,0.552032 -0.102646,0.188918 -0.176006,0.522048 -0.164288,0.746083 0.0092,0.175631 -0.03906,0.210141 -0.139812,0.09998 z m 13.578307,0.03243 c -0.132949,-0.10815 -0.222773,-0.298037 -0.248848,-0.525945 -0.03185,-0.278379 -0.160004,-0.701809 -0.265461,-0.877101 -0.07725,-0.128427 -0.06601,-0.17479 0.04244,-0.17479 0.06896,0 0.303066,0.230405 0.514219,0.5061 0.07106,0.09275 0.14472,0.1687 0.163678,0.1687 0.04039,0 0.513716,-0.48279 0.514229,-0.52451 4.01e-4,-0.03255 0.331677,-0.348215 0.348145,-0.331753 0.0059,0.0058 -0.01613,0.06265 -0.04914,0.125941 -0.03301,0.06323 -0.06012,0.142264 -0.06024,0.175514 -4.55e-4,0.11235 -0.804477,1.507462 -0.86875,1.507462 -0.01611,0 -0.05672,-0.02228 -0.09027,-0.04958 z M 6.6223524,24.303262 C 6.480446,24.274446 6.2750285,24.230812 6.1658693,24.206196 5.9398169,24.155212 5.4202801,23.917002 5.3497526,23.832022 c -0.025865,-0.03115 -0.064097,-0.0567 -0.084968,-0.0567 -0.020872,0 -0.1091184,-0.07595 -0.1961086,-0.1687 C 4.870817,23.395584 4.8800407,23.259387 5.104189,23.082193 5.2712056,22.950162 5.5398367,22.67456 5.7513686,22.41822 6.1221554,21.968913 6.3809911,21.432701 6.486256,20.895836 6.5929127,20.351829 6.5194126,19.666902 6.2830342,19.0021 c -0.036867,-0.103717 -0.0847,-0.188557 -0.1062717,-0.188557 -0.021583,0 -0.028397,-0.02823 -0.015143,-0.06277 C 6.1784308,18.707027 6.0572257,18.56124 5.760338,18.268278 5.4176423,17.93012 5.2807092,17.823684 5.0557746,17.720668 4.3586593,17.401386 4.1613187,17.300773 4.1613187,17.264618 c 0,-0.182677 1.3836606,0.303625 1.8457787,0.648713 0.6949839,0.51898 0.9711469,0.821952 1.5804134,1.733796 0.2491324,0.372855 0.5343477,1.246982 0.4855857,1.488214 -0.013277,0.06568 -0.024605,0.152005 -0.025188,0.191858 -8.913e-4,0.06207 -0.010733,0.06498 -0.068273,0.02065 -0.036972,-0.02847 -0.1158269,-0.105817 -0.1752277,-0.171698 -0.091443,-0.1015 -0.1143801,-0.110717 -0.1495796,-0.06032 -0.036342,0.05203 -0.046737,0.05075 -0.082518,-0.0105 -0.04935,-0.08377 -0.2354673,-0.09415 -0.2354673,-0.01318 0,0.03092 -0.019133,0.06265 -0.042525,0.07035 -0.02499,0.0082 -0.045453,0.152868 -0.049618,0.35063 -0.00665,0.312853 0.00187,0.351902 0.1201949,0.556605 0.070012,0.121089 0.1806946,0.267739 0.2459673,0.325897 0.1656854,0.14763 0.7613543,0.47761 1.2402014,0.687027 0.5075272,0.22197 0.5183643,0.230604 0.4514093,0.35966 -0.057447,0.110717 -0.5758613,0.451512 -0.6868615,0.451512 -0.038652,0 -0.1101918,0.028 -0.1589783,0.06218 -0.048778,0.03418 -0.2090528,0.104066 -0.3561556,0.155341 -0.6485119,0.226019 -1.0505246,0.278064 -1.4781328,0.19138 z m 3.7709456,-0.377825 c 0,-0.0581 0.0167,-0.116083 0.03709,-0.128637 0.09893,-0.06113 0.178147,-0.486616 0.173971,-0.93443 -0.0056,-0.600484 -0.11627,-0.980187 -0.51483,-1.766381 C 9.7400354,20.406582 9.6586861,20.168744 9.5933749,19.645424 9.5520629,19.314382 9.5548979,19.2198 9.6152379,18.915965 9.726188,18.357283 9.9317245,17.741481 10.157009,17.292746 c 0.174031,-0.34664 0.234792,-0.431037 0.361663,-0.502344 0.08387,-0.04713 0.152488,-0.07735 0.152488,-0.06708 0,0.0105 -0.08095,0.149812 -0.179906,0.310158 -0.232587,0.376916 -0.362383,0.794594 -0.417142,1.342333 -0.0374,0.374173 -0.03434,0.482533 0.02055,0.726542 0.104708,0.4655 0.352315,1.166749 0.43253,1.224977 0.04571,0.03325 0.188429,0.439706 0.163218,0.46493 -0.01073,0.0105 0.0054,0.05752 0.03585,0.104067 0.09643,0.147163 0.22277,0.671825 0.22277,0.925085 0,0.495332 -0.08667,1.046687 -0.243906,1.551539 -0.157661,0.506241 -0.311813,0.779392 -0.311813,0.552522 z M 27.154537,23.70587 c -0.06567,-0.147361 -0.132646,-0.330446 -0.148827,-0.406863 -0.01618,-0.07642 -0.04288,-0.156789 -0.05934,-0.178617 -0.113061,-0.150022 -0.509845,-1.786844 -0.595116,-2.454983 -0.09211,-0.721678 -0.105138,-1.151397 -0.0652,-2.149539 0.02692,-0.672572 0.02153,-0.798175 -0.04973,-1.160565 -0.04395,-0.223499 -0.133565,-0.518234 -0.199138,-0.654956 -0.129657,-0.270328 -0.489822,-0.840245 -0.557396,-0.882012 -0.02309,-0.01423 -0.06056,-0.06067 -0.08328,-0.103133 -0.03428,-0.06405 -0.02827,-0.07712 0.03534,-0.07712 0.05121,0 0.206852,0.167953 0.468988,0.5061 0.604985,0.780396 0.860867,1.257633 1.005602,1.875546 0.159966,0.682932 0.207588,1.198308 0.156177,1.690151 -0.02263,0.216592 -0.04854,0.465244 -0.05758,0.552569 -0.009,0.08727 -0.0312,0.274879 -0.04928,0.416793 -0.01808,0.141902 -0.0309,0.62419 -0.02849,1.071735 0.0043,0.792611 0.0077,0.825336 0.132937,1.260713 0.0707,0.24584 0.161276,0.522702 0.201275,0.615265 0.119081,0.275544 0.133348,0.346897 0.06936,0.346897 -0.03199,0 -0.109177,-0.117285 -0.176311,-0.267937 z m 2.411041,-0.07222 c -0.05458,-0.0093 -0.225067,-0.04562 -0.378864,-0.07968 -0.153794,-0.03407 -0.296694,-0.05693 -0.317553,-0.05087 -0.05401,0.01587 -0.557713,-0.144142 -0.822106,-0.261077 -0.189455,-0.08377 -0.307408,-0.189724 -0.307408,-0.276115 0,-0.01167 0.174445,-0.110367 0.387658,-0.219835 0.660471,-0.339256 1.580333,-1.257598 1.654227,-1.6515 0.03444,-0.183586 -0.08107,-0.488483 -0.196107,-0.517592 -0.132001,-0.03348 -0.359722,0.07222 -0.558838,0.259234 l -0.188365,0.176913 0.02671,-0.227231 c 0.01469,-0.124974 0.10843,-0.427864 0.208321,-0.673099 0.09989,-0.245221 0.202404,-0.49959 0.227813,-0.565262 0.02541,-0.06568 0.09048,-0.190703 0.144592,-0.277853 0.05412,-0.08715 0.107707,-0.176318 0.119083,-0.198158 0.283075,-0.543107 0.801368,-1.119056 1.443364,-1.603911 0.318984,-0.240906 0.809189,-0.481636 0.971097,-0.476887 0.05882,0.0023 0.08463,0.01213 0.05735,0.0231 -0.02729,0.0105 -0.04961,0.05297 -0.04961,0.09333 0,0.04037 -0.109293,0.168292 -0.24304,0.28448 -0.453011,0.393517 -0.708477,0.837387 -0.985759,1.712761 -0.192879,0.608919 -0.237896,1.071316 -0.15883,1.631469 0.05072,0.35931 0.196681,0.822862 0.294583,0.935539 0.02846,0.03278 0.108488,0.161151 0.177859,0.285343 0.130954,0.234442 0.287335,0.395442 0.605992,0.623875 0.170808,0.122442 0.388583,0.388011 0.388583,0.473854 0,0.07105 -0.223051,0.27923 -0.385768,0.360045 -0.2962,0.147094 -0.633856,0.202487 -1.340929,0.219964 -0.37114,0.0093 -0.719456,0.0082 -0.774036,-9.8e-4 z M 7.1383764,17.485549 c 0,-0.0826 0.5518769,-0.686723 0.7992839,-0.874977 l 0.2086644,-0.158783 -0.2558853,-0.01295 c -0.2380794,-0.01202 -0.4602222,0.01797 -0.8512985,0.115266 -0.087325,0.0217 -0.2745052,0.06557 -0.4159509,0.09742 -0.1414467,0.03185 -0.3379333,0.08412 -0.4366369,0.116084 -0.2333662,0.0756 -0.4842218,0.09368 -0.5044274,0.0364 -0.024558,-0.06953 0.2307762,-0.200282 0.694068,-0.355286 0.2330663,-0.07793 0.4463157,-0.160498 0.4738876,-0.183376 0.027568,-0.02287 0.050132,-0.03173 0.050132,-0.0196 0,0.01202 0.058053,0.0047 0.1290054,-0.01738 0.8848472,-0.269722 2.2155833,-0.58653 2.5349911,-0.603493 0.2361078,-0.01248 0.7411132,0.03115 0.7771932,0.0672 0.03506,0.03512 -0.101477,0.223906 -0.161874,0.223906 -0.09927,0 -1.8684729,0.905229 -2.1851718,1.118064 -0.4806308,0.322992 -0.7807783,0.509391 -0.8202711,0.509391 -0.019635,0 -0.035712,-0.02602 -0.035712,-0.05787 z M 2.6475839,16.911129 C 2.502734,16.871929 2.2848763,16.783111 2.1634553,16.713636 1.9263465,16.577975 1.2656802,15.948313 1.3358973,15.92491 c 0.023298,-0.0082 0.032538,-0.03978 0.020487,-0.07105 -0.028548,-0.07443 0.068378,-0.0735 0.3451504,0.0035 0.5905659,0.163847 1.0290322,0.139708 1.3951372,-0.07677 0.094325,-0.05577 0.2090761,-0.11809 0.2549903,-0.138448 0.109935,-0.04877 0.3517223,-0.331182 0.495934,-0.579297 0.2267511,-0.390122 0.269219,-0.565122 0.2956033,-1.218118 0.02373,-0.587371 0.021117,-0.616841 -0.077793,-0.876366 C 3.8857051,12.496879 3.6108021,12.147614 3.0895607,11.72857 2.9476543,11.61447 2.7868933,11.476873 2.7323131,11.422775 2.6113787,11.3029 2.1095658,11.00806 1.9072844,10.938036 c -0.2137708,-0.07397 -0.1949898,-0.16373 0.03115,-0.148796 0.4236345,0.028 1.4034975,0.317391 1.6544605,0.488658 0.091257,0.0623 0.1762823,0.113284 0.188936,0.113284 0.012658,0 0.1701981,0.09532 0.3500958,0.21189 0.1798979,0.11655 0.4311665,0.27839 0.5583753,0.359672 0.351734,0.224758 0.9003932,0.735957 1.2068545,1.124468 0.2345399,0.297326 0.2757326,0.373007 0.2813735,0.516974 0.00362,0.09275 -0.0084,0.168654 -0.026647,0.168654 -0.043598,0 -0.1460179,-0.120436 -0.1772111,-0.208391 -0.013545,-0.03815 -0.042245,-0.06953 -0.06377,-0.06953 -0.021525,0 -0.086403,-0.04725 -0.1441721,-0.105 -0.07294,-0.07292 -0.1138784,-0.09077 -0.1339836,-0.05822 -0.015925,0.02578 -0.058928,0.03535 -0.095562,0.02123 -0.097032,-0.03722 -0.3220901,0.08283 -0.4531418,0.241885 -0.1843346,0.223627 -0.2677817,0.563571 -0.2677817,1.090893 0,0.428494 0.00735,0.47089 0.1190829,0.691565 0.065497,0.129302 0.1683011,0.284317 0.2284568,0.344494 0.1129801,0.112933 0.1601624,0.11767 0.664661,0.0658 0.073547,-0.007 0.101885,0.0105 0.1094684,0.06918 0.00747,0.0581 -0.04557,0.113634 -0.1984711,0.207399 -0.1147884,0.07035 -0.3033907,0.18907 -0.4191137,0.263702 -0.2491301,0.160661 -0.7229885,0.367325 -1.2193425,0.531778 -0.3027467,0.100334 -0.4222216,0.118965 -0.7740361,0.120832 -0.281854,0.0012 -0.5009694,-0.02077 -0.6793936,-0.06895 z m 25.4206641,-0.1008 c -0.07429,-0.132755 -0.693259,-0.727534 -1.062943,-1.021406 -0.882021,-0.701155 -1.131283,-0.946645 -1.131283,-1.114144 0,-0.121135 1.240393,0.250881 1.86324,0.558811 0.183495,0.09077 0.693763,0.443753 0.756575,0.523448 0.01097,0.01388 0.100227,0.07992 0.19847,0.146954 0.237139,0.161677 0.793883,0.712705 0.793883,0.78575 0,0.08563 -0.125288,0.02742 -0.580599,-0.269827 -0.36417,-0.237743 -1.021593,-0.578725 -1.240814,-0.643557 -0.08731,-0.02578 -0.09259,-0.0196 -0.06747,0.0805 0.01497,0.05973 0.116691,0.210164 0.226015,0.334367 0.215506,0.244825 0.443513,0.613224 0.403995,0.652739 -0.04355,0.04352 -0.125568,0.02625 -0.159065,-0.03372 z m 2.816553,-0.23807 c -0.647122,-0.146242 -1.195537,-0.414622 -1.542898,-0.755079 -0.25921,-0.254053 -0.332043,-0.362425 -0.332043,-0.494072 0,-0.116795 0.08983,-0.101383 0.18874,0.03243 0.10612,0.143524 0.266797,0.200982 0.43605,0.155926 0.175996,-0.0469 0.466189,-0.358739 0.607593,-0.653007 0.106295,-0.221212 0.117508,-0.283594 0.121272,-0.674801 0.0049,-0.506288 -0.02358,-0.694308 -0.136002,-0.89872 -0.09318,-0.169446 -0.214128,-0.217992 -0.375997,-0.150943 -0.136696,0.05658 -0.518678,0.41916 -0.562074,0.53347 -0.03168,0.08342 -0.03328,0.08307 -0.08083,-0.01937 -0.04194,-0.09042 -0.03188,-0.151363 0.07424,-0.4501 0.224089,-0.630793 0.693275,-1.303669 1.218593,-1.747609 0.356137,-0.300977 0.459313,-0.390939 0.528814,-0.461067 0.100651,-0.101617 0.382893,-0.275345 0.835458,-0.514418 1.459409,-0.7709458 1.589886,-0.8282643 1.589886,-0.6983791 0,0.02905 -0.04019,0.075133 -0.0893,0.1024334 -0.3022,0.1677787 -0.944753,1.2289667 -1.360098,2.2462427 -0.225393,0.552032 -0.338008,0.862307 -0.33012,0.909545 0.0039,0.02368 -0.01334,0.114801 -0.03845,0.202406 -0.05803,0.202498 -0.07386,0.68376 -0.03263,0.991831 0.03618,0.270329 0.230626,0.671721 0.369489,0.762697 0.05014,0.0329 0.08171,0.07502 0.07017,0.09368 -0.03515,0.05693 0.355091,0.22967 0.612257,0.271086 0.326663,0.05262 0.603168,0.02403 0.894493,-0.09252 0.133548,-0.05343 0.293214,-0.106284 0.35481,-0.117449 0.0616,-0.01167 0.138134,-0.042 0.170085,-0.06848 0.04621,-0.03838 0.07067,-0.03558 0.119571,0.0133 0.05551,0.05553 0.01965,0.103483 -0.369163,0.494002 -0.362017,0.363603 -0.48757,0.461802 -0.787889,0.616222 -0.516592,0.265615 -0.928715,0.37324 -1.563436,0.408275 -0.218226,0.01202 -0.431837,-0.0012 -0.590581,-0.03733 z M 7.4775804,13.626551 c -0.043785,-0.17444 -0.055592,-1.355002 -0.016602,-1.660214 0.063828,-0.499707 0.1441511,-1.230309 0.1363041,-1.239771 -0.0042,-0.0047 -0.068892,0.0082 -0.1437159,0.02975 -0.2152829,0.06172 -1.511013,0.0469 -2.0236291,-0.0231 -0.4776127,-0.06533 -1.3775848,-0.279113 -1.6428184,-0.390308 -0.1123501,-0.04713 -0.1438163,-0.07747 -0.1126884,-0.1085 0.031127,-0.03115 0.1635294,-0.01342 0.4740485,0.06347 0.3938751,0.09753 0.4818978,0.105233 1.0256512,0.0903 0.8104407,-0.02217 1.3128148,-0.134739 2.3943657,-0.5362942 0.1164918,-0.043283 0.2593887,-0.11375 0.3175529,-0.1567067 0.05817,-0.042933 0.1715842,-0.09975 0.2520422,-0.1262569 0.080465,-0.026483 0.1519094,-0.06405 0.1587764,-0.083417 0.015645,-0.0441 0.9531884,-0.5213954 0.9771331,-0.4974554 0.00968,0.00933 -0.098537,0.2103736 -0.2404269,0.4460287 C 8.8916861,9.6697435 8.728761,9.955717 8.6715184,10.069572 8.3865015,10.636444 7.976866,11.772311 7.8514725,12.343453 c -0.026367,0.120074 -0.07133,0.307627 -0.099925,0.416781 -0.0637,0.243168 -0.1333477,0.62797 -0.1467353,0.810682 -0.012367,0.168782 -0.090288,0.20286 -0.1272332,0.05565 z M 27.276373,12.935464 c -0.02556,-0.05273 -0.05721,-0.185162 -0.07032,-0.294327 -0.01311,-0.1092 -0.03966,-0.278845 -0.059,-0.37709 -0.01935,-0.09823 -0.05392,-0.282462 -0.07686,-0.40936 -0.02294,-0.126899 -0.13051,-0.49308 -0.239066,-0.813727 -0.10855,-0.320647 -0.237981,-0.716964 -0.287624,-0.880706 C 26.49386,9.9965127 26.339243,9.6392674 26.199909,9.3663722 25.95842,8.8933935 25.899835,8.7911585 25.609636,8.3363214 25.503968,8.1707247 25.493016,8.132353 25.540177,8.0932113 c 0.04309,-0.035817 0.07062,-0.0343 0.119469,0.00583 0.151501,0.1257318 1.1131,0.3706737 1.941082,0.4944454 0.350183,0.052383 0.601682,0.060317 1.270214,0.040367 0.458467,-0.01365 0.904601,-0.032783 0.991407,-0.04235 0.158184,-0.0175 0.221618,-0.02695 0.51697,-0.077583 0.222444,-0.038033 0.881557,-0.1727019 1.071743,-0.2189019 0.213944,-0.051917 0.218318,-0.051333 0.218318,0.034183 0,0.2788336 -3.332695,1.1966508 -4.342101,1.1957992 l -0.313142,-2.8e-4 0.02639,0.2282469 c 0.01451,0.1255334 0.0433,0.3354171 0.06396,0.4664101 0.09969,0.631762 0.243141,2.207871 0.230032,2.527398 -0.01029,0.249503 -0.01732,0.27244 -0.05814,0.188265 z m -5.609932,-0.55468 c 0,-0.0231 0.01786,-0.03103 0.03969,-0.0175 0.02183,0.01353 0.03969,0.03243 0.03969,0.042 0,0.0093 -0.01786,0.0175 -0.03969,0.0175 -0.02184,0 -0.03969,-0.0189 -0.03969,-0.042 z M 0.85830566,10.071611 C 0.7210134,9.8045492 0.57665229,9.4964206 0.53749543,9.3868939 0.34468496,8.8475318 0.1669,8.0064463 0.10944979,7.3618158 0.08802978,7.1216689 0.05169975,6.7687987 0.0286814,6.5776869 -0.04008198,6.0067898 0.0195814,4.8925874 0.15658783,4.1873835 0.29636392,3.468168 0.55261194,2.5265156 0.70777989,2.1618738 0.87822301,1.7613451 1.3089263,0.91150947 1.3414774,0.91150947 c 0.0581,0 0.051158,0.24081183 -0.018282,0.63511053 -0.032678,0.1855701 -0.059453,0.4311769 -0.059488,0.5458021 -2.8e-5,0.1145667 -0.01561,0.2083901 -0.034697,0.2083901 -0.01904,0 -0.047005,0.3349152 -0.062148,0.7442638 -0.021665,0.5861804 -0.014257,0.8327906 0.035023,1.1610559 C 1.3144691,4.9567074 1.3648225,5.1137641 1.7299918,5.8534314 1.9754516,6.35063 2.0895761,6.4968369 2.7521838,7.162934 3.4717294,7.8862679 4.341241,8.3502748 5.58606,8.6752034 c 0.5594929,0.1460434 0.9695975,0.1775784 1.5126346,0.1163167 0.1200757,-0.013533 0.2808367,-0.031267 0.3572476,-0.03955 0.076417,-0.00817 0.2014484,-0.0406 0.2778593,-0.0721 0.2633484,-0.1083834 0.3572477,-0.1173318 0.3572477,-0.034183 0,0.077117 -0.1893444,0.1536034 -0.6001186,0.2424102 C 7.3900955,8.9099135 7.26228,8.9449135 7.2068878,8.9660302 7.0864877,9.0117636 6.5797737,9.0848554 6.0864939,9.1275554 5.7344508,9.1580054 4.8389215,9.0974554 4.3754488,9.0117053 4.1140697,8.9634052 3.3813734,8.7189418 3.0925451,8.58369 2.496567,8.3046114 1.7098049,7.7482743 1.2972969,7.3142158 L 1.0729293,7.0781289 1.0244776,7.2795191 C 0.9978426,7.3902358 0.9677893,7.6237793 0.9577326,7.7983945 0.9476993,7.9730212 0.9225693,8.136203 0.9019892,8.1610297 0.8173358,8.2629964 0.9758159,9.7505909 1.1247667,10.252164 c 0.032725,0.110251 0.0595,0.223907 0.0595,0.252689 0,0.140256 -0.098303,0.0093 -0.32594344,-0.433242 z M 34.140287,9.043952 c 0.01029,-0.09555 0.04835,-0.2787985 0.08463,-0.4071903 0.134061,-0.4744604 0.154365,-1.3203759 0.04823,-2.0092931 -0.03867,-0.2510552 -0.07741,-0.5100437 -0.08606,-0.5755171 -0.0086,-0.06545 -0.03603,-0.2097902 -0.06086,-0.3206936 l -0.04513,-0.2016584 -0.501302,0.504047 c -0.53414,0.5370638 -0.772337,0.7091005 -1.493656,1.0788407 -0.40264,0.2063836 -0.735457,0.3317653 -1.59426,0.6005888 -0.329305,0.1031334 -1.366761,0.2127302 -1.596338,0.1687235 -0.05721,-0.0105 -0.237986,-0.030567 -0.401724,-0.043517 -0.476239,-0.037683 -0.70779,-0.1219985 -0.608215,-0.2215735 0.02082,-0.020767 0.08607,-0.021467 0.155683,-0.00117 0.266498,0.076417 1.384438,-0.05425 1.870656,-0.2185868 0.527382,-0.1783017 1.265811,-0.5993054 1.836798,-1.0472474 0.775001,-0.6079621 1.199809,-1.0449257 1.452699,-1.4942094 0.137244,-0.2438335 0.339307,-0.7882705 0.417687,-1.1254258 0.02285,-0.098233 0.0499,-0.2143401 0.06013,-0.2580085 0.08552,-0.3648986 0.101617,-1.4603878 0.03255,-2.213915 C 33.696205,1.0879877 33.494285,0.22523704 33.432176,0.06338526 33.413556,0.01485189 33.430676,-8.981185e-4 33.500966,3.521544e-5 33.633959,0.00237215 33.684843,0.05358886 33.948749,0.45526081 c 0.129085,0.19649014 0.282352,0.42869198 0.340591,0.51601703 0.193648,0.29038356 0.272369,0.47223206 0.41237,0.95266566 0.245444,0.842264 0.375818,2.6502952 0.24902,3.4533942 -0.03446,0.2183185 -0.07269,0.5309038 -0.08496,0.6946455 -0.01226,0.1637418 -0.03213,0.422742 -0.04417,0.5755638 -0.03796,0.4820553 -0.207057,1.4568993 -0.306397,1.7663929 -0.20135,0.6273171 -0.412846,0.982824 -0.374946,0.6302455 z"
       id="path847" />
  </g>
</svg>
