<?xml version="1.0" encoding="UTF-8" standalone="no"?>
<svg
   xmlns:dc="http://purl.org/dc/elements/1.1/"
   xmlns:cc="http://creativecommons.org/ns#"
   xmlns:rdf="http://www.w3.org/1999/02/22-rdf-syntax-ns#"
   xmlns:svg="http://www.w3.org/2000/svg"
   xmlns="http://www.w3.org/2000/svg"
   xmlns:sodipodi="http://sodipodi.sourceforge.net/DTD/sodipodi-0.dtd"
   xmlns:inkscape="http://www.inkscape.org/namespaces/inkscape"
   width="33mm"
   height="33mm"
   viewBox="0 0 33 33"
   version="1.1"
   id="svg8"
   inkscape:version="1.0.2 (e86c8708, 2021-01-15)"
   sodipodi:docname="angel2_33.svg">
  <defs
     id="defs2" />
  <sodipodi:namedview
     id="base"
     pagecolor="#ffffff"
     bordercolor="#666666"
     borderopacity="1.0"
     inkscape:pageopacity="0.0"
     inkscape:pageshadow="2"
     inkscape:zoom="4.0095683"
     inkscape:cx="18.737329"
     inkscape:cy="76.630971"
     inkscape:document-units="mm"
     inkscape:current-layer="layer1"
     inkscape:document-rotation="0"
     showgrid="false"
     inkscape:window-width="1731"
     inkscape:window-height="1067"
     inkscape:window-x="72"
     inkscape:window-y="25"
     inkscape:window-maximized="0" />
  <metadata
     id="metadata5">
    <rdf:RDF>
      <cc:Work
         rdf:about="">
        <dc:format>image/svg+xml</dc:format>
        <dc:type
           rdf:resource="http://purl.org/dc/dcmitype/StillImage" />
        <dc:title></dc:title>
      </cc:Work>
    </rdf:RDF>
  </metadata>
  <g
     inkscape:label="Layer 1"
     inkscape:groupmode="layer"
     id="layer1">
    <path
       style="fill:#000000;stroke-width:0.040735"
       d="m 14.626478,28.403171 c 0.01304,-0.06558 0.08238,-0.531677 0.154091,-1.035773 l 0.130382,-0.916536 0.131478,-0.01277 c 0.122998,-0.01194 0.131478,-0.0045 0.131478,0.115415 0,0.165676 0.06356,0.144679 0.233119,-0.07701 0.285791,-0.373647 0.387745,-1.08243 0.296667,-2.062387 -0.02707,-0.291255 -0.06358,-1.446091 -0.08113,-2.566304 -0.02555,-1.630732 -0.04487,-2.093591 -0.09693,-2.321894 -0.09716,-0.426158 -0.180701,-0.617349 -0.321506,-0.735828 -0.11225,-0.09445 -0.125795,-0.128614 -0.117546,-0.296487 0.01148,-0.233481 -0.07579,-0.576467 -0.441044,-1.733596 -0.396675,-1.256657 -0.492122,-1.666253 -0.518283,-2.224125 -0.03264,-0.696021 0.07779,-0.97445 0.454313,-1.145482 0.179598,-0.08158 0.740343,-0.110524 0.694181,-0.03583 -0.01385,0.0224 -0.06534,0.04091 -0.114426,0.04114 -0.290686,0.0013 -0.742044,0.371712 -0.836306,0.68633 -0.141204,0.471295 -0.0036,0.993372 0.356515,1.352187 0.296699,0.295665 0.510158,0.364946 0.813746,0.264111 0.346873,-0.115214 0.630744,-0.419139 0.753763,-0.807016 0.0172,-0.05423 0.04859,-0.06585 0.125658,-0.0465 0.08764,0.022 0.103137,0.01167 0.105489,-0.07029 l 0.0027,-0.09607 0.04535,0.09422 c 0.03268,0.0679 0.06921,0.08823 0.130783,0.07278 0.07203,-0.01808 0.09642,0.0095 0.155461,0.175716 0.11966,0.336908 0.490609,0.648927 0.852118,0.716747 0.107355,0.02014 0.199693,0.0041 0.344351,-0.05979 0.261032,-0.115298 0.441576,-0.294101 0.598086,-0.592321 0.116213,-0.221438 0.128282,-0.278867 0.128407,-0.611025 1.23e-4,-0.29976 -0.0162,-0.39725 -0.08943,-0.534614 -0.149272,-0.27996 -0.532439,-0.541865 -0.795828,-0.543969 -0.06162,-4.86e-4 -0.112021,-0.02158 -0.112021,-0.04686 0,-0.07924 0.617265,-0.02241 0.778335,0.07166 0.312391,0.182445 0.423192,0.499659 0.389425,1.114891 -0.02833,0.516249 -0.159631,1.063024 -0.557555,2.321893 -0.345265,1.092277 -0.415158,1.37696 -0.401455,1.635141 0.009,0.16934 -0.004,0.205713 -0.10035,0.28152 -0.06087,0.04788 -0.145323,0.154976 -0.187673,0.237988 -0.207604,0.406939 -0.306295,1.511803 -0.266002,2.97796 0.02105,0.765913 0.01121,1.220628 -0.04232,1.95528 -0.112657,1.546216 -0.04219,2.172124 0.28795,2.557823 0.173955,0.203228 0.22185,0.213852 0.22185,0.04922 0,-0.107888 0.01394,-0.122204 0.11897,-0.122204 0.09721,0 0.123056,0.02049 0.141315,0.112021 0.04716,0.236389 0.273765,1.893077 0.260723,1.906118 -0.0075,0.0075 -0.360299,-0.548815 -0.783881,-1.236368 l -0.770132,-1.25011 0.171181,-1.486891 c 0.196506,-1.706878 0.208773,-2.157638 0.08979,-3.299595 -0.114355,-1.097512 -0.142516,-1.802516 -0.0846,-2.118219 0.04818,-0.262679 0.147324,-0.473349 0.565521,-1.201683 0.115776,-0.201638 0.263429,-0.504095 0.328116,-0.672127 0.144615,-0.375656 0.30552,-1.262785 0.229039,-1.262785 -0.01052,0 -0.212677,0.02876 -0.449226,0.0639 l -0.430091,0.0639 -0.341585,-0.310115 c -0.220336,-0.200032 -0.351879,-0.293471 -0.370572,-0.263225 -0.01966,0.0318 -0.03746,0.03318 -0.05533,0.0042 -0.01515,-0.02451 -0.16928,0.08612 -0.362812,0.260429 -0.185059,0.166679 -0.349639,0.302722 -0.365732,0.30232 -0.01609,-4.42e-4 -0.203405,-0.02757 -0.416246,-0.06037 -0.21284,-0.0328 -0.403362,-0.05997 -0.423382,-0.06037 -0.04934,-0.001 0.0023,0.527151 0.08318,0.851264 0.09976,0.399575 0.265843,0.769339 0.601538,1.339228 0.168341,0.28578 0.334947,0.601433 0.370234,0.701453 0.0925,0.262176 0.08225,1.242128 -0.02356,2.253211 -0.13155,1.25695 -0.119733,1.75696 0.08136,3.442074 l 0.171719,1.438973 -0.17351,0.292265 c -0.224851,0.378746 -1.376072,2.236764 -1.401879,2.262571 -0.01087,0.01087 -0.0091,-0.03389 0.004,-0.09947 z M 12.33116,27.93999 c 0.0064,-0.01482 0.156137,-0.292348 0.332715,-0.616715 l 0.321049,-0.58976 0.581048,-0.217764 c 0.319577,-0.119768 0.602358,-0.230931 0.628401,-0.247026 0.06199,-0.03832 0.011,-0.245582 -0.06041,-0.245582 -0.05235,0 -3.739102,1.322337 -3.811497,1.36708 -0.02022,0.01249 -0.03676,0.01162 -0.03676,-0.002 0,-0.01913 0.309318,-0.609073 0.34833,-0.664346 0.008,-0.01131 4.251422,-0.945172 4.294821,-0.945172 0.01095,0 -0.236471,0.258291 -0.549831,0.573979 l -0.569744,0.573979 0.16294,-0.02236 c 0.08962,-0.01228 0.261204,-0.03428 0.381303,-0.04887 l 0.218362,-0.0265 -0.0938,0.126867 c -0.2335,0.315827 -0.741699,0.658247 -1.184643,0.798199 -0.333818,0.105474 -0.981633,0.230666 -0.962289,0.185965 z m 7.76139,-0.0832 C 19.572717,27.747199 19.124423,27.515966 18.757494,27.168164 18.59169,27.011001 18.467288,26.871157 18.481046,26.8574 c 0.01377,-0.01377 0.167166,-0.0053 0.340906,0.01892 0.173739,0.02416 0.325902,0.03392 0.338141,0.02169 0.01223,-0.01223 -0.224322,-0.27122 -0.525691,-0.575511 -0.456886,-0.461319 -0.527753,-0.54856 -0.426448,-0.524986 0.06682,0.01555 1.00169,0.21961 2.077485,0.453468 1.075793,0.233856 1.992651,0.440866 2.037458,0.460021 0.04481,0.01916 0.160794,0.184103 0.257744,0.366547 0.161553,0.304018 0.168358,0.328315 0.08147,0.29096 -0.216653,-0.09314 -3.721227,-1.345355 -3.76526,-1.345355 -0.05152,0 -0.116893,0.197891 -0.07816,0.236617 0.01283,0.01283 0.293267,0.125237 0.623191,0.249788 l 0.599861,0.226457 0.313754,0.57029 c 0.172564,0.31366 0.314627,0.584038 0.315696,0.600841 0.003,0.0481 -0.192223,0.03111 -0.578638,-0.05035 z M 8.9552935,27.22968 C 8.5125491,27.085459 8.3631832,26.832255 8.3557633,26.213365 c -0.00461,-0.384936 0.00463,-0.436514 0.1306314,-0.728537 0.1601306,-0.371135 0.5843227,-1.021763 0.9636597,-1.478066 0.3520714,-0.423508 1.2808806,-1.361307 1.7725586,-1.789713 0.694905,-0.605482 1.670135,-1.335383 1.670135,-1.249995 0,0.02135 -0.316205,0.336943 -0.702679,0.701315 -1.819939,1.715863 -2.6165258,2.636863 -3.0489859,3.525182 -0.2869793,0.589483 -0.3361084,1.063791 -0.153441,1.481352 0.07877,0.180063 0.3015705,0.448085 0.3724808,0.448085 0.01984,0 0.1160373,-0.06553 0.2137729,-0.145613 l 0.1777013,-0.145611 0.230224,0.173821 C 10.262538,27.217529 10.249427,27.226098 9.5918309,27.26047 9.2519617,27.27823 9.078609,27.26987 8.9552935,27.22968 Z M 23.239436,27.2583 c -0.10082,-0.0074 -0.244027,-0.02354 -0.318238,-0.03594 l -0.13493,-0.02253 0.09419,-0.07168 c 0.05181,-0.03942 0.160191,-0.120945 0.240854,-0.181168 l 0.146656,-0.109497 0.195222,0.149064 c 0.223669,0.170783 0.251821,0.164458 0.456921,-0.102661 0.161241,-0.209998 0.214968,-0.395025 0.215261,-0.741321 5.91e-4,-0.612226 -0.370025,-1.343339 -1.168064,-2.304677 -0.320763,-0.386397 -1.40143,-1.474432 -2.371974,-2.388146 -0.255627,-0.24066 -0.454095,-0.448241 -0.44104,-0.461296 0.02384,-0.02383 0.398435,0.216002 0.701681,0.449247 0.938096,0.721548 2.236558,1.960979 2.798121,2.670914 0.793909,1.003668 1.089647,1.637234 1.032924,2.21287 -0.03721,0.377668 -0.11933,0.570318 -0.314188,0.737111 -0.241995,0.207137 -0.47363,0.247952 -1.133401,0.199711 z M 10.572054,26.28131 c 0.07776,-0.06696 0.553015,-0.44011 1.056135,-0.82923 1.624658,-1.25653 2.366986,-1.959041 2.617637,-2.477226 l 0.135289,-0.279691 0.197024,0.05745 c 0.108362,0.0316 0.204334,0.05014 0.21327,0.0412 0.009,-0.009 -0.153393,-0.441316 -0.360732,-0.960846 l -0.376982,-0.944596 -0.558558,0.01128 -0.558559,0.01128 0.151209,-0.16292 c 0.08316,-0.08961 0.339099,-0.357243 0.568742,-0.594753 l 0.417534,-0.431833 -2.81e-4,-0.729135 c -3.24e-4,-0.838918 -0.0098,-0.889763 -0.430053,-2.309798 -0.329679,-1.113971 -0.633098,-2.293489 -0.756521,-2.940919 -0.07361,-0.386137 -0.09351,-0.634287 -0.09474,-1.181315 -0.0015,-0.692028 -0.0015,-0.692641 0.118685,-0.909556 0.138891,-0.250734 0.266027,-0.330265 0.579712,-0.36264 0.287808,-0.02971 0.45662,-0.144908 0.583202,-0.397997 0.101467,-0.202877 0.101803,-0.207359 0.09226,-1.2342032 -0.0075,-0.8087272 0.0012,-1.0242178 0.04073,-1.0010001 0.02767,0.016273 0.154321,0.1088398 0.281443,0.205704 0.127123,0.096864 0.24039,0.1761161 0.251707,0.1761161 0.01131,0 0.04212,-0.1054019 0.06844,-0.2342262 0.16267,-0.7959006 0.725701,-1.6514229 1.269349,-1.9287717 0.634315,-0.3236038 1.343505,0.1079006 1.847743,1.1242556 0.100037,0.2016382 0.218409,0.5117757 0.263047,0.6891942 0.04463,0.1774183 0.08951,0.3309285 0.09971,0.3411334 0.01021,0.010205 0.138084,-0.075381 0.284178,-0.1901909 0.14609,-0.1148095 0.275221,-0.2087443 0.286955,-0.2087443 0.01173,0 0.0094,0.4261898 -0.0052,0.9470885 -0.03007,1.0748046 0.0047,1.3061876 0.230179,1.5316666 0.121991,0.121992 0.178064,0.141624 0.54127,0.18952 0.247336,0.03261 0.444921,0.199225 0.54556,0.460033 0.119278,0.309125 0.09834,1.288103 -0.04331,2.024668 -0.134919,0.701559 -0.38427,1.672151 -0.732556,2.851449 -0.439236,1.48725 -0.433505,1.456382 -0.432255,2.328682 l 0.001,0.767177 0.546977,0.57029 c 0.300837,0.31366 0.547839,0.579455 0.548892,0.590658 10e-4,0.0112 -0.241199,0.01485 -0.538337,0.0081 l -0.54025,-0.01226 -0.38151,0.940618 c -0.209831,0.517341 -0.37102,0.951112 -0.358197,0.963935 0.01282,0.01282 0.109906,-0.0062 0.215738,-0.04225 0.105833,-0.03605 0.195229,-0.06104 0.198657,-0.0555 0.0034,0.0056 0.03704,0.09332 0.0747,0.195092 0.03766,0.101764 0.185438,0.330899 0.328403,0.509188 0.403536,0.503237 1.020278,1.040566 2.55875,2.229275 0.486226,0.375685 0.896735,0.703593 0.912242,0.728684 0.02004,0.03242 -0.01673,0.0372 -0.127097,0.01649 -0.455414,-0.08543 -0.862206,-0.325109 -1.721776,-1.01443 -0.585273,-0.469356 -0.62646,-0.485608 -0.945424,-0.37307 -0.331925,0.11711 -0.637632,0.08237 -1.254322,-0.14255 -0.307112,-0.112009 -0.581298,-0.203663 -0.609304,-0.203676 -0.03697,-1.6e-5 -0.05092,0.100446 -0.05092,0.366593 0,0.312172 -0.0099,0.366615 -0.0666,0.366615 -0.05982,0 -0.06365,-0.05704 -0.03766,-0.560106 0.04522,-0.875172 0.162433,-1.799003 0.431404,-3.400081 0.136558,-0.812864 0.292106,-1.789557 0.345664,-2.170429 0.102699,-0.730319 0.168622,-0.986174 0.608756,-2.362628 0.644198,-2.014639 0.871571,-3.104856 0.826693,-3.963872 -0.04141,-0.793602 -0.325677,-1.175922 -0.95604,-1.285861 l -0.130987,-0.02285 -0.411544,0.721747 -0.411545,0.721747 0.0284,-0.458269 c 0.01562,-0.252047 0.0164,-0.458268 0.0017,-0.458268 -0.02169,0 -1.098547,0.704521 -1.163571,0.761247 -0.01035,0.0091 0.0036,0.05225 0.0309,0.09604 0.0452,0.07237 0.03857,0.07962 -0.07283,0.07962 -0.148939,0 -0.157279,-0.06547 -0.03937,-0.309044 0.178444,-0.368613 0.800716,-0.788588 1.262561,-0.852107 0.111203,-0.01529 0.202941,-0.03067 0.203857,-0.03417 0.01376,-0.05247 0.183355,-1.778334 0.174754,-1.778334 -0.0066,0 -0.131841,0.07333 -0.278257,0.16294 -0.146415,0.08962 -0.275055,0.16294 -0.285863,0.16294 -0.01082,0 -0.01965,-0.107322 -0.01965,-0.238494 0,-0.3848996 -0.07961,-1.2545092 -0.141987,-1.5510566 -0.06317,-0.3005201 -0.20208,-0.698848 -0.299252,-0.8582542 -0.328105,-0.5382485 -0.870288,-0.7261909 -1.346785,-0.4668489 -0.362121,0.1970913 -0.582772,0.5576223 -0.734524,1.2001757 -0.09328,0.3949322 -0.165839,1.0853841 -0.16589,1.578383 -1.7e-5,0.184836 -0.01378,0.335417 -0.03059,0.334626 -0.0168,-7.97e-4 -0.148829,-0.07346 -0.293391,-0.161484 -0.144562,-0.08803 -0.267071,-0.155813 -0.272244,-0.15064 -0.0052,0.0052 0.0308,0.40076 0.07996,0.879085 l 0.08936,0.869679 0.290338,0.07373 c 0.649969,0.165061 1.107352,0.530772 1.252733,1.001649 0.02266,0.07337 0.0076,0.08966 -0.09661,0.104966 -0.131702,0.01933 -0.15287,-0.0035 -0.07522,-0.08115 0.02651,-0.02651 0.04026,-0.05374 0.03055,-0.06052 -0.302079,-0.210763 -1.184095,-0.77085 -1.195304,-0.759027 -0.0086,0.0091 0.0013,0.198227 0.02204,0.420475 0.02067,0.222246 0.03245,0.419464 0.02618,0.43826 -0.0063,0.0188 -0.191386,-0.285407 -0.411379,-0.676008 l -0.399987,-0.710184 -0.149815,0.02062 c -0.0824,0.01134 -0.250635,0.07007 -0.373859,0.130513 -0.178064,0.08734 -0.250706,0.154415 -0.353969,0.32685 -0.167878,0.28033 -0.216321,0.518115 -0.216321,1.061824 0,0.859624 0.211558,1.791782 0.89723,3.953337 0.382181,1.204814 0.438917,1.428702 0.528786,2.08666 0.04675,0.342219 0.193785,1.263794 0.326762,2.047942 0.132976,0.784148 0.278953,1.716597 0.324392,2.072107 0.09689,0.758027 0.170734,1.986023 0.122466,2.036541 -0.0811,0.08489 -0.122152,-0.03721 -0.122152,-0.363434 0,-0.189113 -0.01707,-0.343842 -0.03793,-0.343842 -0.02086,0 -0.263743,0.08504 -0.539739,0.188971 -0.592707,0.223201 -0.940629,0.266762 -1.293351,0.161931 -0.121689,-0.03617 -0.265701,-0.06575 -0.320027,-0.06575 -0.06457,0 -0.284196,0.1492 -0.634183,0.430817 -0.874427,0.703608 -1.292147,0.948852 -1.737464,1.020059 l -0.180532,0.02887 z M 22.68778,21.322069 c -0.269803,-0.136522 -0.841973,-0.419208 -1.271487,-0.628191 -1.204723,-0.586166 -1.819117,-1.02741 -2.043788,-1.467801 -0.103398,-0.202676 -0.112734,-0.587846 -0.02169,-0.894449 0.03447,-0.116087 0.06817,-0.211069 0.07486,-0.211069 0.03523,0 0.812029,0.363264 0.840105,0.392872 0.02799,0.02952 0.122698,0.625503 0.0994,0.625503 -0.0044,0 -0.08582,-0.100819 -0.18088,-0.224042 -0.09507,-0.123223 -0.195643,-0.224043 -0.223503,-0.224043 -0.104724,0 -0.265318,0.168319 -0.265164,0.277919 2.95e-4,0.270565 0.344242,0.575599 0.685881,0.608425 0.165343,0.01589 0.213416,0.0031 0.314212,-0.0836 0.109792,-0.09444 0.120141,-0.127406 0.133697,-0.425909 0.01205,-0.265308 -2.95e-4,-0.352997 -0.06878,-0.487162 -0.122836,-0.24078 -0.460764,-0.522343 -0.862761,-0.718857 l -0.354442,-0.173267 0.376965,-0.192253 c 0.494455,-0.252173 0.72461,-0.432388 0.829849,-0.649784 0.183099,-0.378231 0.102402,-0.589695 -0.460658,-1.207129 -0.171909,-0.188511 -0.305035,-0.362653 -0.295835,-0.386983 0.0092,-0.02433 0.161234,-0.497917 0.337856,-1.052417 l 0.321132,-1.008183 0.01104,0.817983 0.01104,0.817982 0.141516,0.221229 c 0.07783,0.121674 0.201183,0.257605 0.274108,0.302068 0.242935,0.14812 0.300435,0.119711 0.723246,-0.357358 1.357714,-1.531936 2.671469,-2.971685 3.22691,-3.536384 l 0.644246,-0.654985 0.04455,-0.577569 C 25.807127,9.217211 25.680786,8.5836669 25.339436,8.2690217 25.130211,8.0761644 24.984533,8.0394182 24.54811,8.0694138 c -0.36558,0.025127 -0.784053,0.1580649 -1.384558,0.4398381 -0.48159,0.2259753 -0.447136,0.1733823 0.149642,-0.2284365 0.733008,-0.4935427 1.811551,-0.9763965 2.981362,-1.3347284 0.741645,-0.2271777 1.500861,-0.4141791 1.536572,-0.3784699 0.02276,0.022759 -0.319385,3.5350429 -0.381442,3.9157229 -0.01823,0.111869 -0.04857,0.132912 -0.340716,0.236395 -0.327436,0.115981 -0.817959,0.393197 -1.272886,0.719363 -0.374513,0.268513 -1.436864,1.346366 -1.775965,1.801881 -0.942007,1.265399 -1.576939,2.665255 -1.664153,3.669026 -0.01321,0.151953 -0.03983,0.286057 -0.05917,0.29801 -0.01934,0.01196 -0.250348,-0.0972 -0.513353,-0.242566 -0.534716,-0.295544 -0.53074,-0.295762 -0.63408,0.03489 -0.106773,0.341639 -0.121238,0.62568 -0.05222,1.025583 0.174792,1.012861 0.769594,2.075701 1.851731,3.308815 0.11984,0.136559 0.211493,0.245421 0.203676,0.241917 -0.0078,-0.0035 -0.234964,-0.118072 -0.504767,-0.254593 z m -12.64575,-7.38e-4 c 0.75716,-0.793334 1.439758,-1.895009 1.731018,-2.793763 0.196835,-0.607381 0.182372,-1.477343 -0.02927,-1.760681 -0.0485,-0.06494 -0.09339,-0.0482 -0.5619,0.209491 l -0.509187,0.280061 -0.02774,-0.266163 C 10.545662,16.037645 10.081967,14.889564 9.3575276,13.802647 8.3447967,12.28319 6.9553755,11.055578 5.8252273,10.681713 5.7132061,10.644658 5.6133352,10.607057 5.6032919,10.598166 5.5770616,10.574953 5.159875,6.5760868 5.1812335,6.5526063 5.2133689,6.5172793 6.4225733,6.8393485 7.0880118,7.0604728 8.1824389,7.4241489 9.1161621,7.8649252 9.8228743,8.3515005 10.261126,8.6532384 10.282537,8.711048 9.885744,8.5212417 9.2656424,8.224621 8.8410682,8.0932824 8.425656,8.0695813 8.0965939,8.0508064 8.0302208,8.0590378 7.8647353,8.1391485 7.6420428,8.246952 7.471238,8.4755787 7.3759606,8.7933874 7.2851896,9.096164 7.2530937,9.8161328 7.3058674,10.365707 l 0.043524,0.453253 0.2723909,0.25961 c 0.3799787,0.36215 1.5456535,1.624428 2.8645577,3.101951 0.891532,0.998753 1.137381,1.251526 1.217242,1.251526 0.147846,0 0.347912,-0.139752 0.481048,-0.336025 l 0.117461,-0.173162 0.02037,-0.89617 0.02036,-0.89617 0.17288,0.529555 c 0.09508,0.291255 0.25315,0.77993 0.351261,1.085943 l 0.178382,0.55639 -0.358837,0.394984 c -0.197361,0.217242 -0.387507,0.455402 -0.422547,0.529245 -0.141969,0.299176 -0.03918,0.673611 0.250804,0.913587 0.08467,0.07006 0.343343,0.224582 0.574838,0.343367 l 0.420901,0.215976 -0.196858,0.07335 c -0.417883,0.155699 -0.927595,0.548788 -1.067952,0.823599 -0.05912,0.115744 -0.05871,0.672393 5.75e-4,0.802523 0.09854,0.21628 0.468478,0.243452 0.746101,0.0548 0.188248,-0.127917 0.348461,-0.342747 0.348461,-0.467247 0,-0.106623 -0.166607,-0.295748 -0.260534,-0.295748 -0.03331,0 -0.138739,0.100096 -0.234288,0.222438 -0.09555,0.122341 -0.176604,0.218577 -0.180124,0.213859 -0.0035,-0.0047 0.01129,-0.148294 0.0329,-0.319056 l 0.03929,-0.310477 0.393036,-0.172322 c 0.21617,-0.09478 0.413625,-0.180684 0.438789,-0.190903 0.02742,-0.01113 0.07462,0.08806 0.117776,0.2475 0.19584,0.723495 -0.07526,1.174475 -1.070071,1.780091 -0.281846,0.17158 -2.7043955,1.38032 -2.7664298,1.38032 -0.011041,0 0.074844,-0.09946 0.1908618,-0.221018 z m 3.241078,-4.211595 c -0.272842,-0.08779 -0.512565,-0.318853 -0.512565,-0.494042 0,-0.07289 0.0277,-0.190303 0.06155,-0.260901 0.06197,-0.12925 0.32677,-0.335502 0.359811,-0.280262 0.03747,0.06264 0.314751,1.03918 0.30343,1.068628 -0.0066,0.01707 -0.102063,0.002 -0.212226,-0.03342 z m 6.271506,-0.119214 c 0.0325,-0.10659 0.108404,-0.363359 0.168678,-0.5706 0.06028,-0.207239 0.123732,-0.376798 0.141017,-0.376798 0.01728,0 0.103862,0.0689 0.192394,0.153126 0.309244,0.294176 0.254473,0.621408 -0.138853,0.829584 -0.111094,0.0588 -0.251566,0.118514 -0.312158,0.1327 l -0.110166,0.02579 z M 11.581463,14.375831 C 11.31305,13.970656 10.80331,13.432005 9.8940817,12.592749 8.6477856,11.442366 8.2648706,11.004687 7.9768115,10.401276 7.832032,10.097998 7.8212694,10.049968 7.8216418,9.708781 7.8220992,9.2853508 7.9044669,9.0328716 8.1736221,8.6298088 8.3490576,8.3670916 8.4641771,8.3047407 8.6219636,8.386978 c 0.052496,0.027361 0.3612437,0.2458553 0.6861052,0.4855429 0.9479702,0.699427 1.4835542,1.0388217 1.8349862,1.1628141 0.213481,0.07532 0.241078,0.04733 0.241647,-0.2450845 5.61e-4,-0.284642 -0.05594,-0.4583693 -0.243331,-0.7483023 l -0.162113,-0.2508228 0.153231,0.078173 c 0.288136,0.1469955 0.651474,0.6017504 0.943046,1.1803166 0.136374,0.270609 0.469889,1.22175 0.439173,1.252466 -0.0097,0.0097 -0.754097,-0.303556 -1.654178,-0.696163 C 9.9604485,10.213311 9.2086351,9.8920885 9.189833,9.8920885 c -0.05444,0 0.027527,0.3594785 0.1359823,0.5963775 0.1332339,0.291022 0.428418,0.724686 0.9788777,1.438102 0.657967,0.852747 0.977458,1.329585 1.180231,1.761483 0.167494,0.356753 0.296813,0.788504 0.262302,0.875729 -0.0085,0.02144 -0.08307,-0.06313 -0.165763,-0.187949 z m 9.702692,0.124827 c 0,-0.204779 0.190201,-0.739185 0.383462,-1.077416 0.196841,-0.344495 0.579833,-0.881583 1.312547,-1.840652 0.491793,-0.643722 0.818098,-1.221355 0.858001,-1.518863 0.01266,-0.094402 0.0098,-0.1716385 -0.0063,-0.1716385 -0.01613,0 -0.763996,0.3207865 -1.661924,0.7128585 -0.897924,0.392073 -1.64,0.705451 -1.649053,0.696397 -0.02715,-0.02715 0.150433,-0.590896 0.302389,-0.95999 0.262327,-0.6371732 0.630311,-1.1613447 1.00672,-1.4340145 0.226675,-0.1642028 0.248243,-0.1432793 0.08563,0.08307 -0.0783,0.1089909 -0.171274,0.2785503 -0.206603,0.3767987 -0.07088,0.1971124 -0.08839,0.6332308 -0.02785,0.6937698 0.09457,0.09457 0.837151,-0.3109343 1.622323,-0.8859083 0.97079,-0.7109012 1.1484,-0.830911 1.229716,-0.830911 0.122666,0 0.325273,0.2557888 0.514397,0.6494158 0.156616,0.3259705 0.167357,0.3710599 0.165531,0.6948384 -0.0024,0.4181341 -0.09118,0.6717501 -0.396668,1.1325811 -0.207033,0.312315 -0.694753,0.81556 -2.356719,2.431732 -0.525361,0.510884 -0.817928,0.829996 -0.964797,1.052339 -0.191704,0.290213 -0.21079,0.307924 -0.21079,0.195594 z M 11.053949,12.017661 c -0.574457,-0.642565 -1.039453,-1.173793 -1.033326,-1.180506 0.0061,-0.0067 0.17368,0.08619 0.37234,0.20645 0.198659,0.120261 0.669044,0.398244 1.045301,0.617739 0.772556,0.450683 0.65611,0.43862 1.022128,0.105888 0.124644,-0.113309 0.153974,-0.126585 0.137944,-0.06244 -0.06598,0.264052 -0.459643,1.486353 -0.477944,1.483997 -0.01209,-0.0016 -0.491987,-0.528565 -1.066443,-1.171132 z m 9.784099,1.021205 c -0.02304,-0.08402 -0.131512,-0.4323 -0.241038,-0.773965 -0.109528,-0.341664 -0.186928,-0.621208 -0.172001,-0.621208 0.01493,0 0.117417,0.09165 0.227754,0.203675 0.110337,0.112021 0.216876,0.203675 0.236753,0.203675 0.01987,0 0.503544,-0.274962 1.074815,-0.611025 0.571269,-0.336064 1.046335,-0.611025 1.055705,-0.611025 0.0093,0 -0.461096,0.531592 -1.045476,1.181315 -0.584381,0.649723 -1.069733,1.181314 -1.078562,1.181314 -0.0089,0 -0.0349,-0.06874 -0.05795,-0.152756 z m -4.779226,-0.803688 c -0.217775,-0.08269 -0.48925,-0.286805 -0.67262,-0.505729 -0.209273,-0.249851 -0.591033,-0.820441 -0.565804,-0.84567 0.04393,-0.04393 0.306462,0.13174 0.560078,0.374777 0.324373,0.310841 0.37469,0.324397 1.198789,0.322994 0.711962,-0.0012 0.752767,-0.01511 1.146664,-0.390516 0.217345,-0.207141 0.444919,-0.352333 0.486725,-0.310528 0.03418,0.03418 -0.465573,0.730506 -0.682736,0.951288 -0.343261,0.348979 -0.538582,0.439912 -0.971021,0.452063 -0.224101,0.0063 -0.400514,-0.01088 -0.500075,-0.04868 z M 19.577467,9.7878745 18.990992,8.4689886 18.589644,8.0175664 C 18.368903,7.7692842 18.188297,7.5523356 18.188297,7.5354588 c 0,-0.016877 0.05704,-0.1082544 0.126767,-0.203061 L 18.441831,7.1600214 18.327673,6.995293 C 18.040579,6.5810164 17.608107,6.3075604 16.972223,6.1382304 l -0.340272,-0.090612 -0.07237,0.095938 -0.07236,0.095938 -0.02801,-0.088248 c -0.03452,-0.1087448 -0.09001,-0.1096442 -0.450365,-0.0073 -0.499316,0.1418147 -0.83569,0.335212 -1.135139,0.6526441 -0.14855,0.1574698 -0.270089,0.3055756 -0.270089,0.3291242 0,0.023549 0.05685,0.1254463 0.126336,0.2264393 0.125717,0.1827237 0.12595,0.1840578 0.04748,0.272117 -0.04337,0.048671 -0.233121,0.2657061 -0.421665,0.4822998 l -0.342807,0.3938067 -0.568301,1.2851059 c -0.312565,0.7068076 -0.572541,1.2808656 -0.577724,1.2756826 -0.0052,-0.0052 0.236804,-0.731775 0.537749,-1.6146492 0.300945,-0.8828737 0.547173,-1.627102 0.547173,-1.6538401 0,-0.032622 -0.170856,-0.064337 -0.519371,-0.096406 -0.772606,-0.071093 -0.763347,-0.06708 -0.497512,-0.2155837 0.418967,-0.2340473 0.9966,-0.6340531 1.56111,-1.0810536 0.924255,-0.7318624 1.16683,-0.8514105 1.635095,-0.8058307 0.361046,0.035143 0.429074,0.035086 0.758196,-6.344e-4 0.467981,-0.0508 0.742011,0.084345 1.665537,0.8214092 0.643448,0.5135358 0.946682,0.7270746 1.400127,0.9859778 0.417559,0.2384149 0.440168,0.219637 -0.361384,0.3001664 -0.430688,0.04327 -0.527138,0.064572 -0.516601,0.1140963 0.0072,0.033491 0.258419,0.7841835 0.55843,1.6682052 0.300014,0.8840208 0.541649,1.6110078 0.536968,1.6155268 -0.0047,0.0045 -0.272423,-0.585285 -0.594985,-1.3106709 z M 12.587236,10.167383 C 12.30727,9.8061159 11.222811,8.7425338 10.754161,8.3695985 9.5820318,7.4368578 8.1347438,6.6435316 7.0762811,6.35358 L 6.8073344,6.2799054 7.0171335,6.2550579 C 7.1325231,6.2413924 7.2722094,6.2005435 7.3275478,6.1642845 7.8563862,5.8177763 7.062317,4.617553 5.6826548,3.6780542 5.3927044,3.4806086 4.4084213,2.9671403 4.3198816,2.9671403 c -0.014695,0 0.1023395,0.1464443 0.2600626,0.3254322 0.8331015,0.9454313 1.2656505,1.741958 1.2656505,2.3306605 0,0.2894008 -0.077713,0.4737321 -0.2714294,0.6438178 L 5.4339884,6.3901274 5.0884666,5.916768 C 4.2328409,4.7445704 2.2617704,2.4413722 0.55968303,0.62487845 0.24478566,0.28881485 -0.00700565,0.00786648 1.487676e-4,5.4888897e-4 0.00730465,-0.0067693 0.23019208,0.05995913 0.49545859,0.14883316 2.4130591,0.79129737 5.7142867,2.6044738 7.7870304,4.1536775 c 1.0061839,0.7520396 3.2911576,2.9316727 4.1087086,3.9192917 0.899683,1.0868364 1.231397,1.8084037 1.00013,2.1755508 -0.04587,0.07282 -0.09741,0.131653 -0.114544,0.130754 -0.01713,-8.99e-4 -0.104473,-0.09625 -0.194089,-0.211891 z m 7.581135,0.136947 C 20.057259,10.181553 20.039482,9.8991722 20.125621,9.6253033 20.217465,9.3332958 20.55001,8.8027863 20.998219,8.2332259 21.627821,7.4331623 24.089925,5.0362448 25.031771,4.3064647 26.204678,3.3976504 28.090773,2.2359928 29.858869,1.3334234 31.000309,0.75074592 31.674142,0.44817305 32.36407,0.20850648 33.137557,-0.06018673 33.127242,-0.0633669 32.748545,0.32705753 31.2729,1.8484005 28.617985,4.94108 27.864334,6.0166201 c -0.127767,0.1823384 -0.256141,0.3315242 -0.285276,0.3315242 -0.09357,0 -0.341699,-0.3156415 -0.390463,-0.4966952 -0.13511,-0.5016533 0.263357,-1.3701041 1.075623,-2.3442806 0.163588,-0.1961963 0.328094,-0.3818787 0.36557,-0.4126271 0.142399,-0.1168411 0.05811,-0.1194968 -0.206826,-0.00652 -0.71677,0.305657 -1.477577,0.8209643 -2.046767,1.3863114 -0.949545,0.9431351 -1.11762,1.681618 -0.404268,1.7762474 l 0.197998,0.026265 -0.457053,0.1532239 c -1.839224,0.6165851 -3.73017,1.9500983 -5.245935,3.6994819 -0.222168,0.25641 -0.223816,0.257374 -0.298566,0.174777 z"
       id="path1486" />
  </g>
</svg>
