<?xml version="1.0" encoding="UTF-8"?>
<svg width="35mm" height="35mm" version="1.1" viewBox="0 0 35 35" xmlns="http://www.w3.org/2000/svg" xmlns:cc="http://creativecommons.org/ns#" xmlns:dc="http://purl.org/dc/elements/1.1/" xmlns:rdf="http://www.w3.org/1999/02/22-rdf-syntax-ns#">
 <metadata>
  <rdf:RDF>
   <cc:Work rdf:about="">
    <dc:format>image/svg+xml</dc:format>
    <dc:type rdf:resource="http://purl.org/dc/dcmitype/StillImage"/>
    <dc:title/>
   </cc:Work>
  </rdf:RDF>
 </metadata>
 <path d="m13.877 33.723c-0.10406-0.35242-0.0516-0.41298 0.0777-0.0897 0.10935 0.27329 0.12229 0.36566 0.0512 0.36566-0.0261 0-0.0841-0.12416-0.12894-0.27592zm0.44968 0.21519c0.0207-0.0334 0.0496-0.0607 0.0643-0.0607s0.0268 0.0273 0.0268 0.0607-0.0289 0.0607-0.0643 0.0607-0.0474-0.0273-0.0268-0.0607zm-0.67387-0.40991c-0.023-0.12526-0.082-0.28239-0.13114-0.34919-0.0863-0.11727-0.0882-0.11622-0.0551 0.0304 0.0327 0.14464 0.0301 0.14624-0.0538 0.0339-0.0484-0.0648-0.0885-0.14682-0.089-0.18218-4.9e-4 -0.0354-0.0246-0.0269-0.0536 0.0189-0.0385 0.0608-0.0722 0.024-0.12542-0.1372-0.04-0.1212-0.0997-0.20369-0.13271-0.18331-0.033 0.0204-0.0453 0.0753-0.0274 0.12202 0.0179 0.0467 6e-3 0.085-0.0262 0.085-0.0323 0-0.0593-0.0342-0.0599-0.0759s-0.0702-0.14155-0.15478-0.22177c-0.0845-0.0802-0.13905-0.18412-0.1211-0.23089 0.0179-0.0468 6e-3 -0.0683-0.0274-0.0479-0.0357 0.0221-0.06-0.0612-0.06-0.20581 0-0.1336-0.0316-0.26246-0.0703-0.28636-0.0485-0.03-0.0593-1e-3 -0.0348 0.0923 0.0272 0.10403 0.0141 0.12753-0.0561 0.10059-0.0504-0.0193-0.11368-0.0352-0.14063-0.0352-0.0269 0-0.0667-0.0944-0.0884-0.20979-0.0268-0.14263-0.0658-0.19963-0.12203-0.17806-0.0613 0.0235-0.10141-0.0793-0.15508-0.3975-0.0756-0.4484-0.13919-0.57054-0.12065-0.23185 0.0213 0.3896-0.0124 0.44376-0.10388 0.167-0.0497-0.1503-0.10464-0.38259-0.12208-0.51619-0.0422-0.32354-0.079-0.34907-0.0801-0.0557-4.8e-4 0.13082-0.0286 0.27885-0.0625 0.32895-0.0429 0.0635-0.0495-0.0238-0.0216-0.28846 0.0341-0.32391 0.0258-0.37955-0.057-0.37955-0.0613 0-0.0842 0.0335-0.0621 0.0911 0.0192 0.0501 5e-3 0.0911-0.0323 0.0911-0.041 0-0.0672-0.1303-0.0672-0.334 0-0.19804-0.0266-0.33401-0.0654-0.33401-0.036 0-0.0605-0.0888-0.0546-0.19737 6e-3 -0.10855 5e-3 -0.23835-3e-3 -0.28846-0.0222-0.15163-0.10521 0.25264-0.11846 0.57692-0.0113 0.27565-0.0173 0.28733-0.0653 0.12666-0.0291-0.0973-0.036-0.20665-0.0154-0.24291 0.0206-0.0363 0.0153-0.0459-0.0118-0.0213-0.069 0.0625-0.19283-0.19775-0.24273-0.51031-0.0231-0.14468-0.0925-0.44069-0.15427-0.65779-0.12807-0.45028-0.2596-1.3675-0.22206-1.5486 0.0477-0.22998 0.17505-0.51619 0.22973-0.51619 0.0301 0 0.0548-0.0547 0.0548-0.12146 0-0.17212 0.10091-0.15084 0.14652 0.0309 0.0219 0.0872 1e-3 0.2239-0.0483 0.31979-0.12773 0.24701-0.15857 0.86388-0.0432 0.86388 0.0302 0 0.13808-0.22545 0.23963-0.501 0.10155-0.27556 0.23936-0.63765 0.30625-0.80465l0.12161-0.30364-0.018 0.44027c-0.01 0.24216 7e-3 0.44028 0.0376 0.44028 0.0563 0 2e-3 0.24785-0.0671 0.30365-0.0597 0.0485-0.0688 0.43295-9e-3 0.39621 0.0296-0.0183 0.0725-0.11855 0.0954-0.22281 0.0297-0.13544 0.0562-0.16607 0.0925-0.10728 0.0408 0.066 0.0588 0.0615 0.091-0.0223 0.0528-0.13746 0.15466-0.1359 0.11123 2e-3 -0.0254 0.0805-4e-3 0.0731 0.0875-0.0304 0.0666-0.0751 0.14268-0.13664 0.16905-0.13664 0.0264 0 0.0152 0.0328-0.0249 0.0729s-0.072 0.10156-0.0709 0.13663c1e-3 0.0351 0.057-2e-3 0.12409-0.0828 0.0931-0.11179 0.1039-0.15784 0.0456-0.19388-0.053-0.0328-0.0247-0.067 0.0924-0.11149 0.0929-0.0353 0.20811-0.0642 0.25604-0.0642 0.0479 0 0.0871-0.0307 0.0871-0.0682 0-0.0501 0.0216-0.0503 0.0815-5.5e-4 0.0448 0.0372 0.10383 0.0474 0.13113 0.0226s0.031 7e-3 8e-3 0.0698c-0.0357 0.0988-0.0281 0.10382 0.0539 0.0357 0.0722-0.06 0.0773-0.0903 0.0209-0.12513-0.0512-0.0316 0.0255-0.14228 0.24615-0.35495 0.17631-0.16993 0.3548-0.32928 0.39664-0.35411 0.0418-0.0248 0.10524-0.12712 0.14091-0.22733l0.0648-0.18218 5e-3 0.17059c3e-3 0.1146 0.0283 0.15609 0.0763 0.12641 0.0393-0.0243-9e-3 0.0561-0.10628 0.1786-0.0978 0.12252-0.20371 0.22277-0.23544 0.22277-0.0317 0-0.0249-0.0328 0.0152-0.0729s0.072-0.10157 0.0709-0.13664c-2e-3 -0.0746-0.24089 0.19782-0.24089 0.27506 0 0.0287 0.041 0.0364 0.0911 0.0171 0.13749-0.0528 0.10922 0.0248-0.0377 0.10342-0.0905 0.0484-0.11652 0.0491-0.0875 2e-3 0.0227-0.0367 0.0241-0.0668 3e-3 -0.0668-0.0533 0-0.21561 0.16755-0.21856 0.22556-1e-3 0.0262-0.18754 0.24435-0.41378 0.48468-0.40533 0.43056-0.41143 0.43427-0.41658 0.2531-4e-3 -0.13154 0.0183-0.17482 0.0775-0.15211 0.0455 0.0175 0.1154-8e-3 0.15533-0.0557 0.0452-0.0544 0.0488-0.0875 0.01-0.0875-0.0347 0-0.0769 0.0342-0.0937 0.0759-0.0204 0.0505-0.0322 0.0443-0.0354-0.0182-3e-3 -0.0518 0.028-0.12692 0.0681-0.167 0.0401-0.0401 0.0469-0.0727 0.0152-0.0725-0.12886 9.3e-4 -0.33097 0.4056-0.33097 0.66267 0 0.20438-0.0193 0.25343-0.0892 0.22663-0.049-0.0188-0.10791-4e-3 -0.13084 0.0332-0.0252 0.0409-0.014 0.0504 0.0284 0.0241 0.0386-0.0238 0.0701-0.0112 0.0701 0.028 0 0.0477 0.0489 0.0393 0.14729-0.0252 0.081-0.0531 0.15851-0.0767 0.17223-0.0525 0.0137 0.0242 0.0175 0.0122 8e-3 -0.0266-0.0216-0.0925 0.65903-0.75238 0.95418-0.92516 0.0797-0.0467-2e-3 0.0627-0.18047 0.24292-0.47089 0.47431-0.51096 0.52514-0.46832 0.59413 0.0333 0.0539-0.0481 0.17727-0.30017 0.45525-0.1599 0.17632-0.2674 0.40792-0.30235 0.65137-0.0211 0.14666-0.0683 0.36931-0.10503 0.49478-0.0367 0.12547-0.045 0.24844-0.0183 0.27328 0.0435 0.0406 0.0892-0.0226 0.10885-0.15069 8e-3 -0.0543 0.0426-0.10034 0.261-0.35071l0.1589-0.18218-0.13116 0.19736c-0.0978 0.1471-0.10952 0.19737-0.0462 0.19737 0.0467 0 0.12153-0.0683 0.16622-0.15182 0.0447-0.0835 0.10396-0.15182 0.13172-0.15182 0.0278 0 0.0505-0.0426 0.0505-0.0947s-0.0273-0.0778-0.0607-0.0571c-0.0334 0.0206-0.0607 9e-3 -0.0607-0.0268 0-0.0354 0.0547-0.0643 0.12161-0.0643 0.0669 0 0.22016-0.10908 0.34061-0.24241 0.12045-0.13332 0.24705-0.22507 0.28132-0.20389 0.0368 0.0227 0.0154 0.0661-0.0522 0.10577-0.063 0.037-0.12119 0.10106-0.1294 0.14238-0.0237 0.11952-0.79455 0.87973-0.85446 0.8427-0.0298-0.0184-0.0849 0.034-0.12244 0.11646-0.0418 0.0917-0.0452 0.14992-9e-3 0.14992 0.0327 0 0.0594 0.0289 0.0594 0.0643s-0.0273 0.0474-0.0607 0.0268c-0.0362-0.0224-0.0607 0.0512-0.0607 0.18219 0 0.12084 0.0251 0.2042 0.0558 0.18523 0.0307-0.019 0.0755 0.0546 0.0997 0.16342 0.0383 0.17283 0.05 0.18252 0.0918 0.0764 0.0263-0.0668 0.0494-0.16245 0.0512-0.21255 3e-3 -0.081-4e-3 -0.081-0.0611 0-0.0573 0.081-0.0617 0.081-0.0396 0 0.0137-0.0501 0.0632-0.0911 0.11006-0.0911 0.0469 0 0.0939-0.0546 0.10448-0.12145 0.0162-0.10237 8e-3 -0.10714-0.0493-0.0304-0.061 0.081-0.0656 0.081-0.0412 0 0.0151-0.0501 0.0519-0.0863 0.0817-0.0806 0.0756 0.0146 0.52952-0.64628 0.47876-0.69703-0.0227-0.0227-0.0679 6e-3 -0.10041 0.0645-0.0326 0.0582-0.0867 0.10577-0.12032 0.10577-0.072 0 0.31701-0.48312 0.39032-0.48473 0.0274-6e-4 7e-3 0.0418-0.0455 0.0943-0.11477 0.11477-0.12162 0.18936-0.0205 0.22307 0.0497 0.0165 0.019 0.0914-0.0911 0.22227-0.18728 0.22258-0.20531 0.28919-0.0783 0.28919 0.0482 0 0.0832-0.0159 0.0777-0.0354-6e-3 -0.0195 0.0799-0.13107 0.18989-0.24797 0.10995-0.1169 0.23966-0.2877 0.28823-0.37955 0.0486-0.0919 0.10895-0.16701 0.13417-0.16701 0.0252 0 0.0761-0.0802 0.11315-0.17827 0.0555-0.14698 0.0508-0.18461-0.0266-0.21432-0.0708-0.0272-0.0321-0.0815 0.15707-0.2206 0.292-0.21474 0.6293-0.68436 0.58133-0.80937-0.0182-0.0474 0.0237-0.14302 0.0931-0.2124 0.0694-0.0694 0.12615-0.14164 0.12615-0.16057 0-0.0189 0.0732-0.13043 0.16273-0.24777 0.11698-0.15337 0.14219-0.22605 0.0897-0.25851-0.052-0.0322-0.0336-0.0788 0.064-0.16215 0.11582-0.0989 0.12396-0.10014 0.0526-8e-3 -0.0721 0.0929-0.0721 0.11957 3e-5 0.18219 0.0465 0.0403 0.0668 0.0506 0.0451 0.0228-0.0469-0.0602 0.10033-0.43124 0.26088-0.65725 0.19275-0.27133 0.12988-0.2382-0.22965 0.12099-0.18929 0.18912-0.29177 0.27672-0.22773 0.19468 0.064-0.082 0.25307-0.28684 0.42007-0.45511 0.16701-0.16827 0.36428-0.40175 0.43839-0.51884 0.0741-0.1171 0.13612-0.18557 0.1378-0.15217 5e-3 0.0976 0.42609-0.41157 0.46464-0.56174 0.0193-0.0751 0.0611-0.13664 0.0928-0.13664 0.0318 0 0.0421-0.0252 0.0231-0.0561-0.0389-0.063 0.1955-0.49048 0.26903-0.49048 0.026 0 0.0816-0.0826 0.12342-0.18363 0.0418-0.10099 0.10664-0.20347 0.14401-0.22773 0.0909-0.059 0.20365-0.36778 0.34779-0.9526 0.0655-0.26586 0.15944-0.52793 0.20871-0.58237 0.0634-0.07 0.0938-0.27043 0.10415-0.68542 8e-3 -0.32255 0.0343-0.58654 0.0584-0.58665 0.0241-1.2e-4 0.0316-0.19833 0.0166-0.44048-0.0588-0.95224-0.07-1.6206-0.0283-1.6881 0.0602-0.0975 0.0935-0.0251 0.1827 0.39764 0.0423 0.20041 0.15436 0.51468 0.24909 0.69838 0.0947 0.1837 0.20891 0.45698 0.25373 0.60728 0.0448 0.1503 0.22567 0.50556 0.40188 0.78947 0.1762 0.2839 0.26962 0.47027 0.20759 0.41415-0.10854-0.0982-0.11196-0.0916-0.0908 0.17475 0.0153 0.19198 1e-3 0.26401-0.0454 0.23509-0.0414-0.0255-0.0675 8e-3 -0.0675 0.087 0 0.0707-0.0261 0.11247-0.0581 0.0927-0.0319-0.0197-0.041-0.0805-0.02-0.135 0.0254-0.0662 0.0145-0.0845-0.033-0.0552-0.0391 0.0242-0.071 0.0824-0.071 0.12951 0 0.0504-0.0367 0.0715-0.0894 0.0513-0.0786-0.0301-0.0783-0.0611 2e-3 -0.25406 0.0505-0.12086 0.12169-0.2382 0.15819-0.26076 0.0411-0.0254 0.0509-0.12375 0.0257-0.25809-0.0585-0.31171-0.15067-0.33007-0.12038-0.024 0.0192 0.19385 0.0112 0.22787-0.0319 0.13665-0.0316-0.0668-0.0593-0.1875-0.0617-0.26821-2e-3 -0.0807-0.0224-0.12867-0.0445-0.10655-0.0221 0.0221-0.0384 0.14282-0.0362 0.26822 4e-3 0.22286 3e-3 0.22399-0.0485 0.0504-0.0288-0.0977-0.0603-0.3069-0.0699-0.46494-0.01-0.15805-0.0427-0.27178-0.0735-0.25274-0.0308 0.019-0.0402-7e-3 -0.0209-0.0568 0.0193-0.0503 0.0107-0.12989-0.0191-0.17696-0.0743-0.11735-0.0737 0.33949 7.9e-4 0.59918 0.0353 0.12302 0.0353 0.18482 0 0.16302-0.0783-0.0484-0.0711 0.011 0.0191 0.15875 0.0644 0.10545 0.0585 0.13722-0.0385 0.20917-0.0857 0.0636-0.10526 0.13044-0.078 0.26688 0.0288 0.14398 0.0178 0.17491-0.0526 0.14789-0.071-0.0273-0.0901 0.0316-0.0945 0.29115-5e-3 0.31293-8e-3 0.31755-0.0642 0.12129-0.0323-0.11221-0.0693-0.19344-0.0822-0.1805-0.0129 0.0129-0.0316 0.2486-0.0416 0.52371-0.0134 0.37151-0.0377 0.49266-0.0945 0.47088-0.10304-0.0395-0.0962-8.3e-4 0.0206 0.1159 0.12741 0.12741 0.0621 0.30006-0.0977 0.25827-0.10966-0.0287-0.12107-1.2e-4 -0.12456 0.31193-3e-3 0.27689-0.0149 0.31592-0.0608 0.20126-0.0314-0.0782-0.0395-0.1706-0.0181-0.20525 0.022-0.0356 2e-3 -0.0505-0.0454-0.0343-0.0479 0.0163-0.0757 0.0882-0.0642 0.16633 0.0147 0.10058-2e-3 0.12505-0.0607 0.0909-0.0445-0.0257-0.0626-0.0264-0.0403-1e-3 0.0563 0.0628-0.0706 0.40673-0.13523 0.36676-0.0288-0.0178-0.0704 0.10303-0.0924 0.26857-0.0332 0.2502-0.0643 0.3071-0.18456 0.33728-0.0799 0.02-0.14654 0.0834-0.1489 0.14141-4e-3 0.0897-0.011 0.0878-0.0505-0.0131-0.0429-0.10962-0.0491-0.10749-0.0848 0.0293-0.0212 0.0811-0.0162 0.1699 0.0111 0.19725 0.0655 0.0655 9e-3 0.35547-0.0609 0.31231-0.0297-0.0184-0.0373-0.10002-0.0168-0.18148 0.0215-0.0856 0.0106-0.1481-0.0258-0.1481-0.0346 0-0.0817 0.15-0.10459 0.33332-0.0229 0.18333-0.0659 0.31835-0.0955 0.30006-0.0296-0.0183-0.0542 0.0435-0.0547 0.13732-7.2e-4 0.13246-0.0141 0.15023-0.0598 0.0795-0.0439-0.0679-0.0591-0.034-0.0598 0.13305-9.3e-4 0.22516-0.081 0.34741-0.15214 0.23231-0.064-0.1035-0.21316-0.0688-0.21316 0.0496 0 0.0612-0.043 0.11133-0.0955 0.11133-0.0627 0-0.0855-0.0382-0.0664-0.11133 0.016-0.0612 4e-3 -0.11134-0.0259-0.11134-0.0303 0-0.055 0.0576-0.055 0.12795 0 0.0876-0.0282 0.11715-0.0892 0.0937-0.049-0.0188-0.10791-4e-3 -0.13084 0.0333-0.0252 0.0408-0.014 0.0504 0.0284 0.0241 0.10201-0.0631 0.0863 0.0277-0.0513 0.29784-0.0668 0.13103-0.12145 0.27183-0.12145 0.3129 0 0.0411-0.0316 0.0942-0.0701 0.118-0.0463 0.0286-0.0548 0.0143-0.0251-0.042 0.0248-0.0469-0.0114-0.017-0.0804 0.0665-0.13692 0.1658-0.16814 0.27485-0.0595 0.20768 0.042-0.026 0.0567-0.01 0.038 0.042-0.0169 0.0464-0.0606 0.0778-0.0972 0.0698-0.0887-0.0194-0.20978 0.20872-0.13522 0.25479 0.0312 0.0193 0.0765 3e-3 0.10064-0.0361 0.0293-0.0474 0.0174-0.0547-0.0356-0.022-0.053 0.0328-0.0648 0.0254-0.0356-0.022 0.0572-0.0925 0.17197-0.0224 0.11744 0.0717-0.0793 0.1368-0.41523 0.55765-0.46137 0.57791-0.0255 0.0112-0.0283 0.0496-6e-3 0.0853 0.0222 0.0359 0.0118 0.0474-0.0232 0.0258-0.0348-0.0215-0.16385 0.0836-0.28673 0.23353-0.12288 0.14996-0.25087 0.27266-0.28442 0.27266-0.0336 0-0.0951 0.0342-0.13677 0.0759-0.0976 0.0977-0.16385 0.34919-0.0921 0.34919 0.0303 0 0.055-0.0289 0.055-0.0643s0.0273-0.0474 0.0607-0.0268 0.0607 9e-3 0.0607-0.0268c0-0.0354 0.0546-0.0643 0.12145-0.0643 0.0668 0 0.11822-0.0205 0.11427-0.0455-0.0196-0.12443 0.0225-0.20879 0.18938-0.37956 0.12648-0.12939 0.18218-0.15729 0.18218-0.0913 0 0.0523-0.041 0.11083-0.0911 0.13005-0.0501 0.0192-0.0911 0.061-0.0911 0.0928s0.0273 0.0409 0.0607 0.0203c0.0334-0.0207 0.0607-0.0102 0.0607 0.0232 0 0.1052-0.13269 0.14789-0.18804 0.0605-0.0366-0.0577-0.0533-0.0227-0.0539 0.11296-7.9e-4 0.1675-0.0212 0.1945-0.13757 0.18218-0.17533-0.0186-0.18663 0.16057-0.0117 0.18559 0.0828 0.0118 0.15283-0.0343 0.20763-0.13664 0.0455-0.085 0.11751-0.15451 0.16008-0.15451 0.0426 0 0.11992-0.0607 0.17192-0.13497 0.052-0.0742 0.0945-0.10351 0.0945-0.0651 0 0.0858-0.16862 0.26076-0.25134 0.26076-0.0333 0-0.0431 0.0547-0.0219 0.12146 0.0212 0.0668 0.0128 0.12145-0.0187 0.12145s-0.0598 0.0615-0.0631 0.13664c-3e-3 0.0751-0.0135 0.18836-0.0228 0.25156-9e-3 0.0632 0.0152 0.12631 0.0546 0.14024 0.0411 0.0145 0.0799-0.0453 0.0911-0.1406 0.0108-0.0913 0.0566-0.17809 0.10185-0.19297 0.10312-0.0339 0.0387 0.21013-0.096 0.36366-0.063 0.0718-0.093 0.25863-0.0991 0.61649-5e-3 0.28828-0.0328 0.49862-0.0636 0.47965-0.0302-0.0186-0.0362-3e-3 -0.0132 0.0337 0.0229 0.0371 0.0818 0.0521 0.13084 0.0332 0.049-0.0188 0.0891-4e-3 0.0891 0.033s-0.0342 0.0676-0.0759 0.0682c-0.056 6.9e-4 -0.0544 0.0146 6e-3 0.053 0.0631 0.04 0.0666 0.0811 0.0152 0.17726-0.0369 0.0688-0.0648 0.18847-0.0622 0.26582 4e-3 0.1242 0.0124 0.11935 0.0698-0.0416 0.0358-0.1002 0.11558-0.24735 0.17739-0.32701l0.11239-0.14483v0.16001c0 0.088-0.0241 0.16001-0.0536 0.16001s-0.0679 0.0547-0.0854 0.12146c-0.0175 0.0668-7e-3 0.12146 0.0233 0.12146s0.055-0.0443 0.055-0.0985c0-0.18306 0.1737 0.0317 0.19386 0.23969 0.0131 0.13504 0.0487 0.19062 0.11889 0.18542 0.0748-6e-3 0.10021 0.0445 0.10021 0.19737 0 0.11263-0.0248 0.20478-0.0552 0.20478-0.0314 0-0.0378 0.14835-0.0148 0.34345 0.0299 0.25413 0.022 0.33207-0.0303 0.29974-0.0426-0.0264-0.0908 0.0107-0.12141 0.0933-0.05 0.13502-0.0513 0.13459-0.0924-0.0293-0.0229-0.0915-0.0252-0.19305-5e-3 -0.22575s0.0142-0.0555-0.0133-0.0507c-0.0275 5e-3 -0.0637 3e-3 -0.0804-4e-3s-0.0946-0.0193-0.17321-0.0279c-0.13337-0.0146-0.14038-1.3e-4 -0.10556 0.21761 0.0481 0.30071-6e-3 0.30558-0.0611 5e-3zm0.13844-0.63386c-0.0194-0.0484-0.0338-0.0341-0.0367 0.0367-3e-3 0.064 0.0117 0.0999 0.0319 0.0797s0.0223-0.0726 5e-3 -0.1164zm-0.0607-0.42509c-0.0194-0.0484-0.0338-0.0341-0.0367 0.0367-3e-3 0.064 0.0117 0.0999 0.0319 0.0797s0.0223-0.0726 5e-3 -0.11639zm0.32289-0.0226c0-0.0521-0.0278-0.0775-0.0617-0.0565s-0.046 0.0636-0.0268 0.0947c0.0521 0.0842 0.0885 0.0685 0.0885-0.0381zm-1.9656-1.2157c4e-3 -0.18619 0.0499-0.43893 0.10107-0.56163 0.23-0.55166 0.30289-0.98221 0.16631-0.98221-0.0825 0-0.24589 0.4749-0.27838 0.80939-0.0168 0.17275-0.0462 0.36472-0.0654 0.4266-0.0664 0.21426-0.0284 0.64728 0.0568 0.64648 6e-3 -6e-5 0.0152-0.15245 0.0196-0.33863zm0.83495-0.30206c0.0207-0.054 0.0106-0.0784-0.0239-0.0571-0.033 0.0204-0.06 0.0628-0.06 0.0943 0 0.0874 0.0435 0.0681 0.0839-0.0371zm0.57195-0.31258c0.0773-0.25195 0.0387-0.35421-0.0643-0.17018-0.0737 0.13164-0.10168 0.39482-0.042 0.39482 0.0206 0 0.0684-0.10109 0.10631-0.22464zm-0.65585 0.0353c0-0.0334-0.0273-0.0438-0.0607-0.0232s-0.0607 0.0649-0.0607 0.0983 0.0273 0.0438 0.0607 0.0232 0.0607-0.0649 0.0607-0.0983zm0.20247-0.0384c0.0463-0.0918 0.10046-0.24899 0.12041-0.34919 0.0265-0.13306-3e-3 -0.10032-0.1092 0.12146-0.08 0.167-0.14717 0.32414-0.14922 0.34919-8e-3 0.0961 0.0573 0.0387 0.13801-0.12146zm-0.31021-0.75903c0.0324-0.0918 0.0835-0.15169 0.11366-0.13306 0.0301 0.0186 0.0548-0.0103 0.0548-0.0644 0-0.054-0.0284-0.0807-0.0632-0.0592-0.0782 0.0483-0.32587 0.44145-0.38165 0.60576-0.0341 0.10031-0.0187 0.095 0.0881-0.0304 0.0712-0.0835 0.15586-0.22694 0.18822-0.31875zm0.69017 0.0307c-0.0421-0.0421-0.15733 0.0435-0.15733 0.11684 0 0.0403 0.0348 0.0357 0.0926-0.0122 0.0509-0.0423 0.08-0.0893 0.0648-0.10461zm0.13458 0.0131c-0.0187-0.0187-0.0526 0.015-0.0755 0.0749-0.033 0.0866-0.026 0.0935 0.034 0.034 0.0415-0.0412 0.0602-0.0902 0.0415-0.10889zm-2.3759-0.28306c-0.0194-0.0484-0.0338-0.0341-0.0367 0.0367-3e-3 0.064 0.0117 0.0999 0.0319 0.0797s0.0223-0.0726 5e-3 -0.11639zm-0.38354-0.43415c-0.0213-0.15576-0.0643-0.2832-0.0954-0.2832s-0.0431 0.0478-0.0267 0.10627c0.0165 0.0584 0.0482 0.19704 0.0706 0.30798 0.0594 0.29465 0.0967 0.19954 0.0514-0.13105zm0.18898-1.0752c0.022-1.0968-0.0429-1.2406-0.29349-0.6502-0.0886 0.20871-0.15897 0.43412-0.15642 0.50092 3e-3 0.0727 0.0445 0.0178 0.10382-0.13664 0.11662-0.3035 0.19553-0.33269 0.19553-0.0723 0 0.10218-0.0216 0.17241-0.048 0.15608-0.0264-0.0163-0.0373 0.0621-0.0242 0.17428 0.0131 0.11217-8e-3 0.30102-0.0474 0.41965-0.0392 0.11863-0.0499 0.25011-0.0239 0.29217 0.0327 0.053 0.0602 0.03 0.0894-0.0747 0.0301-0.10818 0.0443-0.0562 0.05 0.1828 6e-3 0.26663 0.0209 0.31168 0.0723 0.22335 0.0354-0.0609 0.0725-0.51777 0.0825-1.0154zm-0.15056 0.124c0-0.0334 0.0289-0.0607 0.0643-0.0607s0.0474 0.0273 0.0268 0.0607-0.0496 0.0607-0.0643 0.0607-0.0268-0.0273-0.0268-0.0607zm0.32681 0.63449c0.0207-0.0541 0.0106-0.0784-0.0239-0.0572-0.033 0.0204-0.06 0.0628-0.06 0.0943 0 0.0874 0.0435 0.0681 0.0839-0.0371zm2.83-0.54717c0.0855-0.1117 0.0824-0.11151-0.0597 4e-3 -0.18386 0.14909-0.29909 0.28586-0.30165 0.35805-2e-3 0.0542 0.19035-0.13827 0.36139-0.36182zm-2.41 0.0746c0.0171-0.0445-5e-3 -0.081-0.0484-0.081-0.0437 0-0.0655 0.0364-0.0484 0.081 0.0171 0.0445 0.0389 0.081 0.0484 0.081 0.01 0 0.0313-0.0364 0.0484-0.081zm-0.91607-0.12146c0.0177-0.0928-2e-3 -0.1417-0.0563-0.1417-0.0469 0-0.0689 0.0376-0.0504 0.0859 0.0181 0.0473 0.033 0.11103 0.033 0.1417 0 0.10856 0.0469 0.0538 0.0737-0.0859zm-0.19511-0.34413c0-0.0334-0.0273-0.0607-0.0607-0.0607s-0.0607 0.0273-0.0607 0.0607 0.0273 0.0607 0.0607 0.0607 0.0607-0.0273 0.0607-0.0607zm-9.3e-4 -0.167c-4.8e-4 -0.025-0.0274-0.0865-0.0598-0.13664-0.0476-0.0737-0.059-0.0649-0.0598 0.0456-4.8e-4 0.0751 0.0264 0.13664 0.0598 0.13664s0.0603-0.0205 0.0598-0.0456zm0.58441-0.8501c0.0156-0.1546 0.0106-0.1587-0.0666-0.0549-0.0459 0.0617-0.0683 0.15169-0.0498 0.19999 0.0458 0.11937 0.096 0.0568 0.11635-0.14507zm3.5343 0.0135c-0.0187-0.0187-0.0526 0.015-0.0755 0.0749-0.0329 0.0866-0.026 0.0935 0.034 0.034 0.0415-0.0412 0.0602-0.0902 0.0415-0.1089zm-3.5297-0.34378c-0.0194-0.0485-0.0338-0.0341-0.0367 0.0367-3e-3 0.064 0.0117 0.0999 0.0319 0.0797s0.0223-0.0726 5e-3 -0.11639zm4.3309-0.42384c0-0.29968-0.03-0.29003-0.0787 0.0253-0.0195 0.12615-0.01 0.22773 0.0218 0.22773 0.0313 0 0.0569-0.11387 0.0569-0.25304zm-0.48583 0.0101c0.0357-0.0668 0.0513-0.12146 0.0346-0.12146s-0.0596 0.0547-0.0954 0.12146c-0.0357 0.0668-0.0513 0.12145-0.0346 0.12145s0.0596-0.0547 0.0954-0.12145zm0.77022-0.49722c-0.0194-0.0484-0.0338-0.034-0.0367 0.0367-3e-3 0.064 0.0117 0.0999 0.0319 0.0797s0.0223-0.0726 5e-3 -0.1164zm0.62653-0.80486c0-0.0147-0.0273-0.0437-0.0607-0.0643s-0.0607-9e-3 -0.0607 0.0268c0 0.0354 0.0273 0.0643 0.0607 0.0643s0.0607-0.012 0.0607-0.0268zm0.12146-0.19791c0-0.11278-0.0196-0.14439-0.0627-0.10125-0.0345 0.0345-0.0452 0.10828-0.0239 0.16397 0.0563 0.14659 0.0866 0.12462 0.0866-0.0627zm0.48582-1.3203c0-0.0147-0.0273-0.0437-0.0607-0.0643s-0.0607-9e-3 -0.0607 0.0268c0 0.0354 0.0273 0.0643 0.0607 0.0643s0.0607-0.0121 0.0607-0.0268zm1.3967-1.704c0-0.0501-0.0107-0.0911-0.0239-0.0911-0.0131 0-0.0396 0.041-0.0588 0.0911s-8e-3 0.0911 0.0239 0.0911c0.0323 0 0.0588-0.041 0.0588-0.0911zm-0.7476-0.50101c-0.0153-0.0585-0.0278-0.0106-0.0278 0.10628 0 0.1169 0.0125 0.16472 0.0278 0.10627 0.0153-0.0584 0.0153-0.1541 0-0.21255zm-0.12184-0.26948c-0.0194-0.0484-0.0338-0.0341-0.0367 0.0367-3e-3 0.064 0.0117 0.0999 0.0319 0.0797s0.0223-0.0726 5e-3 -0.1164zm0.0613-0.64028c-0.0154-0.0591-0.029-0.0254-0.0302 0.0748-1e-3 0.1002 0.0114 0.14854 0.028 0.10743 0.0166-0.0411 0.0177-0.1231 2e-3 -0.18218zm-0.0661-0.30354c-0.0617-0.0617-0.11267 0.0312-0.062 0.11316 0.0383 0.0619 0.0526 0.062 0.0731 2.4e-4 0.0141-0.0422 9e-3 -0.0932-0.0111-0.1134zm-4.5002 13.404c-0.0206-0.0334-9e-3 -0.0607 0.0268-0.0607 0.0354 0 0.0643 0.0273 0.0643 0.0607s-0.0121 0.0607-0.0268 0.0607-0.0437-0.0273-0.0643-0.0607zm1.3838-1.1842c4.8e-4 -0.167 0.0122-0.22812 0.0262-0.13581 0.0139 0.0923 0.0136 0.22895-8.3e-4 0.30365-0.0144 0.0747-0.0258-8.3e-4 -0.0254-0.16784zm-0.55247-0.91093c-2e-3 -0.1002 0.0206-0.23684 0.0493-0.30364l0.0522-0.12145-3e-3 0.12145c-2e-3 0.0668-0.0238 0.20344-0.0493 0.30364l-0.0464 0.18219-3e-3 -0.18219zm-2.3191-0.0339c0-0.0354 0.0273-0.0474 0.0607-0.0268s0.0607 0.0496 0.0607 0.0643-0.0273 0.0268-0.0607 0.0268-0.0607-0.0289-0.0607-0.0643zm-0.51576-0.84592c-0.0213-0.0344 3e-3 -0.0446 0.0571-0.0239 0.10521 0.0404 0.12446 0.0839 0.0371 0.0839-0.0314 0-0.0738-0.027-0.0943-0.06zm1.8299-1.2574c-0.0623-0.0623-0.0447-0.15082 0.0219-0.10968 0.0334 0.0206 0.0607-3.1e-4 0.0607-0.0466 0-0.0803 0.18897-0.28241 0.34849-0.37266 0.0505-0.0286 0.0633-0.0116 0.0391 0.0517-0.0199 0.0518-0.0622 0.0942-0.094 0.0942s-0.0421 0.0254-0.023 0.0564c0.0192 0.031-0.0202 0.0738-0.0875 0.0952s-0.12234 0.0764-0.12234 0.12225c0 0.0981-0.0877 0.16485-0.14335 0.10917zm-0.88902-0.41332c0.0416-0.0501 0.0987-0.0911 0.12698-0.0911 0.0283 0 0.0357 0.041 0.0164 0.0911-0.0192 0.0501-0.0764 0.0911-0.12699 0.0911-0.0749 0-0.078-0.0169-0.0164-0.0911zm0.24771-0.43016c3e-3 -0.0708 0.0173-0.0851 0.0367-0.0367 0.0175 0.0438 0.0154 0.0962-5e-3 0.1164-0.0202 0.0202-0.0345-0.0157-0.0319-0.0797zm0.87965-0.0431c0.0228-0.0599 0.0568-0.0936 0.0755-0.0749s4e-5 0.0677-0.0415 0.10889c-0.06 0.0595-0.067 0.0525-0.034-0.034zm0.49033-0.19474c0.0192-0.0501 0.0627-0.0911 0.0966-0.0911 0.0356 0 0.0296 0.0386-0.0139 0.0911-0.0416 0.0501-0.0851 0.0911-0.0966 0.0911-0.0116 0-5e-3 -0.041 0.0139-0.0911zm0.26487-0.37789c0-0.0764 0.17359-0.22788 0.21439-0.18707 0.0161 0.0161-0.0255 0.0789-0.0926 0.13952-0.067 0.0606-0.12183 0.082-0.12183 0.0476zm-0.36437-0.37405c0-0.0334 0.0273-0.0776 0.0607-0.0983 0.0334-0.0206 0.0607-0.0102 0.0607 0.0232s-0.0273 0.0776-0.0607 0.0983c-0.0334 0.0206-0.0607 0.0102-0.0607-0.0232zm-0.17631-0.36767c0.0522-0.0814 0.21432-0.24534 0.36027-0.36437 0.33429-0.27262 0.18588-0.0511-0.18292 0.27305-0.19448 0.17093-0.24514 0.19702-0.17735 0.0913zm1.9678 0.0569c0.0206-0.0334 0.0496-0.0607 0.0643-0.0607s0.0268 0.0273 0.0268 0.0607-0.0289 0.0607-0.0643 0.0607-0.0474-0.0273-0.0268-0.0607zm-1.0312-0.13287c0.0174-0.0453 0.0917-0.11981 0.1651-0.16567 0.13038-0.0814 0.1313-0.08 0.0392 0.0587-0.10487 0.15794-0.25376 0.23591-0.20428 0.10697zm1.1223-0.0761c0-0.0481 0.0248-0.10282 0.0551-0.12154 0.0303-0.0187 0.0408 0.0207 0.0233 0.0875-0.0371 0.1418-0.0784 0.15972-0.0784 0.034zm-2.8794-0.0728c-0.0179-0.0465 7e-3 -0.0826 0.0575-0.0826 0.0491 0 0.0892-0.0426 0.0892-0.0947s0.025-0.0792 0.0555-0.0603c0.0306 0.0189 0.0661 3e-3 0.0789-0.0359 0.0129-0.0386 0.0494-0.0593 0.0811-0.0459s-0.0297 0.10929-0.13643 0.21317c-0.14032 0.13653-0.2029 0.16599-0.22582 0.10628zm-2.2052-0.20406c0-0.15031 0.0118-0.21179 0.0263-0.13664 0.0145 0.0752 0.0145 0.19812 0 0.27328-0.0145 0.0752-0.0263 0.0137-0.0263-0.13664zm1.0766-0.0533c0-0.0293 0.0455-0.0908 0.10103-0.13663 0.0916-0.0756 0.0943-0.0706 0.0282 0.0533-0.0753 0.14131-0.12926 0.17611-0.12926 0.0833zm0.42509-0.0464c0-0.0326 0.0425-0.11229 0.0945-0.17713 0.0891-0.11115 0.0903-0.10921 0.0221 0.0339-0.0885 0.18589-0.11658 0.22035-0.11658 0.14319zm-1.3264-0.14319c0-0.0835 0.0138-0.11766 0.0306-0.0759 0.0169 0.0417 0.0169 0.11007 0 0.15182-0.0168 0.0417-0.0306 8e-3 -0.0306-0.0759zm1.167 0.0456c0.0188-0.0585 9e-3 -0.10627-0.0228-0.10627-0.0313 0-0.0393-0.0458-0.0178-0.10184 0.035-0.0911 0.0439-0.0895 0.0849 0.0152 0.0401 0.10235 0.0464 0.1037 0.0501 0.0108 2e-3 -0.0585 0.0316-0.10628 0.065-0.10628 0.0922 0 0.0712 0.0752-0.0677 0.24291-0.0823 0.0994-0.11398 0.11514-0.0917 0.0456zm-0.91735-0.42133c0.0709-0.21083 0.15777-0.40381 0.19294-0.42887 0.0436-0.0311 0.0405-0.0607-0.01-0.0934-0.0572-0.0371-0.0543-0.0855 0.0126-0.21455 0.0476-0.0917 0.0626-0.15195 0.0335-0.13395s-0.0645 0.0121-0.0786-0.0132-0.0161-9e-3 -5e-3 0.0368c0.0137 0.0537-0.0125 0.0698-0.0747 0.0459-0.0718-0.0275-0.0869-9e-3 -0.0604 0.0746 0.0364 0.11466-0.13102 0.594-0.18768 0.53735-0.0174-0.0174-6.7e-4 -0.0897 0.0373-0.16068 0.0711-0.13291 0.0336-0.36727-0.0588-0.36727-0.0287 0-0.0647 0.0478-0.0799 0.10627-0.0252 0.0964-0.0284 0.0959-0.0348-6e-3 -4e-3 -0.0616 0.0428-0.18462 0.10363-0.27327 0.0609-0.0887 0.1686-0.29784 0.23941-0.46484 0.0708-0.167 0.18387-0.41295 0.25127-0.54655 0.13241-0.26247 0.13334-0.26075 0.16294 0.30364 9e-3 0.167 0.0194 0.35554 0.0236 0.41897 4e-3 0.0634-0.0215 0.14456-0.0572 0.18028-0.0461 0.0461-0.0557 4e-3 -0.0329-0.14569 0.0307-0.20148 0.0292-0.20348-0.0335-0.0459-0.0425 0.10659-0.0453 0.20109-8e-3 0.2678 0.0523 0.0934 0.0644 0.0907 0.12839-0.029 0.0389-0.0727 0.0793-0.2205 0.0897-0.32853 0.0105-0.10804 0.0386-0.26766 0.0625-0.35471 0.03-0.10932 0.0139-0.18781-0.052-0.25376-0.12505-0.12505-0.12322-0.13755 0.0786-0.53542 0.10172-0.20052 0.19019-0.49608 0.21552-0.71994 0.0689-0.60929 0.12664-0.37413 0.10083 0.41087-3e-3 0.09-0.0298 0.12466-0.0748 0.0968-0.0501-0.031-0.0593 0.011-0.0321 0.14704 0.0306 0.15298 0.0136 0.20352-0.0863 0.25701-0.0736 0.0394-0.11036 0.10319-0.09 0.15617 0.0193 0.0504 8e-3 0.0733-0.0256 0.0525-0.033-0.0204-0.06-8e-3 -0.06 0.0272 0 0.0354 0.0289 0.0643 0.0643 0.0643s0.0446 0.032 0.0204 0.071c-0.0296 0.048-0.0106 0.0583 0.0585 0.0317 0.0855-0.0328 0.0921-0.0199 0.0397 0.0779-0.0345 0.0645-0.0693 0.26882-0.0773 0.45407-0.01 0.22486-0.0403 0.33684-0.092 0.33686-0.0426 1e-5 -0.0938 0.082-0.11386 0.18221-0.02 0.1002-0.0566 0.18218-0.0813 0.18218-0.048 0-0.36507 0.67264-0.36507 0.77444 0 0.0335-0.039 0.0932-0.0867 0.13281-0.0637 0.0529-0.0525-0.0295 0.0423-0.31138zm0.28541-1.4157c0-0.0334-0.0265-0.0197-0.0589 0.0304s-0.0589 0.11842-0.0589 0.15183c0 0.0334 0.0265 0.0197 0.0589-0.0304s0.0589-0.11842 0.0589-0.15182zm0.11158-0.4267c-0.0187-0.0187-0.0526 0.015-0.0755 0.0749-0.0329 0.0865-0.026 0.0935 0.034 0.034 0.0415-0.0412 0.0602-0.0902 0.0415-0.10889zm2.5134 2.1271c0.0524-0.0668 0.15309-0.23077 0.22382-0.36437 0.11354-0.21445 0.12387-0.22169 0.0882-0.0618-0.0222 0.0996-0.12295 0.26359-0.22382 0.36436-0.10087 0.10078-0.14056 0.12858-0.0882 0.0618zm-1.4305-0.18218c0.0192-0.0501 0.0627-0.0911 0.0966-0.0911 0.0356 0 0.0297 0.0386-0.0139 0.0911-0.0416 0.0501-0.0851 0.0911-0.0966 0.0911-0.0116 0-5e-3 -0.041 0.0139-0.0911zm0.3256 0.034c0-0.0314 0.027-0.0739 0.06-0.0943 0.0344-0.0213 0.0446 3e-3 0.0239 0.0571-0.0404 0.10521-0.0839 0.12446-0.0839 0.0371zm1.5436-0.0967c0.0474-0.18869 0.30506-0.52776 0.35964-0.47318 0.043 0.043 0.22219-0.13188 0.22219-0.2169 0-0.0347 0.041-0.0474 0.0911-0.0282s0.0911 5e-3 0.0911-0.0323c0-0.037 0.0307-0.0672 0.0682-0.0672 0.0443 0 0.039 0.0352-0.0152 0.10042-0.0458 0.0552-0.0745 0.11085-0.0638 0.12358 0.0301 0.0356-0.23443 0.55973-0.30416 0.60282-0.0374 0.0231-0.0354-0.0108 5e-3 -0.0868 0.10606-0.19818 0.0791-0.20987-0.10022-0.0435-0.0918 0.0852-0.20258 0.14128-0.24607 0.12461-0.0435-0.0167-0.0635-5e-3 -0.0446 0.0255 0.019 0.0307 3e-3 0.0755-0.0361 0.0995-0.0507 0.0313-0.0584-5e-3 -0.0274-0.12837zm0.1871-0.14977c0.0206-0.0334 9e-3 -0.0607-0.0268-0.0607-0.0354 0-0.0643 0.0273-0.0643 0.0607s0.0121 0.0607 0.0268 0.0607 0.0437-0.0273 0.0643-0.0607zm-3.917 0.15182c0-0.0501 0.0107-0.0911 0.0239-0.0911 0.0131 0 0.0396 0.041 0.0588 0.0911s8e-3 0.0911-0.0239 0.0911c-0.0324 0-0.0588-0.041-0.0588-0.0911zm0.16097 2e-3c-0.0188-0.049-8e-3 -0.1053 0.0239-0.12504 0.0319-0.0197 0.0581 0.0204 0.0581 0.0892 0 0.14663-0.0338 0.16142-0.0819 0.0359zm0.74995-0.0859c0-0.0668 0.0273-0.13834 0.0607-0.15898 0.0334-0.0207 0.0607 0.0171 0.0607 0.0839s-0.0273 0.13835-0.0607 0.15899c-0.0334 0.0206-0.0607-0.0171-0.0607-0.0839zm0.48789 0.0365c1e-3 -0.0407 0.0573-0.18332 0.12474-0.31692 0.1088-0.21544 0.11843-0.22231 0.0851-0.0607-0.0207 0.1002-0.0417 0.22933-0.0467 0.28696-0.0103 0.11845-0.16638 0.20519-0.16319 0.0907zm0.4741-0.13624c0.16371-0.20813 0.1201-0.2843-0.0475-0.083-0.15724 0.18881-0.15975 0.0534-4e-3 -0.20248 0.0667-0.10936 0.12046-0.25349 0.11952-0.32029-2e-3 -0.11264-7e-3 -0.1139-0.0808-0.0173-0.12718 0.16741-0.22595 0.0162-0.12352-0.18912 0.0456-0.0913 0.12281-0.37498 0.17167-0.63035 0.0489-0.25537 0.11984-0.52223 0.15773-0.59303 0.0542-0.10119 0.0502-0.14391-0.0185-0.19967-0.11908-0.0966-0.17304-0.27071-0.0923-0.29764 0.0462-0.0154 0.0437-0.0638-8e-3 -0.16095-0.0409-0.0764-0.061-0.15231-0.0446-0.16867 0.0164-0.0164 0.0477 0.027 0.0697 0.0963 0.0566 0.1782 0.16129 0.15712 0.12812-0.0258-0.0571-0.31462 0.13101-0.0952 0.28625 0.33401 0.0308 0.0853 0.0674-0.11724 0.0499-0.27609-4e-3 -0.0382 0.13806-0.0624 0.35717-0.0607 0.24935 2e-3 0.36418 0.0268 0.36419 0.0787 0 0.0418 0.0443 0.0759 0.0985 0.0759 0.0807 0 0.0849-0.0165 0.0229-0.0911-0.0456-0.055-0.0506-0.0911-0.0125-0.0911 0.0347 0 0.077 0.0342 0.0939 0.0759 0.0222 0.0546 0.0449 0.057 0.081 8e-3 0.0528-0.0712 0.18696-0.0702 0.45437 3e-3 0.26409 0.0725 0.61109-0.19344 0.70698-0.5419 0.0381-0.13855 0.0883-0.18413 0.21326-0.19373 0.0899-7e-3 0.1634 0.0131 0.1634 0.0445s-0.041 0.0571-0.0911 0.0571-0.0911 0.0303-0.0911 0.0672c0 0.037 0.0382 0.0526 0.085 0.0346 0.063-0.0242 0.0835 0.0201 0.0792 0.17144-5e-3 0.17513-0.0209 0.19596-0.11252 0.14693-0.0965-0.0516-0.10583-0.0236-0.0974 0.2927 5e-3 0.1924-7e-3 0.44547-0.0271 0.56237s-0.0211 0.23767-2e-3 0.26836c0.0431 0.0702 0.18531-0.39301 0.23052-0.75071 0.0188-0.1484 0.0488-0.29354 0.0667-0.32255 0.0179-0.029 0.0462-0.13988 0.0628-0.24638 0.0166-0.10651 0.0447-0.20731 0.0624-0.22401 0.0313-0.0295-0.0288 0.56898-0.0822 0.8177-0.0146 0.068-0.0537 0.27389-0.087 0.45759-0.0332 0.1837-0.089 0.40126-0.12383 0.48346-0.063 0.14862-0.064 0.14811-0.16937-0.0907-0.10307-0.23361-0.1072-0.23604-0.15137-0.0887-0.0264 0.088-0.0585 0.11962-0.0767 0.0755-0.0594-0.1439-0.14491-0.0756-0.1049 0.0838 0.0304 0.12124 0.0197 0.15265-0.0444 0.13034-0.0465-0.0162-0.0764-0.0744-0.0666-0.12937 0.01-0.055-0.0107-0.1-0.0455-0.1-0.0349 0-0.0634 0.094-0.0634 0.20896 0 0.11493-0.027 0.22566-0.06 0.24607-0.0344 0.0213-0.0446-3e-3 -0.0239-0.0571 0.0199-0.0518 6e-3 -0.0942-0.0311-0.0942-0.037 0-0.0672 0.0319-0.0672 0.0708 0 0.039-0.018 0.0529-0.04 0.0309s-0.0766-0.01-0.12145 0.0277c-0.0613 0.0509-0.0815 0.0474-0.0815-0.0141 0-0.0449-0.082 8e-3 -0.18218 0.11777-0.11336 0.12411-0.18219 0.265-0.18219 0.37293 0 0.0954-0.0166 0.2167-0.0369 0.26953-0.0464 0.12104-0.20605 0.12636-0.20605 7e-3 0-0.0543 0.0356-0.0755 0.0911-0.0542 0.0501 0.0192 0.0911 5e-3 0.0911-0.0323 0-0.037-0.0255-0.0672-0.0567-0.0672s-0.067-0.0752-0.0797-0.167l-0.023-0.16701-0.0683 0.15182c-0.0376 0.0835-0.0704 0.1245-0.0731 0.0911-3e-3 -0.0334-0.0313-0.0197-0.0637 0.0304-0.0893 0.13812-0.0721 0.20654 0.0304 0.12146 0.0508-0.0422 0.0911-0.0487 0.0911-0.0149 0 0.0334-0.0421 0.0957-0.0937 0.13846-0.065 0.0539-0.0743 0.0971-0.0304 0.14104 0.0869 0.0869 0.0794 0.16047-0.0165 0.16047-0.0581 0-0.076-0.0922-0.0656-0.339 0.0134-0.31945 8e-3 -0.33345-0.0921-0.24278-0.0585 0.0529-0.12148 0.081-0.14002 0.0625-0.0185-0.0185-0.0849 0.0314-0.1475 0.111s-0.1477 0.13339-0.18911 0.11959c-0.0424-0.0142-0.0753 0.0257-0.0753 0.0913 0 0.17797 0.0684 0.20834 0.20761 0.0922 0.0695-0.058 0.0446-0.0102-0.0553 0.10614-0.2772 0.3228-0.30444 0.34665-0.19607 0.17168 0.0821-0.13264 0.0851-0.16707 0.0167-0.19333-0.0518-0.0199-0.0971 0.0232-0.11989 0.11409-0.0202 0.0803-0.0957 0.17763-0.1679 0.21627l-0.13125 0.0702zm0.22221-0.39323c0.0206-0.0334-5e-3 -0.0607-0.0571-0.0607s-0.0947 0.0273-0.0947 0.0607 0.0257 0.0607 0.0571 0.0607 0.074-0.0273 0.0947-0.0607zm0.69643-0.63407c-1e-3 -0.0354-0.0421-0.0113-0.0911 0.0536-0.049 0.0648-0.0883 0.14681-0.0872 0.18218 1e-3 0.0354 0.0421 0.0113 0.0911-0.0536 0.049-0.0648 0.0883-0.14681 0.0872-0.18218zm-0.33926-0.0675c0.0207-0.054 0.0105-0.0784-0.0239-0.0571-0.033 0.0204-0.06 0.0628-0.06 0.0942 0 0.0874 0.0435 0.0681 0.0839-0.0371zm0.70463-0.16743c5.2e-4 -0.027-0.0264-0.0322-0.0598-0.0116s-0.0603 0.0837-0.0598 0.14022c8.1e-4 0.0885 9e-3 0.0901 0.0598 0.0116 0.0324-0.0501 0.0593-0.1132 0.0598-0.14022zm-0.20611-0.20852c-0.0421-0.0421-0.15733 0.0435-0.15733 0.11685 0 0.0403 0.0349 0.0357 0.0926-0.0122 0.0509-0.0422 0.08-0.0893 0.0648-0.10461zm-0.27878-0.0764c0-0.0334-0.0121-0.0607-0.0268-0.0607s-0.0437 0.0273-0.0643 0.0607-9e-3 0.0607 0.0268 0.0607c0.0354 0 0.0643-0.0273 0.0643-0.0607zm-0.5841-0.0942c0.0207-0.0541 0.0106-0.0784-0.0239-0.0572-0.033 0.0204-0.06 0.0628-0.06 0.0943 0 0.0874 0.0435 0.0681 0.0839-0.0371zm0.75236-0.11831c-7e-3 -0.0835-0.0339-0.15182-0.0601-0.15182-0.0261 0-0.0475 0.0683-0.0475 0.15182 0 0.0835 0.027 0.15183 0.06 0.15183s0.0544-0.0683 0.0475-0.15183zm-0.69284-0.12145c-0.0192-0.0501-0.0457-0.0911-0.0588-0.0911s-0.0239 0.041-0.0239 0.0911 0.0265 0.0911 0.0588 0.0911c0.0324 0 0.0431-0.041 0.0239-0.0911zm0.12144-0.48583c-0.0192-0.0501-0.0457-0.0911-0.0588-0.0911s-0.0239 0.041-0.0239 0.0911 0.0265 0.0911 0.0588 0.0911c0.0324 0 0.0431-0.041 0.0239-0.0911zm0.49898-0.2584c-0.0193-0.0193-0.0351-2e-3 -0.0351 0.0393 0 0.0409-0.0273 0.0575-0.0607 0.0369-0.0352-0.0217-0.0597 0.0343-0.0583 0.13305l2e-3 0.17059 0.0934-0.17237c0.0514-0.0948 0.0776-0.18818 0.0583-0.20749zm0.66326 0.0459c0.0206-0.0334 0.0102-0.0607-0.0232-0.0607s-0.0776 0.0273-0.0983 0.0607c-0.0206 0.0334-0.0102 0.0607 0.0232 0.0607s0.0776-0.0273 0.0983-0.0607zm-0.42553-0.06c0.0213-0.0344-3e-3 -0.0446-0.0571-0.0239-0.10521 0.0404-0.12446 0.0839-0.0371 0.0839 0.0314 0 0.0738-0.027 0.0942-0.06zm-0.17671 2.6188c-0.0262-0.0423-0.0312-0.0934-0.0111-0.1134 0.0543-0.0543 0.11361 0.0256 0.0842 0.11365-0.0206 0.0617-0.0349 0.0617-0.0731-2.5e-4zm-1.7956-0.44485c5.1e-4 -0.0437 0.0274-0.12048 0.0598-0.17058 0.0479-0.0741 0.059-0.0662 0.0598 0.042 4.8e-4 0.0732-0.0264 0.14994-0.0598 0.17059-0.0334 0.0206-0.0603 2e-3 -0.0598-0.042zm0.62153 0.0321c-0.0869-0.035-0.1032-0.14196-0.0217-0.14196 0.0298 0 0.07 0.041 0.0892 0.0911s0.029 0.0889 0.0217 0.0863c-7e-3 -3e-3 -0.0474-0.0186-0.0892-0.0354zm3.7235-0.82778c0.0228-0.0599 0.0568-0.0936 0.0755-0.0749s4e-5 0.0677-0.0415 0.10889c-0.06 0.0595-0.067 0.0525-0.034-0.034zm-4.0423-0.0699c0-0.0279 0.0797-0.18027 0.17713-0.3386 0.19997-0.325 0.2315-0.45264 0.16248-0.65777-0.0299-0.089-0.0216-0.16903 0.0223-0.21255 0.0532-0.0528 0.0599-0.0424 0.0276 0.0426-0.025 0.0656-0.0124 0.13118 0.0301 0.15748 0.0757 0.0468 0.12751 0.6107 0.0561 0.61068-0.0223 0-0.0522-0.0342-0.0666-0.0759s-0.11228 0.0592-0.21761 0.22444c-0.10532 0.16519-0.19149 0.27752-0.19149 0.24963zm4.6372-0.60084c0.0215-0.0614 0.0562-0.2185 0.0771-0.34918 0.0209-0.13069 0.0644-0.23761 0.0966-0.23761 0.0966 0 0.01 0.48896-0.10583 0.59781-0.1 0.094-0.10445 0.0932-0.0679-0.011zm-5.3617-0.14841c6e-3 -0.15349 0.10627-0.37086 0.11785-0.25619 5e-3 0.0501 0.0467 9e-3 0.0926-0.0911 0.0991-0.21636 0.11693-0.0682 0.0239 0.19862-0.073 0.20939-0.24125 0.3161-0.2344 0.14867zm5.1919 5e-3c-0.033-0.0866-0.026-0.0935 0.034-0.034 0.0415 0.0412 0.0602 0.0902 0.0415 0.1089s-0.0527-0.015-0.0755-0.0749zm-0.27718-0.40685c0-0.21043 0.0807-0.46632 0.12468-0.3952 0.0257 0.0417 0.0233 0.13768-6e-3 0.2134-0.0349 0.0917-0.029 0.14542 0.0175 0.16092 0.0404 0.0135 0.0263 0.0399-0.0334 0.0629-0.0656 0.0252-0.1032 0.01-0.1032-0.042zm0.24291-6e-3c0-0.0501 0.0235-0.0911 0.0523-0.0911s0.0399-0.0651 0.0246-0.1447c-0.0152-0.0796 2e-3 -0.16314 0.0387-0.18569 0.0446-0.0275 0.0577 0.0249 0.0402 0.15989-0.0144 0.11048-0.028 0.23503-0.0302 0.27678-6e-3 0.10867-0.12555 0.0942-0.12555-0.0152zm-4.945-0.34919c0.0244-0.10855 0.0448-0.2278 0.0453-0.26499 5.5e-4 -0.0372 0.054-0.10077 0.1189-0.14128 0.0952-0.0595 0.11149-0.0582 0.0844 7e-3 -0.0184 0.0443-0.0657 0.1967-0.10491 0.33865-0.0838 0.30289-0.21013 0.35628-0.14371 0.0607zm3.9734 0.0831c0-0.0334 0.0273-0.0776 0.0607-0.0983s0.0607-0.0102 0.0607 0.0232-0.0273 0.0776-0.0607 0.0983-0.0607 0.0102-0.0607-0.0232zm-2.7706-0.31858c0.0982-0.14019 0.0697-0.29587-0.0541-0.29587-0.0434 0-0.12078-0.12298-0.172-0.27328-0.11064-0.32473-0.0847-0.35599 0.0536-0.0646 0.0584 0.12302 0.13128 0.19631 0.1776 0.17854 0.05-0.0192 0.0874 0.0319 0.10283 0.1405 0.0336 0.23665-4.8e-4 0.36678-0.10683 0.40759-0.0799 0.0307-0.08 0.0198-1e-3 -0.0929zm3.8333 8e-3c0.0206-0.0334 0.0496-0.0607 0.0643-0.0607s0.0268 0.0273 0.0268 0.0607-0.0289 0.0607-0.0643 0.0607-0.0474-0.0273-0.0268-0.0607zm-0.38646-0.17269c-5e-3 -0.0813-0.0552-0.15459-0.11756-0.1709-0.17714-0.0463-0.26134-0.24847-0.26318-0.6318-9.4e-4 -0.19774-0.0298-0.37686-0.064-0.39804-0.04-0.0247-0.034-0.056 0.0166-0.0873 0.0622-0.0385 0.0639-0.0819 8e-3 -0.20496-0.0992-0.21765-5e-3 -0.19523 0.12242 0.0292 0.0578 0.10155 0.0802 0.16925 0.0497 0.15044-0.13294-0.0822-0.10748 0.085 0.0285 0.18709 0.0829 0.0622 0.15068 0.14766 0.15068 0.18984 0 0.0422 0.0305 0.0767 0.0678 0.0767 0.0394 0 0.0536-0.0545 0.0338-0.13021-0.0242-0.0927-0.0153-0.11143 0.0311-0.0651 0.0902 0.0902 0.14608 0.92401 0.0619 0.92401-0.0356 0-0.0765 0.0615-0.091 0.13664-0.0263 0.13649-0.0263 0.13649-0.0346-6e-3zm-0.2097-0.62817c-0.0194-0.0484-0.0338-0.034-0.0367 0.0367-3e-3 0.064 0.0117 0.0999 0.0319 0.0797s0.0223-0.0726 5e-3 -0.1164zm-4.4442 0.2746c-0.0576-0.50587-0.0897-0.60348-0.16422-0.49897-0.0442 0.062-0.0494 0.0523-0.0198-0.0375 0.022-0.0668 0.0556-0.34057 0.0745-0.60837 0.0278-0.39286 0.0165-0.50179-0.0584-0.56397-0.10025-0.0832-0.0947-0.13218 0.0816-0.72552 0.062-0.20881 0.10449-0.41376 0.0943-0.45546-0.0102-0.0417-7e-3 -0.0553 7e-3 -0.0303 0.014 0.0251 0.0623 0.0455 0.10727 0.0455 0.0634 0 0.0691 0.0444 0.0253 0.19697-0.0674 0.23502-0.0759 0.91529-0.0109 0.87522 0.025-0.0155 0.0461 0.10725 0.0468 0.27267 7.2e-4 0.17795 0.033 0.32042 0.0791 0.3489 0.0428 0.0265 0.071 0.073 0.0627 0.10329-0.0291 0.10517 0.0781 0.32844 0.15765 0.32844 0.0798 0 0.15242 0.1789 0.15398 0.37955 4.9e-4 0.0585-0.0283 0.10628-0.064 0.10628-0.0384 0-0.0482-0.0525-0.0238-0.12906 0.027-0.085 0.0186-0.11526-0.0244-0.0887-0.0621 0.0384-0.243-0.28938-0.28998-0.5254-0.0115-0.058-0.0624-0.19465-0.11299-0.30364l-0.092-0.19818 0.0434 0.27328c0.0425 0.26775 0.0345 1.5221-0.01 1.5666-0.0124 0.0124-0.0407-0.13685-0.0629-0.33171zm-0.0496-0.76042c-0.0194-0.0484-0.0338-0.0341-0.0367 0.0367-3e-3 0.064 0.0117 0.0999 0.0319 0.0797s0.0223-0.0726 5e-3 -0.11639zm6.9726 1.0438c0.0206-0.0334 0.0496-0.0607 0.0643-0.0607s0.0268 0.0273 0.0268 0.0607-0.0289 0.0607-0.0643 0.0607-0.0474-0.0273-0.0268-0.0607zm-6.6644-0.21344c0.0355-0.18586 0.11104-0.24322 0.15825-0.12021 0.0191 0.0499 8e-3 0.0907-0.024 0.0907-0.0324 0-0.0588 0.041-0.0588 0.0911s-0.0235 0.0911-0.0523 0.0911-0.0392-0.0687-0.0231-0.15271zm1.6392-0.0446c0.1569-0.0737 0.17534-0.1808 0.0492-0.28553-0.0481-0.0399-0.0725-0.11159-0.0542-0.15925 0.0383-0.1-0.0604-0.11275-0.21826-0.0283-0.0771 0.0412-0.14272 0.0321-0.22374-0.0313-0.10735-0.084-0.10397-0.0872 0.0531-0.0516 0.0986 0.0224 0.20503 7e-3 0.2581-0.0369 0.0497-0.0412 0.0903-0.0537 0.0903-0.0277s0.0669-0.0306 0.14863-0.12572c0.14449-0.16816 0.14539-0.17523 0.0326-0.25425-0.0945-0.0662-0.13902-0.0669-0.23972-4e-3 -0.068 0.0425-0.12367 0.098-0.12367 0.12335 0 0.0254-0.041 0.0461-0.0911 0.0461s-0.0911-0.0208-0.0911-0.0461c0-0.0254-0.0575-0.082-0.1278-0.12594-0.0703-0.0439-0.10968-0.0505-0.0875-0.0146 0.0222 0.0359 9e-3 0.0652-0.0286 0.0652-0.0438 0-0.0627-0.10095-0.0519-0.27718 0.0106-0.17307-0.0115-0.29483-0.059-0.32418-0.0579-0.0358-0.0509-0.0674 0.0293-0.13274 0.0936-0.0762 0.10076-0.0735 0.064 0.0244-0.0374 0.0998-0.0248 0.0983 0.13464-0.0152 0.22594-0.16089 0.29897-0.1605 0.15298 8.3e-4 -0.11223 0.124-0.11163 0.12802 0.0361 0.24156 0.0826 0.0635 0.18107 0.11606 0.21873 0.11681 0.0377 7.4e-4 0.10203 0.0418 0.14303 0.0912 0.10204 0.12295 0.45085 0.29152 0.47199 0.22809 9e-3 -0.0283 0.0959-0.046 0.19221-0.0393 0.1183 8e-3 0.24882-0.0487 0.40261-0.17545 0.12515-0.10316 0.21352-0.14808 0.19638-0.0998-0.0171 0.0483-6e-3 0.13595 0.0239 0.19484 0.031 0.0601 0.0324 0.14765 3e-3 0.19966-0.0448 0.0801-0.0666 0.0762-0.16139-0.0285-0.0947-0.10461-0.12131-0.10935-0.19584-0.0348-0.093 0.093-0.10967 0.17859-0.0364 0.18678 0.13015 0.0145 0.37955 0.15222 0.37955 0.20954 0 0.0362 0.0273 0.0489 0.0607 0.0283 0.0911-0.0563 0.18161 0.0219 0.14267 0.1234-0.0188 0.049-0.0877 0.0892-0.15316 0.0892-0.18534 0-0.35388 0.1143-0.35388 0.23999 0 0.0628 0.0342 0.12594 0.0759 0.14023 0.0418 0.0143-0.21103 0.0276-0.56174 0.0296-0.49154 3e-3 -0.60634-0.0111-0.50101-0.0606zm0.62247-0.55436c0-0.0126-0.0416-0.0575-0.0925-0.0997-0.0773-0.0642-0.0862-0.0604-0.0542 0.0229 0.0327 0.0851 0.14671 0.14479 0.14671 0.0768zm-1.0324-0.82727c-0.0482-0.0298-0.10123-0.0405-0.11793-0.0238s9e-3 0.0547 0.0572 0.0845 0.10124 0.0405 0.11794 0.0238-9e-3 -0.0547-0.0572-0.0845zm3.4311 1.0324c-0.0233-0.1381-0.0287-0.26476-0.012-0.28146s0.0494 0.0826 0.0728 0.22073c0.0233 0.13811 0.0288 0.26476 0.0121 0.28146s-0.0495-0.0826-0.0728-0.22073zm-4.658-0.0776c-0.0174-0.0909-0.01-0.1653 0.0171-0.1653 0.0808 0 0.10395 0.0841 0.058 0.21085-0.0386 0.10637-0.047 0.10128-0.0751-0.0455zm5.7114 0.0472c0.0319-0.0668 0.0631-0.14879 0.0691-0.18219 0.0185-0.10182 0.0617-0.11702 0.0617-0.0217 0 0.0493-0.0425 0.14266-0.0944 0.20749-0.0929 0.11596-0.0935 0.1159-0.0363-4e-3zm-0.96231-0.15182c0-0.0334 0.0289-0.0607 0.0643-0.0607s0.0474 0.0273 0.0268 0.0607-0.0496 0.0607-0.0643 0.0607-0.0268-0.0273-0.0268-0.0607zm-4.268-0.0809c-0.0241-0.0612-0.0429-0.15683-0.0419-0.21255 2e-3 -0.0904 9e-3 -0.0896 0.0648 7e-3 0.0346 0.0595 0.0535 0.15514 0.0419 0.21254-0.0192 0.0953-0.0249 0.0947-0.0648-7e-3zm-0.3069-0.26325c-0.0223-0.0223-0.0397-0.0838-0.0386-0.13664 2e-3 -0.079 0.0134-0.0763 0.0663 0.0147 0.0654 0.11245 0.0464 0.19605-0.0276 0.12196zm4.1942-0.0761c-0.0264-0.10102-0.0185-0.12473 0.0266-0.0797 0.0353 0.0353 0.0522 0.10001 0.0376 0.14382-0.0152 0.0455-0.0427 0.0179-0.0642-0.0642zm-1.2893-0.12633c0.0206-0.0334 0.0496-0.0607 0.0643-0.0607s0.0268 0.0273 0.0268 0.0607-0.0289 0.0607-0.0643 0.0607-0.0474-0.0273-0.0268-0.0607zm-0.0571-0.28846c0.0625-0.10855 0.13512-0.19736 0.16132-0.19736 0.0926 0 0.0457 0.10205-0.11368 0.24751l-0.16132 0.14722zm-1.1422-0.12558c-0.19373-0.19046-0.20906-0.25434-0.0607-0.25304 0.0908 7.9e-4 0.093 9e-3 0.0152 0.0598-0.0785 0.0507-0.0769 0.059 0.0116 0.0598 0.0565 4.8e-4 0.11976-0.0267 0.14063-0.0605 0.0209-0.0338 0.11208-0.0557 0.20269-0.0488 0.0906 7e-3 0.19756-8e-3 0.23766-0.0325 0.0401-0.0248 0.12395-0.0177 0.18633 0.0156 0.0783 0.0419 0.13476 0.0393 0.18243-8e-3 0.038-0.038 0.0828-0.0552 0.0997-0.0383 0.0367 0.0367-0.69708 0.47889-0.78642 0.4739-0.0342-2e-3 -0.13726-0.0774-0.22911-0.16766zm1.3349-0.3147c-0.087-0.10157-0.0892-0.12145-0.0135-0.12145 0.0498 0 0.0905 0.0387 0.0905 0.086s0.0342 0.0998 0.0759 0.11666c0.0418 0.0168 0.0478 0.0328 0.0135 0.0354-0.0343 3e-3 -0.10922-0.0499-0.16641-0.11666zm1.9644-1.0678c3e-3 -0.0708 0.0173-0.0851 0.0367-0.0367 0.0175 0.0438 0.0154 0.0962-5e-3 0.11639-0.0202 0.0202-0.0345-0.0157-0.0319-0.0797zm0.17739-0.25987c0-0.0622 0.082-0.21627 0.18218-0.34235 0.10021-0.12609 0.18218-0.2681 0.18218-0.31558 0-0.0475 0.0262-0.0701 0.0582-0.0504 0.0348 0.0215 0.047-0.0518 0.0303-0.18224-0.0182-0.14239-6e-3 -0.20459 0.0355-0.17899 0.0349 0.0216 0.10328 6e-3 0.15192-0.0341 0.0707-0.0587 0.0884-0.0552 0.0884 0.0177 0 0.0501-0.041 0.12511-0.0911 0.16669-0.0501 0.0416-0.0911 0.10272-0.0911 0.13588 0 0.0332-0.0888 0.24829-0.19735 0.47809-0.19001 0.40223-0.34919 0.5414-0.34919 0.3053zm-5.6162-0.17535c0.0206-0.0752 0.0103-0.13664-0.0228-0.13664-0.0731 0-0.2111-0.39634-0.17462-0.50154 0.0144-0.0415 0.0469 0.0203 0.0724 0.13717 0.0254 0.1169 0.0866 0.25841 0.13603 0.31446 0.0698 0.0792 0.0744 0.12657 0.0207 0.21255-0.0617 0.0988-0.0651 0.096-0.0317-0.026zm4.7071-0.29013c-1e-3 -0.0343 0.0351-0.1163 0.0802-0.18218 0.0451-0.0659 0.13236-0.28376 0.19387-0.48416 0.12495-0.40714 0.44848-0.79708 0.60993-0.73512 0.0527 0.0202 0.20283 0.0367 0.3337 0.0367 0.13086 0 0.23793 0.0273 0.23793 0.0607s-0.0511 0.0607-0.11363 0.0607c-0.0905 0-0.12182 0.0618-0.1539 0.30364-0.0222 0.167-0.0602 0.30364-0.0845 0.30364s-0.0712 0.0615-0.10418 0.13664c-0.0711 0.16209-0.40895 0.21958-0.55962 0.0952-0.0775-0.064-0.10221-0.0646-0.12291-3e-3 -0.0142 0.0423-0.0594 0.11066-0.10033 0.15182-0.0409 0.0411-0.10598 0.12948-0.14455 0.19628-0.0386 0.0668-0.071 0.0934-0.072 0.0591zm0.96366-1.1018c0.19219 0.0384 0.22416 9e-3 0.13782-0.12702-0.0695-0.1095-0.43563 0.0241-0.43438 0.15848 7.5e-4 0.0816 0.011 0.0845 0.0546 0.0156 0.0366-0.0578 0.11346-0.0728 0.24198-0.0471zm-2.1801 0.85429c0-0.018 0.041-0.0738 0.0911-0.12389 0.079-0.079 0.0911-0.0793 0.0911-2e-3 0 0.0489-0.041 0.10466-0.0911 0.12389-0.0501 0.0192-0.0911 0.0202-0.0911 2e-3zm-2.6568-0.0679c-0.0417-0.0149-0.0759-0.0662-0.0759-0.11395 0-0.0747-0.0303-0.0742-0.21602 3e-3 -0.17261 0.0721-0.23972 0.0755-0.334 0.0166-0.0649-0.0405-0.11799-0.0961-0.11799-0.12339 0-0.0273-0.0273-0.0328-0.0607-0.0122s-0.0607-5e-3 -0.0607-0.0572c0-0.0521-0.0239-0.0947-0.0531-0.0947s-0.0708-0.0885-0.0925-0.19661c-0.0402-0.20121-0.31447-0.49449-0.4082-0.43657-0.13286 0.0821-0.77659 0.0263-1.1023-0.0956-0.42538-0.15916-1.1693-0.70384-1.6254-1.1901-0.61899-0.65986-1.0323-1.7748-0.75914-2.0479 0.1606-0.1606 0.48412-0.12304 0.93151 0.10814 0.22373 0.11561 0.52975 0.22199 0.68005 0.23641 0.41807 0.0401 1.5591 0.55288 2.269 1.0196 0.35072 0.2306 0.52445 0.28923 0.52445 0.177 0-0.0314-0.0316-0.0766-0.0701-0.10047-0.046-0.0284-0.0535-0.0165-0.0219 0.0346 0.0322 0.052 0.0201 0.0685-0.0362 0.0494-0.0581-0.0197-0.0782-0.10505-0.0646-0.27457 0.0225-0.27978-0.055-0.35814-0.77886-0.78768-0.35881-0.21292-0.5203-0.3824-0.36437-0.3824 0.0334 0 0.0607 0.0383 0.0607 0.0851s0.0818 0.11368 0.18185 0.14854c0.1657 0.0578 0.1851 0.0504 0.21851-0.0827 0.0545-0.21722 0.18417-0.30531 0.22418-0.15231 0.0383 0.14656 0.19735 0.15972 0.32978 0.0273 0.0868-0.0868 0.0801-0.12401-0.0739-0.40991-0.0931-0.17296-0.22684-0.42465-0.29716-0.55933-0.0883-0.16918-0.16076-0.23818-0.23433-0.22324-0.0933 0.0189-0.0983 3.1e-4 -0.0403-0.14987 0.0364-0.0943 0.0689-0.38537 0.0724-0.64677 6e-3 -0.46928 8e-3 -0.47349 0.1149-0.33401 0.12632 0.16421 0.13979 0.12777 0.0417-0.11287-0.0912-0.22368-0.10772-0.63573-0.0243-0.6046 0.035 0.013 0.0568 0.0545 0.0484 0.0921-8e-3 0.0376 0.0121 0.0683 0.0455 0.0683s0.0607-0.13502 0.0607-0.30006c0-0.16503 0.0266-0.31651 0.0592-0.33662 0.0367-0.0227 0.0587 0.16601 0.0579 0.49742-1e-3 0.55186 0.14802 1.283 0.3408 1.6691l0.10031 0.20091-0.16946-0.1771-0.16947-0.1771-0.0563 0.16894c-0.0353 0.10593-0.0346 0.18331 2e-3 0.20746 0.032 0.0212 0.0902 0.13207 0.12936 0.24639 0.0656 0.19155 0.63387 0.79415 0.74892 0.79415 0.0659 0 0.0624 0.19003-6e-3 0.29731-0.0295 0.0466-0.0974 0.068-0.15089 0.0474-0.11609-0.0445-0.12698 0.0248-0.0213 0.13575 0.0619 0.065 0.0507 0.0721-0.0607 0.0384-0.20148-0.0609-0.16627 0.0614 0.0426 0.14787 0.16136 0.0668 0.21207 0.0555 0.5084-0.11409 0.37139-0.21249 0.41558-0.22462 0.36817-0.10107-0.0184 0.048-0.0663 0.0747-0.10649 0.0592-0.0402-0.0154-0.13418 0.029-0.20895 0.0986-0.0748 0.0697-0.23212 0.16683-0.34969 0.21596-0.11758 0.0491-0.22977 0.13101-0.24933 0.18198-0.0206 0.0536-0.0771 0.0783-0.13399 0.0587-0.0719-0.0248-0.0673-0.01 0.0172 0.0556 0.10535 0.0816 0.10656 0.093 0.0136 0.1287-0.0792 0.0304-0.0864 0.0579-0.0322 0.12313 0.0383 0.0462 0.0493 0.084 0.0245 0.084-0.0249 0-0.0112 0.041 0.0304 0.0911 0.0676 0.0814 0.0446 0.11491-0.0689 0.10064-0.0212-3e-3 -0.0417 0.11024-0.0455 0.2509-4e-3 0.14066-9e-3 0.30201-0.0111 0.35856-2e-3 0.0566-0.0378 0.0899-0.0791 0.074-0.0434-0.0166-0.11031 0.0612-0.15878 0.18476-0.10613 0.2705-0.1378 0.2411-0.0864-0.0802 0.0278-0.17393 0.0704-0.25131 0.13866-0.25195 0.064-6.1e-4 0.0744-0.0166 0.0298-0.0456-0.0378-0.0245-0.0638-0.11293-0.0577-0.19644 0.016-0.22066-0.0885-0.42509-0.21727-0.42509-0.0614 0-0.11254 0.0342-0.11356 0.0759-1e-3 0.0421-0.0294 0.0286-0.0637-0.0304-0.0759-0.13035-0.19805-0.13655-0.29878-0.0152-0.0626 0.0754-0.0561 0.0912 0.0381 0.092 0.081 6.6e-4 0.0915 0.015 0.0366 0.0499-0.0424 0.0269-0.0697 0.1123-0.0607 0.18974 9e-3 0.0774-0.0178 0.15292-0.0595 0.16774-0.0417 0.0148-0.0759-0.0163-0.0759-0.0692s-0.0302-0.0962-0.0672-0.0962-0.0518-0.0403-0.0329-0.0895c0.019-0.0496-0.0119-0.11535-0.0694-0.14755-0.0571-0.0319-0.0969-0.0737-0.0886-0.0927 0.0362-0.0827 4e-3 -0.14307-0.18593-0.34399-0.27723-0.29393-0.701-0.58955-0.95387-0.66543-0.43139-0.12944-1.2458-0.33367-1.3045-0.32713-0.13956 0.0155-0.27328 0.10601-0.27328 0.18494 0 0.0465-0.0205 0.0847-0.0456 0.0847-0.0684 1.9e-4 -0.0796 0.35478-0.0126 0.39622 0.032 0.0198 0.0581 0.10126 0.0581 0.18111 0 0.0799 0.0822 0.267 0.18267 0.41587 0.17968 0.26623 0.18763 0.27036 0.48563 0.25205 0.19938-0.0122 0.28955 3e-3 0.26373 0.0449-0.026 0.0421 0.0202 0.0489 0.13683 0.0203 0.16793-0.0412 0.17045-0.0389 0.0546 0.0499-0.10844 0.0832-0.11007 0.0934-0.0152 0.0951 0.0584 1e-3 0.10627 0.0287 0.10627 0.0615s0.0674 0.0765 0.1498 0.0972 0.14747 0.0554 0.14463 0.0771c-3e-3 0.0217-2e-3 0.0883 2e-3 0.14788 6e-3 0.0913 0.0275 0.0975 0.13597 0.0395 0.0905-0.0484 0.11652-0.0491 0.0875-2e-3 -0.0229 0.037-1e-3 0.0668 0.0483 0.0668s0.14738 0.0752 0.21799 0.167c0.10955 0.1425 0.12675 0.14918 0.11719 0.0456-0.0169-0.18381 0.0683-0.33401 0.18965-0.33401 0.0597 0 0.12568-0.0448 0.14672-0.0997 0.0307-0.0801 0.0215-0.0857-0.0471-0.0288-0.10429 0.0866-0.17877-0.047-0.0986-0.17675 0.0417-0.0674 0.0672-0.0678 0.14621-2e-3 0.0526 0.0437 0.0957 0.11709 0.0957 0.1631 0 0.046 0.0342 0.0841 0.0759 0.0846 0.0533 6.6e-4 0.0558 0.0142 8e-3 0.0456-0.0373 0.0245-0.0869 0.1061-0.11036 0.18125-0.0235 0.0752-0.0681 0.13664-0.0993 0.13664-0.092 0-0.0646 0.1054 0.0376 0.14463 0.0544 0.0209 0.0785 0.0106 0.0569-0.0243-0.0206-0.0333 0.0122-0.0781 0.0728-0.0996s0.15628-0.0787 0.21269-0.12709c0.10626-0.0911 0.53508-0.14222 0.53508-0.0638 0 0.0925-0.22279 0.16603-0.29235 0.0965-0.0502-0.0502-0.0789-0.0376-0.10963 0.0484-0.0229 0.064-0.0817 0.16323-0.13081 0.22044-0.10488 0.12225-0.0591 0.29072 0.079 0.29072 0.057 0 0.079 0.0284 0.0537 0.0695-0.0236 0.0382 0.0405 0.0202 0.14259-0.0401 0.10727-0.0634 0.17235-0.1439 0.15431-0.19093-0.0409-0.10647 0.0689-0.10483 0.15783 2e-3 0.0483 0.0582 0.0513 0.13148 0.01 0.24076-0.0729 0.19172-7e-3 0.24331 0.20778 0.1618 0.42432-0.16133 0.67203 0.0143 0.87722 0.62187 0.0688 0.20374 0.11845 0.37561 0.11034 0.38194-8e-3 6e-3 -0.0489-6.9e-4 -0.0907-0.0156zm-0.51619-0.82355c0.0417 0.015 0.0759-4e-3 0.0759-0.0426 0-0.0969-0.31809-0.0513-0.35153 0.0504-0.0203 0.0618 7.6e-4 0.0675 0.0864 0.0234 0.0623-0.0321 0.14746-0.0462 0.18921-0.0312zm-1.183-0.26565c-0.0411-0.0166-0.1231-0.0177-0.18219-2e-3 -0.0591 0.0154-0.0254 0.029 0.0748 0.0302 0.1002 1e-3 0.14854-0.0114 0.10743-0.028zm-0.1378-0.20308c0-0.0675-0.0405-0.12146-0.0911-0.12146-0.11098 0-0.11486 0.0389-0.0152 0.15208 0.10005 0.11364 0.10627 0.11185 0.10627-0.0306zm-0.31946-0.32277c-0.071-0.15297-0.16636-0.21935-0.16636-0.11584 0 0.0673 0.18985 0.32972 0.2181 0.30148 0.0129-0.013-0.0103-0.0965-0.0517-0.18564zm0.0462-0.28451c-0.0206-0.0334-0.0649-0.0607-0.0983-0.0607s-0.0438 0.0273-0.0232 0.0607 0.0649 0.0607 0.0983 0.0607 0.0438-0.0273 0.0232-0.0607zm1.3321-1.8155c0.0185-0.0299-6e-3 -0.0695-0.054-0.088-0.0585-0.0224-0.0764-4e-3 -0.0539 0.0544 0.0391 0.10201 0.0614 0.10894 0.10793 0.0336zm-0.3908-0.25939c0-0.0278-0.0257-0.0506-0.0571-0.0506s-0.0712 0.0228-0.0884 0.0506 9e-3 0.0506 0.0571 0.0506c0.0486 0 0.0884-0.0228 0.0884-0.0506zm0.4251-0.11134c0-0.0334-0.0121-0.0607-0.0268-0.0607s-0.0437 0.0273-0.0643 0.0607c-0.0207 0.0334-9e-3 0.0607 0.0268 0.0607 0.0354 0 0.0643-0.0273 0.0643-0.0607zm-0.35683-2.2631c-0.06-0.0595-0.067-0.0525-0.034 0.034 0.0228 0.0599 0.0568 0.0936 0.0755 0.0749s4e-5 -0.0677-0.0415-0.1089zm6.3411 5.6074c-0.0192-0.0311-7e-3 -0.0737 0.0268-0.0947 0.0339-0.021 0.0617 4e-3 0.0617 0.0565 0 0.10667-0.0364 0.12237-0.0885 0.0381zm0.58404-0.62605c-0.0387-0.0387-0.0704-0.0923-0.0704-0.11903 0-0.0267-0.0519-0.1005-0.11538-0.16397-0.088-0.088-0.13334-0.0988-0.1911-0.0455-0.0576 0.0532-0.0655 0.0517-0.0328-6e-3 0.0236-0.0417 0.0139-0.0759-0.0215-0.0759s-0.0643-0.0948-0.0643-0.21064c0-0.15649 0.0221-0.20218 0.0858-0.17772 0.0502 0.0193 0.0982-0.013 0.11589-0.0778 0.0166-0.0609 0.0274-0.014 0.0241 0.10412-3e-3 0.11816 0.0145 0.24797 0.0395 0.28846 0.0681 0.11014 0.32748 0.0887 0.39541-0.0327 0.0523-0.0936 0.0676-0.0849 0.12723 0.072 0.0556 0.14628 0.0509 0.18764-0.0261 0.23075-0.0516 0.0289-0.0939 0.0905-0.0939 0.13701 0 0.11994-0.0896 0.15998-0.17246 0.0771zm-6.8981-0.0393c-0.0183-0.0296 2e-3 -0.0828 0.0441-0.1181 0.0582-0.0483 0.0774-0.035 0.0774 0.0538 0 0.12311-0.0642 0.15704-0.12154 0.0643zm6.2582-0.0396c-0.0586-0.15271-0.0413-0.19211 0.0303-0.069 0.0354 0.061 0.0517 0.12363 0.036 0.13926-0.0156 0.0156-0.0455-0.016-0.0663-0.0703zm1.6753 9e-3c0.0431-0.0466 0.1014-0.0707 0.12964-0.0536 0.0282 0.0171 0.11671-4e-3 0.19662-0.0466 0.10716-0.0573 0.12863-0.0978 0.0818-0.15421-0.0482-0.058-0.0351-0.069 0.0544-0.0456 0.12293 0.0322 0.33829-0.19519 0.27774-0.29317-0.0173-0.028 4e-5 -0.0508 0.0385-0.0508 0.10066 0 0.36544-0.21958 0.3198-0.26521-0.0211-0.0211-0.0222-0.0384-2e-3 -0.0384 0.0199 0 0.0787 0.0426 0.13077 0.0946 0.0857 0.0857 0.0911 0.0771 0.0575-0.0911-0.0247-0.12348-0.013-0.18571 0.0348-0.18571 0.0396 0 0.0562 0.0254 0.037 0.0565s-9e-3 0.0725 0.0224 0.092c0.0315 0.0195 0.0748-0.0196 0.0962-0.0869s0.0643-0.12234 0.0955-0.12234 0.0566-0.0289 0.0566-0.0643-0.0273-0.0474-0.0607-0.0268-0.0607-0.0187-0.0607-0.0875 0.0205-0.12063 0.0455-0.11523c0.2324 0.05 0.54-0.34455 0.51396-0.65928-6e-3 -0.077 0.0104-0.14 0.0372-0.14s0.0462-0.12297 0.043-0.27328c-3e-3 -0.1503 0.0156-0.27327 0.0416-0.27327 0.0261 0 0.0474-0.0601 0.0474-0.1336 0-0.10392-0.0162-0.11741-0.0729-0.0607-0.0995 0.0995-0.19035 0.0919-0.1503-0.0124 0.0457-0.11907-0.45984-0.15959-0.56646-0.0454-0.0482 0.0516-0.0904 0.0592-0.11422 0.0207-0.0381-0.0616-0.25667 0.0273-0.6566 0.267-0.28511 0.17086-0.71406 0.4746-0.73523 0.52061-0.0101 0.022-0.0716 0.10129-0.13663 0.17629-0.065 0.075-0.1195 0.20734-0.12101 0.29408-3e-3 0.16359-0.1658 0.58023-0.17451 0.44617-3e-3 -0.0418-0.0254-0.0727-0.0505-0.0687-0.12288 0.0194-0.2005-0.0137-0.16536-0.0706 0.0216-0.0349 3e-3 -0.10843-0.042-0.16348-0.0446-0.055-0.0501-0.0815-0.0121-0.0588 0.0406 0.0243 0.0834-0.0136 0.10387-0.092 0.0545-0.20847 6e-3 -0.19882-0.26523 0.0526-0.37538 0.34815-0.60602 0.46364-0.60602 0.30346 0-0.18471 1.1289-1.1323 1.3489-1.1323 0.029 0 0.12682-0.0531 0.21732-0.1179 0.0905-0.0649 0.25702-0.13136 0.37004-0.14781 0.11303-0.0164 0.23463-0.059 0.27024-0.0946 0.0356-0.0356 0.10348-0.0648 0.15081-0.0648 0.0473 0 0.38305-0.14928 0.74603-0.33175 0.65991-0.33172 0.65997-0.33173 0.73326-0.19736 0.12571 0.23048 0.0746 1.0077-0.099 1.5046-0.16691 0.47773-0.31503 0.74554-0.38757 0.70071-0.025-0.0155-0.0496 0.0274-0.0547 0.0952-5e-3 0.0678-0.047 0.15474-0.0932 0.19316-0.0461 0.0384-0.17336 0.18658-0.28273 0.32925-0.20307 0.2649-0.65152 0.6116-0.84055 0.64984-0.0578 0.0117-0.18206 0.051-0.27609 0.0874-0.2516 0.0973-0.37128 0.0891-0.27171-0.0186zm-5.2082-0.15301c0.0189-0.0305 6e-3 -0.0695-0.0283-0.0865-0.0344-0.017-0.0295-0.0245 0.011-0.0166 0.0963 0.0189 0.14242 0.15865 0.0523 0.15865-0.0382 0-0.0539-0.025-0.035-0.0555zm5.6217-0.27709c-0.11756-0.14165-0.0422-0.23848 0.0803-0.10316 0.0609 0.0673 0.0833 0.1358 0.0509 0.15581-0.0318 0.0196-0.0908-4e-3 -0.13115-0.0526zm-8.5638-0.21583c0-0.0323 0.041-0.0588 0.0911-0.0588s0.0911 0.0107 0.0911 0.0239c0 0.0131-0.041 0.0396-0.0911 0.0588s-0.0911 8e-3 -0.0911-0.0239zm8.6234 0.0397c0-0.0126 0.0416-0.0575 0.0925-0.0997 0.0773-0.0642 0.0862-0.0604 0.0542 0.0229-0.0327 0.0851-0.14671 0.14479-0.14671 0.0768zm-6.4574-0.32119c-0.0738-0.0738-0.042-0.13846 0.0506-0.10294 0.0501 0.0192 0.0911 0.0594 0.0911 0.0892 0 0.0637-0.0837 0.0718-0.1417 0.0138zm-3.8967-0.2385c-0.23028-0.0721-0.23344-0.0763-0.0607-0.0798 0.1002-2e-3 0.22239 0.0217 0.27152 0.0528 0.14915 0.0943 0.0463 0.10752-0.21079 0.027zm0.30184-0.1009c-0.22862-0.24484-0.40036-0.37739-0.49921-0.38529-0.22266-0.0178-0.25809-0.0292-0.25809-0.0831 0-0.0324 0.0342-0.0483 0.0759-0.0354s0.15034 0.0397 0.24131 0.0596c0.16234 0.0355 0.65443 0.47619 0.65443 0.58605 0 0.0824-0.0132 0.0737-0.21435-0.14178zm3.9997-0.13631c0-0.0501 0.0228-0.0911 0.0506-0.0911s0.0506 0.041 0.0506 0.0911-0.0228 0.0911-0.0506 0.0911-0.0506-0.041-0.0506-0.0911zm-3.7752-0.21565c0.0355-0.1019 0.0727-0.17706 0.0826-0.167 0.0376 0.0383-0.0486 0.35229-0.0967 0.35229-0.0278 0-0.0214-0.0834 0.0141-0.18529zm9.433 0.0638c-0.0206-0.0334-9e-3 -0.0607 0.0268-0.0607 0.0354 0 0.0643 0.0273 0.0643 0.0607s-0.0121 0.0607-0.0268 0.0607-0.0437-0.0273-0.0643-0.0607zm0.39474 0c0-0.0334 0.0273-0.0607 0.0607-0.0607s0.0607 0.0273 0.0607 0.0607-0.0273 0.0607-0.0607 0.0607-0.0607-0.0273-0.0607-0.0607zm-4.0081-0.0253c0-0.064 0.18292-0.23713 0.21581-0.20424 0.0153 0.0153-0.027 0.0775-0.094 0.1381s-0.12183 0.0904-0.12183 0.0661zm-2.1659-0.0776c-0.0723-0.0141-0.1473-0.0668-0.16662-0.11716-0.0265-0.0691-5e-3 -0.0821 0.086-0.0531 0.0693 0.022 0.12107 0.0107 0.12107-0.0264 0-0.13678 0.0915-0.057 0.0998 0.0871 5e-3 0.0835 5e-3 0.14805 0 0.1435-5e-3 -5e-3 -0.0679-0.0198-0.14026-0.0339zm0.25268-0.0574c-0.0268-0.0621-0.0423-0.16374-0.0345-0.22584 9e-3 -0.0678-0.012-0.0967-0.0514-0.0723-0.0361 0.0223-0.0657 0.0117-0.0657-0.0237 0-0.11969 0.16117-0.0652 0.23937 0.0809 0.0526 0.0983 0.0589 0.17889 0.0193 0.24956-0.0544 0.0973-0.0617 0.0967-0.10714-9e-3zm3.3811-0.0885c-0.0438-0.0701-0.064-0.14292-0.045-0.16194 0.019-0.019 0.0346-0.013 0.0346 0.0134s0.0362 0.0179 0.0804-0.0188c0.0643-0.0534 0.0751-0.0306 0.0538 0.11402-0.0146 0.0994-0.0305 0.18071-0.0354 0.18071-5e-3 0-0.0447-0.0573-0.0884-0.12737zm2.1151 0.0666c0-0.0334 0.0273-0.0607 0.0607-0.0607s0.0607 0.0273 0.0607 0.0607-0.0273 0.0607-0.0607 0.0607-0.0607-0.0273-0.0607-0.0607zm-4.8243-0.093c-0.1152-0.0871-0.11486-0.0892 0.0152-0.0892 0.0778 0 0.13306 0.0378 0.13306 0.0911 0 0.10989-4.3e-4 0.10989-0.14824-2e-3zm1.0224-0.0132c0.0261-0.14055-0.047-0.18613-0.11692-0.073-0.0269 0.0436-0.0662 0.0414-0.12442-7e-3 -0.071-0.059-0.0598-0.0904 0.068-0.19101 0.12425-0.0977 0.17014-0.10625 0.24368-0.0452 0.0752 0.0624 0.084 0.0579 0.0515-0.0267-0.0228-0.0595 6e-3 -0.15154 0.0687-0.22114 0.0593-0.0656 0.0797-0.11919 0.0452-0.11919s-0.0967 0.041-0.1383 0.0911-0.10474 0.0911-0.14035 0.0911c-0.0356 0-6e-3 -0.0546 0.0656-0.12145 0.14127-0.13162 0.28832-0.15728 0.34799-0.0607 0.055 0.0891 0.27472 0.0753 0.24209-0.0152-0.0151-0.0418 0.0266-0.14423 0.0926-0.22773l0.11999-0.15182 0.0387 0.14007c0.0244 0.0883 0.0706 0.12785 0.125 0.10697 0.0474-0.0182 0.0704-7e-3 0.051 0.0239-0.0194 0.0313 0.0229 0.0881 0.094 0.12612 0.11455 0.0613 0.12235 0.0569 0.0689-0.0385-0.0366-0.0654-0.0389-0.15098-6e-3 -0.2179 0.0298-0.0606 0.0796-0.16139 0.11061-0.2239 0.0371-0.0748 0.0329-0.1371-0.0121-0.18219-0.0509-0.0509-0.0499-0.0685 4e-3 -0.0685 0.0397 0 0.0657-0.0615 0.0577-0.13664-0.0102-0.0969 0.016-0.13426 0.0902-0.12847 0.0864 7e-3 0.0933-0.013 0.0395-0.11361-0.0443-0.0828-0.0448-0.10916-1e-3 -0.0824 0.0351 0.0217 0.0924-0.0142 0.12745-0.0796 0.035-0.0655 0.12028-0.137 0.18942-0.15894 0.10977-0.0348 0.1139-0.0488 0.0326-0.11039-0.0814-0.0616-0.0664-0.11257 0.11791-0.40271 0.24291-0.38237 0.44389-0.88335 0.51233-1.2771 0.0412-0.23685 0.0484-0.24697 0.0546-0.0759 5e-3 0.13783 0.0366 0.19737 0.10474 0.19737 0.0632 0 0.0849 0.0332 0.0614 0.0942-0.0215 0.0561-0.0109 0.0786 0.0263 0.0556 0.0344-0.0212 0.0457-0.0917 0.0251-0.1565-0.025-0.0787-0.0112-0.11232 0.0416-0.10116 0.0523 0.0111 0.0839-0.0628 0.0935-0.21898 8e-3 -0.12963 0.0326-0.2526 0.0548-0.27328 0.0221-0.0207 0.0267 0.22203 0.0101 0.53933-0.0233 0.4461-0.0709 0.6802-0.20962 1.0324-0.0987 0.2505-0.20473 0.45092-0.23565 0.44537-0.0309-6e-3 -0.0602 0.0564-0.065 0.13758-0.01 0.16108-0.19339 0.48001-0.24618 0.42723-0.018-0.018 0.0115-0.077 0.0656-0.13107 0.13342-0.13341 0.12359-0.2111-0.0267-0.2111-0.0688 0-0.10893 0.0261-0.0892 0.0579 0.0517 0.0837-0.0315 0.37258-0.0958 0.33279-0.0298-0.0184-0.0543 9e-3 -0.0543 0.0612 0 0.0521-0.0342 0.0951-0.0759 0.0956-0.0594 7.2e-4 -0.0591 0.0116 2e-3 0.0501 0.0426 0.0271 0.0836 0.13393 0.0911 0.23749 0.0126 0.17414 0.0214 0.18118 0.11833 0.0936 0.0576-0.0521 0.23526-0.10232 0.39474-0.11169 0.28641-0.0168 0.28736-0.0163 0.0774 0.0448-0.11691 0.034-0.24844 0.0725-0.29231 0.0854-0.19074 0.0562 0.0228 0.14282 0.31989 0.12975 0.17883-8e-3 0.31248-0.0348 0.29702-0.0599-0.0289-0.0467-0.0172-0.0512 0.19159-0.0747 0.0668-8e-3 0.18636-0.0343 0.2657-0.0595 0.0993-0.0316 0.13131-0.0249 0.10269 0.0214-0.0229 0.037-0.0841 0.0672-0.13615 0.0672-0.0635 0-0.0845 0.0385-0.064 0.11692 0.0217 0.0829 6e-3 0.10732-0.0552 0.084-0.22708-0.0871-1.5398 0.50237-1.4483 0.6504 0.10613 0.17172-0.56206 0.071-0.97234-0.14664-0.23021-0.1221-0.334-0.12311-0.334-3e-3 0 0.17584-0.1835 0.45245-0.30014 0.45245-0.0632 0-0.13108 0.0342-0.15094 0.0759-0.0198 0.0418-0.0247 0.0144-0.0107-0.0607zm1.4196-0.39094c-0.0132-0.0397-0.0565-0.0829-0.0962-0.0962-0.0444-0.0148-0.058 0.013-0.0353 0.0721 0.0424 0.11039 0.16788 0.13336 0.13145 0.024zm0.25683 0.0453c0-0.0641-0.11654-0.091-0.15121-0.0349-0.021 0.0339 4e-3 0.0617 0.0565 0.0617 0.0521 0 0.0947-0.0121 0.0947-0.0268zm-0.48583-0.096c0-0.0341-0.0751-0.0953-0.167-0.1359-0.0918-0.0406-0.20029-0.11519-0.24098-0.1657-0.0659-0.0818-0.0742-0.0818-0.0759-1.9e-4 -2e-3 0.0856 0.15141 0.21836 0.36244 0.31398 0.12523 0.0567 0.12145 0.0571 0.12145-0.0122zm0.2872-0.46049c-0.0202-0.0202-0.0726-0.0223-0.1164-5e-3 -0.0484 0.0194-0.034 0.0338 0.0367 0.0367 0.064 3e-3 0.0999-0.0117 0.0797-0.0319zm0.15308-0.18711c-0.0418-0.0161-0.0759-0.0709-0.0759-0.12176 0-0.0573 0.0347-0.0792 0.0911-0.0576 0.0501 0.0192 0.0911 8e-3 0.0911-0.0239 0-0.1278-0.22946-0.0551-0.25546 0.0809-0.0207 0.10825 2e-3 0.14104 0.0992 0.14563 0.0693 3e-3 0.0917-7e-3 0.05-0.0233zm0.61017-1.4361c0.0171-0.0445-5e-3 -0.081-0.0484-0.081-0.0437 0-0.0655 0.0364-0.0484 0.081 0.0171 0.0445 0.0389 0.081 0.0484 0.081 0.01 0 0.0314-0.0364 0.0484-0.081zm0.2552-0.10122c-0.0206-0.0334 0.01-0.0607 0.0673-0.0607 0.0576 0 0.0877-0.017 0.0669-0.0379-0.0595-0.0595-0.23737 0.0299-0.19519 0.0982 0.0208 0.0336 0.0515 0.0611 0.0682 0.0611s0.0135-0.0273-7e-3 -0.0607zm0.19966-0.85849c-0.0152-0.0455-0.0427-0.018-0.0642 0.0642-0.0264 0.10101-0.0185 0.12472 0.0266 0.0797 0.0353-0.0353 0.0522-0.10001 0.0376-0.14382zm-0.10857-0.11316c0-0.0334-0.0121-0.0607-0.0268-0.0607s-0.0437 0.0273-0.0643 0.0607-9e-3 0.0607 0.0268 0.0607c0.0354 0 0.0643-0.0273 0.0643-0.0607zm-4.7704 3.3348c-0.0224-0.0363-0.0104-0.0964 0.0268-0.1336 0.0496-0.0496 0.0676-0.0321 0.0676 0.066 0 0.14663-0.0315 0.16922-0.0944 0.0676zm0.81171-0.0362c0.0438-0.0175 0.0962-0.0154 0.1164 5e-3 0.0202 0.0202-0.0157 0.0345-0.0797 0.0319-0.0707-3e-3 -0.0851-0.0173-0.0367-0.0367zm1.0438-0.08c0-0.0334-0.0513-0.0607-0.11402-0.0607-0.0627 0-0.14804-0.041-0.18962-0.0911-0.0972-0.11713-0.0539-0.11482 0.21048 0.0113 0.20454 0.0975 0.28386 0.2013 0.15389 0.2013-0.0334 0-0.0607-0.0273-0.0607-0.0607zm-1.2753-0.11955c0-0.0324 0.041-0.0431 0.0911-0.0239s0.0911 0.0457 0.0911 0.0588-0.041 0.0239-0.0911 0.0239-0.0911-0.0265-0.0911-0.0588zm0.53556-0.0231c-0.0421-0.0451-0.13197-0.0684-0.19976-0.0518-0.0678 0.0166-0.10792 0.0131-0.0892-8e-3 0.11112-0.12387 0.48214-0.0417 0.48214 0.10678 0 0.0639-0.11583 0.0356-0.19318-0.0472zm-2.0277-0.10718c0-0.063 0.0244-0.11456 0.0542-0.11456s0.039-0.0396 0.0204-0.088c-0.0217-0.0566-5e-3 -0.0768 0.0481-0.0566 0.1736 0.0666 0.14073-0.0882-0.06-0.2828-0.28528-0.2765-0.26765-0.36611 0.0219-0.11105 0.49841 0.43912 0.53917 0.46436 0.70032 0.43355 0.10228-0.0196 0.22814 0.017 0.35675 0.10374 0.1093 0.0737 0.14407 0.114 0.0773 0.0896-0.21748-0.0793-0.84107-0.0855-0.93908-9e-3 -0.0797 0.062-0.0823 0.0584-0.0179-0.0241 0.0415-0.0532 0.0576-0.11442 0.0359-0.13611-0.061-0.061-0.19898 0.08-0.16496 0.16867 0.0166 0.0433-6e-3 0.0929-0.0513 0.11011-0.0505 0.0194-0.0816-0.0123-0.0816-0.0832zm-1.5442-0.23602c0-0.0334 0.0289-0.0607 0.0643-0.0607s0.0474 0.0273 0.0268 0.0607-0.0496 0.0607-0.0643 0.0607-0.0268-0.0273-0.0268-0.0607zm-0.81983-0.12089c-0.0668-0.0286-0.4084-0.14018-0.7591-0.24802-0.35071-0.10785-0.82502-0.28939-1.054-0.40343s-0.45446-0.19273-0.501-0.17487c-0.052 0.0199-0.085-8e-3 -0.0856-0.0719-6.4e-4 -0.0706-0.0158-0.081-0.0469-0.032-0.0345 0.0543-0.10623 0.0455-0.28753-0.0352-0.13284-0.0592-0.42706-0.15755-0.65382-0.21865-0.44957-0.12114-0.63961-0.25889-0.25851-0.1874 0.17379 0.0326 0.21629 0.0248 0.18055-0.033-0.0257-0.0416 0.12872 0.0223 0.34321 0.14207 0.21448 0.11975 0.49219 0.23384 0.61713 0.25354s0.32949 0.0907 0.45456 0.1577 0.30978 0.12396 0.41047 0.1265c0.1007 3e-3 0.27873 0.0439 0.39563 0.0919 0.12269 0.0504 0.15109 0.0756 0.0672 0.0595-0.10912-0.0209-0.12805-0.0105-0.0759 0.0417 0.0382 0.0382 0.16473 0.0695 0.28114 0.0695 0.13901 0 0.18591 0.0185 0.13664 0.0538-0.0492 0.0353-0.0279 0.0435 0.0619 0.0239 0.0753-0.0165 0.24476 0.0221 0.37662 0.0858s0.27659 0.11583 0.32162 0.11583c0.045 0 0.11422 0.0323 0.15375 0.0719 0.10204 0.10205 0.16792 0.0111 0.074-0.10213-0.0453-0.0546-0.12525-0.0789-0.19084-0.0581-0.0621 0.0197-0.11288 0.0129-0.11288-0.0152s-0.0933-0.10123-0.20722-0.16261c-0.11396-0.0614-0.22022-0.16133-0.23612-0.22213-0.0274-0.10485-0.0183-0.10549 0.17685-0.0124 0.11317 0.054 0.20576 0.13566 0.20576 0.18155 0 0.0459 0.027 0.0668 0.0599 0.0464 0.033-0.0204 0.12011 0.019 0.19364 0.0875 0.0735 0.0685 0.16953 0.12455 0.21334 0.12455 0.0438 0 0.0796 0.0251 0.0796 0.0558s0.0166 0.099 0.0369 0.15182c0.0274 0.0714 1.2e-4 0.095-0.10628 0.0919-0.0787-2e-3 -0.19779-0.0275-0.26459-0.0561zm8.9583-0.0122c-4.9e-4 -0.0565 0.0264-0.11958 0.0598-0.14022 0.0334-0.0207 0.0607-0.0875 0.0607-0.14849 0-0.12437 0.34531-0.31362 0.63345-0.34717 0.16836-0.0196 0.17231-0.0155 0.0623 0.065-0.0646 0.0472-0.13828 0.0731-0.16369 0.0573-0.0254-0.0157-0.0462-1e-3 -0.0462 0.0317 0 0.0331-0.0547 0.0776-0.12146 0.0988-0.15713 0.0499-0.15506 0.13297 5e-3 0.18364 0.16462 0.0522 0.13101 0.0784-0.15994 0.12456-0.13165 0.0209-0.25945 0.0694-0.28398 0.1078-0.029 0.0454-0.045 0.0339-0.0455-0.0329zm-10.75-0.47423c-0.0547-0.0354-0.0622-0.0592-0.0188-0.0598 0.0398-4.8e-4 0.0892 0.0264 0.10986 0.0598 0.0466 0.0754 0.0256 0.0754-0.0911 0zm-0.36437-0.18218c-0.0547-0.0354-0.0622-0.0592-0.0188-0.0598 0.0398-4.8e-4 0.0892 0.0264 0.10986 0.0598 0.0466 0.0754 0.0256 0.0754-0.0911 0zm2.7631-0.10456c-0.0668-0.0163-0.40009-0.12249-0.74065-0.23586-0.716-0.23837-0.72873-0.24046-0.61799-0.10174 0.0636 0.0797 0.0331 0.0731-0.1292-0.0279-0.1169-0.0728-0.21255-0.15846-0.21255-0.19043 0-0.032-0.0249-0.0809-0.0553-0.10873-0.0321-0.0294-0.037-0.0188-0.0116 0.0253 0.0651 0.11315-0.0572 0.0917-0.15341-0.0268-0.0718-0.0885-0.0707-0.0961 8e-3 -0.055 0.0915 0.048-0.25978-0.29665-0.70582-0.69249-0.41403-0.36743-0.71529-0.78014-0.8738-1.1971-0.17675-0.4649-0.31446-0.5789-0.26436-0.21887 0.0622 0.44693 0.4137 1.2428 0.52931 1.1984 0.0426-0.0163 0.18188 0.11838 0.31586 0.30538 0.13185 0.18402 0.25856 0.33518 0.28157 0.3359 0.0381 1e-3 0.33161 0.23943 0.80834 0.65621 0.1002 0.0876 0.20268 0.15371 0.22773 0.14692 0.0251-7e-3 0.0455 0.0286 0.0455 0.0787 0 0.13532-0.0973 0.11054-0.23044-0.0587-0.0648-0.0824-0.13619-0.13137-0.15868-0.10889-0.0225 0.0225-0.10402-0.0326-0.1812-0.12244-0.0772-0.0898-0.16243-0.1433-0.18946-0.11884-0.027 0.0245-0.0295 0.0103-5e-3 -0.0314 0.0289-0.0503 1e-3 -0.0759-0.0814-0.0759-0.0762 0-0.12504-0.0395-0.12504-0.10122 0-0.0557-0.0162-0.085-0.036-0.0652-0.0529 0.0529-0.73248-0.64912-0.85197-0.8802-0.0564-0.10905-0.15893-0.27457-0.22787-0.36781-0.11363-0.15369-0.14648-0.31175-0.17911-0.86168-7e-3 -0.12277 0.0203-0.1871 0.0856-0.19991 0.0692-0.0136 0.17509 0.14889 0.37542 0.57576 0.21766 0.4638 0.34213 0.64809 0.56571 0.83755 0.15766 0.1336 0.42597 0.36589 0.59623 0.51619 0.66937 0.59088 1.5677 1.0095 2.0474 0.9541 0.17025-0.0197 0.22589-9e-3 0.18193 0.035-0.044 0.044-0.0315 0.0875 0.0408 0.14247 0.11088 0.0842 0.10931 0.085-0.078 0.0392zm7.423-0.14589c0.0412-0.0415 0.0902-0.0602 0.10889-0.0415 0.0187 0.0187-0.015 0.0527-0.0749 0.0755-0.0866 0.033-0.0935 0.026-0.034-0.034zm2.5668-0.0771c0-0.0131 0.0424-0.0401 0.0943-0.06 0.054-0.0207 0.0784-0.0106 0.0571 0.0239-0.0357 0.0577-0.15139 0.0854-0.15139 0.0362zm1.0931-0.21188c0-0.0334 0.0273-0.0776 0.0607-0.0983 0.0334-0.0206 0.0607-0.0102 0.0607 0.0232s-0.0273 0.0776-0.0607 0.0983c-0.0334 0.0206-0.0607 0.0102-0.0607-0.0232zm-2.0648-0.031c0-0.0131 0.0424-0.0401 0.0942-0.06 0.0541-0.0207 0.0784-0.0106 0.0572 0.0239-0.0357 0.0577-0.15139 0.0854-0.15139 0.0362zm2.3077-0.0868c0-0.0907 0.22864-0.26521 0.26672-0.2036 0.0197 0.0319-0.0322 0.10265-0.11543 0.15718-0.0832 0.0545-0.15129 0.0754-0.15129 0.0464zm-16.081-0.13363c-0.10701-0.0651-0.19456-0.12934-0.19456-0.14282 0-0.0632 0.22513 4e-3 0.32959 0.098 0.17134 0.15465 0.09 0.18167-0.13503 0.0448zm14.016 0.094c0-0.0355 0.33995-0.21419 0.4069-0.21388 0.0267 1.2e-4 -0.0409 0.0548-0.15027 0.12146-0.20334 0.12397-0.25663 0.14316-0.25663 0.0924zm0.97645-0.0673c3e-3 -0.0707 0.0173-0.0851 0.0367-0.0367 0.0175 0.0438 0.0154 0.0962-5e-3 0.1164-0.0202 0.0202-0.0345-0.0157-0.0319-0.0797zm0.20465-0.0424c0.0553-0.0844 0.1642-0.16948 0.24195-0.18899 0.12006-0.0301 0.16139-0.0887 0.24014-0.34046 0.0568-0.18161 0.2584-0.60687 0.28776-0.60705 0.0609-3.6e-4 -0.24984 0.80899-0.3555 0.92588-0.0528 0.0585-0.13282 0.10627-0.17775 0.10627-0.0449 0-0.0749 0.0329-0.0665 0.0731 8e-3 0.0402-0.0121 0.0748-0.0455 0.0768s-0.0977 0.0271-0.14294 0.0558c-0.0556 0.0352-0.0496 2e-3 0.0184-0.10143zm-15.831-0.34116c-0.19149-0.13008-0.43193-0.30699-0.53429-0.39312-0.10236-0.0861-0.27578-0.19916-0.38537-0.25116-0.21587-0.10244-0.74344-0.6182-0.56991-0.55716 0.0581 0.0204 0.10263 0.0176 0.0991-6e-3 -0.0185-0.12424 0.0175-0.19518 0.099-0.19518 0.0501 0 0.0911 0.0419 0.0911 0.093s0.041 0.10873 0.0911 0.12795c0.0501 0.0192 0.0911 0.0746 0.0911 0.12314 0 0.0485 0.0254 0.0724 0.0565 0.0532s0.0755-4e-3 0.0987 0.0333c0.0299 0.0483 0.0574 0.0442 0.0944-0.0142 0.0377-0.0595 0.0545-0.0402 0.0603 0.0694 4e-3 0.0835 3e-3 0.18969-4e-3 0.23597-7e-3 0.0524 0.0232 0.0708 0.0808 0.0486 0.0566-0.0217 0.0823-7e-3 0.0662 0.0373-0.0145 0.04 0.0857 0.15198 0.22256 0.24874l0.24888 0.17591-0.0367-0.14555c-0.0236-0.0939-5e-3 -0.077 0.0522 0.0474 0.0489 0.10613 0.17155 0.24183 0.27265 0.30155 0.10109 0.0597 0.1838 0.13001 0.1838 0.15621 0 0.0685 3e-3 0.07-0.37854-0.18918zm-0.74886-0.80193c-0.0514-0.0832-0.12765-0.0647-0.12765 0.0309 0 0.0469 0.0363 0.0714 0.0806 0.0544s0.0655-0.0554 0.047-0.0853zm16.568 0.85431c0.041-0.0656 0.0944-0.11921 0.11867-0.11921 0.0734 0-0.0158 0.17037-0.10761 0.20561-0.0705 0.027-0.0724 0.0119-0.0111-0.0864zm1.442 0.063c0-0.0334 0.0381-0.0607 0.0847-0.0607s0.17372-0.0832 0.28256-0.18485c0.10883-0.10167 0.24153-0.17422 0.29488-0.16122 0.0795 0.0194 0.0751 0.0327-0.0245 0.0741-0.0668 0.0278-0.13512 0.0675-0.15182 0.0882-0.0481 0.0598-0.40968 0.30514-0.44965 0.30514-0.0199 0-0.0362-0.0273-0.0362-0.0607zm-1.6396-0.31475c0.25231-0.25157 0.48583-0.56614 0.48583-0.65445 0-0.0348 0.0248-0.0632 0.055-0.0632 0.0303 0 0.0731-0.13112 0.0951-0.29137 0.0641-0.46638 0.1579-0.5259 0.115-0.073-0.0254 0.26783-0.0719 0.42401-0.14479 0.48582-0.0591 0.0501-0.12502 0.15006-0.14655 0.22212-0.0215 0.0721-0.0808 0.14703-0.13177 0.16658-0.0516 0.0198-0.0733 0.0668-0.049 0.10608 0.0271 0.0439 0.0171 0.0541-0.0265 0.0272-0.0411-0.0254-0.0701-6e-3 -0.0701 0.0478 0 0.0501-0.0315 0.11059-0.0701 0.13443-0.0434 0.0268-0.0536 0.0166-0.0268-0.0268 0.0628-0.10157-0.0254-0.086-0.17161 0.0303-0.0694 0.0552-0.0306 5e-3 0.0863-0.11152zm2.5506-0.35327c0-0.0334 0.0292-0.0607 0.0648-0.0607 0.0371 0 0.0484-0.0518 0.0264-0.12108-0.028-0.0884-0.0154-0.11223 0.0469-0.0883 0.0881 0.0338 0.22402-0.0891 0.25205-0.22785 0.0697-0.34534 0.10478-0.39435 0.26077-0.36453 0.0992 0.019 0.14227 7e-3 0.11754-0.0332-0.0405-0.0656 0.12714-0.16696 0.23353-0.14121 0.0334 8e-3 0.0412-5e-3 0.0173-0.0287-0.0548-0.0548 0.057-0.27036 0.14023-0.27036 0.0342 0 0.0435 0.0342 0.0207 0.0759-0.0228 0.0418 0.0849-0.0562 0.23933-0.21765 0.26085-0.27274 0.37299-0.46897 0.21067-0.36865-0.043 0.0266-0.0537 0.0167-0.0276-0.0255 0.0314-0.0508 0.0736-0.0495 0.1612 5e-3 0.12627 0.0789 0.16173 0.22706 0.0543 0.22706-0.0354 0-0.0485 0.0257-0.0291 0.057s-2e-3 0.0792-0.0465 0.10627c-0.045 0.0271-0.10001 0.0988-0.1223 0.1594-0.0235 0.0638-0.0702 0.0918-0.11108 0.0665-0.0397-0.0246-0.0543-0.0173-0.0333 0.0166 0.0526 0.0852-0.13448 0.33344-0.21417 0.28419-0.0408-0.0252-0.0484-0.0123-0.0198 0.0338 0.0528 0.0854-0.18648 0.36926-0.31121 0.36926-0.0443 0-0.0805 0.0215-0.0805 0.0479 0 0.0475-0.74506 0.55943-0.81415 0.55943-0.0198 0-0.036-0.0273-0.036-0.0607zm-17.338-0.19248c-0.29326-0.1526-0.30394-0.16145-0.2545-0.2109 0.0215-0.0215 0.0778-7e-3 0.12529 0.0326 0.0475 0.0394 0.19158 0.12416 0.32029 0.18842 0.12871 0.0643 0.19303 0.1167 0.14293 0.11655-0.0501-1.2e-4 -0.2004-0.0571-0.33401-0.12665zm17.52-0.17188c0-0.0334 0.0289-0.0607 0.0643-0.0607s0.0474 0.0273 0.0268 0.0607c-0.0207 0.0334-0.0496 0.0607-0.0643 0.0607s-0.0268-0.0273-0.0268-0.0607zm-18.468-0.18219c-4e-3 -0.0167-6e-3 -0.046-4e-3 -0.065 2e-3 -0.0191-0.0924-0.0694-0.20974-0.11179-0.1306-0.0472-0.20166-0.10748-0.18326-0.15542 0.0251-0.0654-0.1971-0.4122-0.52634-0.8216-0.0896-0.11141-0.35057-0.69235-0.53198-1.1842-0.0739-0.2004-0.16795-0.4133-0.20896-0.47312-0.0711-0.10372-0.0759-0.10341-0.10477 7e-3 -0.0451 0.17233 0.0657 0.79097 0.19315 1.0792 0.10111 0.22859 0.79474 1.0968 1.0266 1.2849 0.0514 0.0418 0.0683 0.0759 0.0375 0.0759s-0.16696-0.11615-0.3026-0.2581-0.31379-0.31711-0.3959-0.38923c-0.29303-0.25743-0.5531-0.67715-0.5835-0.94171-0.0164-0.14232-0.0497-0.29445-0.0741-0.33806-0.0244-0.0436-0.0227-0.23589 4e-3 -0.4273 0.0969-0.70087 0.12886-1.4715 0.0609-1.4715-0.036 0-0.0826 0.0278-0.10356 0.0617-0.021 0.034-0.0665 0.0442-0.10118 0.0228-0.0403-0.0249-0.0483 8e-3 -0.0221 0.0899 0.0244 0.0768-0.0145 0.28236-0.0962 0.50861-0.14032 0.38856-0.18344 0.96472-0.10341 1.3818 0.0224 0.1169 0.0726 0.37651 0.11156 0.57692 0.0389 0.2004 0.13661 0.45122 0.21708 0.55737 0.0916 0.12092 0.13199 0.23433 0.108 0.30365-0.0361 0.10438-0.0333 0.10425 0.0499-2e-3 0.0817-0.10473 0.0955-0.10572 0.18777-0.0134 0.10988 0.10987 0.0842 0.24985-0.0557 0.30354-0.0688 0.0264-0.0807 4e-3 -0.05-0.0924 0.0334-0.10515 0.0202-0.1207-0.0761-0.0901-0.0925 0.0294-0.14407-0.0185-0.25132-0.23323-0.0742-0.14859-0.14509-0.34698-0.15751-0.44086-0.0124-0.0939-0.0517-0.24597-0.0873-0.33797-0.16935-0.43788-0.12314-1.9702 0.0629-2.0852 0.11878-0.0734 0.0394-0.3165-0.16786-0.51395l-0.21966-0.20928 0.0905 0.18218c0.15984 0.32172 0.17571 0.49553 0.0194 0.21255-0.15211-0.27539-0.20271-0.54655-0.10199-0.54655 0.0299 0 0.13925 0.0966 0.24291 0.21466 0.21378 0.24348 0.23949 0.17277 0.067-0.1843-0.0645-0.1336-0.11826-0.26486-0.1194-0.2917-4e-3 -0.0985-0.67834-0.89288-0.97336-1.1469-0.38321-0.33002-0.39918-0.45108-0.0552-0.41832 0.0825 8e-3 0.0899-0.0341 0.0492-0.28146-0.082-0.49832-0.061-1.5024 0.0405-1.9401 0.13825-0.59611 0.4419-1.3475 0.5729-1.4176 0.19679-0.10532 0.19568 0.12066-4e-3 0.88702-0.16766 0.64237-0.18568 0.79288-0.16251 1.3569l0.0261 0.63438 0.2321 0.20064c0.17136 0.14812 0.29022 0.20063 0.45414 0.20063 0.20114 0 0.23377-0.0243 0.34686-0.25809 0.0687-0.14196 0.19647-0.44939 0.28402-0.6832 0.20966-0.55992 0.37331-0.81983 0.5162-0.81983 0.22541 0 0.25045 0.3472 0.0634 0.87935-0.17111 0.48686-0.16868 1.2832 6e-3 2.0281 0.0715 0.30474 0.1483 0.55333 0.17056 0.55243 0.0223-8.6e-4 0.11972-0.179 0.21657-0.39578 0.0968-0.21678 0.18755-0.38267 0.20157-0.36865 0.014 0.014-0.0267 0.1443-0.0906 0.28951-0.0639 0.1452-0.15028 0.35098-0.19207 0.45729-0.23608 0.60043-0.58582-0.65773-0.53348-1.9191 0.0161-0.38681 0.0493-0.76477 0.0739-0.83992 0.034-0.1038 0.0211-0.13664-0.0535-0.13664-0.0933 0-0.12334 0.0645-0.10376 0.22315 5e-3 0.0392-0.0192 0.0887-0.0535 0.10986-0.0343 0.0212-0.0623 0.1615-0.0623 0.3118s-0.0224 0.25945-0.0497 0.24254c-0.0274-0.0169-0.0384 0.0466-0.0245 0.14104 0.0139 0.0945-6e-3 0.19112-0.0443 0.21475-0.052 0.0321-0.0516 0.0645 2e-3 0.12865 0.0391 0.0471 0.0473 0.0857 0.0181 0.0858-0.0924 1.7e-4 -0.0874 0.42322 7e-3 0.60599 0.05 0.0966 0.0744 0.21838 0.0544 0.2706-0.02 0.0522-0.013 0.095 0.0156 0.0951s0.0534 0.11128 0.0551 0.24705c2e-3 0.13656 0.0391 0.2691 0.0837 0.29666 0.0443 0.0274 0.0618 0.0802 0.0389 0.11732-0.023 0.0371-0.0128 0.0675 0.0226 0.0675s0.0643 0.053 0.0643 0.11787c0 0.0648 0.0242 0.13284 0.0538 0.15115 0.0433 0.0268 0.13023 0.32614 0.154 0.53056 3e-3 0.0223 0.0252 0.061 0.0503 0.086 0.0251 0.0251 0.0455 0.0956 0.0455 0.15688 0 0.0612 0.0229 0.11133 0.051 0.11133 0.028 0 0.0821 0.0683 0.12015 0.15182 0.0839 0.18413 0.0109 0.20198-0.1 0.0244-0.0438-0.07-0.0935-0.11341-0.11055-0.0964-0.0171 0.0171 0.0147 0.10083 0.0706 0.18615 0.0559 0.0853 0.0887 0.19018 0.0728 0.23301-0.0169 0.0456-0.0564 9e-3 -0.0953-0.0891-0.0858-0.21554-0.14479-0.21593-0.0907-6.9e-4 0.0516 0.20581 0.1481 0.30751 0.25714 0.27117 0.1393-0.0464 0.0402 0.13315-0.11717 0.21223-0.16226 0.0816-0.25595 0.0441-0.11694-0.0468 0.0724-0.0473 0.0376-0.10325-0.18388-0.29534-0.15027-0.13032-0.28507-0.22508-0.29958-0.21057-0.0145 0.0145 6e-3 0.0587 0.0455 0.0982s0.0719 0.11262 0.0719 0.16242c0 0.0678-0.0224 0.061-0.0892-0.0273-0.10366-0.13705-0.12222-0.0734-0.0292 0.10037 0.0351 0.0655 0.0879 0.10429 0.11725 0.0861 0.10571-0.0653 0.13238 0.10021 0.0284 0.17624-0.0743 0.0543-0.0853 0.0908-0.0365 0.121 0.0385 0.0238 0.0699 0.0143 0.0699-0.0211 0-0.14929 0.11025-0.0459 0.20307 0.19036 0.0784 0.19959 0.0837 0.26526 0.0244 0.30364-0.0593 0.0384-0.0576 0.0606 8e-3 0.1029 0.046 0.0297 0.0664 0.0819 0.0453 0.11602-0.0211 0.0342 0.0357 0.208 0.12616 0.38635 0.17755 0.34991 0.2221 0.49672 0.13423 0.44242-0.0305-0.0188-0.0554-4e-3 -0.0554 0.032 0 0.0364 0.0478 0.0838 0.10628 0.10533 0.13062 0.0481 0.37833 0.30241 0.33589 0.34486-0.0383 0.0383 0.22408 0.37914 0.2701 0.35095 0.0183-0.0112 0.05 4e-3 0.0704 0.0339 0.0204 0.0298 0.0992 0.0966 0.17494 0.14835l0.13779 0.0941-0.1832-7e-3c-0.10075-4e-3 -0.18649-0.0202-0.19052-0.0369zm-1.8644-0.86335c-0.0436-0.0436-0.0719-0.0472-0.0719-9e-3 0 0.0811 0.0718 0.15288 0.11235 0.11235 0.0173-0.0173-1e-3 -0.0637-0.0405-0.10324zm1.021-0.51593c-0.0662-0.10319-0.0679-0.10306-0.0347 3e-3 0.0192 0.0612 0.0371 0.14317 0.0397 0.18219 3e-3 0.0512 0.0131 0.0505 0.0347-3e-3 0.0164-0.0405-1e-3 -0.12248-0.0397-0.18219zm-0.18189-1.9c0-0.0334-0.012-0.0607-0.0268-0.0607-0.0147 0-0.0437 0.0273-0.0643 0.0607s-9e-3 0.0607 0.0268 0.0607c0.0354 0 0.0643-0.0273 0.0643-0.0607zm-1.1538-1.8544c0-0.0179-0.0478-0.10538-0.10611-0.19445-0.10099-0.15413-0.10099-0.15998 0-0.12122 0.12953 0.0497 0.13586-0.0144 0.0169-0.17159-0.068-0.09-0.0897-0.0963-0.0915-0.0268-1e-3 0.0528-0.0518 0.0161-0.11993-0.0873-0.0647-0.0981-0.10388-0.2006-0.0871-0.22773 0.0168-0.0271 2e-3 -0.0493-0.0338-0.0493-0.0354 0-0.0643-0.0578-0.0643-0.12844 0-0.12305 6e-3 -0.12427 0.15182-0.029 0.18154 0.11895 0.20205 0.0395 0.03-0.11621-0.13386-0.12114-0.1337-0.1212-0.23841 0.0799-0.0925 0.17773-0.25828 0.14961-0.28849-0.0489-0.0127-0.0833-0.0666-0.19266-0.11981-0.24292-0.0876-0.0827-0.0928-0.0748-0.0556 0.0839 0.0396 0.16894 0.0345 0.1739-0.14428 0.13815-0.25601-0.0512-0.23234-0.0129 0.0879 0.14209 0.27844 0.1348 0.78523 0.64842 0.88378 0.89572 0.0473 0.11875 0.17891 0.19535 0.17891 0.10414zm0.13942-0.80251c-0.0249-0.16031-0.0221-0.16228 0.0692-0.0491 0.0523 0.0648 0.0951 0.0853 0.0951 0.0455s0.041-0.0723 0.0911-0.0723c0.0672 0 0.0911-0.0701 0.0911-0.26689v-0.26688l-0.21251 0.0479c-0.16686 0.0376-0.24391 0.0232-0.35876-0.0671-0.0804-0.0633-0.16759-0.11506-0.19366-0.11506-0.1022 0-0.4491-0.2784-0.45402-0.36436-4e-3 -0.0619-0.015-0.0669-0.0357-0.0155-0.0366 0.0906 0.28535 0.61739 0.37922 0.62056 0.0362 1e-3 0.16933 0.15252 0.29585 0.33622s0.23658 0.33401 0.24458 0.33401 3e-3 -0.0752-0.0114-0.16701zm-0.75259-0.46356c0.0541-0.0652 0.047-0.0927-0.0316-0.12288-0.0557-0.0214-0.11564-0.0246-0.13313-7e-3 -0.0175 0.0175 3e-3 0.0318 0.0465 0.0318 0.0627 0 0.0632 0.0181 3e-3 0.0911-0.0422 0.0508-0.0487 0.0911-0.0149 0.0911 0.0334 0 0.0921-0.0378 0.13044-0.084zm-0.43972-0.417c-0.0169-0.0418-0.0306-8e-3 -0.0306 0.0759 0 0.0835 0.0138 0.11766 0.0306 0.0759 0.0169-0.0418 0.0169-0.11007 0-0.15182zm0.14563-0.8502c2e-3 -8e-3 0.0263-0.34347 0.0539-0.74472 0.0425-0.61682 0.0748-0.77344 0.20889-1.0137 0.0872-0.15629 0.15737-0.34723 0.15582-0.4243-5e-3 -0.24369-0.27066 0.34772-0.44553 0.99154-0.15653 0.5763-0.19449 0.92157-0.12207 1.1103 0.0304 0.0791 0.13564 0.13628 0.14899 0.0809zm8.8626 7.4848c0-0.1336 0.0108-0.24292 0.024-0.24292s0.0344 0.10932 0.0471 0.24292 2e-3 0.24291-0.024 0.24291c-0.0259 0-0.0472-0.10931-0.0472-0.24291zm12.601 0.13101c0.162-0.19151 0.34521-0.29097 0.29501-0.16016-0.0201 0.0523-0.0516 0.08-0.07 0.0616-0.0184-0.0185-0.10369 0.0282-0.18943 0.10365l-0.15589 0.13719zm-0.33376 0.0273c0-0.0131 0.0424-0.0402 0.0942-0.06 0.0541-0.0207 0.0784-0.0106 0.0572 0.0239-0.0357 0.0577-0.15139 0.0854-0.15139 0.0362zm-19.428-0.3152c3e-3 -0.0708 0.0173-0.0851 0.0367-0.0367 0.0175 0.0438 0.0154 0.0962-5e-3 0.11639-0.0202 0.0202-0.0345-0.0157-0.0319-0.0797zm2.704-0.25899-0.11502-0.16105 0.14201 0.13495c0.0781 0.0742 0.12987 0.1467 0.11502 0.16106-0.0148 0.0144-0.0787-0.0464-0.14201-0.13496zm11.506-0.10538c3e-3 -0.0708 0.0173-0.0851 0.0367-0.0367 0.0175 0.0438 0.0154 0.0962-5e-3 0.11639-0.0202 0.0202-0.0345-0.0157-0.0319-0.0797zm-6.6849-0.23561c0-0.0823-0.0557-0.29077-0.12368-0.46335-0.068-0.17259-0.11256-0.32491-0.099-0.33851 0.0265-0.0265 0.3441 0.79869 0.3441 0.89418 0 0.0315-0.0273 0.0573-0.0607 0.0573s-0.0607-0.0673-0.0607-0.14958zm13.087-0.0326c0.0206-0.0334 0.0649-0.0607 0.0983-0.0607s0.0438 0.0273 0.0232 0.0607-0.0649 0.0607-0.0983 0.0607-0.0438-0.0273-0.0232-0.0607zm-18.34-0.12146c-0.0207-0.0334-9e-3 -0.0607 0.0268-0.0607 0.0354 0 0.0643 0.0273 0.0643 0.0607s-0.0121 0.0607-0.0268 0.0607-0.0437-0.0273-0.0643-0.0607zm19.222-0.28714c-0.0793-0.0893-0.0777-0.096 0.0152-0.0603 0.0787 0.0302 0.10533 7e-3 0.10855-0.0947 4e-3 -0.12462 8e-3 -0.12592 0.0502-0.0173 0.0582 0.1486 0.10148 0.0621 0.0968-0.19341-3e-3 -0.14113 0.0286-0.20766 0.1093-0.23327 0.0621-0.0197 0.0971-0.0516 0.0778-0.0709s9e-3 -0.0842 0.0638-0.14428c0.0543-0.0601 0.0848-0.16272 0.0677-0.22812-0.0219-0.0839-6e-3 -0.10939 0.0531-0.0866 0.0598 0.023 0.084-0.018 0.0833-0.14118-7.5e-4 -0.14004-0.0136-0.15593-0.0665-0.0824-0.0545 0.0758-0.0594 0.0724-0.0294-0.0202 0.0199-0.0612 0.0383-0.15683 0.0409-0.21255 3e-3 -0.0637 0.0162-0.073 0.0356-0.025 0.0169 0.042 0.0554 0.061 0.0856 0.0424 0.0302-0.0187 0.0386 9e-3 0.0187 0.0603-0.0199 0.0518-0.0116 0.0942 0.0185 0.0942 0.0882 0 0.21027-0.53722 0.24643-1.0847 0.0238-0.3595 0.0501-0.47821 0.0902-0.40655 0.0446 0.0796 0.075 0.086 0.14283 0.0297 0.13002-0.1079 0.10339-0.0131-0.0353 0.12552-0.083 0.083-0.12172 0.20324-0.12229 0.37955-4.8e-4 0.14196-0.0162 0.32642-0.035 0.40992l-0.0341 0.15182 0.1134-0.12772c0.0624-0.0703 0.17347-0.15988 0.24689-0.19917 0.0734-0.0393 0.17593-0.15351 0.2278-0.25382 0.0519-0.1003 0.11761-0.16796 0.14609-0.15036 0.063 0.039 0.13902-0.13878 0.0919-0.215-0.0185-0.03 9e-3 -0.0383 0.0605-0.0184 0.0533 0.0204 0.0943 4e-3 0.0943-0.0376 0-0.0405 0.0396-0.0585 0.088-0.04 0.0618 0.0237 0.0768 5e-3 0.0504-0.0642-0.0255-0.0663-0.0141-0.0834 0.0352-0.053 0.079 0.0488 0.37012-0.19152 0.37187-0.30703 6e-4 -0.0382 0.0352-0.0829 0.077-0.0993 0.0417-0.0164 0.15567-0.19017 0.25316-0.38605 0.0975-0.19587 0.21363-0.42867 0.25809-0.51733 0.0445-0.0887 0.0813-0.22529 0.0818-0.30364 4.8e-4 -0.0783 0.0271-0.18344 0.059-0.23354 0.10773-0.16898-6e-3 0.37882-0.16381 0.78947-0.24767 0.64422-0.50428 1.0793-0.79757 1.3524-0.1518 0.14131-0.46567 0.44073-0.69748 0.66538-0.23182 0.22464-0.44934 0.39122-0.4834 0.37017-0.0342-0.0212-0.0436-9e-3 -0.0209 0.0282 0.0226 0.0365-0.0825 0.19357-0.23353 0.34896-0.17681 0.18192-0.27458 0.3365-0.27458 0.43409 0 0.18429-0.40748 0.93132-0.50624 0.92809-0.0389-1e-3 -0.11078-0.0475-0.15978-0.10265zm-0.38832-0.10759c0.0192-0.0501 0.0627-0.0911 0.0966-0.0911 0.0355 0 0.0296 0.0386-0.0139 0.0911-0.0416 0.0501-0.0851 0.0911-0.0966 0.0911-0.0116 0-5e-3 -0.041 0.0139-0.0911zm-13.992-0.15182c0-0.1169 0.0125-0.16473 0.0278-0.10627 0.0153 0.0584 0.0153 0.15409 0 0.21254-0.0153 0.0584-0.0278 0.0106-0.0278-0.10627zm14.136-0.0229c0-0.0126 0.0478-0.0604 0.10628-0.10627 0.0963-0.0755 0.0985-0.0734 0.0229 0.0229-0.0793 0.10115-0.12921 0.13332-0.12921 0.0833zm-6.7267-0.21998c0-0.11691 0.0125-0.16473 0.0278-0.10628 0.0153 0.0584 0.0153 0.1541 0 0.21255-0.0153 0.0584-0.0278 0.0106-0.0278-0.10627zm6.9675-0.11148c0.04-0.078 0.0894-0.12518 0.10976-0.10483 0.0203 0.0204-0.0124 0.0842-0.0727 0.14184-0.10492 0.10022-0.10655 0.0986-0.037-0.037zm-19.971-0.2246c-0.0713-0.12089-0.11336-0.24623-0.0934-0.27853 0.02-0.0323 3e-3 -0.0985-0.0371-0.14716-0.0487-0.0587-0.0513-0.0884-8e-3 -0.0884 0.0362 0 0.0989 0.11614 0.13952 0.2581 0.0406 0.14195 0.10024 0.29291 0.13255 0.33547 0.0323 0.0426 0.0446 0.0915 0.0273 0.10887-0.0173 0.0173-0.0898-0.0674-0.16117-0.18832zm20.167-0.0863c0.0408-0.0653 0.0826-0.11018 0.093-0.0998 0.036 0.036-0.0579 0.21848-0.11242 0.21848-0.0301 0-0.0214-0.0534 0.0194-0.1187zm-21.227-0.21222c-0.0226-0.0588-5e-3 -0.0768 0.0542-0.0542 0.0484 0.0186 0.088 0.0582 0.088 0.088 0 0.0873-0.10537 0.0623-0.14223-0.0338zm0.26369-0.0335c-0.0547-0.0354-0.0622-0.0592-0.0188-0.0598 0.0398-4.8e-4 0.0892 0.0264 0.10986 0.0598 0.0466 0.0754 0.0256 0.0754-0.0911 0zm21.073-3e-3c0-0.0351 0.0428-0.14643 0.095-0.2475 0.0523-0.10106 0.12009-0.33882 0.15072-0.52836 0.0306-0.18953 0.072-0.41975 0.092-0.5116 0.0322-0.1484 0.0188-0.167-0.12036-0.167-0.13674 0-0.15634-0.0251-0.15421-0.19737l2e-3 -0.19737 0.0906 0.167c0.0498 0.0919 0.11521 0.16701 0.14529 0.16701 0.0617 0 0.0727-0.0344 0.214-0.66801 0.13751-0.61678 0.21733-0.81982 0.28212-0.71766 0.0279 0.044 0.0492 0.13467 0.0474 0.20147l-3e-3 0.12145-0.0522-0.12145c-0.0287-0.0668-0.0546-0.0941-0.0577-0.0607-0.0314 0.34868-0.1381 0.91259-0.17758 0.93865-0.0713 0.0471-0.14184 0.73138-0.0754 0.73138 0.0302 0 0.0523 0.0615 0.0492 0.13664-3e-3 0.0752 0.0134 0.19227 0.0367 0.26026 0.033 0.0962 0.0165 0.12363-0.0746 0.12363-0.0643 0-0.10485-0.0196-0.0901-0.0435 0.0148-0.0239 5e-3 -0.057-0.0217-0.0736-0.0267-0.0165-0.0989 0.14556-0.16034 0.36017-0.0615 0.21461-0.13569 0.3902-0.16495 0.3902-0.0293 0-0.0532-0.0287-0.0532-0.0637zm-1.4232-0.31843c0.0228-0.0599 0.0568-0.0936 0.0755-0.0749s4e-5 0.0677-0.0415 0.1089c-0.06 0.0595-0.0669 0.0526-0.034-0.034zm-19.267-0.3162c-0.0558-0.1169-0.12362-0.21255-0.15084-0.21255-0.0272 0-0.0495-0.0536-0.0495-0.11921 0-0.0656-0.0543-0.25686-0.12057-0.4251-0.0663-0.16823-0.0936-0.30589-0.0607-0.30589s0.062 0.0478 0.0646 0.10628c4e-3 0.0848 0.0119 0.0879 0.0398 0.0152 0.0192-0.0501 0.16904-0.37612 0.33291-0.72449s0.31308-0.7173 0.33158-0.81983c0.0185-0.10254 0.13742-0.5007 0.26428-0.88481 0.12686-0.3841 0.24557-0.75303 0.2638-0.81983 0.0613-0.22459-0.0284 0.48139-0.11787 0.92764-0.10194 0.50846-0.19631 0.7543-0.56474 1.4711-0.21098 0.41047-0.27492 0.60943-0.31223 0.9715-0.0426 0.4131-0.0334 0.48207 0.0993 0.74392 0.0804 0.15873 0.13168 0.28861 0.11388 0.28861s-0.078-0.0957-0.13373-0.21255zm-0.31064 0.0779c-0.0851-0.0851-0.0938-0.16902-0.0176-0.16902 0.0557 0 0.14725 0.18313 0.11015 0.22023-0.0114 0.0114-0.053-0.0117-0.0925-0.0512zm19.852-0.65485c-2e-3 -0.0501 0.0232-0.13208 0.0555-0.18218 0.0717-0.11101 0.0717-0.0151 0 0.15182-0.0344 0.0801-0.0533 0.0904-0.0555 0.0304zm0.23864-0.0455c2e-3 -0.0831 0.11334-0.22479 0.14902-0.18911 0.0478 0.0478-0.0284 0.23466-0.0957 0.23466-0.0298 0-0.0538-0.0205-0.0533-0.0455zm0.0936-0.39473c0.0574-0.18685 0.0855-0.20796 0.14616-0.10985 0.0322 0.0521 0.021 0.11488-0.0293 0.16525-0.12002 0.12001-0.1643 0.099-0.11683-0.0554zm-0.26329-0.10157c-3e-3 -0.10163 0.0202-0.20053 0.0514-0.21978 0.07-0.0433 0.0735 0.21598 4e-3 0.325-0.0335 0.0529-0.0522 0.0175-0.0557-0.10522zm1.1855-0.38426c-0.0296-0.0871 0.0142-0.79182 0.0516-0.82995 0.0136-0.0139 0.0248 0.18421 0.0248 0.44028 0 0.44666-0.0209 0.55314-0.0764 0.38967zm1.5338-0.14944c0-0.0349 0.0478-0.10092 0.10627-0.14676 0.0983-0.0771 0.0996-0.0742 0.0172 0.0381-0.049 0.0668-0.0968 0.13284-0.10628 0.14676-9e-3 0.0139-0.0172-3e-3 -0.0172-0.0381zm-2.6532-0.77666c3.7e-4 -0.2004 0.0117-0.27507 0.0252-0.16592s0.0132 0.27312-6.2e-4 0.36437c-0.0139 0.0913-0.0249 2e-3 -0.0246-0.19845zm0.26459 0.23279c-0.0223-0.0223-0.0405-0.0687-0.0405-0.10324 0-0.038 0.0283-0.0345 0.0719 9e-3 0.0395 0.0395 0.0577 0.086 0.0405 0.10324-0.0173 0.0173-0.0496 0.0132-0.0719-9e-3zm0.82379-0.87044c0-0.1169 0.0125-0.16472 0.0278-0.10627 0.0153 0.0584 0.0153 0.1541 0 0.21255-0.0153 0.0585-0.0278 0.0106-0.0278-0.10628zm2.4221-0.31882c-7e-3 -0.39853 0.0367-0.48983 0.15925-0.334 0.068 0.0864 0.0286 0.53137-0.047 0.53137-0.0273 0-0.0621 0.0478-0.0774 0.10627-0.0153 0.0584-0.031-0.0782-0.0348-0.30364zm0.54859 0.25809c-7e-3 -0.0167-0.0258-0.28997-0.0417-0.60728-0.0159-0.3173-0.0436-0.66573-0.0616-0.77428-0.018-0.10856-7e-3 -0.19737 0.0253-0.19737 0.0707 0 0.14881 0.88612 0.11517 1.3057-0.0134 0.167-0.0301 0.28997-0.0372 0.27327zm-0.54407-1.2588c-0.0199-0.4971 0.0278-0.59193 0.0681-0.13534 0.0131 0.14889 0.0312 0.29804 0.0401 0.33144 0.0291 0.10925 3e-3 0.27328-0.0438 0.2731-0.0251-9e-5 -0.054-0.21123-0.0644-0.4692zm-3.6599 0.30596c-7e-3 -0.0713-0.0405-0.20609-0.10349-0.4135-0.058-0.19088-0.0379-0.33401 0.0468-0.33401 0.0275 0 0.0373 0.0485 0.0218 0.10777-0.0155 0.0593 0.0142 0.18908 0.066 0.28846 0.0518 0.0994 0.0944 0.21324 0.0946 0.25302 4.3e-4 0.0816-0.11851 0.17451-0.12573 0.0983zm4.0782-0.84881c-3e-3 -0.039-0.0205-0.12101-0.0397-0.18219-0.0332-0.10574-0.0315-0.10587 0.0347-3e-3 0.0383 0.0597 0.0562 0.14169 0.0397 0.18218-0.0216 0.0531-0.0312 0.0539-0.0347 3e-3zm-3.5535-0.42745c-0.0329-0.0866-0.026-0.0935 0.034-0.034 0.0415 0.0412 0.0602 0.0902 0.0415 0.10889-0.0187 0.0187-0.0526-0.015-0.0755-0.0749zm-0.98758-0.81688c-0.01-0.53721 4e-3 -0.6584 0.0751-0.6584 0.0861 0 0.37287 0.39958 0.42826 0.59672 0.0157 0.0559-3e-3 0.0418-0.0417-0.0314-0.15016-0.28426-0.21229-0.20237-0.20947 0.27605 2e-3 0.4221-8e-3 0.46413-0.11872 0.46954-0.11365 6e-3 -0.12222-0.0363-0.13348-0.65247zm-0.14101 0.46361c-0.0422-0.0509-0.0651-0.10432-0.0507-0.1187 0.0144-0.0144 0.0595 0.0273 0.10026 0.0926 0.0882 0.14118 0.0588 0.15668-0.0496 0.0261zm0.91214-0.0289c-0.0358-0.0668-0.0513-0.12146-0.0346-0.12146s0.0596 0.0547 0.0954 0.12146c0.0358 0.0668 0.0513 0.12146 0.0346 0.12146s-0.0596-0.0547-0.0954-0.12146zm-1.3816-0.51014c-0.17535-0.17934-0.31882-0.34288-0.31882-0.36343 0-0.0473 0.2038-0.0486 0.3252-2e-3 0.0507 0.0195 0.0784 0.0713 0.0616 0.11526-0.0338 0.0882 0.20025 0.33518 0.31767 0.33518 0.084 0 0.074 0.1965-0.0114 0.22349-0.0305 0.01-0.19889-0.12921-0.37425-0.30854z" stroke-width=".060728"/>
</svg>
