<?xml version="1.0" encoding="UTF-8"?>
<svg width="35mm" height="35mm" version="1.1" viewBox="0 0 35 35" xmlns="http://www.w3.org/2000/svg" xmlns:cc="http://creativecommons.org/ns#" xmlns:dc="http://purl.org/dc/elements/1.1/" xmlns:rdf="http://www.w3.org/1999/02/22-rdf-syntax-ns#">
 <metadata>
  <rdf:RDF>
   <cc:Work rdf:about="">
    <dc:format>image/svg+xml</dc:format>
    <dc:type rdf:resource="http://purl.org/dc/dcmitype/StillImage"/>
    <dc:title/>
   </cc:Work>
  </rdf:RDF>
 </metadata>
 <path d="m15.418 33.905c-0.10029-0.07022-0.08638-0.07796 0.06406-0.03564 0.23396 0.06581 0.24468-0.01652 0.03266-0.25089-0.08773-0.09698-0.22631-0.29163-0.30795-0.43256-0.08683-0.14989-0.09648-0.1942-0.02324-0.10676 0.17056 0.20364 0.29184 0.18845 0.79368-0.09941 0.84507-0.48472 1.2388-1.129 1.1237-1.8386-0.03892-0.23981-0.02289-0.27827 0.10233-0.24552 0.21936 0.05737 0.374-0.18436 0.33448-0.52286-0.02683-0.22978-0.01064-0.27609 0.07241-0.20716 0.15342 0.12732 0.24419-0.29432 0.14755-0.68537-0.10086-0.40812-0.3226-0.41404-0.36052-0.0096-0.01542 0.16442-0.09102 0.36883-0.168 0.45426-0.07699 0.08543-0.14193 0.23917-0.14432 0.34164-0.0024 0.10248-0.05054 0.26319-0.10698 0.35714-0.09133 0.15201-0.10292 0.13295-0.10523-0.17317-0.0014-0.1892-0.06717-0.43618-0.14609-0.54885-0.15599-0.2227-0.17689-0.21948 0.2635-0.04065 0.19319 0.07845 0.26688-0.43671 0.0991-0.69278-0.18368-0.28033-0.56019-0.29231-0.56206-0.01788-0.0025 0.37051-0.12408 0.4237-0.33044 0.14459-0.14629-0.19787-0.24893-0.25505-0.4219-0.23506-0.163 0.01884-0.22138 0.0693-0.20348 0.17589 0.02925 0.17421-0.01481 0.18384-0.25448 0.05557-0.14238-0.0762-0.22585-0.05705-0.44279 0.10155-0.62171 0.45452-1.1037 0.91777-1.3997 1.3452-0.30663 0.4428-0.31679 0.48203-0.34883 1.3476-0.02795 0.75509-0.05142 0.8762-0.15341 0.79156-0.16936-0.14056-0.23425-0.03979-0.11631 0.18059 0.10535 0.19684 0.69986 0.5075 0.97722 0.51064 0.16412 0.0019 0.16412 5.95e-4 0-0.12112-0.30711-0.22782 0.8094-0.05527 1.1565 0.17874 0.16358 0.11027 0.25966 0.19926 0.21353 0.19777-0.04614-0.0015-0.15033-0.05318-0.23154-0.11485-0.10379-0.07882-0.26799-0.09387-0.55275-0.05065-0.86264 0.13092-1.507-0.11401-1.7742-0.67442-0.10447-0.21908-0.11908-0.35057-0.05731-0.51575 0.0456-0.12194 0.1267-0.47152 0.18022-0.77687 0.19156-1.0928 0.30367-1.3115 1.0109-1.972 0.36002-0.33622 0.84741-0.72071 1.0831-0.85443 0.52368-0.29711 0.89827-0.63715 0.89827-0.81541 0-0.0732-0.12491-0.25056-0.27758-0.39413-0.16354-0.15379-0.20438-0.22234-0.0994-0.16686 0.23133 0.12226 0.80327 0.75574 0.80663 0.89342 0.0015 0.06104 0.03858 0.04482 0.08688-0.038 0.08818-0.15119-0.01365-0.77722-0.18317-1.1261-0.09855-0.20283 0.3187 0.227 0.49437 0.50928 0.17872 0.28716 0.13627-0.75248-0.05083-1.2449-0.19768-0.52025-0.16069-0.55265 0.0838-0.07341 0.21859 0.42847 0.33177 0.32665 0.33374-0.30023 0.0015-0.46872-0.29533-1.1008-0.49812-1.0608-0.19897 0.03924-0.43607 0.42258-0.51697 0.8358-0.04137 0.21132-0.07943 0.30988-0.08458 0.21901-0.04318-0.76228-1.6371-2.3544-2.3571-2.3544-0.29608 0-0.75305 0.41904-1.2271 1.1252-0.2746 0.40909-0.64599 0.75382-0.81212 0.75382-0.05134 0 0.04175-0.11136 0.20688-0.24748 0.32548-0.26829 0.66552-0.8186 0.5668-0.91732-0.03366-0.03366-0.17611 0.04888-0.31654 0.18343-0.37226 0.35665-0.31222 0.17531 0.09492-0.28668l0.35026-0.39745-0.48699-0.1004 0.22859-0.06424c0.12573-0.03533 0.29104-0.13325 0.36737-0.21759 0.13078-0.14451 0.10698-0.17113-0.41329-0.46208-0.70048-0.39173-0.75754-0.39079-0.69887 0.01156 0.04631 0.31759 0.04589 0.31813-0.04998 0.06406-0.05318-0.14093-0.15309-0.32107-0.22202-0.40032-0.06894-0.07925-0.0995-0.1859-0.06792-0.23699 0.03158-0.0511 0.02574-0.0824-0.01299-0.06956-0.06873 0.02279-1.4797-1.1179-1.4797-1.1962 0-0.02175 0.04804-0.0023 0.10676 0.04315 0.05872 0.04548 0.31616 0.24565 0.57209 0.44482 0.81535 0.63453 2.4662 1.3363 2.6682 1.1343 0.07583-0.07583 0.02469-0.13087-0.21448-0.2308-0.42599-0.17799-0.39873-0.23664 0.03832-0.08243 0.41776 0.14739 0.7895 0.15916 1.0262 0.03249 0.20653-0.11053 0.7639-0.0301 0.98369 0.14196 0.08654 0.06775 0.11891 0.11301 0.07194 0.10059-0.04698-0.01243-0.09502 0.0062-0.10676 0.04147-0.05055 0.15165-0.01272 0.23488 0.10676 0.23488 0.07046 0 0.12934 0.04804 0.13083 0.10676 0.0015 0.05872 0.06066 0.18344 0.13149 0.27717 0.10114 0.13384 0.14383 0.14604 0.19896 0.05684 0.05286-0.08553 0.08168-0.06961 0.11675 0.06448 0.05668 0.21675 0.20643 0.23321 0.25991 0.02857 0.03149-0.12048 0.04098-0.11476 0.04897 0.02947 0.0089 0.16135 0.24986 0.46164 0.37037 0.46164 0.02644 0 0.07639-0.1057 0.111-0.23488 0.05799-0.21643 0.07122-0.19945 0.16843 0.21611 0.05803 0.24805 0.12741 0.47289 0.15417 0.49966 0.10268 0.10268 0.23137-0.07554 0.24298-0.33647 0.01168-0.26259 0.01402-0.26063 0.06406 0.05356l0.05194 0.32611 0.19114-0.179c0.58026-0.54342 0.07767-1.1918-0.93424-1.2052-0.24896-0.0033-0.52952-0.03808-0.62347-0.07728-0.10598-0.04423 0.0237-0.05647 0.34164-0.03226 1.1561 0.08804 1.3854 0.20809 1.6323 0.85465 0.0831 0.21759 0.32652 0.5727 0.54094 0.78913 0.506 0.51074 0.89381 1.255 1.1429 2.1932 0.10997 0.41425 0.24187 0.76716 0.29311 0.78424 0.05124 0.01708 0.19216-0.11462 0.31315-0.29267 0.20287-0.29855 0.21969-0.30724 0.21623-0.11173-0.0053 0.30041-0.19917 0.80802-0.44961 1.1773-0.18966 0.27966-0.39996 1.0418-0.28746 1.0418 0.09483 0 0.60857-0.92619 0.75802-1.3666l0.15942-0.46976-0.04595 0.42014c-0.05015 0.4586-0.36546 1.069-0.70234 1.3597-0.1177 0.10155-0.31051 0.37681-0.42846 0.61169-0.11795 0.23488-0.28756 0.50691-0.37692 0.60451-0.16014 0.17492-0.15931 0.18338 0.05778 0.59167 0.14619 0.27494 0.17337 0.37531 0.08084 0.29852-0.18656-0.15483-0.38437-0.54825-0.38437-0.76447 0-0.16971-0.12741-0.24395-0.18506-0.10784-0.01566 0.03697-0.19182 0.19714-0.39146 0.35594-0.38656 0.30746-0.48881 0.56918-0.19206 0.49158 0.09402-0.02459 0.1494-0.0099 0.12308 0.03274-0.02632 0.04259-0.09914 0.07745-0.1618 0.07745-0.13264 0-0.243 0.23047-0.14064 0.29373 0.03824 0.02363 0.19104 0.0081 0.33956-0.03448 0.14852-0.0426 0.24988-0.04483 0.22524-5e-3 -0.02464 0.03987-0.19533 0.09792-0.3793 0.129-0.4019 0.0679-0.52542 0.27362-0.2116 0.35238 0.32046 0.08043 0.84442-0.01247 1.2529-0.22214l0.36171-0.18566-0.17698 0.1815c-0.24095 0.2471-0.86128 0.42044-1.4006 0.39138-0.37614-0.02026-0.51848 0.01939-0.90488 0.25206-0.25219 0.15186-0.5751 0.3244-0.71758 0.38341-0.33418 0.13842-0.32647 0.22338 0.03989 0.43954 0.16442 0.09701 0.29894 0.1918 0.29894 0.21065 0 0.07416-0.56273 0.02636-0.68328-0.05804zm2.6232-3.3882c0.08264-0.12918 0.20534-0.27755 0.27265-0.32971 0.13729-0.10638 0.16645-0.58438 0.05152-0.84469-0.06532-0.14795-0.05746-0.15624 0.05871-0.06188 0.11081 0.09 0.14329 0.08507 0.18681-0.02834 0.09378-0.24438 0.05605-0.53479-0.08822-0.67906-0.13092-0.13092-0.12941-0.13891 0.02135-0.11286 0.21196 0.03662 0.28749-0.41541 0.08256-0.49405-0.07361-0.02825-0.13384-0.1487-0.13384-0.26768 0-0.11898-0.06726-0.27174-0.14947-0.33948-0.14235-0.11729-0.14235-0.12091 0-0.07615 0.18217 0.05728 0.18938-0.04977 0.02477-0.36808-0.12449-0.24073-0.33541-0.35244-0.53724-0.28453-0.15144 0.05096-0.13273 0.17526 0.06406 0.42543 0.09395 0.11944 0.16736 0.29846 0.16312 0.39782-0.0055 0.12822-0.03065 0.1013-0.08676-0.09272-0.09173-0.31718-0.22293-0.42561-0.35509-0.29345-0.0671 0.0671-0.05313 0.13713 0.05015 0.25124 0.07875 0.08702 0.14318 0.20323 0.14318 0.25825s0.0517 0.10004 0.11488 0.10004c0.23761 0 0.41989 0.31829 0.36467 0.63677-0.02887 0.16651-0.07592 0.43727-0.10454 0.60168-0.05345 0.30695-0.20393 0.41694-0.2045 0.14947-1.71e-4 -0.08221-0.07704-0.27531-0.17082-0.42912-0.2222-0.36444-0.21503-0.40975 0.03857-0.24359 0.13218 0.08661 0.22874 0.10516 0.26256 0.05044 0.09208-0.14899-0.05574-0.61375-0.20786-0.65353-0.07983-0.02088-0.19215-0.16034-0.2496-0.30992l-0.10444-0.27196-0.16271 0.21246-0.16271 0.21246 0.29325 0.11696c0.18698 0.07458 0.29325 0.17452 0.29325 0.27577 0 0.15174-0.01317 0.15103-0.29613-0.01591-0.16287-0.0961-0.33582-0.15018-0.38435-0.1202-0.14202 0.08777-0.10155 0.28493 0.06964 0.33926 0.17054 0.05413 0.3546 0.38576 0.3546 0.63889 0 0.08634 0.09609 0.21994 0.21353 0.29689 0.17365 0.11378 0.21353 0.20936 0.21353 0.51183 0 0.2264-0.05013 0.41352-0.12812 0.47825-0.14136 0.11732-0.17727 0.59787-0.04467 0.59787 0.04589 0 0.15106-0.1057 0.2337-0.23488zm-0.73947-1.8452c-0.10504-0.27628-0.30171-0.36935-0.47557-0.22506-0.17869 0.1483-0.15826 0.24768 0.06865 0.33396 0.10763 0.04092 0.25176 0.14204 0.32029 0.22471 0.10331 0.12462 0.12884 0.12864 0.1494 0.02352 0.01364-0.06974-0.01461-0.23044-0.06278-0.35713zm0.10971-3.5143c0.02898-0.43738 0.01585-0.82391-0.03045-0.89681-0.06993-0.1101-0.08156-0.10771-0.08268 0.01701-1e-3 0.11341-0.30444 0.40056-0.67186 0.63586-0.01649 0.01056 0.06999 0.15026 0.19217 0.31045 0.12218 0.16019 0.22215 0.31395 0.22215 0.34169s0.03986 0.15528 0.08858 0.28343c0.13831 0.36379 0.22649 0.14761 0.28208-0.69163zm-1.2885 0.0346c0.22849-0.40144-0.0073-0.59438-0.31325-0.25631-0.12528 0.13844-0.13055 0.18928-0.0354 0.34164 0.14569 0.23328 0.1708 0.22714 0.34865-0.08533zm-0.41787-0.43805c-0.03246-0.05253-0.0179-0.06836 0.03361-0.03653 0.11622 0.07183 0.36255-0.02076 0.36255-0.13627 0-0.08958-0.25085-0.31289-0.35705-0.31785-0.03196-0.0015-0.07464 0.06455-0.09483 0.14675-0.02019 0.08221-0.02112 0.02456-0.0021-0.12812 0.02787-0.22329 0.0047-0.27733-0.1187-0.27628-0.21217 0.0018-0.33402 0.09531-0.39999 0.30692-0.0653 0.20949 0.13683 0.42416 0.30696 0.32601 0.06078-0.03506 0.08201-0.0323 0.04719 0.0061-0.0811 0.08952 0.10012 0.31287 0.2025 0.24959 0.04242-0.02622 0.05134-0.08938 0.01983-0.14037zm-0.62877-0.57878c0-0.16413-0.16703-0.23155-0.28396-0.11462-0.06466 0.06466 0.09701 0.28544 0.20901 0.28544 0.04122 0 0.07495-0.07687 0.07495-0.17082zm-0.17392-0.25251c0.23818-0.15065 0.0015-0.53519-0.49322-0.80117-0.42672-0.22944-0.46171-0.23499-0.66042-0.1048-0.23915 0.1567-0.25977 0.24201-0.0921 0.38116 0.15178 0.12596 0.6055-0.02848 0.5148-0.17524-0.03785-0.06125-0.02359-0.07562 0.03757-0.03782 0.16099 0.0995 0.11218 0.30709-0.07221 0.30709-0.09395 0-0.17082 0.03843-0.17082 0.08541 0 0.11858 0.30946 0.10695 0.51149-0.01921 0.12783-0.07983 0.19119-0.08097 0.26738-0.0048 0.07619 0.07619 0.05874 0.0891-0.07364 0.05448-0.2154-0.05633-0.32809 0.10539-0.18966 0.27219 0.11854 0.14282 0.24263 0.15541 0.42085 0.04269zm0.41058-0.01973c-0.05279-0.15837-0.23666-0.18464-0.23666-0.03381 0 0.07438 0.06086 0.13523 0.13523 0.13523 0.07438 0 0.12002-0.04564 0.10142-0.10142zm0.36122 8.6009c0-0.21255 0.2476-0.64175 0.37022-0.64175 0.06028 0 0.1842 0.05548 0.27539 0.12329 0.1538 0.11438 0.15633 0.14063 0.03501 0.36299-0.15391 0.28209-0.68062 0.4024-0.68062 0.15546zm0.51547-0.26102c0.08042-0.0969 0.08414-0.15692 0.01408-0.22699-0.11318-0.11318-0.35872 0.05183-0.35872 0.24106 0 0.158 0.20892 0.14946 0.34464-0.01408zm10.716-0.22656c-0.09395-0.05328-0.19016-0.12551-0.2138-0.16052-0.02364-0.03501-0.15816-0.08058-0.29894-0.10127-0.25487-0.03745-0.25473-0.03767 0.03357-0.05041 0.18481-0.0082 0.3277 0.03941 0.39508 0.13157 0.06017 0.08229 0.28458 0.1692 0.52188 0.20211 0.412 0.05715 0.41278 0.05784 0.07468 0.06657-0.1879 0.0049-0.41851-0.03478-0.51246-0.08805zm1.0249-0.08651c0.1843-0.10569 0.38995-0.34676 0.33916-0.39755-0.01717-0.01717-0.13452 0.05003-0.26077 0.14933-0.12625 0.09931-0.30641 0.18056-0.40036 0.18056-0.1528 0-0.14683-0.01887 0.05661-0.17889 0.36258-0.2852 0.57071-0.79702 0.67034-1.6484 0.10118-0.86465 0.04161-1.4183-0.15261-1.4183-0.06834 0-0.12425-0.05547-0.12425-0.12327 0-0.0678-0.08542-0.1831-0.18983-0.25623-0.1044-0.07313-0.14284-0.13296-0.08541-0.13296 0.05743 0 0.18128 0.07687 0.27524 0.17082 0.09395 0.09395 0.19004 0.17082 0.21353 0.17082 0.09245 0 0.03578-0.29216-0.08145-0.41989-0.50632-0.55171-0.48245-0.5063-0.28167-0.53573 0.17452-0.02557 0.17562-0.03251 0.0284-0.17902-0.11819-0.11763-0.1801-0.13004-0.27127-0.05438-0.06497 0.05392-0.09871 0.12946-0.07497 0.16787 0.10087 0.16321-0.10441 0.11976-0.29345-0.06211-0.16481-0.15856-0.17755-0.1979-0.06406-0.1979 0.20017 0 0.17644-0.17772-0.03098-0.23195-0.12957-0.03388-0.14986-0.07257-0.08134-0.15513 0.06801-0.08195 0.04185-0.14461-0.10262-0.2458-0.15764-0.11041-0.16638-0.13581-0.04678-0.13581 0.19256 0 0.18808-0.02438-0.08263-0.4501-0.12636-0.19871-0.23559-0.43324-0.24272-0.52116-0.0071-0.08793-0.07752-0.19598-0.1564-0.24013-0.07888-0.04415-0.12096-0.11661-0.09351-0.16103 0.02745-0.04442-0.0077-0.10289-0.07822-0.12994-0.07047-0.02704-0.10748-0.103-0.08223-0.16879 0.07155-0.18645-1.0831-1.4036-1.3316-1.4036-0.04748 0-0.06421-0.05765-0.03717-0.12812 0.04367-0.11381-0.05106-0.16796-0.24362-0.13926-0.03354 5e-3 -0.03904-0.0481-0.01222-0.118 0.0432-0.11258-0.0099-0.1448-0.19671-0.11944-0.03101 0.0042-0.09057-0.05344-0.13236-0.12812-0.04179-0.07467-0.16055-0.1388-0.26391-0.14251-0.10336-0.0037-0.13989-0.02613-0.08117-0.04982 0.17599-0.07101 0.12148-0.19797-0.12812-0.2984-0.31699-0.12754-0.63905-0.1476-0.76869-0.04788-0.0719 0.0553-0.10676 0.0482-0.10676-0.02174 0-0.05713 0.07687-0.12397 0.17082-0.14854 0.17751-0.04642 0.2388-0.19557 0.08037-0.19557-0.04975 0-0.06834-0.03578-0.04131-0.07951 0.10114-0.16365-0.09874-0.15907-0.3631 0.0083-0.29003 0.18364-0.37668 0.38486-0.12436 0.28879 0.11984-0.04563 0.12831-0.03559 0.0427 0.05065-0.12874 0.12969-0.14338 0.36234-0.01793 0.2848 0.05847-0.03614 0.06823 0.02782 0.02854 0.18713-0.05528 0.22192-0.04803 0.23192 0.08736 0.12036 0.13494-0.1112 0.14272-0.10201 0.09032 0.10676-0.03357 0.13374-0.02188 0.22844 0.0282 0.22844 0.12246 0 0.17828-0.18956 0.13007-0.44174-0.02933-0.15342 2e-3 -0.2341 0.10643-0.27418 0.21906-0.08406 0.2633 0.01498 0.0746 0.167-0.11319 0.09119-0.13221 0.14616-0.0609 0.17603 0.0813 0.03406 0.0813 0.0814 0 0.21932-0.08186 0.13887-0.08121 0.18403 0.0031 0.21455 0.05872 0.02126 0.10735 0.14116 0.10807 0.26642 1e-3 0.17842 0.01924 0.20001 0.0841 0.09965 0.06452-0.09983 0.08308-0.07627 0.0841 0.10676 0.0012 0.21891 0.11213 0.31671 0.19372 0.17082 0.0197-0.03523 0.02646-0.02214 0.01502 0.0291s0.01255 0.14714 0.05333 0.21311c0.06163 0.09972 0.09272 0.09454 0.18427-0.03068 0.09423-0.12887 0.10802-0.08087 0.09548 0.33231-0.01337 0.44087-0.0029 0.47114 0.12078 0.34751 0.10644-0.10644 0.11368-0.16164 0.03382-0.25786-0.08034-0.0968-0.07341-0.13325 0.03313-0.17413 0.08084-0.03102 0.11294-0.01644 0.08024 0.03647-0.02997 0.0485-0.01228 0.13904 0.03932 0.20122 0.06972 0.084 0.06064 0.14058-0.03535 0.22024-0.1557 0.12922-0.17255 0.37106-0.0224 0.32154 0.05872-0.01937 0.14984-0.12087 0.2025-0.22556 0.07664-0.15238 0.10571-0.16435 0.14574-0.06005 0.0275 0.07166 0.01324 0.15301-0.03168 0.18078-0.137 0.08467-0.09582 0.32033 0.04643 0.26574 0.08632-0.03312 0.12812 4e-3 0.12812 0.11394 0 0.0897 0.03873 0.18704 0.08607 0.21629 0.05336 0.03298 0.03713 0.10213-0.04271 0.18196-0.161 0.161-0.16732 0.3728-0.01111 0.3728 0.1841 0 0.30626-0.20219 0.2607-0.4315l-0.04154-0.20908 0.08914 0.20318c0.05361 0.1222 0.05842 0.24135 0.01207 0.29894-0.04239 0.05266-0.10402 0.2591-0.13694 0.45875-0.04438 0.26905-0.0316 0.36299 0.04937 0.36299 0.07631 0 0.0693 0.03219-0.02326 0.10676-0.16856 0.13582-0.25727 0.38605-0.15849 0.4471 0.11612 0.07177 0.34182-0.30227 0.39977-0.66252 0.02851-0.1772 0.07764-0.33814 0.10919-0.35764 0.07192-0.04445 0.04359 0.42116-0.03319 0.54538-0.03118 0.05045-0.03342 0.12938-5e-3 0.17539 0.07571 0.12251 0.38543-0.09444 0.38543-0.26999 0-0.07988 0.04255-0.17153 0.09456-0.20368 0.11832-0.07312 0.01772 0.28864-0.13219 0.47541-0.05656 0.07046-0.15493 0.30107-0.2186 0.51246-0.06367 0.21139-0.16659 0.44502-0.2287 0.51919-0.06212 0.07416-0.11294 0.22009-0.11294 0.32428 0 0.1857 0.0041 0.18641 0.20611 0.03598 0.11336-0.0844 0.23501-0.26876 0.27033-0.40969l0.06422-0.25623 0.03455 0.23772c0.02482 0.17077-0.01943 0.28144-0.15712 0.39293-0.10542 0.08536-0.20104 0.22821-0.21248 0.31744-0.01144 0.08923-0.04935 0.2552-0.08423 0.36881-0.0533 0.17358-0.03965 0.19746 0.0854 0.14947 0.08186-0.03141 0.22667-0.05711 0.3218-0.05711 0.12064 0 0.15771-0.03979 0.12252-0.13149-0.02775-0.07232-0.01678-0.19723 0.02438-0.27758s0.11658-0.25179 0.1676-0.38097c0.05102-0.12918 0.13291-0.23488 0.18198-0.23488 0.04907 0 0.02625 0.09609-0.0507 0.21353-0.13173 0.20105-0.13074 0.21353 0.01704 0.21353 0.13824 0 0.13432 0.01585-0.03288 0.13296-0.20336 0.14244-0.2596 0.46114-0.08306 0.4707 0.05872 0.0032 0.01068 0.04622-0.10676 0.09565-0.51936 0.21858-0.59778 0.27738-0.596 0.44682 0.0029 0.27279 0.28914 0.844 0.68715 1.3712 0.19791 0.26213 0.34014 0.4963 0.31607 0.52038-0.16529 0.16529-1.4322-1.7607-1.4322-2.1772 0-0.08601-0.17711-0.22841-0.4514-0.36294-0.56924-0.27918-0.93676-0.58748-1.2595-1.0565-0.32952-0.47894-0.33008-0.59713-6.7e-4 -0.14241 0.24351 0.33616 0.80606 0.78686 0.98214 0.78686 0.04677 0-0.05186-0.11285-0.2192-0.25078-0.16733-0.13793-0.44167-0.45502-0.60963-0.70464-0.27255-0.40505-0.30951-0.52732-0.34373-1.1371-0.02117-0.37724-0.0082-0.60677 0.029-0.51246 0.03704 0.09395 0.07004 0.34125 0.07335 0.54956 0.0033 0.2083 0.08195 0.53562 0.17478 0.72738 0.1547 0.31956 0.70693 0.98644 0.81686 0.98644 0.02557 0-0.05472-0.18256-0.17842-0.4057s-0.16224-0.32902-0.08564-0.2353c0.11965 0.14639 0.15065 0.15241 0.22 0.04271 0.0444-0.07024 0.08132-0.23566 0.08204-0.36762 7.69e-4 -0.13794 0.03761-0.21748 0.08672-0.18713 0.04697 0.02903 0.08541 0.01044 0.08541-0.0413 0-0.23548-0.704-2.2254-0.85541-2.4179-0.09323-0.11853-0.16951-0.2604-0.16951-0.31528 0-0.20195-0.78773-1.1156-1.1357-1.3173-0.35954-0.20838-1.074-0.43978-1.5547-0.50354l-0.25623-0.03398 0.25623-0.01178c0.14093-0.0065 0.46584 0.044 0.72202 0.11217 0.25618 0.06817 0.48017 0.10957 0.49775 0.09199 0.01758-0.01758-0.11515-0.13604-0.29496-0.26325-0.17982-0.12721-0.25007-0.20771-0.15612-0.1789 0.28752 0.08817-0.35533-0.41984-0.89581-0.70791-0.26953-0.14366-0.72679-0.32184-1.0161-0.39597-0.58283-0.14931-1.5059-0.64534-2.2417-1.2047-1.1968-0.90971-2.1684-2.358-2.2545-3.3606l-0.04037-0.46976 0.17107 0.6346c0.16084 0.59664 0.39484 1.0913 0.47724 1.0089 0.02024-0.02024-0.02733-0.20614-0.1057-0.41311-0.16917-0.44676-0.213-1.8928-0.06196-2.0441 0.07147-0.07156 0.07482 0.02092 0.01298 0.35861-0.22444 1.2256 0.57725 3.0405 1.7104 3.8719 0.56099 0.41163 0.61926 0.36986 0.16361-0.11726-0.454-0.48537-0.8328-1.1859-0.82432-1.5245 0.0049-0.19439 0.02797-0.16625 0.12674 0.15439 0.11297 0.36674 0.73154 1.188 0.8948 1.188 0.0404 0-0.02251-0.21698-0.13979-0.48218-0.19214-0.43445-0.20412-0.5247-0.1211-0.91184 0.08033-0.37458 0.37849-0.99748 0.47745-0.99748 0.0189 0-0.03943 0.14413-0.12962 0.32029-0.23922 0.46725-0.29646 0.91111-0.17392 1.3488 0.14251 0.50898 0.9449 1.4559 1.5397 1.817 0.40423 0.24543 0.5183 0.27668 0.85489 0.23423 0.21363-0.02694 0.57153-0.01478 0.79533 0.02703 0.35401 0.06614 0.4002 0.05851 0.35525-0.05862-0.04413-0.115-0.02835-0.11354 0.1082 0.01004 0.2111 0.19104 0.39334 0.18837 0.32647-0.0048-0.02846-0.08221 0.03874-0.0405 0.14934 0.09269 0.25704 0.30954 0.64864 0.56796 0.86175 0.56868 0.14101 4.96e-4 0.12227-0.04479-0.12352-0.29837-0.15936-0.16442-0.25852-0.29894-0.22037-0.29894 0.10653 0 0.83051 0.55148 1.1118 0.84689 0.13797 0.1449 0.30406 0.26345 0.3691 0.26345 0.09372 0 0.09029-0.02794-0.01654-0.13478-0.28307-0.28307-0.29803-0.41179-0.06794-0.58445 0.12025-0.09023 0.19372-0.12375 0.16327-0.07449-0.03045 0.04927 0.10102 0.26722 0.29214 0.48435 0.33862 0.38469 0.37577 0.53727 0.0616 0.25295-0.30057-0.27201-0.26707-0.0255 0.06134 0.45134 0.28055 0.40734 1.0911 1.1425 1.2596 1.1425 0.10903 0-0.15185-0.57947-0.51792-1.1504-0.38917-0.60699-0.73291-1.3911-0.51378-1.1719 0.06062 0.06062 0.11503 0.14674 0.1209 0.19136 0.0059 0.04463 0.01548 0.12273 0.02135 0.17357 0.0059 0.05083 0.33737 0.43202 0.73666 0.84709s0.72599 0.78422 0.72599 0.82036c0 0.03614-0.1153-0.04476-0.25623-0.17978-0.31469-0.30149-0.33215-0.21625-0.0354 0.17281 0.12146 0.15924 0.34672 0.52513 0.50057 0.81309 0.22099 0.41361 0.28909 0.48778 0.32429 0.35317 0.02451-0.09372 0.01398-0.33726-0.0234-0.5412s-0.05756-0.38134-0.04485-0.39421c0.04792-0.04853 0.37909 0.98352 0.47342 1.4754 0.13248 0.69076 0.17072 0.8114 0.25716 0.8114 0.04054 0 0.09037-0.08648 0.11073-0.19217 0.03039-0.15778 0.03909-0.14827 0.04865 0.05316 0.0088 0.1861 0.03741 0.22388 0.11839 0.15644 0.08388-0.06985 0.10052 0.02019 0.07764 0.42017-0.03988 0.69722 0.08216 0.94908 0.16044 0.3311 0.09327-0.73631 0.2354-1.1287 0.52592-1.452 0.14776-0.16442 0.20464-0.20285 0.12641-0.08541-0.43924 0.65936-0.43902 0.65752-0.15112 1.248 0.14536 0.29812 0.26429 0.57901 0.26429 0.6242 0 0.21942 0.17388 0.15075 0.2453-0.09688 0.05845-0.20266 0.08308-0.22918 0.08864-0.09544 0.0042 0.10185 0.03276 0.25049 0.06339 0.33031 0.0485 0.12639 0.0711 0.11902 0.17508-0.05707 0.10682-0.1809 0.11347-0.13474 0.06308 0.43838-0.05887 0.6696-0.0593 0.71927-0.01999 2.3061 0.02227 0.89894 0.0033 1.0423-0.22359 1.6912-0.23433 0.67012-0.51172 1.0463-0.76643 1.0393-0.05238-0.0014-0.01838-0.04668 0.07558-0.10056zm-2.7741-4.1267c0.05942-0.0716 0.08427-0.15394 0.05523-0.18299-0.06203-0.06203-0.31317 0.129-0.31317 0.23822 0 0.11765 0.13921 0.08784 0.25794-0.05523zm0.1537-0.54105c0.01501-0.10058-0.0012-0.18288-0.03598-0.18288-0.11077 0-0.37566 0.27841-0.37566 0.39483 0 0.18964 0.38098-0.0065 0.41164-0.21196zm-0.41164-1.0973c0-0.20187-0.21078-0.07328-0.24308 0.14829-0.0258 0.17702-0.01225 0.18839 0.10676 0.08962 0.07498-0.06222 0.13632-0.16928 0.13632-0.23791zm-0.25754-0.77247c0.0017-0.25714-0.15288-0.24547-0.21863 0.0165-0.06495 0.25879 0.03559 0.46249 0.1439 0.29156 0.04039-0.06374 0.07401-0.20236 0.07473-0.30806zm-0.25492-0.23992c0-0.06769-0.03843-0.12307-0.08541-0.12307s-0.08541 0.07914-0.08541 0.17586c0 0.09672 0.03843 0.15211 0.08541 0.12307 0.04697-0.02903 0.08541-0.10817 0.08541-0.17586zm-1.8803-3.0484c7.19e-4 -0.03523-0.03713-0.06406-0.0841-0.06406-0.04698 0-0.08482 0.08648-0.0841 0.19217 0.0011 0.1554 0.01715 0.16766 0.0841 0.06406 0.04554-0.07046 0.08338-0.15694 0.0841-0.19217zm-0.1776-0.51163c0.0984-0.08175 0.17891-0.11912 0.17891-0.08304 0 0.03608-0.07687 0.13141-0.17082 0.21185-0.09395 0.08044-0.17082 0.18507-0.17082 0.23251 0 0.13493 0.1705 0.10104 0.22656-0.04503 0.0277-0.0722 0.17063-0.19518 0.31761-0.27329 0.23281-0.12372 0.24523-0.14659 0.09641-0.17754-0.09395-0.01954-0.19481-0.07357-0.22414-0.12007-0.03245-0.05146-0.14943-0.02383-0.29894 0.07059l-0.24562 0.15512 0.16271-0.18882c0.16-0.18568 0.16-0.1888 0-0.18734-0.20592 0.0019-0.54766 0.3565-0.54515 0.56573 0.0016 0.13692 0.02531 0.12939 0.17194-0.05474 0.1024-0.12858 0.14897-0.15407 0.11708-0.06406-0.02913 0.08221-0.02579 0.21673 0.0074 0.29894 0.0554 0.13709 0.06609 0.13532 0.12916-0.02135 0.03782-0.09395 0.14928-0.2377 0.24768-0.31945zm1.2038 0.36216c0-0.04698-0.03617-0.08541-0.08037-0.08541s-0.10412 0.03843-0.13316 0.08541c-0.02903 0.04698 0.0071 0.08541 0.08037 0.08541 0.07324 0 0.13316-0.03843 0.13316-0.08541zm-1.746-0.62282c0.06777-0.03792 0.12321-0.10774 0.12321-0.15516 0-0.04741-0.03515-0.06448-0.07812-0.03793-0.04296 0.02655-0.09534-4e-6 -0.1164-0.05902-0.02638-0.07393-0.10823-0.04299-0.26319 0.09945-0.26953 0.24777-0.22393 0.36048 0.05148 0.12726l0.1927-0.16318-0.15153 0.17982c-0.09384 0.11136-0.129 0.23852-0.09237 0.334 0.05259 0.13704 0.0676 0.13137 0.13508-0.05106 0.04176-0.11288 0.13136-0.23626 0.19913-0.27418zm-0.61799-0.48128c-0.05224-0.06511-0.26998 0.28854-0.22374 0.36337 0.02466 0.0399 0.09168-0.01732 0.14892-0.12717 0.05724-0.10985 0.09091-0.21614 0.07482-0.2362zm0.26216 0.20069c0.05687-0.14819-0.04739-0.15879-0.18716-0.01902-0.05637 0.05637-0.10249 0.13203-0.10249 0.16814 0 0.10633 0.2388-0.01661 0.28965-0.14912zm-6.9084 10.64c0.06586-0.21798 0.36269-0.68328 0.43587-0.68328 0.03643 0-0.36972 0.7504-0.46228 0.8541-0.02096 0.02349-0.0091-0.05338 0.02641-0.17082zm0.21553 0.14385c-0.0081-0.21642 0.42975-0.77968 0.72339-0.93064 0.09395-0.0483 0.01241 0.08014-0.1812 0.28543-0.19361 0.20529-0.39422 0.45012-0.44581 0.54407-0.05158 0.09395-0.09496 0.13947-0.09638 0.10115zm10.879-0.42144-0.16271-0.19217 0.19217 0.16271c0.1806 0.1529 0.23106 0.22164 0.16271 0.22164-0.01621 0-0.10268-0.08648-0.19217-0.19217zm-18.633-0.2768c-0.15267-0.06636-0.27758-0.13313-0.27758-0.14838 0-0.01525 0.15622-0.01283 0.34716 0.0054 0.33635 0.03208 1.0525-0.17373 1.1492-0.33027 0.02539-0.04108-0.11834-0.11832-0.31941-0.17164-0.20106-0.05332-0.61113-0.21336-0.91126-0.35566-0.47975-0.22746-0.65004-0.2613-1.4093-0.28004-0.89856-0.02218-1.419-0.16244-1.8458-0.49747-0.23238-0.18241-0.23114-0.18207 0.36472 0.09957 0.5126 0.24228 1.2214 0.36029 1.7722 0.29506 0.40882-0.04842 0.52148-0.12798 0.34003-0.24012-0.04698-0.02903-0.08541-0.12338-0.08541-0.20966 0-0.09672-0.17195-0.26435-0.4484-0.43715-0.24662-0.15415-0.53488-0.35703-0.64058-0.45084-0.19068-0.16925-0.19217-0.16927-0.19217-0.0019 0 0.09274 0.04804 0.21702 0.10676 0.27618 0.08558 0.08621 0.07843 0.09677-0.03603 0.05321-0.15803-0.06014-0.49778 0.08868-0.49778 0.21805 0 0.04532 0.06406 0.08241 0.14235 0.08241 0.07829 0 0.12126 0.02109 0.09549 0.04686-0.02577 0.02577-0.14681 0.02178-0.26896-0.0089l-0.2221-0.05574 0.17866-0.14467c0.17852-0.14456 0.17842-0.14486-0.11928-0.37192-0.38966-0.2972-0.92947-0.83404-1.2147-1.208-0.12526-0.16422-0.59944-0.57583-1.0537-0.91469-0.4543-0.33886-0.86444-0.6538-0.91142-0.69987-0.16644-0.16323 0.47871 0.23998 0.96012 0.60005 0.57268 0.42835 0.69949 0.46072 0.45395 0.11588-0.23329-0.32763-0.63021-0.65702-1.0494-0.87088-0.18618-0.09498-0.31886-0.19235-0.29485-0.21636 0.02402-0.02402 0.1213-0.0021 0.21619 0.04866 0.2469 0.13214 0.27861 0.11701 0.22259-0.10618-0.03-0.11952-0.0025-0.23778 0.06909-0.2972 0.10104-0.08386 0.09438-0.192-0.04435-0.71965-0.14463-0.55009-0.15813-0.83054-0.11828-2.4573 0.05927-2.4193 0.19379-2.9193 1.1444-4.2535 0.21088-0.29597 0.45656-0.75719 0.54594-1.0249 0.13818-0.41392 0.1547-0.43565 0.11032-0.14515-0.02871 0.1879-0.22738 0.66834-0.44149 1.0676-0.88659 1.6533-0.8774 1.6301-0.93414 2.3701-0.0387 0.50482-0.02621 0.70464 0.04406 0.70464 0.05394 0 0.09807-0.09705 0.09807-0.21566 0-0.3664 0.30441-1.1055 0.68798-1.6703 0.20147-0.29668 0.43478-0.71436 0.51845-0.92818 0.08368-0.21382 0.15394-0.32613 0.15614-0.24958 0.0022 0.07655-0.12981 0.40325-0.29334 0.72599-0.25883 0.51081-0.29754 0.66846-0.29894 1.2173-2e-3 0.80114 0.15641 1.0745 0.89195 1.5391 0.29952 0.18916 0.57352 0.39335 0.60889 0.45375 0.03674 0.06274-0.0061 0.05193-0.09984-0.0252-0.09028-0.07426-0.3468-0.23928-0.57003-0.3667-0.22324-0.12743-0.48995-0.34539-0.5927-0.48437l-0.18682-0.25268-0.15442 0.49127c-0.1291 0.41072-0.14275 0.96103-0.02384 0.96103 0.01762 0 0.12812-0.09609 0.24556-0.21353 0.29379-0.29379 0.42798-0.2744 0.26619 0.03846-0.1737 0.3359-0.16694 0.35558 0.08878 0.25836 0.1205-0.04581 0.39915-0.08114 0.61922-0.0785l0.40014 0.0048-0.52816 0.16739c-0.99811 0.31632-1.3973 1.0437-0.90876 1.656 0.20412 0.25582 0.24834 0.27831 0.29846 0.15183 0.05137-0.12967 0.05959-0.12654 0.06483 0.02468 0.0069 0.19857 0.23276 0.55282 0.35249 0.55282 0.04431 0 0.08443-0.08648 0.08915-0.19217 0.0052-0.11622 0.03962-0.05979 0.08712 0.14278 0.14854 0.63348 0.41164 0.7562 0.42631 0.19886l0.0095-0.36299 0.08098 0.42448c0.15331 0.80355 0.40762 0.86919 0.4236 0.10934l0.01123-0.53382 0.06675 0.57265c0.06988 0.59946 0.12237 0.75121 0.25986 0.75121 0.04928 0 0.0661-0.23316 0.04159-0.57652l-0.04116-0.57652 0.09071 0.55517c0.04989 0.30534 0.10786 0.57327 0.12884 0.5954 0.0938 0.09898 0.19851-0.25425 0.21449-0.72352 0.015-0.44058 0.02417-0.40559 0.06537 0.24945 0.02635 0.41905 0.08815 0.77517 0.13732 0.79138 0.04917 0.01621 0.13881-0.20977 0.19921-0.50217 0.12797-0.61956 0.28934-0.9661 0.48481-1.0411 0.0937-0.03596 0.06852 0.03055-0.07708 0.20358-0.37477 0.44539-0.39139 1.58-0.02315 1.58 0.12857 0 0.15208-0.09349 0.16539-0.65781 0.0087-0.36838 0.05958-0.7018 0.11565-0.75778 0.07655-0.07643 0.08314-0.02468 0.02801 0.21977-0.09468 0.41981-0.04132 0.53284 0.2847 0.60304 0.55269 0.119 2.052 0.6485 2.5544 0.90212 1.1188 0.56477 1.9097 1.6475 2.1053 2.8823 0.09776 0.61707 0.09541 0.6349-0.12125 0.91895-0.32602 0.42743-0.82622 0.64951-1.5727 0.69823-0.50777 0.03314-0.71301 0.09056-1.0203 0.28543-0.32459 0.20585-0.47209 0.24342-0.94446 0.2406-0.30789-0.0018-0.68471-0.05764-0.83738-0.12399zm1.543-0.05346c0.10261-0.05246 0.3403-0.23982 0.5282-0.41635 0.21105-0.19828 0.45591-0.3386 0.64058-0.36711 0.16442-0.02538 0.37581-0.07099 0.46976-0.10135 0.09395-0.03037 0.0363 0.02064-0.12812 0.11335l-0.29894 0.16856 0.23034 0.05833c0.32519 0.08235 0.79401-0.09534 1.048-0.39722 0.21849-0.25966 0.29015-0.58562 0.12874-0.58562-0.05098 0-0.08123-0.1945-0.07237-0.46545 0.01286-0.39359-0.02959-0.53936-0.27493-0.94417-0.51942-0.85704-1.0567-1.3347-1.8467-1.6419-1.1608-0.45135-1.8907-0.45246-2.0712-0.0031-0.06258 0.15577-0.07876 0.16323-0.08312 0.03833-3e-3 -0.0853 0.03613-0.23272 0.08692-0.3276 0.05078-0.09489 0.07533-0.18952 0.05455-0.2103-0.07544-0.07544-0.53486 0.15125-0.67768 0.33438l-0.14646 0.18779 0.04136-0.23488c0.02932-0.1665 0.0056-0.23488-0.08144-0.23488-0.22392 0-0.39286 0.10191-0.33341 0.20112 0.04315 0.07201 0.02612 0.07315-0.06455 0.0043-0.25712-0.19521-0.42555-0.20198-0.60328-0.02424l-0.17732 0.17732 0.05689-0.17925c0.0475-0.14967 0.02139-0.17926-0.15814-0.17926-0.11827 0-0.24966 0.06186-0.29197 0.13746-0.07044 0.12588-0.08146 0.12566-0.13063-0.0025-0.0401-0.1045 0.0083-0.15234 0.19107-0.1889 0.30017-0.06003 0.48788-0.39379 0.30625-0.54453-0.16194-0.1344-0.46357-0.02548-0.5546 0.20026-0.05863 0.14539-0.07562 0.15303-0.07988 0.03592-3e-3 -0.08181 0.07146-0.19675 0.16541-0.25542 0.2184-0.1364 0.2153-0.2066-0.01459-0.32963-0.1542-0.08252-0.20601-0.07224-0.30777 0.06105-0.11601 0.15196-0.11938 0.15031-0.06506-0.03189 0.04999-0.16768 0.02633-0.19217-0.18569-0.19217-0.13364 0-0.33353 0.06342-0.4442 0.14094-0.1438 0.10072-0.1904 0.10849-0.16332 0.02724 0.02084-0.06254 0.16548-0.15666 0.32142-0.20916 0.27229-0.09168 0.27747-0.1015 0.13083-0.24814-0.09222-0.09222-0.2322-0.13748-0.35348-0.1143-0.16064 0.03071-0.1817 0.01539-0.10535-0.07661 0.0746-0.08989 0.04557-0.13396-0.13293-0.20182-0.30279-0.11512-0.35216-0.11054-0.51008 0.04739-0.07382 0.07382-0.13422 0.09774-0.13422 0.05316 0-0.14701 0.25225-0.29375 0.4266-0.24816 0.25145 0.06576 0.21518-0.13951-0.08509-0.48149-0.141-0.16059-0.26496-0.39582-0.27546-0.52272-0.0195-0.23567-0.25884-0.43627-0.40945-0.34319-0.046 0.02843-0.08364 0.16113-0.08364 0.29489 0 0.20708 0.02737 0.23604 0.18431 0.195l0.18431-0.0482-0.18431 0.18431c-0.22724 0.22724-0.24856 0.45929-0.03484 0.3791 0.08221-0.03085 0.19437-0.11606 0.24925-0.18936 0.05488-0.0733 0.12516-0.10789 0.15618-0.07687 0.03102 0.03102-0.06192 0.14388-0.20654 0.25081-0.14462 0.10692-0.26295 0.26224-0.26295 0.34514 0 0.23642 0.18648 0.58583 0.31265 0.58583 0.06292 0 0.11441 0.04314 0.11441 0.09587 0 0.06624 0.0396 0.063 0.12812-0.01046 0.15024-0.12469 0.16604-0.05885 0.03616 0.15063-0.06378 0.10286-0.06522 0.2182-0.0047 0.37642 0.06822 0.1783 0.13025 0.21898 0.28413 0.1863 0.17222-0.03658 0.17815-0.02985 0.04739 0.05372-0.18621 0.11901-0.19224 0.41502-0.01366 0.66998 0.11415 0.16297 0.15699 0.17632 0.26855 0.08373 0.1154-0.09577 0.12454-0.08432 0.06996 0.08763-0.07779 0.2451 0.10605 0.72266 0.25604 0.6651 0.06363-0.02442 0.13332 0.05277 0.16947 0.18772l0.06139 0.22919 0.11751-0.27758c0.13899-0.32834 0.31568-0.37556 0.23735-0.06343-0.07453 0.29695 0.18175 0.6937 0.35514 0.5498 0.09852-0.08177 0.1224-0.0717 0.1224 0.05162 0 0.16127 0.23196 0.46559 0.35488 0.46559 0.03969 0 0.07217-0.07373 0.07217-0.16384 0-0.20899 0.08564-0.43404 0.16517-0.43404 0.03381 0 0.04565 0.10788 0.02629 0.23974-0.04494 0.30617 0.1706 0.5184 0.36371 0.35814 0.10632-0.08824 0.12812-0.0784 0.12812 0.05787 0 0.16716 0.14956 0.36918 0.27331 0.36918 0.03758 0 0.06892-0.12491 0.06964-0.27758s0.03857-0.33524 0.0841-0.4057c0.05855-0.09061 0.08322 0.02193 0.08423 0.38435 8.93e-4 0.31492 0.05901 0.62712 0.15078 0.80991 0.29372 0.58504 1.7886 1.3614 2.1667 1.1252 0.1299-0.08113 0.14591-0.07294 0.10144 0.05189-0.0863 0.24225-0.21884 0.37757-0.61953 0.63256l-0.37972 0.24164h0.32127c0.1767 0 0.40522-0.04292 0.50783-0.09539zm-1.321-1.6728c-0.29308-0.34077-0.20612-0.70193 0.13728-0.57015 0.10709 0.0411 0.11806 0.07339 0.04109 0.12097-0.05776 0.0357-0.08141 0.12644-0.05255 0.20164 0.06212 0.16188 0.3647 0.18283 0.43282 0.02997 0.02617-0.05872 0.03898-0.01068 0.02847 0.10676-0.02423 0.27071-0.39017 0.33978-0.58711 0.1108zm1.2635-0.98626-0.15275-0.27758 0.17704 0.20164c0.15293 0.17417 0.23043 0.35353 0.15275 0.35353-0.01336 0-0.09303-0.12491-0.17704-0.27758zm-0.43766-0.21633c-0.18703-0.2216-0.2639-0.34525-0.17082-0.27478 0.19544 0.14795 0.34905 0.32145 0.47262 0.53382 0.13832 0.23772 0.06265 0.17277-0.3018-0.25903zm-2.0825-0.6735c-0.01512-0.24067 0.06918-0.45539 0.17878-0.45539 0.05819 0 0.05788 0.03513-9.43e-4 0.10676-0.04823 0.05872-0.10535 0.20285-0.12694 0.32029-0.03419 0.18594-0.04076 0.1896-0.05089 0.02834zm-0.51285-0.58778c-0.01307-0.30288 0.12103-0.46902 0.36883-0.45697 0.14657 0.0071 0.14031 0.01815-0.03843 0.06766-0.15877 0.04398-0.22707 0.13488-0.26634 0.35448l-0.05281 0.29534zm-0.65685-0.16022c0.09119-0.07395 0.26414-0.13052 0.38435-0.12571 0.20094 8e-3 0.1973 0.01383-0.04513 0.07178-0.14503 0.03467-0.31798 0.09124-0.38435 0.12571-0.06636 0.03447-0.04605 0.0022 0.04513-0.07178zm-1.0626-0.44653c0-0.12572 0.28947-0.37169 0.43378-0.36861 0.07654 0.0016 0.05828 0.03712-0.04943 0.09603-0.09395 0.05139-0.21886 0.15365-0.27758 0.22725-0.05872 0.0736-0.10676 0.094-0.10676 0.04532zm-0.17082-0.84096c0.11744-0.06713 0.27118-0.12192 0.34164-0.12175 0.07046 1.71e-4 -0.0012 0.05646-0.15927 0.12509-0.36371 0.15791-0.46131 0.15612-0.18237-0.0033zm1.7936 0.47154c0.11205-0.07085 0.10937-0.09976-0.02135-0.23052-0.13772-0.13775-0.16034-0.13864-0.28769-0.01129-0.23456 0.23456 0.01353 0.42868 0.30904 0.24181zm19.901 5.0374c-0.07698-0.04975-0.08752-0.08332-0.02639-0.0841 0.05595-6.7e-4 0.12548 0.03713 0.15451 0.0841 0.06553 0.10604 0.03597 0.10604-0.12812 0zm0.77489-0.31046c-0.18842-0.23953-0.22502-0.41849-0.10125-0.49498 0.04167-0.02576 0.0705 0.02002 0.06406 0.10172-0.0075 0.09546 0.04428 0.14388 0.14494 0.13549 0.12333-0.01028 0.14602 0.02926 0.10671 0.1859-0.0363 0.14462-0.0091 0.20963 0.09959 0.23803 0.13294 0.03474 0.13363 0.04017 0.0063 0.04898-0.0788 0.0054-0.22293-0.09136-0.32029-0.21514zm1.2881-0.1166c-0.0085-0.16442-0.0353-0.39502-0.05947-0.51246l-0.04395-0.21353 0.09188 0.21058c0.05053 0.11582 0.07729 0.34643 0.05947 0.51246l-0.03241 0.30188zm-10.979-0.491c-0.03593-0.15261-0.14876-0.33916-0.25073-0.41456-0.10198-0.07539-0.1301-0.12106-0.06249-0.10148 0.19174 0.05553 0.45287 0.45497 0.4138 0.63296-0.02546 0.11598-0.05339 0.08351-0.10057-0.11692zm10.582-1.69c-0.21365-0.09783-0.22603-0.11797-0.07452-0.12118 0.09994-0.0021 0.22956 0.0538 0.28804 0.12426 0.12454 0.15006 0.12082 0.15001-0.21353-0.0031zm0.43842-0.38748c-0.0877-0.08535-0.26065-0.17077-0.38435-0.18981-0.17702-0.02725-0.15954-0.03734 0.08216-0.04742 0.20542-0.0086 0.35568 0.04094 0.45397 0.14954 0.19156 0.21167 0.05605 0.28995-0.15178 0.08768zm-0.68962-0.46626c-0.16202-0.12255-0.16154-0.1254 0.02135-0.1254 0.10941 0 0.18714 0.05321 0.18714 0.12812 0 0.15455-5.95e-4 0.15455-0.2085-0.0027zm-2.9806-0.45136c-0.08368-0.15579-0.1378-0.3864-0.12026-0.51246 0.0311-0.22353 0.03558-0.22106 0.18074 0.09982 0.08187 0.18096 0.13598 0.41157 0.12026 0.51246-0.02544 0.1632-0.04537 0.15219-0.18074-0.09982zm2.9436-0.17582c-0.08808-0.08808-0.21299-0.18113-0.27758-0.20678-0.08567-0.03402-0.07865-0.04846 0.02593-0.05338 0.07885-0.0037 0.20102 0.05091 0.27148 0.12137 0.07046 0.07046 0.1693 0.12812 0.21963 0.12812 0.05033 0 0.09151 0.03843 0.09151 0.08541 0 0.13512-0.15643 0.0998-0.33096-0.07473zm-0.26691-0.69396c-0.11041-0.07135-0.10815-0.08298 0.01631-0.0841 0.07943-6.7e-4 0.16818 0.03713 0.19721 0.0841 0.06681 0.1081-0.04626 0.1081-0.21353 0zm-0.17082-0.23573c0-0.05136-0.06726-0.11096-0.14947-0.13244-0.13475-0.03521-0.13525-0.04004-5e-3 -0.04897 0.15409-0.01057 0.29107 0.13823 0.20577 0.22354-0.02819 0.02819-0.05126 0.0092-0.05126-0.04213zm-0.59787-0.44755c-0.10949-0.07076-0.10638-0.08299 0.02135-0.0841 0.08221-6.69e-4 0.14947 0.03713 0.14947 0.0841 0 0.10417-0.0096 0.10417-0.17082 0zm0.49111-0.1189c-0.08221-0.06241-0.14947-0.13684-0.14947-0.16542 0-0.09623 0.24257 0.04011 0.28965 0.16281 0.05625 0.1466 0.04965 0.14672-0.14018 0.0026zm-0.32191-0.43823c-0.09026-0.10876-0.08498-0.12126 0.03225-0.07627 0.07711 0.02959 0.1402 0.08812 0.1402 0.13007 0 0.10983-0.04944 0.09441-0.17244-0.0538zm4.6681-0.14477c-0.1743-0.39612-0.19294-1.348-0.0264-1.348 0.07924 0 0.10108 0.08339 0.07262 0.2773-0.03808 0.25945-0.03073 0.26907 0.11419 0.14947 0.14429-0.11909 0.14809-0.11508 0.05549 0.05873-0.05467 0.10261-0.09786 0.25635-0.09598 0.34164 0.0026 0.11781 0.0334 0.09987 0.12815-0.07465 0.0686-0.12635 0.33547-0.52347 0.59305-0.88248 0.47447-0.66131 0.67246-1.1538 0.6293-1.5653-0.01307-0.12459 0.0034-0.27054 0.03669-0.32434 0.03325-0.0538-0.0076-0.1818-0.09069-0.28446-0.13478-0.16645-0.17657-0.17506-0.38621-0.07954-0.19083 0.08695-0.25472 0.08589-0.33952-0.0056-0.08348-0.09009-0.08032-0.09894 0.01577-0.04411 0.09153 0.05222 0.10907 0.02595 0.0735-0.11007-0.02853-0.10908-4.96e-4 -0.1964 0.07196-0.2242 0.14232-0.05461 0.15885-0.22172 0.02193-0.22172-0.21028 0-0.40408-0.34718-0.35672-0.63903 0.03062-0.18869-4.96e-4 -0.3528-0.09172-0.48297-0.07596-0.10844-0.13693-0.25587-0.1355-0.32763 0.0019-0.09494 0.02945-0.08395 0.10123 0.04036 0.20634 0.35736 0.42545 0.47903 0.53716 0.29828 0.02925-0.04734-0.01378-0.15303-0.09562-0.23488-0.13785-0.13785-0.13825-0.15085-0.0055-0.17643 0.1773-0.03415 0.17846-0.08934 9e-3 -0.42902-0.0739-0.14814-0.19882-0.26994-0.27758-0.27066-0.09427-8.69e-4 -0.10937-0.02284-0.0442-0.06431 0.07016-0.04464 0.04764-0.12515-0.07728-0.27628l-0.17629-0.21328 0.05345 0.21353c0.04397 0.17564-0.01465 0.13937-0.3304-0.20442-0.40354-0.43938-0.53971-0.47941-0.37096-0.10905 0.08269 0.18149 0.07526 0.25992-0.04148 0.43809-0.20038 0.30582-0.31367 0.2746-0.21771-0.06 0.0437-0.15236 0.07945-0.28538 0.07945-0.29561 0-0.07653-0.38273-0.35157-0.43999-0.31619-0.03986 0.02464-0.07247-0.03286-0.07247-0.12778 0-0.17315-0.14476-0.23485-0.92353-0.39363l-0.28295-0.05769 0.05563 0.29653c0.06597 0.35163-0.1209 0.77426-0.40878 0.92451-0.15986 0.08344-0.1527 0.06347 0.04359-0.12151 0.24698-0.23274 0.29388-0.47213 0.14646-0.74758-0.13159-0.24588-0.26506-0.20746-0.16782 0.04832 0.1103 0.29011 0.0534 0.26928-0.29096-0.10647-0.33249-0.36281-0.47113-0.33637-0.27051 0.05159 0.21523 0.41621 0.16106 0.61934-0.06649 0.24933-0.24159-0.39286-0.48269-0.6642-0.59017-0.6642-0.04472 0-0.05919 0.05765-0.03215 0.12812 0.07941 0.20695-0.14341 0.15076-0.67745-0.17082-0.46565-0.2804-0.89083-0.389-0.89083-0.22754 0 0.03927 0.15374 0.20941 0.34164 0.3781s0.34164 0.3565 0.34164 0.41736c0 0.06086-0.06022 0.02468-0.13383-0.0804-0.0736-0.10509-0.26268-0.24491-0.42018-0.31071-0.15749-0.06581-0.32823-0.1979-0.37942-0.29354-0.09299-0.17375-0.30417-0.19071-0.73208-0.05877-0.12434 0.03834-0.11711 0.02452 0.02656-0.05076 0.1107-0.05801 0.21945-0.21377 0.24764-0.35469 0.03319-0.16594 0.14976-0.30997 0.34329-0.42416 0.16117-0.0951 0.32744-0.26337 0.36947-0.37394 0.04204-0.11057 0.14465-0.20067 0.22802-0.20021 0.25659 0.0014 1.0182 0.3969 1.1633 0.6041 0.18558 0.26495 0.28715 0.14058 0.10822-0.13251-0.1708-0.26067-0.13286-0.26409 0.50286-0.04537 0.27308 0.09395 0.56065 0.17082 0.63906 0.17082 0.16047 0 0.51398-0.34156 0.51398-0.49661 0-0.06313 0.13669-0.099 0.363-0.09526 0.27158 0.0045 0.31997 0.02331 0.19217 0.07472-0.09395 0.0378-0.19965 0.05204-0.23488 0.03166-0.12616-0.07299-0.25943 0.07579-0.13724 0.15321 0.30134 0.19094 0.90228-0.0081 0.98187-0.32524 0.04058-0.16167 0.07412-0.18157 0.17084-0.1013 0.09616 0.07981 0.18239 0.03784 0.42913-0.20891 0.16983-0.16983 0.34478-0.28654 0.38878-0.25935 0.044 0.02719-0.05261 0.13954-0.21468 0.24968-0.34297 0.23305-0.45569 0.44954-0.27097 0.52043 0.15839 0.06078 0.38137-0.1143 0.38313-0.30083 0.0011-0.11815 0.01315-0.12029 0.0802-0.01429 0.06805 0.10759 0.10105 0.10466 0.2403-0.02135 0.08877-0.08034 0.21603-0.14551 0.2828-0.14481 0.11852 0.0012-0.12134 0.16362-0.48954 0.33145-0.25525 0.11634-0.2985 0.21526-0.1706 0.39017 0.10442 0.1428 0.11761 0.14237 0.26875-0.0088 0.08742-0.08742 0.19898-0.15894 0.24793-0.15894 0.04894 0 0.12856-0.07687 0.17692-0.17082 0.04836-0.09395 0.16137-0.17719 0.25112-0.18497 0.13174-0.01142 0.11528 0.02524-0.08541 0.19025-0.13673 0.11242-0.37325 0.29174-0.5256 0.3985-0.15235 0.10675-0.27726 0.21575-0.27758 0.24221-3.47e-4 0.02647 0.14355 0.10333 0.31971 0.17082 0.17616 0.06749 0.48193 0.27016 0.67949 0.45038 0.19756 0.18022 0.39934 0.30286 0.4484 0.27254 0.04906-0.03032 0.0892-0.01763 0.0892 0.0282s-0.04535 0.09845-0.10078 0.11693c-0.14025 0.04675-0.01987 0.32228 0.1408 0.32228 0.07194 0 0.1308-0.05765 0.1308-0.12812 0-0.07046 0.03844-0.12812 0.08541-0.12812 0.04698 0 0.08541-0.09609 0.08541-0.21353 0-0.11744-0.03843-0.21353-0.08541-0.21353s-0.08541-0.06176-0.08541-0.13725c0-0.08691-0.04699-0.11922-0.12812-0.08809-0.16796 0.06445-0.16428-0.02831 0.0061-0.15287 0.11733-0.0858 0.12001-0.14484 0.02135-0.47038-0.06359-0.20983-0.17593-0.38922-0.25746-0.41111-0.0796-0.02138-0.15641-0.14054-0.17082-0.26503-0.01545-0.13345-0.07256-0.21656-0.1393-0.20271-0.06221 0.01291-0.09357-0.0081-0.06969-0.04678 0.05655-0.0915-0.03157-0.20971-0.24425-0.32764-0.09395-0.0521-0.17082-0.14818-0.17082-0.21353 0-0.06534-0.12197-0.15823-0.27105-0.20642-0.14908-0.04819-0.34125-0.14895-0.42705-0.2239-0.27564-0.24082-0.63751-0.39273-1.0528-0.44198-0.07046-0.0084-0.15885-0.06324-0.19642-0.12196-0.03757-0.05872-0.12322-0.10676-0.19034-0.10676-0.10022 0-0.10432-0.042-0.02295-0.23488 0.0545-0.12918 0.17105-0.31175 0.259-0.4057 0.15721-0.16794 0.15768-0.16649 0.02772 0.08541-0.26556 0.51475-0.0716 0.79103 0.27697 0.39454 0.17563-0.19977 0.18664-0.20296 0.10281-0.02978-0.16832 0.34772 0.05969 0.47715 0.37706 0.21403 0.09765-0.08096 0.1295-0.09249 0.07078-0.02562-0.13396 0.15255-0.13845 0.34365-0.0081 0.34365 0.05429 0 0.23685-0.10274 0.4057-0.2283 0.30234-0.22484 0.30408-0.22508 0.11482-0.01585-0.2283 0.2524-0.23919 0.35504-0.05396 0.50876 0.11952 0.09919 0.16567 0.08039 0.34122-0.13901 0.11165-0.13954 0.20319-0.21831 0.20343-0.17503 2.73e-4 0.04328-0.06099 0.14655-0.13606 0.2295-0.16459 0.18187-0.07749 0.3636 0.14624 0.3051 0.08872-0.0232 0.14046-0.0085 0.11498 0.03276-0.02547 0.04122 0.04956 0.099 0.16675 0.12842 0.16748 0.04203 0.30411 0.23944 0.6386 0.92263 0.65943 1.3469 0.87616 2.0802 0.92651 3.1347 0.04641 0.97196-0.04317 1.578-0.31705 2.1448-0.09279 0.19206-0.14805 0.38262-0.12281 0.42347 0.02525 0.04085 0.0459 0.31547 0.0459 0.61025 0 0.83492-0.1446 1.1781-1.2022 2.8534-0.15405 0.24401-0.30888 0.57071-0.34407 0.72599l-0.06399 0.28233-0.13972-0.31755zm1.0389-4.5252c0.05637-0.05637 0.10249-0.13965 0.10249-0.18506 0-0.04541-0.02427-0.05829-0.05394-0.02863-0.02967 0.02967-0.12904 0.01374-0.22084-0.03539-0.21635-0.11579-0.2757-0.04988-0.15619 0.17343 0.10906 0.20378 0.18325 0.22087 0.32848 0.07564zm0.01708-0.53809c0-0.07046-0.03529-0.12812-0.07843-0.12812-0.04313 0-0.13922-0.02333-0.21353-0.05184-0.09685-0.03717-0.1351-8.93e-4 -0.1351 0.12812 0 0.13502 0.05333 0.17996 0.21353 0.17996 0.13286 0 0.21353-0.0484 0.21353-0.12812zm0.90436-1.7291c-0.0933-0.0933-0.15728 0.05508-0.09029 0.20941 0.06352 0.14634 0.06812 0.14621 0.10351-3e-3 0.02037-0.08588 0.01442-0.17877-0.01322-0.20641zm-0.09424-0.64101c-0.07869-0.48413-0.15676-0.5458-0.33896-0.26773-0.14618 0.2231-0.14604 0.23659 0.0036 0.34603 0.08566 0.06263 0.12691 0.11388 0.09167 0.11388-0.03524 0-0.04032 0.03843-0.01128 0.08541 0.02903 0.04698 0.11155 0.08541 0.18337 0.08541 0.10594 0 0.11945-0.0685 0.07158-0.363zm-2.2621-1.9108c0-0.17278-0.19913-0.1433-0.31802 0.04707-0.08036 0.12868-0.08019 0.1729 7.7e-4 0.20206 0.13296 0.04787 0.31721-0.09683 0.31721-0.24913zm-0.39499-0.05125c0.06807-0.1086 0.06356-0.17568-0.01724-0.25623-0.08887-0.08859-0.14036-0.06896-0.27376 0.10441-0.09037 0.11744-0.16516 0.24503-0.16621 0.28352-0.0034 0.12501 0.36234 0.01966 0.45722-0.1317zm-3.9609 9.1579c-0.07698-0.04975-0.08751-0.08332-0.02639-0.0841 0.05595-6.7e-4 0.12548 0.03713 0.15451 0.0841 0.06554 0.10604 0.03597 0.10604-0.12812 0zm-0.88361-0.10676c0.02177-0.03523 0.11419-0.06406 0.20537-0.06406 0.09118 0 0.16578 0.02883 0.16578 0.06406s-0.09242 0.06406-0.20537 0.06406c-0.11295 0-0.18756-0.02883-0.16578-0.06406zm2.8624-0.34164c-0.01409-0.31441-0.12578-0.42412-0.21738-0.21353-0.02554 0.05872-0.02612-0.0085-0.0013-0.14947l0.04514-0.25623-0.18377 0.23488c-0.22108 0.28257-0.38519 0.31249-0.2343 0.0427 0.05912-0.1057 0.13345-0.21189 0.16518-0.23599 0.03173-0.0241 0.07017-0.19705 0.08541-0.38435l0.02772-0.34053 0.19646 0.50576c0.11943 0.30746 0.18366 0.6256 0.16383 0.8114l-0.03263 0.30564zm-2.2777 0.10676c-0.02903-0.04698-0.01208-0.08541 0.03766-0.08541 0.04975 0 0.09045 0.03843 0.09045 0.08541 0 0.04697-0.01695 0.08541-0.03766 0.08541-0.02072 0-0.06142-0.03843-0.09045-0.08541zm-0.21353-0.23279c-0.07046-0.02667-0.15885-0.1005-0.19642-0.16408-0.03757-0.06358-0.11993-0.11559-0.18304-0.11559-0.0631 0-0.13779-0.06009-0.16597-0.13353-0.02868-0.07474-0.09492-0.10654-0.15045-0.07221-0.06357 0.03929-0.07608 0.0239-0.03483-0.04286 0.04893-0.07917 0.09984-0.07209 0.2121 0.02951 0.08124 0.07352 0.17153 0.13368 0.20065 0.13368 0.02911 0 0.15661 0.09609 0.28333 0.21353 0.24094 0.22329 0.24252 0.23023 0.03463 0.15155zm-19.515-0.30365c-0.08853-0.15123-0.22103-0.32178-0.29445-0.379-0.07342-0.05722-0.0914-0.10527-0.03996-0.10676 0.11037-0.0032 0.31277 0.21606 0.45759 0.49571 0.15947 0.30795 0.05813 0.29977-0.12318-0.0099zm-2.0867-0.02584c0.0041-0.0995 0.02434-0.11974 0.0516-0.0516 0.02467 0.06166 0.02164 0.13532-0.0067 0.1637-0.02838 0.02838-0.04857-0.02207-0.04486-0.1121zm0.99375-0.35588c-0.32042-0.32018-0.32075-0.32028-0.9808-0.29882-0.36315 0.01181-0.70458-0.0074-0.75873-0.0427-0.12523-0.08163 1.2316-0.07326 1.4788 0.0091 0.10152 0.03383 0.28604 0.19453 0.41005 0.3571 0.29019 0.38046 0.24939 0.37371-0.14932-0.0247zm19.568-0.12538c0.04555-0.04555 0.15416-0.06769 0.24136-0.04921 0.11742 0.02489 0.09595 0.04637-0.08282 0.08281-0.15586 0.03178-0.21202 0.01987-0.15854-0.03361zm-9.0857-0.19962c-0.15921-0.12755-0.15816-0.12913 0.02638-0.0397 0.1057 0.05122 0.19217 0.11099 0.19217 0.13283 0 0.06536-0.0443 0.04648-0.21855-0.09313zm11.542-0.10205c-0.13236-0.24773-0.44107-0.58753-0.89878-0.98928-0.26588-0.23338-0.31335-0.44825-0.0509-0.23044 0.071 0.05893 0.18923 0.08406 0.26273 0.05586 0.07812-0.02998 0.11158-0.01559 0.08054 0.03463-0.0292 0.04725 0.10022 0.26009 0.28761 0.47297s0.38024 0.50048 0.42856 0.6391c0.1104 0.3167 0.0549 0.32537-0.10977 0.01716zm2.8542 0.15659c0-0.04306 0.02938-0.0911 0.06529-0.10676 0.03591-0.01566 0.13403-0.24969 0.21804-0.52007 0.08401-0.27038 0.25033-0.59708 0.36959-0.72599l0.21684-0.23439-0.16745 0.25623c-0.0921 0.14093-0.19336 0.35232-0.22503 0.46976-0.04682 0.17363 0.01722 0.13373 0.34275-0.21353 0.24558-0.26197 0.32954-0.32291 0.21719-0.15764-0.10072 0.14818-0.18313 0.29231-0.18313 0.32029 0 0.12593 0.24887 0.03251 0.3764-0.1413 0.13922-0.18974 0.13988-0.1898 0.05266-0.0048-0.04859 0.10308-0.12296 0.20881-0.16527 0.23496-0.09185 0.05676-0.01914 0.38902 0.08513 0.38902 0.04002 0 0.0498 0.05987 0.02172 0.13303-0.04124 0.10748-0.06985 0.09518-0.14892-0.06406-0.14858-0.29919-0.41898-0.29182-0.68013 0.01853-0.12368 0.14698-0.22487 0.30272-0.22487 0.3461 0 0.04337-0.03843 0.07886-0.08541 0.07886s-0.08541-0.03523-0.08541-0.07829zm-5.5912-0.0977c0.06-0.09708 0.29574-0.10745 0.29574-0.01301 0 0.03698-0.0777 0.07309-0.17267 0.08024-0.09497 0.0072-0.15035-0.0231-0.12308-0.06723zm-0.38754-0.07457c0-0.03502 0.09609-0.10744 0.21352-0.16096 0.11744-0.05351 0.21323-0.06929 0.21286-0.03506-3.47e-4 0.03422-0.09645 0.10665-0.21353 0.16095-0.11707 0.0543-0.21286 0.07008-0.21286 0.03506zm-0.0841-0.22561c0.0023-0.13924 0.14703-0.31439 0.23267-0.28158 0.0456 0.01747 0.01161 0.10575-0.07553 0.19618-0.08714 0.09043-0.15786 0.12886-0.15714 0.08541zm7.607-1.8797c0.0041-0.0995 0.02434-0.11974 0.0516-0.0516 0.02467 0.06166 0.02164 0.13532-0.0067 0.1637-0.02838 0.02838-0.04857-0.02206-0.04486-0.1121zm-15.151-1.5943c-1.0287-1.0192-1.4785-1.925-1.768-3.5605-0.05352-0.30238-0.19564-0.74382-0.31582-0.98098-0.16085-0.31742-0.17998-0.39922-0.07251-0.31003 0.26042 0.21613 0.45109 0.71024 0.67739 1.7554 0.3103 1.4331 0.72848 2.2442 1.6131 3.1288 0.36958 0.36958 0.65061 0.67196 0.62451 0.67196s-0.3675-0.31709-0.75866-0.70464zm15.061-0.25336c-0.17148-0.26362-0.35304-0.68312-0.31299-0.72317 0.01788-0.01789 0.08117 0.08493 0.14063 0.22847 0.05946 0.14355 0.16467 0.29265 0.2338 0.33134 0.06913 0.03869 0.11213 0.13516 0.09556 0.21438-0.02539 0.12141-0.05006 0.11339-0.157-0.05101zm-3.8556-0.89968c-0.10843-0.13826-0.10441-0.14007 0.0536-0.02417 0.09395 0.06892 0.18684 0.13618 0.20641 0.14947 0.01957 0.01329-0.0045 0.02417-0.0536 0.02417-0.04905 0-0.14194-0.06726-0.20641-0.14947zm-9.5117-0.29894c0.06516-0.40493 0.35577-0.95998 0.63486-1.2125 0.13226-0.11969 0.09999-0.02739-0.11556 0.33056-0.16448 0.27314-0.3243 0.66501-0.35516 0.8708-0.03086 0.2058-0.09356 0.37418-0.13933 0.37418-0.05013 0-0.05999-0.14434-0.02481-0.363zm-0.88498-0.04775c-0.0073-0.16414-0.04833-0.2605-0.09794-0.22984-0.14929 0.09227-0.09163-0.3304 0.08448-0.61922 0.09308-0.15267 0.1913-0.27758 0.21825-0.27758s0.01973 0.04736-0.01605 0.10525c-0.03578 0.05789-0.09006 0.37497-0.12063 0.70464-0.03057 0.32966-0.06122 0.47221-0.06811 0.31676zm12.72 0.01928c0.0041-0.0995 0.02434-0.11974 0.0516-0.0516 0.02467 0.06166 0.02164 0.13532-0.0067 0.1637-0.02838 0.02838-0.04857-0.02207-0.04486-0.1121zm-2.4769-0.09266c-0.0037-0.05488-0.02886-0.17018-0.0559-0.25623-0.04672-0.14872-0.04431-0.1489 0.04875-0.0038 0.05385 0.08398 0.079 0.19928 0.0559 0.25623-0.03032 0.07473-0.04388 0.07578-0.04875 0.0038zm-11.227-1.6086c-0.04082-0.32017-0.03102-0.60297 0.02609-0.75318 0.124-0.32615 0.50504-0.81437 0.72372-0.92729 0.14942-0.07716 0.1415-0.05184-0.04802 0.15356-0.31243 0.33861-0.50181 0.8277-0.57476 1.4844l-0.06167 0.55517zm15.235-0.04251c-0.07698-0.04975-0.08751-0.08332-0.02639-0.0841 0.05595-6.83e-4 0.12548 0.03713 0.15451 0.0841 0.06554 0.10604 0.03597 0.10604-0.12812 0zm-7.2572-0.102c-0.0044-0.23578 0.35894-0.58599 0.62854-0.60582 0.3573-0.02629 0.37219 0.16436 0.01803 0.2308-0.18036 0.03383-0.36589 0.14725-0.47077 0.28779-0.12982 0.17396-0.17378 0.19577-0.17581 0.08724zm7.873-0.0175c0.06057-0.06573 0.12359-0.10672 0.14004-0.09109 0.05066 0.04812-0.07773 0.21059-0.16643 0.21059-0.04605 0-0.03418-0.05378 0.02639-0.1195zm-0.45355-0.25459c0.06504-0.07838 0.13706-0.12371 0.16003-0.10074s0.10974 0.0054 0.19282-0.03908c0.1054-0.05641 0.16361-0.04812 0.19259 0.02741 0.02292 0.05973-0.0211 0.10948-0.09822 0.111-0.07687 0.0015-0.23555 0.03451-0.35262 0.07333-0.19201 0.06367-0.20128 0.05663-0.09459-0.07192zm-25.358-0.11193c-0.30401-0.05083-1.2982-0.37953-1.2608-0.41687 0.01717-0.01717 0.27906 0.04604 0.58198 0.14047 0.79521 0.24791 1.9431 0.30235 2.6853 0.12737 0.73871-0.17414 1.635-0.61641 2.3803-1.1746 0.61966-0.46406 0.75444-0.6809 0.24675-0.397-0.30799 0.17223-0.30435 0.165 0.0947-0.18828 0.46576-0.41234 0.71172-0.89934 0.83439-1.6521 0.08796-0.53976-0.03972-1.4643-0.18943-1.3718-0.04428 0.02737-0.0584 0.08554-0.03137 0.12927 0.02703 0.04373 0.01271 0.07951-0.03181 0.07951s-0.10618-0.13452-0.13703-0.29894c-0.0662-0.3529-0.15518-0.37919-0.28903-0.08541-0.14476 0.31772-0.23788 0.25861-0.20104-0.12764 0.02009-0.21062 0.0669-0.31993 0.12235-0.28566 0.05987 0.037 0.07146-0.04146 0.03475-0.23535-0.03478-0.18372-0.17079-0.39312-0.3692-0.56845-0.31734-0.28042-0.52145-0.3673-0.40128-0.17082 0.03591 0.05872-0.05973 2e-3 -0.21254-0.12601-0.5204-0.436-1.6549-0.62246-2.4102-0.39614-0.40466 0.12124-0.42676 0.37056-0.04116 0.46426 0.244 0.05929 0.23375 0.06648-0.16711 0.11715-0.46404 0.05866-0.71551 0.16976-0.90383 0.39929-0.11032 0.13447-0.1021 0.14208 0.09243 0.08562 0.11744-0.03408 0.36726-0.07813 0.55517-0.09787l0.34164-0.0359-0.36551 0.07904c-0.20103 0.04347-0.47968 0.16033-0.61922 0.2597-0.21184 0.15084-0.25382 0.23962-0.25436 0.53784-0.0012 0.68371-0.1728 1.4092-0.52131 2.2045-0.1929 0.44021-0.41155 0.84842-0.48588 0.90714s-0.35304 0.10676-0.61936 0.10676c-0.37565 0-0.55477-0.04787-0.79887-0.21353-0.17306-0.11744-0.40477-0.21353-0.51492-0.21353s-0.29101-0.07904-0.40191-0.17564c-0.18968-0.16523-0.19058-0.1703-0.01508-0.08541 0.10261 0.04963 0.30847 0.09023 0.45746 0.09023 0.18555 0 0.32262 0.06574 0.43503 0.20865 0.17661 0.22453 0.76542 0.36696 1.0905 0.26379 0.32436-0.10295 0.18728-0.2161-0.26915-0.22215l-0.4484-0.0059 0.39412-0.12138c0.39195-0.12071 0.39532-0.12503 0.6125-0.7841 0.28013-0.85014 0.48806-1.9541 0.48806-2.5912 0-0.40966 0.02322-0.49144 0.12812-0.45118 0.14695 0.05639 0.18579-0.26503 0.04271-0.35346-0.04698-0.02903-0.08541-0.09491-0.08541-0.14639 0-0.05148 0.07029-0.03 0.15619 0.04775 0.22289 0.20171 0.29726 0.17532 0.247-0.08765-0.04101-0.21454 0.0058-0.39847 0.21819-0.85706 0.06211-0.1341 0.05891-0.22389-0.01094-0.30806-0.11467-0.13817-0.04408-0.6144 0.12851-0.8669 0.06334-0.09266 0.11516-0.12375 0.11516-0.0691 0 0.05466-0.04336 0.12617-0.09634 0.15892-0.06432 0.03975-0.07851 0.23015-0.0427 0.5728 0.02951 0.28229 0.02022 0.55563-0.02063 0.60743-0.04086 0.05179-0.10086 0.24157-0.13336 0.42173-0.05178 0.28713-0.03998 0.32364 0.09563 0.29584 0.0872-0.01788 0.1444-0.09277 0.13108-0.17165-0.01299-0.07696 0.01584-0.16432 0.06406-0.19412 0.04822-0.0298 0.08826-0.1384 0.08898-0.24132 9.67e-4 -0.13976 0.02018-0.15733 0.07586-0.06943 0.10149 0.16023 0.23179 0.0624 0.40607-0.30488 0.11603-0.24452 0.15692-0.27741 0.19827-0.15951 0.04617 0.13163 0.08325 0.12119 0.32587-0.0917 0.15057-0.13213 0.27377-0.28337 0.27377-0.33609 0-0.05272 0.07687-0.16542 0.17082-0.25045 0.09395-0.08503 0.17082-0.20431 0.17082-0.26507 0-0.06076 0.0977-0.2159 0.21712-0.34475 0.16144-0.1742 0.20142-0.19176 0.15591-0.06846-0.03366 0.0912-0.11215 0.19655-0.17441 0.23412-0.06226 0.03757-0.1132 0.14052-0.1132 0.22878 0 0.08826-0.05765 0.21813-0.12812 0.28859-0.18306 0.18306-0.16007 0.39655 0.04271 0.39655 0.1529 0 0.18733-0.04744 0.16353-0.22533-4e-3 -0.02998 0.0281-0.07802 0.07136-0.10676 0.04326-0.02874 0.12224-0.12912 0.17552-0.22308 0.07246-0.12777 0.09752-0.13727 0.09946-0.03768 0.0014 0.07323-0.05383 0.20775-0.1228 0.29894-0.18316 0.24216-0.16445 0.40803 0.03999 0.35457 0.11102-0.02903 0.17082-0.0026 0.17082 0.07545 0 0.20715 0.15018 0.13354 0.58263-0.28558 0.23023-0.22314 0.4912-0.45017 0.57992-0.50451 0.08872-0.05435 0.14953-0.14733 0.13514-0.20663-0.03199-0.13178 0.22119 0.05248 0.39778 0.28948 0.1562 0.20965 0.50154 0.34185 0.88819 0.34001 0.17616-8.43e-4 0.32029 0.03663 0.32029 0.08327 0 0.0492-0.12547 0.06443-0.29894 0.03628-0.16442-0.02668-0.29894-0.01712-0.29894 0.02124 0 0.07257 0.59936 0.5828 0.89681 0.76344 0.16447 0.09989 0.16381 0.10183-0.01793 0.05229-0.17512-0.04774-0.16704-0.01565 0.11199 0.44433 0.16541 0.27268 0.33682 0.48617 0.38093 0.47443 0.04713-0.01255 0.08019 0.46417 0.08019 1.1564 0 1.8751-0.30093 2.71-1.3644 3.7853-0.75341 0.76176-1.6428 1.2423-2.8207 1.5241-0.67478 0.16142-1.7198 0.21394-2.3061 0.1159zm6.2716-5.0177c0.06629-0.11255 0.06459-0.16524-0.0062-0.19118-0.05373-0.0197-0.07651-0.11686-0.0506-0.2159 0.03408-0.13032 0.01733-0.16168-0.06063-0.1135-0.05925 0.03662-0.04088-0.03544 0.04082-0.16013 0.1676-0.25578 0.1133-0.38854-0.08993-0.21987-0.10787 0.08952-0.1041 0.05822 0.01929-0.16028 0.13303-0.23556 0.1367-0.28202 0.0277-0.35067-0.0691-0.04353-0.09946-0.10532-0.06746-0.13732 0.0643-0.0643-0.14064-0.51038-0.33802-0.73577-0.0694-0.07925-0.09726-0.19088-0.06191-0.24808 0.03996-0.06466 0.0286-0.08194-0.03005-0.0457-0.05188 0.03206-0.13661-0.02073-0.1883-0.11731-0.05169-0.09658-0.13049-0.15304-0.17511-0.12547-0.04462 0.02758-0.08113-0.0031-0.08113-0.06813 0-0.06505-0.09609-0.20854-0.21352-0.31887-0.19207-0.18044-0.21353-0.18475-0.21353-0.04295 0 0.10095-0.09591 0.01285-0.26669-0.24498-0.14668-0.22144-0.29081-0.39015-0.32029-0.3749-0.02948 0.01525-0.1593 0.08071-0.28848 0.14546-0.12918 0.06475-0.23488 0.16199-0.23488 0.21608 0 0.10987-0.45608 0.47211-0.59442 0.47211-0.04888 0-0.08887 0.05765-0.08887 0.12812 0 0.14922 0.0786 0.15895 0.3747 0.04637 0.1742-0.06623 0.20594-0.05812 0.16724 0.04271-0.05755 0.14996 0.0058 0.15661 0.25372 0.02661 0.18067-0.09475 0.18184-0.09252 0.03709 0.07078-0.20126 0.22704-0.18854 0.28329 0.06406 0.28329 0.11744 0 0.20897 0.02883 0.20341 0.06406-0.02612 0.16542 0.02501 0.19052 0.20229 0.09931 0.15859-0.08159 0.17352-0.07913 0.08541 0.01408-0.12739 0.13477-0.14256 0.28181-0.02135 0.2069 0.04698-0.02903 0.08541 0.0061 0.08541 0.07818 0 0.13736 0.41138 0.39158 0.63366 0.39158 0.08586 0 0.11125 0.04802 0.07514 0.14213-0.03642 0.09492-0.02167 0.12182 0.04441 0.08098 0.06612-0.04086 0.08082-0.01391 0.0443 0.08125-0.0452 0.11778-0.0193 0.13119 0.14978 0.07753 0.18205-0.05778 0.19176-0.04962 0.08871 0.07454-0.09849 0.11868-0.09529 0.14726 0.02153 0.19209 0.07548 0.02897 0.11598 0.08707 0.08999 0.12913-0.02599 0.04205 0.02001 0.07646 0.10222 0.07646 0.13476 0 0.13315 0.01202-0.01631 0.12202-0.15086 0.11102-0.15282 0.12705-0.02172 0.17789 0.07968 0.0309 0.12332 0.10997 0.09763 0.17692-0.02555 0.06658-0.0084 0.12105 0.03814 0.12105 0.04652 0 0.10575 0.08092 0.13161 0.17982 0.0535 0.20458 0.21595 0.1831 0.35114-0.04642zm-2.6837-3.1032c3.47e-4 -0.03422 0.09645-0.10665 0.21352-0.16095 0.11707-0.0543 0.21286-0.07008 0.21286-0.03506s-0.09609 0.10744-0.21352 0.16095c-0.11744 0.05351-0.21323 0.06929-0.21286 0.03506zm14.141 7.5592c0.07576-0.22233 0.15238-0.40424 0.17028-0.40424 0.07637 0-0.08075 0.56625-0.18919 0.68183-0.09287 0.09898-0.08874 0.03833 0.01891-0.27758zm3.0998 0.15008c-0.12361-0.06717-0.24941-0.18637-0.27954-0.26489-0.0412-0.10736-0.02782-0.12126 0.05393-0.05603 0.05979 0.04771 0.24151 0.08197 0.4038 0.07614 0.23541-0.0085 0.30858-0.05378 0.36184-0.22413 0.05465-0.17483 0.05961-0.16322 0.02734 0.06406-0.04594 0.32357 0.05035 0.35779 0.24036 0.08541l0.13405-0.19217 0.0045 0.2178c0.0025 0.11979-0.04164 0.26392-0.09801 0.32029-0.13752 0.13752-0.57136 0.12398-0.84825-0.02646zm-20.668-0.0437c-0.63956-0.0602-1.5875-0.31924-2.0573-0.56218-0.40553-0.20971-0.26549-0.20695 0.30003 0.0059 1.3699 0.51563 3.2274 0.6209 4.5297 0.25671 0.14502-0.04056 0.15682-0.03267 0.05579 0.03731-0.32825 0.22737-1.7743 0.36146-2.8282 0.26225zm22.558-0.31538c0.07046-0.02613 0.20498-0.08287 0.29894-0.12608 0.16809-0.07732 0.16817-0.07646 5e-3 0.05425-0.09119 0.07306-0.22571 0.12979-0.29894 0.12608-0.11501-0.0058-0.1157-0.01321-5e-3 -0.05425zm-21.694-0.21523c0-0.11726-0.08648-0.32408-0.19217-0.4596l-0.19217-0.2464 0.24295 0.18946c0.13362 0.1042 0.46993 0.23412 0.74734 0.2887 0.27741 0.05458 0.50439 0.1326 0.50439 0.17339 0 0.04078 0.24022 0.05509 0.53382 0.03178 0.44131-0.03503 0.49681-0.02581 0.32029 0.05321-0.11744 0.05257-0.60748 0.11518-1.089 0.13912l-0.87546 0.04353zm19.944 0.0186c0.02951-0.04774 0.08943-0.06469 0.13316-0.03766 0.11847 0.07322 0.09638 0.12447-0.05365 0.12447-0.07324 0-0.10901-0.03906-0.07951-0.0868zm2.6896-0.0782c0-0.05017 0.03843-0.09123 0.08541-0.09123s0.086-0.06726 0.08672-0.14947c1e-3 -0.11644 0.01754-0.12386 0.07473-0.03359 0.05119 0.08078 0.09112 0.08725 0.13185 0.02135 0.03213-0.05199 0.14263-0.09007 0.24556-0.08462 0.1737 0.0092 0.17487 0.01298 0.01631 0.05268-0.09395 0.02352-0.27652 0.11777-0.4057 0.20944-0.12918 0.09167-0.23488 0.12561-0.23488 0.07544zm-1.1475-0.1516c-0.04635-0.12173-0.03654-0.13154 0.04781-0.04781 0.05837 0.05794 0.08461 0.12686 0.05832 0.15315-0.0263 0.0263-0.07406-0.02111-0.10613-0.10534zm0.26496-0.14691c-0.02572-0.06703 0.01821-0.17087 0.09762-0.23076 0.11907-0.0898 0.12684-0.08906 0.0443 0.0042-0.05505 0.06218-0.07976 0.16602-0.05492 0.23076s0.02595 0.11771 0.0025 0.11771c-0.02349 0-0.06375-0.05484-0.08947-0.12187zm0.33235-0.12639c-0.02632-0.04259 0.02906-0.05733 0.12307-0.03274 0.19943 0.05215 0.22464 0.11019 0.04787 0.11019-0.06769 0-0.14461-0.03485-0.17094-0.07744zm-0.68724-0.23201c-0.08074-0.12322-0.1084-0.20031-0.06148-0.17131 0.12852 0.07943 0.18991-0.16458 0.07519-0.29888-0.08114-0.09499-0.07779-0.0981 0.0177-0.01646 0.09346 0.07991 0.21338 0.71069 0.1351 0.71069-0.01085 0-0.08578-0.10082-0.16652-0.22404zm-0.36183-0.03219c-0.0071-0.09395 0.02318-0.17082 0.06723-0.17082 0.04406 0 0.0801 0.07687 0.0801 0.17082 0 0.09395-0.03026 0.17082-0.06724 0.17082s-0.07302-0.07687-0.0801-0.17082zm1.2468-0.14947c-0.10624-0.13547-0.10322-0.13849 0.03225-0.03225 0.08221 0.06447 0.14947 0.13173 0.14947 0.14947 0 0.0703-0.07014 0.02505-0.18172-0.11722zm-1.309-0.32626c0.01248-0.28498 0.12415-0.37377 0.12415-0.09871 0 0.1225-0.02997 0.24124-0.06659 0.26388-0.03663 0.02264-0.06253-0.05169-0.05756-0.16516zm-7.8404-0.17871c0.05872-0.02369 0.15481-0.02369 0.21353 0s0.01068 0.04308-0.10676 0.04308c-0.11744 0-0.16548-0.01939-0.10676-0.04308zm0.63923-0.19596c0.236-0.21366 0.29353-0.23338 0.37376-0.12812 0.12131 0.15916 0.31898 0.15773 0.63287-0.0046 0.30551-0.15799 0.4811-0.44728 0.35064-0.57774-0.06376-0.06376-0.1061-0.04993-0.1432 0.04675-0.02897 0.0755-0.15273 0.20283-0.27502 0.28296l-0.22234 0.14568 0.18681-0.23749c0.26315-0.33454 0.23402-0.70933-0.1058-1.3613-0.32244-0.6186-0.34112-0.73505-0.03969-0.24732 0.10675 0.17273 0.20822 0.27169 0.22548 0.21991 0.04972-0.14917-0.27117-0.71172-0.65312-1.1449-0.19272-0.2186-0.35041-0.47577-0.35041-0.57148 0-0.1761-0.14297-0.32584-0.22898-0.23983-0.02574 0.02574-0.05256 0.16146-0.05961 0.3016-0.01184 0.23533-0.13847 0.49773-0.13847 0.28692 0-0.05145-0.06726-0.1614-0.14947-0.24434-0.13334-0.13452-0.13411-0.14498-0.0071-0.0969 0.20437 0.07734 0.27298-0.17417 0.1138-0.41712-0.07261-0.11082-0.16957-0.20149-0.21546-0.20149-0.04589 0-0.08344-0.03843-0.08344-0.08541s0.05765-0.08541 0.12812-0.08541c0.15154 0 0.15778-0.04121 0.0397-0.26185-0.09842-0.18389-0.33719-0.22479-0.34124-0.05844-0.0014 0.05872-0.04516 0.02989-0.09717-0.06406-0.05202-0.09395-0.20459-0.27435-0.33904-0.40088s-0.24447-0.27034-0.24447-0.31956c0-0.04923-0.07303-0.13511-0.1623-0.19086-0.08926-0.05575-0.14517-0.146-0.12423-0.20057 0.02094-0.05457-0.02133-0.14851-0.09393-0.20876-0.0726-0.06025-0.132-0.1571-0.132-0.21521 0-0.05811-0.1119-0.33206-0.24868-0.60877-0.25504-0.51597-0.35903-0.78195-0.3255-0.83252 0.01046-0.01577-0.03806-0.09745-0.10781-0.1815-0.06976-0.08405-0.1296-0.19565-0.133-0.24801-0.01187-0.18315-0.15136-0.43878-0.36655-0.67171-0.12686-0.13733-0.17108-0.23488-0.10646-0.23488 0.06143 0 0.08943-0.05498 0.06303-0.12377-0.03174-0.08272-0.0064-0.10802 0.07627-0.07627 0.06807 0.02612 0.12376 0.11798 0.12376 0.20414 0 0.3176 0.17096 0.25833 0.18205-0.06311 0.0076-0.21967 0.0329-0.13934 0.07798 0.24732 0.03671 0.31496 0.0911 0.61204 0.12085 0.66018 0.10132 0.16393 0.38717-0.10651 0.39945-0.37792 0.01027-0.22685 0.01624-0.23251 0.05083-0.04817 0.02156 0.11488-0.0074 0.42836-0.06431 0.69662-0.10094 0.47567-0.09646 0.50223 0.18102 1.0723l0.28453 0.58454 0.05044-0.46976c0.02774-0.25837 0.12158-0.66193 0.20854-0.89681 0.08696-0.23488 0.1854-0.60001 0.21876-0.8114l0.06065-0.38435 0.01141 0.48211c0.0067 0.28446-0.06363 0.72216-0.17164 1.0676-0.20255 0.6479-0.24055 1.2637-0.08742 1.4168 0.07592 0.07592 0.09964 0.05405 0.09964-0.09186 0-0.10533 0.03975-0.23793 0.08832-0.29467 0.04858-0.05674 0.14678-0.18003 0.21824-0.27398 0.12676-0.16668 0.12773-0.16629 0.03979 0.01573-0.13165 0.27252-0.11016 0.82752 0.04727 1.221 0.07556 0.18885 0.16204 0.34337 0.19217 0.34337 0.03013 0 0.05478-0.26904 0.05478-0.59787 0-0.57519-0.06671-0.76205-0.16009-0.4484-0.02448 0.08221-0.02344-0.01669 0.0023-0.21976 0.08046-0.63481 0.3282-1.2133 0.59495-1.3891 0.3168-0.20885 0.5437-0.21923 0.30427-0.01392-0.27822 0.23857-0.61331 0.79572-0.61331 1.0197 0 0.25914 0.11408 0.47833 0.86921 1.67 1.2797 2.0195 1.3805 2.2468 1.5225 3.4317 0.07434 0.62043 0.06604 0.70087-0.10009 0.96967-0.25143 0.40682-0.6294 0.61645-1.1122 0.61684-0.22036 1.71e-4 -0.42441 0.03875-0.45345 0.08573-0.02903 0.04698-0.08956 0.08541-0.1345 0.08541-0.04494 0 0.0438-0.11364 0.19721-0.25253zm-0.16848-4.0393c0.02234-0.05872 0.0068-0.19763-0.03442-0.30869-0.05933-0.15963-0.09974-0.18142-0.19298-0.10404-0.09297 0.07716-0.09731 0.14236-0.0205 0.30802 0.10798 0.23286 0.18652 0.26604 0.2479 0.10471zm6.7678 4.0356c-0.08767-0.09687-0.11189-0.17082-0.05594-0.17082 0.05426 0 0.09865-0.09382 0.09865-0.20848 0-0.11467 0.03786-0.23188 0.08412-0.26048 0.07583-0.04687 0.02749 0.45213-0.05295 0.54651-0.01633 0.01917 0.01311 0.08643 0.06543 0.14947 0.1502 0.18098 0.03228 0.13341-0.13931-0.0562zm1.0954 0.03099c-0.11637-0.04748 0.07351-0.58475 0.28262-0.79968 0.10076-0.10356 0.09807-0.06424-0.01404 0.20515-0.07628 0.1833-0.12011 0.4043-0.09741 0.49111 0.0417 0.15947 0.01127 0.17786-0.17117 0.10342zm-8.4478-0.2825c-0.74032-0.3384-1.4799-0.82696-1.8425-1.2171-0.3072-0.33056-0.31786-0.33444-0.6632-0.24145-0.41366 0.11139-0.95454 0.03723-0.89326-0.12247 0.02359-0.06147-0.07118-0.15408-0.22126-0.21625-0.14438-0.05981-0.28514-0.14534-0.31279-0.19008-0.02765-0.04474 0.05965-0.02591 0.19401 0.04184 0.32248 0.16262 0.71404 0.25362 0.71404 0.16594 0-0.03843-0.12791-0.11614-0.28425-0.17267-0.334-0.12078-0.61184-0.4008-0.69476-0.70022-0.04996-0.18041-0.03174-0.17035 0.11752 0.06484 0.20413 0.32166 0.64735 0.61766 0.92555 0.61812 0.16859 2.73e-4 0.29328-0.1675 0.12812-0.1724-0.03523-1e-3 -0.16014-0.08023-0.27758-0.17596l-0.21353-0.17406 0.28552 0.13956c0.15704 0.07675 0.29771 0.12711 0.3126 0.1119 0.01489-0.01521-0.16135-0.411-0.39165-0.87955-0.6184-1.2581-1.1032-2.8972-1.1033-3.7299-2.7e-5 -0.41416-0.33578-1.3198-0.60702-1.6374-0.14736-0.17252-0.39979-0.39516-0.56094-0.49476-0.16116-0.0996-0.27379-0.20031-0.2503-0.2238 0.06948-0.06948 0.62528 0.30761 0.85397 0.57939 0.24414 0.29015 0.30542 0.31001 0.3148 0.10203 4e-3 -0.08929 0.02409-0.10648 0.04982-0.0427 0.11081 0.27461 0.16618 0.05813 0.09737-0.38067-0.16455-1.0493-1.0378-1.825-1.9077-1.6946-0.42444 0.06365-1.0389 0.48894-1.0903 0.75472-0.02012 0.10386-0.04059 0.03509-0.04549-0.15281-0.0049-0.1879 0.03879-0.39929 0.0971-0.46976 0.22344-0.27002 0.88295-0.59787 1.2027-0.59787 0.11511 0 0.27459-0.02506 0.35441-0.05569 0.12648-0.04853 0.11914-0.07124-0.05707-0.17672-0.12141-0.07267-0.13949-0.10154-0.04526-0.07224 0.37458 0.11645 0.82528 0.152 0.82528 0.06509 0-0.04981-0.07977-0.11589-0.17726-0.14683-0.09749-0.03094-0.1566-0.07691-0.13136-0.10215 0.05352-0.05352 0.84557 0.44034 0.99502 0.62041 0.05591 0.06737 0.1376 0.10027 0.18153 0.07312 0.04628-0.0286 0.03323-0.10695-0.03103-0.18628-0.0936-0.11554-0.09092-0.1257 0.0172-0.0651 0.07046 0.03949 0.21459 0.14966 0.32029 0.24481 0.28001 0.25208 0.23501 0.06499-0.079-0.32842l-0.27117-0.33975 0.35104 0.33221c0.19307 0.18271 0.43995 0.4998 0.54861 0.70464 0.10867 0.20484 0.22906 0.37243 0.26753 0.37243 0.09372 0-6e-3 -0.31732-0.213-0.67774-0.10849-0.18891-0.12391-0.25639-0.0433-0.18948 0.20855 0.17308 0.46367 0.88052 0.50381 1.397 0.02082 0.2679 6e-3 0.46741-0.0329 0.44336-0.03891-0.02405-0.07075-0.09898-0.07075-0.16651 0-0.1746-1.0496-1.2337-1.2226-1.2337-0.07919 0-0.14398-0.03395-0.14398-0.07545 0-0.16764-1.1368-0.34531-1.2312-0.19244-0.05588 0.09042 0.22848 0.31863 0.45958 0.36882 0.06883 0.01495 0.19246 0.10405 0.27474 0.198 0.08228 0.09395 0.15088 0.14328 0.15245 0.10961 0.0016-0.03367 0.14338 0.07933 0.31514 0.25109 0.25859 0.25859 0.31011 0.36827 0.29955 0.63773-0.01213 0.30968 0.10025 0.44615 0.18007 0.21866 0.0206-0.05872 0.03822-0.0011 0.03915 0.12812 9.33e-4 0.12918-0.02951 0.23488-0.06764 0.23488s-0.08592 0.1057-0.10621 0.23488c-0.02029 0.12918-0.0261 0.08867-0.01292-0.09003 0.01602-0.21722-0.0089-0.314-0.07529-0.292-0.0547 0.01813-0.10855 0.23317-0.11995 0.47901-0.0129 0.27818 0.01121 0.42639 0.06406 0.39373 0.04662-0.02881 0.08475 0.01165 0.08475 0.08991 0 0.09139 0.04583 0.12471 0.12812 0.09313 0.08632-0.03312 0.12812 0.0041 0.12812 0.11394 0 0.21174-0.13815 0.29611-0.20397 0.12457-0.0725-0.18895-0.22308-0.06626-0.22308 0.18177 0 0.20932 0.16318 0.30177 0.17956 0.10172 0.0048-0.05872 0.04039 0.02776 0.07906 0.19217 0.05307 0.22562 0.04045 0.31569-0.05145 0.36724-0.16643 0.09336-0.1684 0.69386-0.0021 0.63003 0.07232-0.02775 0.13766 0.02275 0.16507 0.12757 0.02495 0.09543 0.08457 0.14928 0.13248 0.11967 0.04791-0.02961 0.14504 0.053 0.21586 0.18358 0.10888 0.20078 0.1298 0.21105 0.13551 0.06659 5e-3 -0.12647 0.03809-0.09875 0.12741 0.10676 0.06636 0.15267 0.16321 0.27758 0.21522 0.27758 0.05202 0 0.07562-0.03066 0.05246-0.06814-0.02316-0.03747-0.0068-0.12395 0.03636-0.19217 0.06177-0.09764 0.07874-0.08463 0.07977 0.06115 0.0017 0.24358 0.08603 0.45539 0.18127 0.45539 0.04195 0 0.07627-0.09382 0.07627-0.20848 0-0.11467 0.03676-0.2312 0.08168-0.25897 0.04492-0.02777 0.06275-0.0998 0.03962-0.16008-0.02313-0.06028-0.0048-0.20318 0.04069-0.31755 0.06541-0.16439 0.07335-0.12744 0.03792 0.1764-0.02465 0.21139-0.05089 0.52519-0.05831 0.69734-0.0128 0.29699-0.13859 0.57636-0.1443 0.32047-0.0029-0.13-0.69988-0.59076-0.89363-0.59076-0.0644 0-0.14215-0.07899-0.17279-0.17552-0.06859-0.21611-0.24534-0.17362-0.281 0.06755-0.0279 0.18871 0.29788 0.55836 0.448 0.50832 0.13556-0.04519 0.31544 0.36351 0.22842 0.519-0.06322 0.11298-0.08363 0.10512-0.13328-0.05134-0.08419-0.26524-0.23427-0.22803-0.20226 0.05015 0.01486 0.12918 0.07392 0.22565 0.13124 0.21438 0.05732-0.01128 0.14572 0.05706 0.19646 0.15186 0.05073 0.0948 0.12598 0.15151 0.16722 0.12603 0.04124-0.02549 0.10043 0.03387 0.13155 0.1319 0.03374 0.1063 0.10464 0.15979 0.17567 0.13254 0.17283-0.06632 0.30091 0.23261 0.31221 0.72871 0.0073 0.31859 0.0508 0.45754 0.1659 0.52942 0.08583 0.0536 0.15606 0.14587 0.15606 0.20503 0 0.05916 0.02883 0.10698 0.06406 0.10626 0.16341-0.0033 0.25231-0.15156 0.25533-0.42574 0.0094-0.84942 0.04081-1.5473 0.06844-1.5197 0.01711 0.01712 0.06672 0.25814 0.11023 0.53561 0.06217 0.39642 0.05389 0.52972-0.03865 0.62226-0.22126 0.22126-0.08401 0.57442 0.188 0.48372 0.0902-0.03008 0.04869 0.02004-0.09224 0.11138-0.45041 0.29192-0.50024 0.39899-0.33575 0.72143 0.26799 0.52533 1.1259 1.1067 2.0013 1.3561 0.45301 0.12907 0.58012 0.21916 0.46549 0.32994-0.04969 0.04802-0.28253-0.01365-0.60073-0.1591zm-2.5992-3.1009c-2e-3 -0.29495-0.13845-0.47092-0.26613-0.34324-0.07942 0.07942-0.08068 0.15433-0.0054 0.31958 0.12195 0.26765 0.27327 0.28084 0.27152 0.02367zm-0.42574-0.40066c0-0.16757-0.14441-0.31615-0.22701-0.23356-0.06707 0.06707 0.05553 0.39934 0.14735 0.39934 0.04381 0 0.07965-0.0746 0.07965-0.16578zm9.8725 3.5253c0.08062-0.34141 0.18484-0.42807 0.13897-0.11556-0.02098 0.14298-0.0737 0.28193-0.11714 0.30878-0.04608 0.02848-0.05517-0.05203-0.02183-0.19322zm1.0202 0.11942c-0.06821-0.15834 0.08453-0.62516 0.23495-0.71813 0.04981-0.03079 0.06159-0.01217 0.02735 0.04323-0.03307 0.05351-0.09099 0.26123-0.1287 0.4616-0.05164 0.2744-0.08461 0.32704-0.13361 0.2133zm-25.084-0.46211c-0.82876-1.1935-0.79823-1.1209-0.79891-1.8981-5.46e-4 -0.63723-0.01969-0.72504-0.17082-0.78404-0.14449-0.05641-0.14762-0.06735-0.02073-0.07245 0.19014-0.0076 0.18765-0.06571-0.02135-0.4983-0.09395-0.19446-0.16932-0.42268-0.16748-0.50715 2e-3 -0.09334 0.05067-0.0447 0.12399 0.12399 0.06636 0.15267 0.13876 0.27758 0.16089 0.27758 0.02213 0 0.02537-0.29787 0.0072-0.66193-0.02136-0.42793-9e-3 -0.57135 0.03494-0.4057l0.06797 0.25623 0.08234-0.29313c0.08936-0.31813 0.28738-0.45864 0.28904-0.2051 5.96e-4 0.09374 0.08901 0.0023 0.22024-0.22776 0.12057-0.21139 0.28345-0.45701 0.36196-0.54582 0.23846-0.26973 1.295-1.1624 1.3758-1.1624 0.0994 0 0.06306 0.2327-0.05474 0.3505-0.06281 0.06281-0.06663 0.18637-0.01188 0.38463 0.091 0.32958 0.01106 0.56855-0.1149 0.34347-0.1202-0.21479-0.26515-0.16558-0.21926 0.07444 0.02245 0.11744 0.0057 0.21353-0.03719 0.21353-0.04291 0-0.1182 0.1153-0.16733 0.25623-0.04913 0.14093-0.14186 0.25623-0.20608 0.25623-0.1383 0-0.29359 0.26257-0.29359 0.49643 0 0.09131-0.07691 0.21875-0.17092 0.2832-0.09677 0.06634-0.18338 0.23776-0.19963 0.3951-0.01579 0.15286-0.05418 0.30339-0.08531 0.33452-0.03113 0.03113-0.0566 0.14628-0.0566 0.2559 0 0.11-0.05147 0.19929-0.11488 0.19929-0.2209 0-0.38515 0.3031-0.44318 0.81784-0.06562 0.58205 0.03041 0.83873 0.66314 1.7724 0.1855 0.27373 0.31832 0.51665 0.29515 0.53982-0.02317 0.02317-0.17074-0.14309-0.32794-0.36946zm-0.5038 0.09591c-0.11278-0.12005-0.14748-0.19618-0.07711-0.16917 0.1112 0.04267 0.38768 0.38744 0.3107 0.38744-0.0157 0-0.12081-0.09822-0.23359-0.21827zm18.837-0.03796c0.02903-0.04698 0.09122-0.08541 0.1382-0.08541 0.04698 0 0.06166 0.03843 0.03262 0.08541-0.02903 0.04698-0.09122 0.08541-0.1382 0.08541-0.04698 0-0.06166-0.03843-0.03263-0.08541zm-1.1792-0.31129c0.03303-0.08607-0.0094-0.18974-0.10944-0.26772-0.1595-0.12426-0.15932-0.12575 0.0075-0.06337 0.09395 0.03514 0.23362 0.08206 0.31037 0.10427 0.19004 0.05499 0.1015 0.36729-0.10412 0.36729-0.1117 0-0.14234-0.04128-0.10428-0.14047zm-0.35181-0.02001c-0.02646-0.04282 0.0093-0.09989 0.07951-0.12683 0.07019-0.02694 0.12762-0.01401 0.12762 0.02872 0 0.11578-0.15178 0.18767-0.20713 0.09811zm-16.619-0.17203c0-0.04195 0.05765-0.0984 0.12812-0.12544 0.08499-0.03261 0.12812-0.16677 0.12812-0.39852 0-0.21116 0.03379-0.32848 0.08541-0.29658 0.14498 0.0896 0.09681 0.60379-0.07078 0.75546-0.17357 0.15708-0.27086 0.18046-0.27086 0.06508zm0.95502-0.32327c0.0498-0.17954 0.07168-0.6147 0.04861-0.96702-0.02349-0.35873-0.01299-0.54663 0.02387-0.42705 0.12198 0.39575 0.09445 1.5068-0.04009 1.6185-0.10572 0.08774-0.11025 0.05632-0.03238-0.22442zm15.506 0.21813c0.05794-0.05837 0.12686-0.08461 0.15315-0.05832 0.0263 0.0263-0.02111 0.07406-0.10534 0.10613-0.12173 0.04635-0.13154 0.03654-0.04781-0.04781zm-16.685-0.19794c-0.06466-0.1685-0.0088-0.39935 0.09531-0.39385 0.04698 0.0025 0.08541 0.11982 0.08541 0.26074 0 0.26896-0.10026 0.3428-0.18072 0.1331zm16.001-1.6064c-0.02336-0.15267-0.0097-0.33524 0.03041-0.4057 0.05199-0.09139 0.07363-0.04999 0.07548 0.14443 0.0031 0.32583 0.12565 0.42968 0.26003 0.22036 0.0916-0.14268 0.09432-0.14239 0.04796 0.0052-0.02703 0.08605-0.04915 0.19174-0.04915 0.23488 0 0.04313-0.07251 0.07842-0.16113 0.07842-0.11613 0-0.17299-0.07752-0.2036-0.27758zm-0.92717 0.12812c-0.04644-0.27712-0.01792-1.5359 0.03363-1.4844 0.03608 0.03599 0.07072 0.3428 0.07698 0.6818 0.0063 0.339 0.04463 0.63691 0.08526 0.66202 0.08755 0.05411 0.01048 0.20468-0.10477 0.20468-0.0442 0-0.0852-0.02883-0.0911-0.06406zm-1.3667-0.59787c-0.10624-0.13547-0.10322-0.13849 0.03225-0.03225 0.14227 0.11158 0.18752 0.18172 0.11722 0.18172-0.01774 0-0.085-0.06726-0.14947-0.14947zm9.3206 0.07547c0-0.16585 0.35604-0.36997 0.69801-0.40016l0.36962-0.03264-0.32123 0.06929c-0.43165 0.09311-0.49928 0.18081-0.14141 0.18338 0.1605 0.0011 0.46019 0.04091 0.66598 0.08835 0.5318 0.1226 0.9069-0.01756 1.1184-0.41789 0.09954-0.18842 0.16692-0.2536 0.16919-0.16366 0.0027 0.10682 0.07385 0.14947 0.24933 0.14947 0.436 0 0.76932 0.09762 0.72528 0.2124-0.06262 0.16319 0.28985 0.21664 0.87924 0.13333 0.66096-0.09343 1.3101-0.37268 1.3101-0.5636 0-0.07998-0.04665-0.12298-0.10676-0.09841-0.47252 0.19319-0.45841 0.19669-0.25405-0.0631 0.32998-0.4195 0.17464-1.4832-0.34641-2.3721-0.51138-0.87235-2.0046-1.9317-2.3892-1.6949-0.1099 0.06766-0.14401 0.06594-0.12812-0.0064 0.02941-0.13396-0.50777-0.27039-0.78175-0.19854-0.12183 0.03195-0.46173 0.05687-0.75533 0.05538-0.2936-0.0015-0.53382 0.02908-0.53382 0.06793s-0.07629 0.05069-0.16954 0.02631c-0.09325-0.02439-0.23738-0.01507-0.32029 0.02069-0.08291 0.03577-0.23479 0.05689-0.33751 0.04693-0.10272-0.01-0.26467 0.0598-0.35988 0.15501-0.09521 0.09521-0.19377 0.13969-0.21902 0.09883-0.06497-0.10513-0.40977-0.0085-0.53684 0.15044-0.06985 0.08737-0.10676 0.09699-0.10676 0.02783 0-0.05814 0.11506-0.17118 0.25569-0.2512 0.14063-0.08002 0.25593-0.21276 0.25623-0.29496 7.7e-4 -0.20336-0.31167-0.19428-0.44101 0.01283-0.05575 0.08926-0.15359 0.14226-0.21743 0.11776-0.06384-0.0245-0.18753 0.02012-0.27486 0.09915-0.12277 0.11111-0.16733 0.1183-0.19646 0.03171-0.03071-0.09128-0.06393-0.09031-0.17968 0.0052-0.15301 0.1263-0.19244 0.4821-0.06235 0.56251 0.04381 0.02708 0.07629 0.16753 0.07218 0.31211-0.0041 0.14459 0.03116 0.28805 0.07838 0.3188 0.04722 0.03076 0.13139 0.1424 0.18706 0.2481 0.05566 0.1057 0.15885 0.19217 0.22932 0.19217 0.10373 0 0.10982-0.03418 0.03202-0.17955-0.05285-0.09875-0.07703-0.25245-0.05373-0.34156 0.0233-0.0891 0.0075-0.18353-0.03503-0.20984-0.04257-0.02631-0.07436-0.15126-0.07065-0.27767 0.0039-0.13304 0.02672-0.17588 0.05417-0.10172 0.02609 0.07046 0.0894 0.18096 0.14069 0.24556 0.05129 0.06459 0.08188 0.22594 0.06797 0.35854-0.01718 0.16377 0.0269 0.27369 0.13741 0.34271 0.10225 0.06385 0.14972 0.16954 0.12775 0.28442-0.02014 0.10535 0.03128 0.24274 0.12134 0.32425 0.1494 0.13521 0.15627 0.12324 0.1558-0.27146-2.73e-4 -0.22709-0.02739-0.39643-0.06026-0.37631-0.08066 0.04937-0.23916-0.25853-0.23916-0.46459 0-0.09129 0.06007-0.21583 0.13349-0.27676 0.11672-0.09687 0.12652-0.08303 0.07801 0.11026-0.03907 0.15565-0.0091 0.26745 0.10139 0.37791 0.09457 0.09456 0.1463 0.24848 0.13025 0.38752-0.0299 0.25906 0.11157 0.58074 0.2554 0.58074 0.06574 0 0.08071-0.24136 0.04901-0.79005-0.02511-0.43453-0.02874-0.69396-0.0081-0.57652 0.02067 0.11744 0.06174 0.27118 0.09126 0.34164 0.02952 0.07046 0.0589 0.27713 0.06529 0.45926 0.0071 0.20129 0.0681 0.37244 0.15566 0.43647 0.07922 0.05793 0.14404 0.1853 0.14404 0.28304 0 0.30283 0.13573 0.28045 0.29246-0.04821 0.09969-0.20905 0.11835-0.32458 0.0558-0.34543-0.20947-0.06983-0.27125-0.35031-0.13513-0.61354 0.07309-0.14135 0.14341-0.257 0.15626-0.257 0.01285 0 0.0076 0.13505-0.01167 0.30011-0.03598 0.30818 0.10956 0.592 0.25689 0.50095 0.04553-0.02814 0.02736 0.05876-0.0404 0.19311-0.06775 0.13435-0.14935 0.35324-0.18133 0.48642-0.06368 0.26521 0.0071 0.59609 0.11339 0.53038 0.03681-0.02275 0.04936 0.0505 0.0279 0.16277-0.03128 0.16361 0.0344 0.25732 0.33079 0.47203 0.2072 0.1501 0.4364 0.25048 0.52124 0.2283 0.08328-0.02178 0.13058-0.0059 0.1051 0.03534-0.06009 0.09722 0.34063 0.1976 0.55991 0.14025 0.21184-0.0554 0.21748 0.04057 0.01326 0.22539-0.15914 0.14402-0.44146 0.1934-0.44194 0.0773-1.71e-4 -0.03523-0.2807-0.15551-0.62344-0.26728-0.61155-0.19943-0.62868-0.20034-0.9179-0.04848-0.209 0.10974-0.51829 0.16064-1.0634 0.17502l-0.76869 0.02028 0.72599-0.06473c0.82842-0.07386 1.3289-0.27795 1.2357-0.50385-0.03262-0.07903-0.07781-0.2077-0.1004-0.28593-0.0226-0.07823-0.12735-0.16388-0.23279-0.19035-0.26423-0.06632-1.4713-0.86321-1.5215-1.0045-0.02246-0.0632-0.07149-0.08631-0.10895-0.05137-0.03746 0.03494-0.0071 0.13103 0.06742 0.21353 0.10302 0.11402 0.11865 0.22169 0.06516 0.44893-0.0387 0.16442-0.0743 0.25119-0.07911 0.19282-0.01783-0.21643-0.40549-0.55204-0.92287-0.79896-0.29304-0.13986-0.73572-0.44897-0.98373-0.68692l-0.45093-0.43263 0.42705 0.35914c0.37034 0.31145 0.97124 0.68326 1.1043 0.68326 0.02388 0 0.02249-0.05455-0.0031-0.12122-0.02558-0.06667-0.25734-0.22788-0.51501-0.35825-0.25767-0.13037-0.48959-0.27117-0.51537-0.31289-0.02578-0.04172 0.07075-0.01503 0.21451 0.05931 0.32271 0.16688 0.40637 0.17152 0.27677 0.01536-0.06997-0.08431-0.07189-0.12899-0.0065-0.1508 0.06165-0.02055 0.04304-0.14565-0.05524-0.3713-0.10034-0.23038-0.14992-0.57481-0.15347-1.0663-6e-3 -0.8245 0.14545-1.1955 0.61001-1.4947 0.18396-0.11847 0.26394-0.23638 0.261-0.38476-0.0072-0.3613 0.09755-0.54517 0.44857-0.78756 0.42956-0.29662 0.67005-0.35527 0.97751-0.23837l0.24582 0.09346-0.18364 0.12863c-0.101 0.07075-0.22251 0.25182-0.27001 0.40239-0.0818 0.25929-0.08408 0.25457-0.04315-0.08924 0.03322-0.27905 0.01477-0.36299-0.0798-0.36299-0.40005 0-0.54526 0.73575-0.25575 1.2958 0.12654 0.24478 0.63298 0.65178 0.63298 0.5087 0-0.0474-0.03843-0.10994-0.08541-0.13897-0.04698-0.02903-0.08541-0.08839-0.08541-0.1319 0-0.04351 0.13145 0.06432 0.29211 0.23963 0.31496 0.34368 0.50325 0.33227 0.27463-0.01665-0.20918-0.31925-0.17378-0.3106 0.20555 0.05026 0.41235 0.39226 0.56168 0.42206 0.38294 0.07643-0.18955-0.36655-0.16931-0.3624 0.2428 0.0497 0.45803 0.45803 0.62326 0.48129 0.37526 0.05282l-0.18538-0.32029 0.33524 0.32029c0.33688 0.32185 0.52416 0.41213 0.44297 0.21352-0.17106-0.41839-0.15536-0.43144 0.15412-0.12812 0.17973 0.17616 0.36842 0.32394 0.41931 0.3284 0.42712 0.03746 0.98916 0.02347 0.98924-0.02463 2.73e-4 -0.13427-0.37378-0.3193-0.47522-0.23511-0.07127 0.05915-0.11788 0.04536-0.15261-0.04514-0.05943-0.15489-0.31158-0.17584-0.31158-0.02588 0 0.05743-0.06157 0.01651-0.13683-0.09093-0.07525-0.10744-0.11614-0.21603-0.09087-0.24131 0.02528-0.02528 0.30785 0.04123 0.62794 0.1478 0.32009 0.10657 0.63002 0.19379 0.68874 0.19384s0.10676 0.02689 0.10676 0.05965 0.18256 0.12876 0.4057 0.21333c0.52687 0.19968 1.6764 1.0739 1.9442 1.4787 0.22103 0.334 0.57301 1.2903 0.67306 1.8286 0.03274 0.17616 0.09487 0.32029 0.13806 0.32029 0.11723 0 0.27116-0.32953 0.21028-0.45017-0.02914-0.05775 0.0075-0.03039 0.08146 0.06079 0.17824 0.2198 0.17435 0.2342-0.11596 0.4287-0.13746 0.09209-0.23373 0.19364-0.21394 0.22566 0.01979 0.03202 0.05334 0.1938 0.07456 0.35952 0.03064 0.23935-0.0058 0.34569-0.17732 0.5172-0.42641 0.42641-1.5211 0.62658-2.6358 0.48195-0.59082-0.07666-0.71974-0.06912-0.95271 0.05569-0.24326 0.13033-0.34073 0.13326-1.0035 0.03016-0.55808-0.08682-0.78526-0.09086-0.94767-0.01686-0.11749 0.05353-0.21361 0.06567-0.21361 0.02699zm-2.7101-4.0727c0.07811-0.02997 0.10771-0.12403 0.08176-0.2598-0.05203-0.27215-0.22462-0.22004-0.25996 0.0785-0.02864 0.24194-0.01526 0.25555 0.1782 0.18131zm-0.15037-0.63759c0.07223-0.11687 0.62361-0.34622 0.93227-0.38778 0.31965-0.04304 0.47057-0.18354 0.27696-0.25784-0.07832-0.03005-0.20005-0.03252-0.27051-0.0055-0.07046 0.02704-0.12812 0.0093-0.12812-0.03951 0-0.16494-0.38373-0.0355-0.46866 0.15809-0.09271 0.21132-0.23909 0.26989-0.1601 0.06406 0.05964-0.15541-0.08438-0.16986-0.20802-0.02088-0.1374 0.16555-0.2208 0.57604-0.11704 0.57604 0.0493 0 0.11374-0.03902 0.14322-0.0867zm2.1985-0.28842c0.2062-0.15653 0.18716-0.22275-0.06406-0.22275-0.11744 0-0.21353 0.01607-0.21353 0.03572 0 0.01964-0.02333 0.09652-0.05184 0.17082-0.06371 0.16604 0.12014 0.17508 0.32943 0.01621zm0.48135-0.14337c-0.13706-0.08471-0.19945-0.03978-0.12101 0.08715 0.03144 0.05087 0.09704 0.06784 0.14579 0.03771 0.05739-0.03546 0.04865-0.07948-0.02478-0.12486zm-1.9524-1.3551c-0.05838-0.14093-0.09136-0.41121-0.0733-0.60061 0.03535-0.37066-0.04003-0.44479-0.1822-0.17916-0.14192 0.26517-0.10253 0.64792 0.09214 0.8954 0.22334 0.28393 0.30493 0.22618 0.16335-0.11563zm-4.7852 6.1868c0-0.07046 0.0151-0.12812 0.03357-0.12812 0.01846 0 0.05569 0.05765 0.08273 0.12812 0.02704 0.07046 0.01193 0.12812-0.03357 0.12812s-0.08273-0.05765-0.08273-0.12812zm0.82401 0.05807c-0.04004-0.06201-0.15534-0.14435-0.25623-0.18297-0.17567-0.06725-0.1735-0.07281 0.05145-0.13139 0.26556-0.06915 0.30016-0.22139 0.0966-0.42496-0.17431-0.17431-0.11238-0.25007 0.0859-0.10508 0.11421 0.08352 0.14246 0.20703 0.12188 0.53293-0.01722 0.27275-0.05278 0.38397-0.09959 0.31147zm-16.622-0.16484c0.0015-0.08221 0.05915-0.22408 0.12812-0.31526 0.06897-0.09119 0.1254-0.24983 0.1254-0.35254s0.05765-0.23459 0.12812-0.29307c0.07046-0.05848 0.12812-0.15409 0.12812-0.21247 0-0.16137 0.33788-0.55623 0.47596-0.55623 0.08931 0 0.07624 0.04568-0.0489 0.17082-0.09395 0.09395-0.17082 0.21463-0.17082 0.26817 0 0.05354-0.06272 0.14321-0.13937 0.19926-0.14944 0.10927-0.45832 0.84457-0.45843 1.0913-3.9e-5 0.08221-0.0385 0.14947-0.08548 0.14947s-0.08419-0.06726-0.08269-0.14947zm0.59516-0.3054c0-0.06227 0.09609-0.2035 0.21353-0.31382 0.11744-0.11033 0.21353-0.26308 0.21353-0.33945 0-0.1438 0.15669-0.34384 0.26934-0.34384 0.08035 0-0.17535 0.48659-0.3761 0.71572-0.08221 0.09383-0.14947 0.221-0.14947 0.2826 0 0.06161-0.03843 0.11201-0.08541 0.11201s-0.08541-0.05095-0.085411-0.11323zm19.799 0.05488c0.06166-0.02467 0.13532-0.02164 0.1637 0.0067 0.02838 0.02838-0.02206 0.04857-0.1121 0.04486-0.0995-0.0041-0.11974-0.02434-0.0516-0.0516zm-18.289-0.22893c-0.08115-0.12385-0.11294-0.22519-0.07063-0.22519 0.11803 0 0.28893 0.23813 0.25149 0.35043-0.01832 0.05497-0.09971-0.0014-0.18086-0.12524zm13.607 0.026c0-0.04975 0.03843-0.0667 0.08541-0.03767 0.04697 0.02903 0.08541 0.06974 0.08541 0.09045 0 0.02072-0.03843 0.03766-0.08541 0.03766s-0.08541-0.0407-0.08541-0.09045zm-1.3627-0.31525 0.0039-0.32029 0.11238 0.25623c0.11508 0.26239 0.10248 0.38435-0.03971 0.38435-0.0442 0-0.07864-0.14413-0.07652-0.32029zm-11.837 0.05838c-0.03096-0.0501-0.03798-0.10941-0.01559-0.1318 0.02239-0.02239 0.06347 0.0186 0.09128 0.09109 0.05775 0.1505 0.0085 0.17698-0.07569 0.040709zm11.488-0.13023c-0.12851-0.338-0.06299-0.41331 0.10466-0.12029 0.0831 0.14524 0.11023 0.27351 0.0639 0.30214-0.04427 0.02736-0.12013-0.05447-0.16856-0.18185zm1.3057-0.07761c9.49e-4 -0.1879 0.01844-0.25472 0.03887-0.14847s0.01965 0.25998-0.0017 0.34164c-0.02137 0.08166-0.03809-0.0053-0.03714-0.19317zm-13.568 0.10135c0.02759-0.08518-0.0072-0.26584-0.07735-0.40146-0.15947-0.30837-0.15938-0.34734 5.96e-4 -0.28595 0.10295 0.0395 0.12837-0.03234 0.12942-0.36568 0.0013-0.41022 0.16105-0.87544 0.17178-0.50025 0.0038 0.13117 0.04438 0.10144 0.17506-0.12812 0.10086-0.17717 0.14924-0.22066 0.11878-0.10676-0.07251 0.27113 0.0011 0.23863 0.19339-0.08541 0.2229-0.3756 1.0046-1.2198 1.3348-1.4416 0.16185-0.10871 0.09295-0.01521-0.1737 0.2357-0.45972 0.43258-0.76908 0.8561-0.68601 0.93917 0.02651 0.02651 0.28428-0.14825 0.57281-0.38837 0.56357-0.469 1.0005-0.71881 1.4093-0.80576 0.20651-0.04392 0.17865-0.01339-0.1436 0.15735-0.45288 0.23996-0.64156 0.44281-0.31551 0.3392 0.27894-0.08864 1.7036-0.18402 1.7451-0.11684 0.01851 0.02994-0.30113 0.08161-0.7103 0.11481-0.40917 0.0332-0.76885 0.10065-0.79928 0.1499-0.03043 0.04924-0.22039 0.08725-0.42212 0.08447-0.25614-0.0035-0.43593 0.05136-0.596 0.18197-0.12607 0.10286-0.31814 0.24468-0.42684 0.31514-0.47373 0.30712-1.0219 1.0041-1.0219 1.2994 0 0.06938-0.07687 0.19572-0.17082 0.28074-0.09395 0.08503-0.17141 0.2159-0.17213 0.29082-7.19e-4 0.07493-0.04278 0.19388-0.09347 0.26435-0.0769 0.1069-0.08385 0.10247-0.042-0.02676zm21.679-0.1062c-0.24634-0.17254-0.2617-0.59702-0.02386-0.65921 0.20725-0.0542 0.39437 0.14986 0.47189 0.51459 0.04988 0.2347 0.03449 0.27758-0.0996 0.27758-0.08723 0-0.24402-0.05983-0.34843-0.13296zm0.32264-0.36905c0-0.04122-0.05423-0.11996-0.12051-0.17497-0.13384-0.11108-0.27074 0.01514-0.17842 0.16451 0.06504 0.10524 0.29894 0.11343 0.29894 0.01046zm-8.8428 0.22241c-0.0268-0.1068-0.01345-0.28936 0.02967-0.4057 0.06718-0.18124 0.0796-0.15343 0.0867 0.19418 0.0089 0.43715-0.03823 0.52286-0.11637 0.21152zm1.1249 0.06607c-0.02704-0.07046-0.01193-0.12812 0.03357-0.12812s0.08273 0.05765 0.08273 0.12812c0 0.07046-0.0151 0.12812-0.03357 0.12812-0.01846 0-0.05569-0.05765-0.08273-0.12812zm4.3868 0.09587c0-0.01774 0.06726-0.085 0.14947-0.14947 0.13547-0.10624 0.13849-0.10322 0.03225 0.03225-0.11158 0.14227-0.18172 0.18752-0.18172 0.11722zm-17.899-0.24158c0.08178-0.12712 0.12023-0.27718 0.08544-0.33348-0.04002-0.06476-0.02704-0.07998 0.03534-0.04142 0.15086 0.09323 0.11806 0.26342-0.08544 0.44332l-0.18404 0.16271zm9.405-0.49486c-0.10479-0.49791-0.54796-1.2055-1.1501-1.8363-0.31389-0.32883-0.65854-0.73239-0.76589-0.89681-0.18555-0.28418-0.18112-0.28224 0.08974 0.03917 0.15671 0.18596 0.52569 0.56759 0.81995 0.84806 0.31863 0.3037 0.62953 0.70239 0.76869 0.98575 0.21361 0.43495 0.236 0.45555 0.26079 0.23994 0.01492-0.12972-0.0305-0.35137-0.10093-0.49255-0.07043-0.14118-0.08832-0.23213-0.03976-0.20212 0.25904 0.1601 0.40905 1.0337 0.24777 1.443-0.05768 0.14636-0.07633 0.12802-0.13023-0.12812zm-8.5029 0.0012c0.05575-0.10418 0.11226-0.33538 0.12556-0.51378 0.01331-0.1784 0.08672-0.41364 0.16315-0.52275 0.13827-0.1974 0.13896-0.19747 0.13896-0.01361 0 0.10163-0.04106 0.21016-0.09123 0.24117-0.05018 0.03101-0.06873 0.11502-0.04123 0.18669 0.0275 0.07167 0.01459 0.17347-0.0287 0.22624-0.04328 0.05277-0.09199 0.18901-0.10824 0.30277-0.01624 0.11376-0.08131 0.2239-0.14459 0.24476-0.09312 0.03069-0.09573 0.0018-0.01368-0.1515zm17.584 0.02019c-0.10624-0.13547-0.10322-0.13849 0.03225-0.03225 0.14227 0.11158 0.18752 0.18172 0.11722 0.18172-0.01773 0-0.085-0.06726-0.14947-0.14947zm-18.351-0.08037c7.19e-4 -0.038 0.03856-0.12675 0.0841-0.19721 0.07135-0.11041 0.08298-0.10815 0.0841 0.01631 7.19e-4 0.07943-0.03713 0.16818-0.0841 0.19721-0.04698 0.02903-0.08482 0.02169-0.0841-0.01631zm1.3703-0.25623c-0.0028-0.05595 0.03341-0.12548 0.08039-0.15451 0.04698-0.02903 0.08541-0.12143 0.08541-0.20533 0-0.0839 0.07687-0.22211 0.17082-0.30713 0.22408-0.20278 0.21636-0.37155-0.02135-0.4671-0.1057-0.04248-0.13755-0.07968-0.07078-0.08266 0.06676-3e-3 0.18862 0.05543 0.27079 0.12979 0.13704 0.12402 0.15678 0.12141 0.2386-0.03148 0.04906-0.09167 0.06237-0.20056 0.02957-0.24196-0.0328-0.04141-0.0108-0.0335 0.04888 0.01757 0.1484 0.12698 0.02554 0.42443-0.33652 0.81473-0.15802 0.17034-0.33308 0.38173-0.38904 0.46976-0.05596 0.08803-0.104 0.11427-0.10676 0.05833zm5.3388-0.37076c-0.77103-0.82429-1.0861-1.9882-0.78543-2.9012l0.12658-0.38435-0.05778 0.38435c-0.09232 0.61416-0.04225 1.4778 0.1063 1.8333 0.07541 0.18048 0.15893 0.30632 0.18561 0.27964 0.02668-0.02668 7e-3 -0.12614-0.04383-0.22102-0.05078-0.09489-0.08965-0.28074-0.08638-0.41302 0.0047-0.18999 0.03324-0.15082 0.13591 0.18656 0.07148 0.23488 0.17824 0.4847 0.23724 0.55517 0.11288 0.13479 0.64583 1.1103 0.60659 1.1103-0.01254 0-0.20371-0.1934-0.42481-0.42978zm-3.738 0.29894c-0.04477-0.04477 0.23993-0.36461 0.55808-0.62696 0.2485-0.20492 0.15349-0.03738-0.18414 0.3247-0.17946 0.19245-0.34774 0.32847-0.37394 0.30227zm8.3311-0.41368c-0.17065-0.17127-0.17536-0.20585-0.06406-0.47055 0.06607-0.15714 0.12013-0.35589 0.12013-0.44168 0-0.08578 0.03086-0.17505 0.06858-0.19836 0.06994-0.04322 0.05745 0.18829-0.0381 0.70637-0.03353 0.18182-0.022 0.27029 0.03096 0.23756 0.04642-0.02869 0.12763 0.04272 0.18046 0.15869 0.12294 0.26983-0.03291 0.274-0.29798 8e-3zm-3.0043-0.15054c-0.12293-0.15158-0.34032-0.28105-0.56826-0.33845-0.2196-0.0553-0.46767-0.19974-0.6123-0.35653l-0.24314-0.26358 0.2464 0.18623c0.39345 0.29737 0.44105 0.2161 0.09669-0.16507-0.34208-0.37864-0.63962-0.95344-0.63607-1.2288 0.0012-0.09395 0.06264 0.0019 0.13651 0.21306 0.21214 0.60635 0.88042 1.483 1.0223 1.341 0.09675-0.09675 0.37126 0.11305 0.59982 0.45843 0.26713 0.40366 0.24034 0.50176-0.04198 0.15367zm13.869-0.1373c-0.18557-0.21397-0.28391-0.37121-0.21853-0.34942 0.13668 0.04556 0.64602 0.65091 0.59191 0.70349-0.01978 0.01923-0.1878-0.1401-0.37338-0.35408zm-17.129 0.28653c0-0.01835 0.13452-0.04907 0.29894-0.06826 0.16442-0.0192 0.29894-0.0042 0.29894 0.03336 0 0.03754-0.13452 0.06826-0.29894 0.06826s-0.29894-0.01501-0.29894-0.03336zm-6.1047-0.69263c0.05322-0.76135 0.08658-0.92638 0.19454-0.96237 0.071-0.02367 0.07484 0.03354 0.01399 0.20865-0.04611 0.13269-0.11995 0.47186-0.16409 0.75372l-0.08026 0.51246zm3.884 0.39311c0-0.04546 0.07687-0.10706 0.17082-0.13688 0.09395-0.02982 0.17082-0.10928 0.17082-0.17658 0-0.0673 0.0074-0.15119 0.01651-0.18642 0.0091-0.03523-0.09661-0.09136-0.23488-0.12473-0.13826-0.03337-0.0016-0.038 0.30378-0.01028 0.30534 0.02771 0.70891 0.04958 0.89681 0.04859 0.1879-9.93e-4 0.25516 0.01592 0.14947 0.03758-0.1057 0.02165-0.19217 0.07682-0.19217 0.1226 0 0.04917-0.17055 0.06373-0.41678 0.03558-0.36117-0.04129-0.42248-0.02583-0.45955 0.11589-0.04544 0.17377-0.40483 0.41759-0.40483 0.27465zm8.0286-0.0088c0-0.04698-0.06169-0.08541-0.13709-0.08541-0.11216 0-0.12802-0.06601-0.08723-0.36299 0.02742-0.19965 0.06488-0.50852 0.08324-0.68638 0.01837-0.17786 0.05762-0.34762 0.08723-0.37723 0.09382-0.09382 0.05806 0.55522-0.0428 0.77656-0.05315 0.11666-0.07071 0.27965-0.03903 0.36222 0.04913 0.12804 0.08113 0.11144 0.21753-0.11285 0.08796-0.14463 0.17716-0.35387 0.19822-0.46496l0.0383-0.20199 0.01163 0.19518c0.0064 0.10735-0.05026 0.28963-0.1259 0.40508-0.08574 0.13086-0.11729 0.29054-0.08378 0.42405 0.03104 0.12366 0.01697 0.21415-0.03329 0.21415-0.04787 0-0.08704-0.03843-0.08704-0.08541zm9.6229 0.02847c-0.10188-0.10188-0.06013-0.41894 0.07751-0.58867 0.07395-0.09119 0.10854-0.1152 0.07687-0.05337-0.03167 0.06183-0.05758 0.2444-0.05758 0.4057 0 0.31032-0.0066 0.3265-0.0968 0.23633zm-11.33-0.70996c-0.04975-0.09296-0.31054-0.3189-0.57952-0.50208-0.26899-0.18318-0.56533-0.4242-0.65855-0.53561-0.15507-0.18532-0.1478-0.18374 0.08541 0.01858 0.41883 0.36336 0.80392 0.60414 0.88555 0.55369 0.07699-0.04758 0.27405 0.20617 0.37662 0.48498 0.07447 0.20242 0.0024 0.18955-0.10951-0.01956zm-9.7675-0.12991c0.06206-0.31113 0.27818-0.79649 0.3837-0.86171 0.04232-0.02615 0.0029 0.1186-0.08761 0.32167-0.0905 0.20307-0.20564 0.4653-0.25587 0.58274-0.08724 0.20397-0.08904 0.20206-0.04022-0.0427zm7.2017 0.03797c-0.05168-0.09656-0.0813-0.21352-0.06583-0.25993 0.01547-0.04641 0.07227 0.0326 0.12624 0.17556 0.11222 0.29731 0.07865 0.3442-0.0604 0.08437zm20.65-0.19602c-0.50537-0.18634-0.90567-0.35198-0.88955-0.3681 0.01612-0.01612 0.36708 0.08773 0.77992 0.23077 0.41283 0.14304 0.76761 0.24308 0.78839 0.2223 0.06392-0.06392-0.50738-0.46078-0.91304-0.63426-0.21134-0.09038-0.8839-0.2821-1.4946-0.42604-0.61068-0.14395-1.2641-0.30185-1.452-0.35089l-0.34164-0.08917 0.38221 0.05013c0.21022 0.02757 0.784 0.14092 1.2751 0.25188 0.49107 0.11096 0.90767 0.18693 0.92578 0.16882 0.01811-0.01811-0.20976-0.15296-0.50637-0.29967-0.29661-0.14671-0.44321-0.24262-0.32577-0.21314s0.42492 0.16969 0.68328 0.31158c0.25837 0.14189 0.6235 0.3314 0.8114 0.42115 0.62443 0.29824 0.76672 0.3967 1.0182 0.70458 0.13722 0.168 0.23331 0.31747 0.21353 0.33215-0.01979 0.01468-0.44946-0.12576-0.95483-0.31209zm-27.031-0.21456c0.06322-0.16749 0.17059-0.26856 0.31471-0.29626 0.12031-0.02312 0.2217-0.03582 0.22531-0.02823 0.0036 0.0076-0.13801 0.14091-0.31471 0.29626l-0.32127 0.28245zm13.922-0.13985c9.48e-4 -0.1879 0.01844-0.25472 0.03887-0.14847 0.02043 0.10624 0.01965 0.25998-0.0017 0.34164-0.02138 0.08166-0.03809-0.0053-0.03714-0.19317zm5.9064 0.148c0.0993-0.11638 0.25959-0.1907 0.41131-0.1907 0.13674 0 0.31877-0.03755 0.40453-0.08345 0.08576-0.0459 0.29303-0.10045 0.4606-0.12124 0.16758-0.02079 0.37757-0.06093 0.46666-0.0892 0.08909-0.02828 0.25403-0.01459 0.36654 0.03041 0.19316 0.07727 0.18878 0.08212-0.07865 0.08724-0.15576 3e-3 -0.36525 0.04932-0.46553 0.10299-0.10028 0.05367-0.31875 0.1087-0.4855 0.12229-0.53244 0.04339-0.98266 0.1392-1.1146 0.23719-0.07046 0.05234-0.0549 0.0094 0.03459-0.09553zm-8.812-0.27611c0-0.16441 0.01758-0.23168 0.03906-0.14947 0.02148 0.08221 0.02148 0.21673 0 0.29894-0.02148 0.08221-0.03906 0.01495-0.03906-0.14947zm-5.131 0c0-0.11744 0.01939-0.16548 0.04308-0.10676s0.02369 0.15481 0 0.21352c-0.02369 0.05872-0.04308 0.01068-0.04308-0.10676zm4.8684-0.34164c0-0.11744 0.01939-0.16548 0.04308-0.10676s0.02369 0.15481 0 0.21353-0.04308 0.01068-0.04308-0.10676zm-0.35513-0.11804c0-0.11744 0.04106-0.2389 0.09123-0.26991 0.05018-0.03101 0.07295-0.10403 0.05061-0.16225-0.02234-0.05823-0.0063-0.16004 0.03558-0.22624 0.05569-0.08797 0.07655-0.05851 0.07751 0.10947 6.83e-4 0.12641-0.04048 0.25566-0.09154 0.28722-0.05107 0.03156-0.07389 0.12988-0.05072 0.21848 0.02317 0.0886 0.0073 0.18262-0.03526 0.20893-0.04257 0.02631-0.07739-0.04826-0.07739-0.1657zm2.3215-0.15256c-0.0085-0.21929-0.03751-0.46912-0.06455-0.55517-0.04609-0.14671-0.04314-0.1471 0.04736-0.0063 0.05308 0.08261 0.08213 0.33243 0.06455 0.55517l-0.03196 0.40497zm-0.59978-0.4981c0-0.11744 0.01939-0.16548 0.04308-0.10676s0.02369 0.15481 0 0.21353-0.04308 0.01068-0.04308-0.10676zm12.44-0.05835c0.06166-0.02467 0.13532-0.02164 0.1637 0.0067 0.02838 0.02838-0.02206 0.04857-0.1121 0.04486-0.0995-0.0041-0.11974-0.02434-0.0516-0.0516zm-2.1088-0.21294c-0.06329-0.10134-0.15901-0.14979-0.23689-0.11991-0.07187 0.02758-0.23882-0.02685-0.37099-0.12097-0.2497-0.1778-0.56231-0.23478-0.47017-0.0857 0.02903 0.04698 0.03328 0.08541 0.0094 0.08541-0.06523 0-0.4792-0.39582-0.4792-0.4582 0-0.14796 0.68793-0.0012 1.452 0.30974 0.11744 0.04779 0.52984 0.0783 0.91645 0.06778 0.61529-0.01673 1.3836 0.11522 1.2791 0.21969-0.02012 0.02012-0.14761-6e-3 -0.28331-0.0581-0.33774-0.12962-1.3602-0.02557-1.2347 0.12565 0.0625 0.07531 0.05753 0.10878-0.01693 0.11399-0.05797 0.0041-0.18486 0.02612-0.28198 0.04903-0.11543 0.02723-0.21334-0.01723-0.28277-0.1284zm1.6818 0.12753c0.06166-0.02467 0.13532-0.02164 0.1637 0.0067 0.02838 0.02838-0.02207 0.04857-0.1121 0.04486-0.0995-0.0041-0.11974-0.02434-0.0516-0.0516zm-0.77403-0.08734c0.1057-0.02036 0.27865-0.02036 0.38435 0 0.1057 0.02036 0.01922 0.03701-0.19217 0.03701-0.21139 0-0.29787-0.01666-0.19217-0.03701zm-13.003-0.28069c-0.0288-0.0466-0.01302-0.1523 0.03507-0.23488 0.075-0.1288 0.0878-0.11675 0.09003 0.08473 0.0027 0.24562-0.03679 0.29303-0.1251 0.15014zm1.4223-0.08609c0-0.11744 0.01939-0.16548 0.04308-0.10676s0.02369 0.15481 0 0.21353-0.04308 0.01068-0.04308-0.10676zm-4.9281-0.09109c-0.03096-0.0501-0.03798-0.10941-0.01559-0.1318 0.02239-0.02239 0.06347 0.0186 0.09128 0.09109 0.05775 0.1505 0.0085 0.17698-0.07569 0.040709zm16.957-0.29812c0.39929-0.1096 0.79325-0.24014 0.87546-0.2901 0.09164-0.05569 0.14947-0.05867 0.14947-0.0077 0 0.04572-0.07687 0.12427-0.17082 0.17455-0.09395 0.05028-0.171 0.13811-0.17122 0.19518-2.73e-4 0.07202-0.21578 0.10736-0.70464 0.11554l-0.70424 0.01179zm-0.67617-0.07102c0.01957-0.01825 0.41994-0.19527 0.88969-0.39338 0.46976-0.19811 0.92681-0.42339 1.0157-0.50063 0.15494-0.13467 0.1567-0.13251 0.04287 0.05276-0.06528 0.10626-0.29173 0.25665-0.50321 0.3342-0.21148 0.07755-0.60435 0.23083-0.87305 0.34062-0.4565 0.18652-0.65568 0.24448-0.57198 0.16643zm-0.42705-0.16948c0.08789-0.07864 0.59076-0.30973 0.59076-0.27148 0 0.04919-0.4735 0.30332-0.56516 0.30332-0.03365 0-0.04517-0.01433-0.0256-0.03184zm-2.2147-0.26709c-0.0031-0.14093 0.04583-0.40036 0.10869-0.57652 0.06287-0.17616 0.08759-0.32029 0.05494-0.32029-0.07914 0-0.47141 0.42607-0.58976 0.64058-0.05183 0.09395-0.09527 0.13239-0.09652 0.08541-0.0048-0.18113 0.32224-0.60359 0.55967-0.72291 0.13685-0.06877 0.36412-0.20024 0.50504-0.29215l0.25623-0.16711-0.22444 0.24944c-0.2931 0.32574-0.41075 0.56249-0.49732 1.0008-0.05869 0.29709-0.07189 0.31482-0.07653 0.10279zm-1.721-0.01734c-7.7e-4 -0.24609 0.20578-0.53754 0.37638-0.53109 0.10411 0.0039 0.13106 0.02566 0.0647 0.05216-0.06257 0.02498-0.18734 0.16607-0.27726 0.31355-0.08992 0.14747-0.16364 0.2219-0.16382 0.16539zm0.6043-0.11313c-0.0086-0.16704 0.22987-0.51011 0.35463-0.51011 0.0525 0 0.01678 0.08648-0.07938 0.19217-0.09616 0.1057-0.19591 0.24983-0.22167 0.32029-0.04106 0.11232-0.04766 0.11203-0.05358-0.0024zm-12.788-0.149c0.06758-0.10934 0.5672-0.4791 0.5672-0.41977 0 0.02111-0.1411 0.14601-0.31355 0.27754-0.17246 0.13154-0.2866 0.19554-0.25365 0.14223zm14.318-0.223c0-0.09166 0.25413-0.56516 0.30332-0.56516 0.02349 0-0.02082 0.12491-0.09847 0.27758-0.15854 0.31174-0.20486 0.37676-0.20486 0.28758z" stroke-width=".08541"/>
</svg>
