<?xml version="1.0" encoding="UTF-8"?>
<svg width="35mm" height="35mm" version="1.1" viewBox="0 0 35 35" xmlns="http://www.w3.org/2000/svg" xmlns:cc="http://creativecommons.org/ns#" xmlns:dc="http://purl.org/dc/elements/1.1/" xmlns:rdf="http://www.w3.org/1999/02/22-rdf-syntax-ns#">
 <metadata>
  <rdf:RDF>
   <cc:Work rdf:about="">
    <dc:format>image/svg+xml</dc:format>
    <dc:type rdf:resource="http://purl.org/dc/dcmitype/StillImage"/>
    <dc:title/>
   </cc:Work>
  </rdf:RDF>
 </metadata>
 <path d="m18.691 33.964c-0.27945-0.0335-0.80046-0.21276-1.1727-0.40353-0.21788-0.11165-0.44611-0.34707-0.56885-0.58676-0.0467-0.0912-0.14571-0.21055-0.22002-0.26519-0.0743-0.0547-0.17937-0.18247-0.23347-0.28403-0.085-0.15957-0.097-0.24139-0.0885-0.60205l0.01-0.41739-0.22862-0.22522-0.22862-0.22523-0.63359 0.0664c-0.42621 0.0446-0.71942 0.0996-0.89579 0.16787-0.6466 0.25031-1.5883 0.33848-2.163 0.20252-1.0373-0.24545-1.5979-0.95757-1.8617-2.3649-0.0907-0.48389-0.13356-2.174-0.0661-2.607l0.049-0.31461-0.4291-0.42909c-0.4173-0.41731-0.75387-0.89404-0.81844-1.1593-0.0161-0.0661-0.0431-0.12017-0.06-0.12017s-0.2065 0.0597-0.4213 0.13273c-0.89744 0.305-1.3662 0.40759-1.8762 0.41062-0.42417 3e-3 -0.50603-0.01-0.69655-0.10339-0.44767-0.22032-0.75996-0.68218-1.0507-1.554-0.23528-0.70544-0.34045-1.182-0.34254-1.552-2e-3 -0.28467 0.0166-0.36474 0.13728-0.60214 0.092201-0.18142 0.13914-0.33703 0.13914-0.4612 0-0.32754 0.12191-0.64254 0.3287-0.84933 0.10337-0.10337 0.27052-0.32693 0.37143-0.4968 0.1958-0.32958 0.69007-0.91271 1.1021-1.3003 0.1383-0.13008 0.25145-0.25021 0.25145-0.26696 0-0.0168-0.13385-0.0338-0.29746-0.038-0.16361-4e-3 -0.34549-0.0154-0.40419-0.025-0.0587-0.01-0.31175-0.0493-0.56233-0.0882-0.91031-0.14111-1.593-0.46842-2.383-1.1425l-0.34127-0.29118-0.082 0.10467c-0.40974 0.52332-0.57734 1.2215-0.40825 1.7008 0.096701 0.27413 0.49303 0.84352 0.87121 1.2517 0.41009 0.44262 0.4467 0.56182 0.23699 0.77149-0.28097 0.28092-0.7364 0.24963-1.2944-0.0889-0.93622-0.56801-1.4205-1.6011-1.3532-2.8868 0.0135-0.25784 0.0651-0.62325 0.11477-0.81201 0.094901-0.36113 0.40116-1.0483 0.61714-1.3848l0.12789-0.1993-0.0856-0.22527c-0.10046-0.26438-0.24911-1.0555-0.28793-1.5324-0.0259-0.31813-0.0215-0.34158 0.0876-0.46608 0.17711-0.2022 0.22218-0.4057 0.16554-0.74749-0.0541-0.32628 8e-3 -0.60569 0.15267-0.69105 0.10893-0.0641 0.56035-0.18834 0.8108-0.22313 0.11416-0.0159 0.20756-0.0383 0.20756-0.0499s-0.1659-0.20146-0.36866-0.42193c-0.44434-0.48316-0.83206-0.98153-1.1086-1.425-0.20217-0.32417-0.20521-0.33455-0.21982-0.74897-0.0243-0.68972 0.17936-1.5315 0.6319-2.6116 0.46003-1.098 0.99925-1.9496 1.6544-2.6126 0.7021-0.7106 1.4392-1.1315 2.3166-1.3228 0.88825-0.19368 2.4579-0.49216 2.7832-0.52927 0.84808-0.0967 1.83 0.21157 2.8163 0.88425 0.26301 0.17937 0.57563 0.36146 0.69472 0.40463 0.46504 0.16859 0.61775 0.26424 0.9295 0.5822l0.31968 0.32606 0.22753-0.0267c0.12514-0.0147 0.29835-7e-3 0.38492 0.0167 0.35166 0.0971 0.75227 0.54278 1.0593 1.1785 0.22461 0.46509 0.23738 0.74071 0.0548 1.1829l-0.11857 0.28715 0.13746 0.39015c0.24524 0.69603 0.38012 0.86431 0.83946 1.0473 0.16777 0.0668 0.38413 0.19741 0.49818 0.30066 0.18683 0.16915 0.20315 0.20106 0.22257 0.43523 0.0115 0.13899 0.043 0.25894 0.0699 0.26656 0.0269 8e-3 0.18656 0.0453 0.35479 0.0837 0.54043 0.12337 0.62292 0.34578 0.32772 0.88365-0.0961 0.17515-0.17479 0.35847-0.17479 0.40737s0.0473 0.27103 0.105 0.49364c0.20358 0.78477 0.4629 2.5901 0.7705 5.3643 0.22632 2.0411 0.4433 3.4957 0.52143 3.4957 0.0183 0 0.0838-0.0398 0.14565-0.0884 0.20632-0.16228 0.66084-0.3457 0.96192-0.38817 1.4652-0.20666 2.398 1.0874 2.2139 3.0715-0.11605 1.2505-0.43711 1.7712-1.3803 2.2386-0.48427 0.24-0.49398 0.24268-0.789 0.21793-0.36191-0.0303-0.59151-0.0322-0.61871-5e-3 -0.0421 0.0421 0.8373 1.071 1.3552 1.5855 0.64718 0.64295 1.2419 1.1013 1.7215 1.3269 0.61711 0.2902 1.4891 0.37582 1.8698 0.18358 0.37399-0.18885 0.427-0.39132 0.17537-0.66984-0.19942-0.22073-0.4985-0.36676-1.477-0.72118-0.43041-0.15589-0.81876-0.3162-0.863-0.35623-0.10173-0.0921-0.10379-0.28748-4e-3 -0.37467 0.14453-0.12624 0.77117-0.2533 1.2428-0.25198 0.83662 2e-3 1.7348 0.54845 2.3057 1.4019 0.32896 0.49179 0.46117 0.88908 0.42543 1.2784-0.0436 0.47527-0.0963 0.58711-0.58714 1.2472-0.28476 0.38295-0.39411 0.45537-0.74522 0.49356-0.67005 0.0729-1.0022 0.0849-1.1838 0.0427-0.13069-0.0303-0.27318-0.0302-0.44695 4e-4 -0.18293 0.0322-0.32645 0.0306-0.50729-6e-3 -0.13871-0.0279-0.39529-0.0692-0.57018-0.0918-0.32901-0.0426-0.67231-0.18579-0.8097-0.33782-0.0506-0.056-0.16219-0.0978-0.31077-0.11635-0.32577-0.0407-0.71447-0.23762-0.94412-0.47827-0.10754-0.1127-0.32334-0.30734-0.47955-0.43254s-0.42598-0.35072-0.59948-0.50116l-0.31546-0.27353-0.0719 0.14244c-0.0892 0.17675-0.27839 0.38277-0.35153 0.38277-0.15009 0-0.0524 0.1132 0.48004 0.55647 1.4952 1.2447 2.186 2.0518 2.4054 2.8104 0.24839 0.85892 0.10703 2.204-0.28093 2.6731-0.16429 0.19864-0.52018 0.32162-1.1109 0.38388-0.43474 0.0458-0.4083 0.0459-0.81066-2e-3zm0.14151-0.38938c-0.1159-0.0967-0.53239-0.1967-0.5879-0.1412-0.0834 0.0834 0.24486 0.21373 0.55563 0.22069l0.13109 3e-3 -0.0988-0.0824zm0.57948-0.0562c0.13594-0.21495 0.32501-0.30049 0.72475-0.32789 0.40379-0.0277 0.38836-0.0108 0.50143-0.54833 0.097-0.46092 0.0847-0.51933-0.0609-0.29074-0.32324 0.50743-0.7789 0.71382-1.5804 0.71584-0.37896 9.7e-4 -0.50256-0.0164-0.71016-0.0995-0.33812-0.13544-0.62694-0.37223-1.0057-0.82452-0.17379-0.2075-0.36948-0.4378-0.43487-0.51177l-0.11888-0.13448-1e-3 0.35897c-1e-3 0.34005 6e-3 0.36712 0.13434 0.51343 0.0793 0.0904 0.17617 0.15446 0.23335 0.15446 0.15055 0 0.59504 0.24005 0.7823 0.42249 0.14341 0.13971 0.16477 0.18432 0.14539 0.3037-0.0283 0.17432-6e-3 0.1971 0.13713 0.14255 0.16476-0.0626 0.67089 0.0317 0.84855 0.1582 0.19728 0.14046 0.30093 0.13217 0.40499-0.0324zm0.51078 0.0538c0.2426-0.0472 0.47239-0.17859 0.47239-0.27005 0-0.0614-0.54164-3e-3 -0.74131 0.0798-0.15756 0.0655-0.21821 0.12819-0.21934 0.22685-5e-4 0.0399 0.0369 0.0508 0.11949 0.0349 0.0661-0.0127 0.23204-0.0449 0.36877-0.0716zm-0.25117-0.062c0.0466-0.0378 0.13151-0.0687 0.18858-0.0687 0.0571 0 0.14348-0.0213 0.19202-0.0472 0.0486-0.026 0.0994-0.0361 0.11308-0.0224 0.032 0.032-0.25775 0.15322-0.43881 0.18359-0.1327 0.0222-0.13545 0.02-0.0549-0.0453zm-1.7671-0.25875c0-0.14942-0.24373-0.46212-0.41642-0.53428-0.30558-0.12767-0.35502-0.0601-0.16756 0.22903 0.11294 0.17418 0.41502 0.40793 0.52718 0.40793 0.0312 0 0.0568-0.0462 0.0568-0.10268zm-0.29019-0.12672c-0.0941-0.10639-0.23417-0.32113-0.23417-0.35896 0-0.0129 0.0194-0.0234 0.0431-0.0234s0.0719 0.0688 0.10701 0.15294c0.0351 0.0841 0.0839 0.15294 0.10829 0.15294 0.0244 0 0.0654 0.0393 0.0912 0.0874 0.063 0.11762-8e-3 0.11094-0.1154-0.0109zm1.7995-0.23168c0.67318-0.1753 1.1766-0.71954 1.2321-1.3321 0.0312-0.34461-0.1221-0.84174-0.3826-1.2404-0.34415-0.52665-1.2698-1.4065-2.5921-2.464-0.82882-0.66282-0.98963-0.6823-0.99073-0.11999-2.5e-4 0.14561-0.0295 0.3729-0.065 0.50508l-0.0645 0.24033 0.18479 0.15294c1.0616 0.87868 2.3049 2.0865 2.5945 2.5205l0.18026 0.27012 0.12548-0.1321c0.15688-0.16515 0.36365-0.31562 0.39316-0.28611 0.0123 0.0123-0.0478 0.11424-0.1336 0.22659-0.0858 0.11235-0.15593 0.22083-0.15593 0.24105 0 0.0202-0.0128 0.0728-0.0284 0.11682-0.0192 0.054 0.02 0.0347 0.12016-0.0593 0.0817-0.0766 0.20585-0.16093 0.27584-0.18732 0.10604-0.04 0.0766 5e-3 -0.17641 0.27168-0.16701 0.17582-0.33032 0.38405-0.36291 0.46273-0.0758 0.18299-0.32984 0.31549-0.66277 0.34568-0.21574 0.0196-0.28971 4e-3 -0.52752-0.10795-0.45352-0.21433-0.75212-0.56399-1.0161-1.1899-0.2143-0.50812-0.35123-0.7227-0.65506-1.0265-0.26483-0.26483-0.63517-0.54831-0.71632-0.54831-0.0228 0-0.15537 0.13273-0.29465 0.29495s-0.37272 0.42025-0.51877 0.57339c-0.2216 0.23238-0.24746 0.27443-0.15629 0.25418 0.38409-0.0853 0.69802-0.12104 0.8558-0.0974 0.16569 0.0249 0.1923 0.0151 0.2967-0.10901 0.17488-0.20783 0.13948-0.34654-0.12947-0.50725-0.0653-0.039-0.0375-0.0416 0.12692-0.0117 0.11576 0.021 0.23107 0.051 0.25624 0.0665 0.0744 0.046 0.01 0.35207-0.10556 0.4994l-0.10638 0.13592 0.27849 0.26742c0.15316 0.14708 0.40598 0.45492 0.56181 0.68409 0.52379 0.77031 1.3475 1.3517 1.9217 1.3564 0.0971 7.8e-4 0.29373-0.0291 0.43696-0.0664zm-0.78314-0.11188c-0.25022-0.0587-0.65056-0.28523-0.81892-0.46329l-0.14754-0.15604 0.28402 0.1623c0.80828 0.46188 1.004 0.49963 1.4109 0.27209 0.30574-0.17098 0.52358-0.38666 0.70749-0.70048 0.13192-0.22509 0.17344-0.25936 0.10904-0.09-0.0776 0.20409-0.0446 0.21342 0.13716 0.0388l0.17978-0.17273-0.0719 0.14247c-0.0395 0.0784-0.18856 0.27802-0.33115 0.4437-0.43096 0.50071-0.87552 0.66014-1.4589 0.52318zm-0.58167-3.1518c-0.35583-0.34229-0.78954-0.7588-0.96378-0.92558-0.19071-0.18254-0.31718-0.33919-0.31776-0.39359-1e-3 -0.13505 0.1906-0.81135 0.23039-0.81135 0.13673 0 0.78388 0.52388 1.5731 1.2734 0.62917 0.59757 0.87318 0.89702 0.41511 0.50943-0.12617-0.10676-0.2589-0.21124-0.29495-0.23217-0.0577-0.0335-0.058-0.028-2e-3 0.0468 0.0349 0.0467 0.10373 0.13184 0.15294 0.18926 0.0509 0.0594-0.0294 0.0177-0.18648-0.0969-0.39044-0.2848-0.70722-0.31888-0.70722-0.0761 0 0.11423 0.28317 0.55735 0.5514 0.86288 0.13339 0.15193 0.23213 0.27623 0.21943 0.27623s-0.31423-0.28005-0.67007-0.62235zm1.1286 2.4001c0.14191-0.0886 0.14002-0.19887-9e-3 -0.5034-0.11843-0.24263-0.27031-0.41917-0.91085-1.0588-0.42279-0.42218-0.98319-0.95049-1.2453-1.174l-0.47658-0.40644-0.0786 0.10347c-0.0432 0.0569-0.10383 0.15029-0.13468 0.2075-0.0518 0.096-0.0443 0.11265 0.0963 0.21542 0.0838 0.0613 0.32202 0.28198 0.52927 0.49046 0.29422 0.29596 0.41155 0.45228 0.53528 0.71312 0.0872 0.18374 0.2276 0.48001 0.31209 0.65837 0.31026 0.65492 0.96681 1.0134 1.3816 0.75431zm-6.2418-0.99752c0.2574-0.1311 0.45981-0.29234 0.49123-0.39132 0.0147-0.0462 0.0793-0.11138 0.14372-0.14486 0.26545-0.13803 0.76108-0.71262 0.9832-1.1398 0.17891-0.3441 0.5961-1.3127 0.71136-1.6516 0.0907-0.2666 0.10483-0.38959 0.10483-0.91068 0-0.67926-0.073-0.96743-0.31488-1.2429-0.14426-0.1643-0.10919-0.19869 0.0638-0.0626 0.0966 0.076 0.11701 0.0787 0.16418 0.0218 0.24763-0.29837 0.76501 0.48372 0.56599 0.85558-0.0455 0.0851-0.15109 0.10705-0.27891 0.058-0.0953-0.0366-0.0869-0.10457 0.0129-0.10457 0.13271 0 0.18878-0.1055 0.15498-0.29163-0.0322-0.17714-0.1757-0.4949-0.22354-0.4949-0.0578 0-0.18827 0.14677-0.18827 0.21176 0 0.0525 0.0143 0.0486 0.0656-0.0177 0.0649-0.084 0.0662-0.084 0.13109 0 0.0361 0.0466 0.0648 0.11547 0.064 0.15294-9.9e-4 0.0445-0.0243 0.0302-0.0671-0.0411-0.0648-0.10791-0.0654-0.10711-0.0492 0.0656 9e-3 0.0961 0.0328 0.21261 0.0529 0.25884 0.0301 0.0693 0.0228 0.0788-0.0419 0.054-0.0649-0.0249-0.0738-0.0131-0.0519 0.0689 0.0146 0.0544 0.0268 0.15697 0.0271 0.22787 4.9e-4 0.10026 0.0122 0.11725 0.053 0.0765 0.0874-0.0874 0.19604-0.0595 0.31395 0.0806 0.31961 0.37984 0.1995 0.95933-0.19885 0.95933-0.0701 0-0.14449-0.0366-0.18129-0.0891-0.0593-0.0847-0.0649-0.0794-0.11172 0.10674-0.0622 0.24693-0.0618 0.27447 3e-3 0.20957 0.1067-0.10669 0.25425-0.0612 0.32121 0.0991 0.13796 0.33017 0.0194 0.71445-0.28947 0.93818-0.10157 0.0736-0.21074 0.13379-0.24259 0.13379-0.0432 0-0.0477 0.0268-0.0178 0.10552 0.0555 0.14596-0.0121 0.35439-0.19574 0.60389-0.20386 0.27691-0.4705 0.4541-0.59785 0.39727-0.0827-0.0369-0.1321-1e-3 -0.40248 0.28863-0.1695 0.18188-0.39709 0.4169-0.50575 0.52226l-0.19756 0.19158 0.21848-0.0301c0.4343-0.0598 0.8655-0.20252 1.0736-0.35531 0.21076-0.15471 0.81324-0.76739 1.1063-1.125l0.16362-0.19968-0.0903-0.0903c-0.28955-0.28955 0.22031-1.1392 0.58415-0.97347 0.0934 0.0426 0.10479 0.0349 0.12912-0.0867 0.0437-0.21832 0.0349-0.24303-0.0787-0.22132-0.18731 0.0358-0.25802-0.14142-0.23645-0.59262 0.0213-0.44472 0.10915-0.64325 0.33528-0.75735l0.14341-0.0724-0.12849-0.0282c-0.21232-0.0466-0.40464-0.31694-0.39972-0.56181 1e-3 -0.0646 0.0216-0.0402 0.0629 0.0757 0.076 0.21333 0.25231 0.39686 0.3465 0.36071 0.10624-0.0408 0.0847-0.16033-0.029-0.16111-0.076-5.2e-4 -0.084-0.01-0.0356-0.0404 0.0537-0.034 0.0512-0.0653-0.0176-0.21782-0.0442-0.0979-0.10751-0.1781-0.14076-0.1781-0.0463 0-0.0498-0.0199-0.0151-0.0847 0.0302-0.0563 0.0307-0.0938 2e-3 -0.11182-0.0654-0.0404-0.1312 0.0157-0.1312 0.11175 0 0.0466-0.0214 0.0848-0.0475 0.0848-0.0309 0-0.0376-0.0586-0.0193-0.1673 0.021-0.12416 0.0107-0.18187-0.0399-0.22383-0.0375-0.0311-0.0681-0.12395-0.0681-0.20635 0-0.12965-0.0204-0.15834-0.15153-0.21313-0.19861-0.083-0.88742-0.0823-1.2011 1e-3 -0.81372 0.21655-1.3067 0.73091-1.4057 1.4667-0.057 0.42339-0.029 1.4014 0.0455 1.5932 0.10719 0.27567 0.59074 1.0296 0.65252 1.0174 0.0344-7e-3 0.14205-0.10629 0.23929-0.22108l0.1768-0.20872-0.20273-0.2064c-0.1115-0.11352-0.2439-0.2998-0.29421-0.41395l-0.0915-0.20756 0.0866-0.1959c0.0477-0.10775 0.13708-0.26201 0.1987-0.34279 0.11168-0.14643 0.11176-0.14713 0.0246-0.22598-0.18926-0.17128-0.0452-0.49965 0.41707-0.95041l0.25764-0.25125h-0.14289c-0.19469 0-0.35009 0.0882-0.56376 0.32002-0.27313 0.29631-0.37686 0.5278-0.38028 0.84861-2e-3 0.15008-0.0172 0.27297-0.0345 0.27311-0.0683 5.2e-4 -0.16499-0.26791-0.16499-0.45786 0-0.38612 0.3468-0.88759 0.75424-1.0906 0.25528-0.12721 0.45966-0.14155 0.64579-0.0453 0.40955 0.21179 0.46772 1.2341 0.12411 2.1814-0.19164 0.52832-0.44422 0.91228-0.93523 1.4216-0.42957 0.44564-0.58892 0.66406-0.58892 0.80722 0 0.0372-0.0197 0.0677-0.0437 0.0677-0.0626 0-0.0539-0.17093 0.0214-0.41909 0.0358-0.11798 0.0653-0.21942 0.0656-0.22543 2.4e-4 -6e-3 -0.0876-0.0109-0.19528-0.0109-0.19055 0-0.19919 6e-3 -0.32538 0.2294-0.21261 0.37627-0.21993 0.38193-0.19101 0.14785 0.025-0.20211 0.022-0.21034-0.0606-0.16615-0.0478 0.0256-0.16099 0.12852-0.25157 0.22879-0.12882 0.14259-0.15765 0.15974-0.13237 0.0788 0.0346-0.11074 0.28068-0.47391 0.32293-0.47653 0.0139-8.7e-4 0.0815-0.0475 0.15019-0.10367 0.1209-0.0989 0.12255-0.10557 0.0525-0.21249-0.0398-0.0607-0.12865-0.13372-0.19749-0.16223-0.16628-0.0689-0.44843 0.0523-0.64619 0.27756-0.1044 0.11891-0.14202 0.1412-0.14202 0.0842 0-0.0427 0.12547-0.19584 0.27883-0.3404l0.27882-0.26284-0.0596-0.28379c-0.10292-0.49048-0.14567-1.1218-0.10322-1.5242 0.0218-0.20697 0.0715-0.68109 0.11034-1.0536 0.0939-0.89986 0.19196-1.3424 0.46012-2.0756 0.12306-0.33646 0.42928-1.2606 0.68049-2.0537 1.343-4.2398 1.8534-5.6203 2.1617-5.8461 0.27913-0.20445 0.73558-0.11143 0.9716 0.198 0.29641 0.38861 0.36667 0.74178 0.40015 2.0116 0.0285 1.0794 0.0976 1.5304 0.34568 2.2562 0.47981 1.4036 1.107 2.1342 1.9957 2.3248 0.92265 0.19787 1.7985-0.47473 2.0266-1.5564 0.0402-0.19074 0.0648-0.55401 0.0653-0.96513l7.4e-4 -0.65925-0.17111-0.23896c-0.0941-0.13142-0.2465-0.29022-0.33865-0.35288-0.6212-0.42243-1.5197-0.29994-2.1272 0.28998-0.12855 0.12484-0.15799 0.18086-0.13477 0.25645 0.042 0.13679 0.0373 0.13648 0.22241 0.0143 0.23749-0.15678 0.5683-0.22068 0.80814-0.1561 0.36987 0.0996 0.70603 0.34043 0.84188 0.60314 0.26039 0.50354 0.12302 1.401-0.25906 1.6924-0.42392 0.32334-0.92528 0.12964-1.2728-0.49173-0.44207-0.7905-0.83572-2.6757-1.1298-5.4106-0.12707-1.1817-0.38758-3.2949-0.47943-3.889-0.0467-0.30227-0.15273-0.62453-0.45814-1.3929-0.66352-1.6692-1.2005-2.7804-1.6181-3.3482-0.27561-0.37476-0.41313-0.65626-0.54805-1.1218-0.0762-0.26295-0.20757-0.54816-0.41665-0.90457-0.16795-0.2863-0.29736-0.52854-0.28758-0.53831 0.01-0.01 0.15118 0.13069 0.31424 0.31216 0.16305 0.18146 0.31494 0.32993 0.33752 0.32993 0.0552 0 6e-3 -0.18893-0.12471-0.47638-0.0589-0.12984-0.10107-0.24213-0.0937-0.24954 7e-3 -7e-3 0.1011 0.0988 0.20819 0.23606l0.19471 0.24953 0.0132-0.13558c0.0318-0.32663-0.52286-1.2135-0.87404-1.3975-0.23828-0.12484-0.26903-0.0721-0.0841 0.14419 0.0968 0.1133 0.16973 0.21237 0.16195 0.22015-8e-3 8e-3 -0.13436-0.0688-0.28131-0.17023-0.14694-0.10139-0.27957-0.17195-0.29473-0.15679-0.0152 0.0152 0.0349 0.12901 0.11114 0.253 0.0763 0.12399 0.13108 0.23305 0.12176 0.24237-0.0207 0.0207-0.5939-0.5784-0.85694-0.8957-0.25312-0.30536-0.47387-0.45972-0.82408-0.57626-0.17528-0.0583-0.47064-0.22021-0.75238-0.41236-0.86464-0.5897-1.5304-0.85115-2.2521-0.88438-0.39191-0.0181-0.53834 3.7e-4 -1.4201 0.17883-0.54074 0.10942-1.1981 0.2405-1.4609 0.29127-1.052 0.20329-1.734 0.56552-2.4718 1.3128-1.0244 1.0375-2.0859 3.3575-2.1724 4.7477-0.0232 0.37263-0.0167 0.41868 0.089701 0.6336 0.24875 0.50244 1.1333 1.5836 1.8521 2.2639 0.64405 0.60952 0.62958 0.4884-0.0313-0.26214-0.47393-0.5382-0.73991-0.89466-0.96003-1.2866-0.12361-0.22007-0.0752-0.1932 0.093301 0.0518 0.30016 0.43641 1.1079 1.2047 1.8368 1.747 0.35123 0.26135 0.54351 0.35059 0.61067 0.28343 0.080501-0.0805 7e-3 -0.23372-0.36134-0.75234-0.33273-0.46862-0.50938-0.78633-0.58311-1.0487-0.0169-0.0601 0.0345 4e-3 0.11424 0.14272 0.42793 0.74389 1.4168 1.7237 1.7651 1.749 0.20295 0.0147 0.17657-0.10971-0.0827-0.39024-0.29674-0.32104-0.46685-0.57026-0.46685-0.68395 0-0.0683 0.0277-0.0496 0.12464 0.0842 0.19491 0.26906 0.61115 0.6144 0.94279 0.78219 0.38038 0.19246 0.46206 0.14672 0.21556-0.1207-0.57622-0.62513-1.2113-1.9942-1.37-2.9535-0.0291-0.1758-0.0436-0.32893-0.0323-0.34027 0.0114-0.0113 0.0744 0.15217 0.14005 0.36335 0.20237 0.65064 0.54748 1.5465 0.73655 1.9121 0.33667 0.65093 0.98952 1.2029 1.4227 1.2029 0.098801 0 0.1796-0.0122 0.1796-0.0272s-0.11709-0.15237-0.2602-0.30535c-0.14311-0.15299-0.33709-0.39145-0.43107-0.52993-0.35995-0.53037-0.75641-1.4567-0.92577-2.1631-0.1392-0.58064-0.098701-0.5765 0.1032 0.0105 0.30078 0.87478 0.82756 1.9494 1.2383 2.5262 0.29535 0.41472 0.66968 0.65118 0.74015 0.46754 0.0137-0.0358-0.0481-0.27642-0.1373-0.53483-0.16026-0.46404-0.26092-1.148-0.16895-1.148 0.0219 0 0.0742 0.13273 0.11626 0.29495 0.0421 0.16223 0.21766 0.58007 0.39022 0.92855 0.26482 0.53479 0.35122 0.66767 0.55406 0.85208 0.63921 0.58112 1.1844 1.1522 1.1844 1.2406 0 0.0799 0.0191 0.09 0.13158 0.0702 0.0724-0.0127 0.22477-0.0802 0.33865-0.14982 0.11388-0.0696 0.30538-0.14059 0.42554-0.15766 0.32121-0.0456 0.39423-0.10466 0.13109-0.106-0.15716-7.4e-4 -0.26754 0.0291-0.39327 0.10655-0.20875 0.12858-0.43243 0.13953-0.61175 0.03-0.14845-0.0907-0.22213-0.21844-0.26034-0.4513-0.0145-0.0882-0.0838-0.27426-0.15403-0.41353-0.070201-0.13927-0.12107-0.25987-0.11293-0.26801 8e-3 -8e-3 0.0889 0.0796 0.17946 0.19504l0.16465 0.20984 0.34285-0.34394c0.34676-0.34786 0.40124-0.46195 0.28823-0.60359-0.13115-0.16439-0.20203-0.1579-0.41551 0.0381-0.24462 0.22458-0.42824 0.293-0.71292 0.26565-0.28112-0.027-0.48195-0.18534-0.63788-0.50288-0.10967-0.22334-0.12527-0.30831-0.13882-0.75607-0.0119-0.39183 5e-4 -0.54211 0.0552-0.67308 0.0387-0.0927 0.0795-0.15954 0.090601-0.14843 0.0111 0.0111-7.5e-4 0.14685-0.0263 0.30166-0.13603 0.82448 0.22793 1.5705 0.7662 1.5705 0.24325 0 0.42753-0.15776 0.80825-0.69196 0.16553-0.23226 0.37777-0.49637 0.47165-0.5869l0.17069-0.16461 0.0903 0.0991c0.15669 0.17198 0.20415 0.30966 0.20185 0.58557-4e-3 0.48393-0.34433 1.0588-0.81284 1.3732-0.14905 0.10002-0.2656 0.20079-0.25901 0.22392 7e-3 0.0231 0.0536 0.0983 0.10437 0.16701 0.0746 0.10089 0.0867 0.16016 0.0631 0.30785-0.0262 0.16367-0.0211 0.17966 0.0486 0.1521 0.0428-0.0169 0.21545-0.0588 0.38369-0.093 0.16823-0.0342 0.34851-0.0718 0.40062-0.0836 0.0521-0.0117 0.21925-0.12702 0.37142-0.25621 0.15217-0.12918 0.36515-0.27893 0.4733-0.33277 0.10815-0.0538 0.26364-0.14818 0.34553-0.20963l0.1489-0.11172-0.0833 0.14402c-0.12521 0.21634-0.59519 0.67391-0.90001 0.87623-0.21027 0.13957-0.18065 0.16047 0.0702 0.0495 0.11015-0.0487 0.20027-0.0832 0.20027-0.0765 0 7e-3 -0.0978 0.0754-0.2174 0.1529-0.32968 0.21362-0.31389 0.25569 0.0257 0.0686 0.1655-0.0912 0.29108-0.15509 0.27906-0.14198-0.012 0.0131-0.22178 0.1738-0.46615 0.35711-0.47796 0.35855-0.80104 0.6892-0.80104 0.81982 0 0.0447 0.0106 0.0812 0.0236 0.0812 0.12351 0 0.85792-0.51391 1.2782-0.89444 0.39543-0.35802 0.88592-1.0739 1.0338-1.5089l0.0668-0.19664-0.0887 0.10925c-0.28664 0.35291-0.44485 0.52435-0.48388 0.52435-0.0243 0-4e-3 -0.0567 0.0455-0.12607 0.0494-0.0693 0.12888-0.21732 0.17669-0.32886 0.0875-0.20418 0.22509-0.68117 0.19645-0.68117-8e-3 0-0.0671 0.10323-0.13039 0.2294-0.19006 0.37918-0.31097 0.50139-0.7541 0.76219-0.23288 0.13705-0.50631 0.32559-0.60762 0.41898-0.19126 0.17629-0.48706 0.29358-0.74043 0.29358-0.13816 0-0.14289-5e-3 -0.10152-0.11411 0.0319-0.0839 0.0267-0.14752-0.0196-0.24033-0.0746-0.1496-0.0182-0.16799 0.0856-0.0279l0.0729 0.0983-0.0236-0.13195c-0.0234-0.13067-0.0219-0.13179 0.15049-0.11535 0.12994 0.0124 0.24429-0.018 0.451-0.11973 0.32978-0.16234 0.56905-0.41156 0.63683-0.6633 0.0491-0.18217 0.0256-0.53133-0.049-0.72845-0.0726-0.19202 0.0306-0.0939 0.22181 0.21086 0.17459 0.27825 0.19964 0.30145 0.25044 0.23198 0.0671-0.0918 0.0633-8e-3 0.0762-1.6773 6e-3 -0.73301 0.0289-1.3778 0.0515-1.4329 0.0339-0.0822 0.0591-0.0121 0.14086 0.39151 0.0548 0.27043 0.11624 0.52141 0.13656 0.55772 0.0746 0.13334 0.0998-0.27414 0.0791-1.28l-0.0208-1.0105 0.14847 0.74053c0.1778 0.88679 0.2907 1.2003 0.46176 1.2823 0.0668 0.032 0.27807 0.0716 0.46953 0.088l0.34811 0.0298-0.24324 0.18789c-0.37633 0.2907-0.40642 0.39138-0.37939 1.2695 0.0248 0.80426-0.0506 1.5069-0.20752 1.9341l-0.0864 0.23537 0.0237-0.6773 0.0237-0.67729-0.157 0.45686c-0.19552 0.56899-0.36941 0.87747-0.65775 1.1669-0.26377 0.26475-0.51893 0.57896-0.49202 0.60587 0.0104 0.0104 0.10536-0.0692 0.211-0.1768 0.10565-0.10764 0.20611-0.19572 0.22324-0.19572 0.0171 0-0.14167 0.23105-0.35291 0.51344-0.54439 0.72774-1.5754 2.2677-1.5754 2.3531 0 0.0594-0.0115 0.0622-0.0666 0.0165-0.0366-0.0304-0.0786-0.0432-0.0934-0.0285-0.0147 0.0147-0.0818-0.0124-0.14905-0.0603-0.19039-0.13557-0.56752-0.18494-1.2203-0.15975-0.62044 0.0239-1.0591 0.0993-1.4483 0.24871-0.55066 0.21141-1.1995 0.19965-2.1348-0.0387l-0.50251-0.12806 0.37142 0.0171c0.3326 0.0154 0.35086 0.0124 0.17478-0.0283-0.40412-0.0934-0.87733-0.22582-0.86196-0.24118 9e-3 -9e-3 0.15219 0.013 0.31876 0.0482 0.16657 0.0353 0.36185 0.0622 0.43395 0.0598 0.086301-3e-3 0.10126-0.0109 0.0437-0.0236-0.60282-0.13309-1.1989-0.33747-1.1441-0.39228 0.0116-0.0116 0.19635 0.0376 0.4105 0.1093 0.54811 0.18363 1.0145 0.24261 1.6704 0.21124 0.55579-0.0266 1.2583-0.16631 1.5758-0.31341 0.16938-0.0785 0.14349-0.074-0.43697 0.0755-0.5088 0.13106-1.8909 0.14209-2.4144 0.0193-0.43402-0.10182-0.90437-0.33739-1.0855-0.54366-0.29259-0.33324-0.52274-0.98244-0.58584-1.6525-0.036-0.38245 0.0251-0.62972 0.20218-0.81754l0.13226-0.1403-0.0251 0.19663c-0.085101 0.66744-0.0805 1.0249 0.0178 1.3878 0.0538 0.19852 0.1128 0.3702 0.1311 0.38151 0.0522 0.0322 0.25027-0.61792 0.30655-1.006 0.0494-0.34049 0.0473-0.36004-0.071-0.65537-0.088301-0.22049-0.19035-0.37484-0.37026-0.55984-0.28266-0.29067-0.34687-0.29078-0.5179-8.7e-4 -0.17121 0.29016-0.2354 0.64528-0.2359 1.3049l-5e-4 0.61174-0.0849-0.19422c-0.0523-0.11964-0.093501-0.33777-0.10725-0.56805-0.0365-0.61144-0.22692-0.82867-0.22848-0.26061-3.7e-4 0.13437 0.0286 0.34084 0.0644 0.45881 0.0358 0.11798 0.0653 0.21992 0.0655 0.22655 2.5e-4 7e-3 -0.0569-0.0176-0.12698-0.0539-0.244-0.12618-0.29087-0.63702-0.093901-1.0232 0.10127-0.19852 0.13704-0.21471 0.24213-0.10962 0.0389 0.0389 0.0773 0.0635 0.0853 0.0546 8e-3 -9e-3 0.0462-0.15377 0.084901-0.32201 0.0387-0.16823 0.0826-0.35011 0.097701-0.40419 0.0262-0.0942 0.0162-0.0983-0.23995-0.0983-0.147 0-0.26868 0.0147-0.27039 0.0328-0.0385 0.40542-0.11508 0.57898-0.25536 0.57898-0.079601 0-0.079601-4e-3 9.9e-4 -0.16218 0.0455-0.0892 0.082701-0.20874 0.082701-0.26565 0-0.0939-0.0132-0.10064-0.14201-0.073-0.0781 0.0168-0.15676 0.0391-0.17479 0.0498-0.0458 0.0269-0.039 0.26179 0.0142 0.49278 0.0565 0.24532-6e-3 0.52863-0.17206 0.77945-0.10945 0.16533-0.11733 0.20391-0.0886 0.43393 0.0173 0.13885 0.0332 0.2967 0.0352 0.35078 3e-3 0.0828 0.0282 0.0983 0.15871 0.0983 0.10963 0 0.18496 0.0323 0.25726 0.11032 0.20698 0.22333 0.27001 0.83693 0.10722 1.0439-0.088401 0.1124-0.089001 0.1208-0.0151 0.20253 0.0424 0.0469 0.1199 0.0853 0.17214 0.0853 0.12669 0 0.48054 0.23827 0.61432 0.41366 0.11725 0.15372 0.13535 0.30738 0.0566 0.48025-0.0694 0.15231-0.0123 0.1921 0.10106 0.0704 0.12467-0.13382 0.31045-0.102 0.62551 0.10712 0.34798 0.23098 0.47234 0.39302 0.44972 0.58599-0.0101 0.0858-0.0265 0.18299-0.0366 0.21603-0.0315 0.10311 0.0677 0.0985 0.11326-5e-3 0.0816-0.18606 0.62579-0.14724 0.94331 0.0673 0.13047 0.0881 0.14902 0.12417 0.15194 0.29504 3e-3 0.14985 0.0211 0.19807 0.0807 0.20958 0.0604 0.0117 0.0711-5e-3 0.0489-0.0748-0.11981-0.37748 0.88027-0.5606 1.1824-0.2165 0.0818 0.0932 0.0818 0.094-4e-3 0.0578-0.14141-0.0594-0.77545-0.0769-0.91026-0.0251-0.1624 0.0624-0.13363 0.13369 0.10406 0.25772 0.17065 0.089 0.2334 0.0982 0.51278 0.0745 0.17509-0.0148 0.35056-0.0393 0.38993-0.0544 0.0538-0.0206 0.0646-9e-3 0.0435 0.0457-0.0247 0.0644 0.01 0.0727 0.28736 0.0696l0.31543-4e-3 -0.20616-0.0887c-0.34429-0.1482-0.31288-0.34826 0.0781-0.49758 0.24864-0.095 0.76081-0.0722 0.884 0.0393 0.0814 0.0737 0.091601 0.0732 0.23495-0.0114 0.082401-0.0486 0.29628-0.11098 0.47525-0.13855 0.27678-0.0426 0.34987-0.0398 0.48925 0.0189 0.15553 0.0655 0.21232 0.16944 0.12279 0.22477-0.0226 0.014-0.10615-0.0143-0.1857-0.0628-0.28156-0.17166-0.84825-0.0619-0.84033 0.16274 4e-3 0.11311-0.0765 0.12827-0.17234 0.0324-0.0408-0.0409-0.076201-0.0492-0.093101-0.0219-0.045 0.0728 9e-3 0.11658 0.21594 0.17446 0.28764 0.0805 0.67209 0.0396 0.94152-0.10013 0.13444-0.0697 0.29729-0.11769 0.39977-0.11769 0.34898 0 0.47579-0.15085 0.6549-0.77905 0.0452-0.15856 0.0438-0.19555-9e-3 -0.22876-0.0568-0.0359-0.41252-0.0177-0.55908 0.0287-0.083601 0.0264 3e-3 0.12399 0.17267 0.1942 0.0808 0.0335 0.1164 0.0704 0.0917 0.0951-0.0528 0.0528-0.31039-0.056-0.41767-0.17642-0.10737-0.12054-0.069001-0.20599 0.11078-0.2468l0.14577-0.0331-0.17478-0.0467c-0.30429-0.0813-1.932-0.063-2.6218 0.0295-1.4112 0.1892-2.6279-0.11627-3.4666-0.87033-0.12446-0.1119-0.21281-0.16834-0.19635-0.12543 0.0227 0.0592-9e-3 0.0485-0.13036-0.0442-0.19615-0.14961-0.31588-0.12689-0.2724 0.0517 0.016 0.0659 0.078601 0.16892 0.1391 0.229l0.10993 0.10924-0.096701-0.16664c-0.10978-0.18915-0.069-0.29311 0.070501-0.17953 0.0724 0.059 0.0737 0.0657 9e-3 0.0452-0.0453-0.0142-0.0765-1e-3 -0.0765 0.0314 0 0.081 0.092601 0.16031 0.18717 0.16031 0.0474 0 0.073801 0.0232 0.0623 0.0546-0.011 0.03-0.0471 0.0492-0.0801 0.0426-0.0331-7e-3 -0.0109 0.0279 0.0491 0.0768 0.0601 0.0488 0.14366 0.0807 0.18571 0.0707 0.085201-0.0202 0.11036 0.12242 0.0303 0.17191-0.21274 0.13148-0.81214-0.4841-0.7762-0.79716 0.0132-0.11501 0.0255-0.12162 0.21565-0.11543l0.20165 7e-3 -0.15795-0.27474c-0.14316-0.249-0.16-0.26438-0.1798-0.16417-0.0534 0.27033-0.33276 0.23872-0.50624-0.0573-0.15503-0.26455-0.17127-0.62817-0.0342-0.76549 0.10668-0.10685 0.22712-0.0887 0.31189 0.0471 0.0529 0.0847 0.0477 0.0873-0.12028 0.0605-0.15994-0.0256-0.17555-0.0196-0.17555 0.0674 0 0.17783 0.096001 0.47799 0.17604 0.55043 0.10282 0.093 0.22753 0.0683 0.28221-0.056 0.0237-0.0539 0.0532-0.0977 0.0656-0.0972 0.0123 5e-4 0.0814 0.10098 0.15349 0.22335 0.0721 0.12237 0.28241 0.36522 0.46735 0.53968 0.51786 0.4885 1.2621 0.83354 2.1326 0.98865 0.44451 0.0792 1.5557 0.0699 1.9226-0.0162 0.15622-0.0366 0.43151-0.10097 0.61175-0.14299 0.69072-0.16105 1.5798-0.086 2.0991 0.17718l0.20457 0.10366 0.28665-0.58344c0.4195-0.85384 0.83004-1.4632 1.429-2.121l0.13925-0.15293-0.14173 0.26217c-1.1947 2.2101-1.7549 3.374-2.4498 5.0906-0.073 0.18024-0.16926 0.40967-0.21399 0.50984-0.093101 0.20846-0.31974 1.3222-0.39423 1.9372-0.0277 0.22831-0.065 0.49377-0.082901 0.5899-0.0312 0.16757-0.0342 0.16125-0.0712-0.15294l-0.0386-0.32772-0.0292 0.37142c-0.0776 0.98636-0.0307 1.7621 0.17887 2.9602 0.0639 0.36561 0.28945 0.73203 0.739 1.2008 0.22525 0.23489 0.42289 0.42707 0.43919 0.42707s0.074-0.17874 0.12829-0.39721l0.0986-0.39722-0.17524-0.26915c-0.56348-0.86547-0.77988-1.897-0.59086-2.8163 0.0694-0.33746 0.449-1.5411 0.49901-1.5822 0.0146-0.012 0.052-0.0848 0.0831-0.16168 0.0311-0.0769 0.13895-0.26531 0.23966-0.41865 0.10072-0.15335 0.24983-0.45419 0.33136-0.66855 0.45373-1.193 0.98543-2.072 1.2533-2.072 0.23533 0 0.40825 0.40657 0.40825 0.95988 0 0.74454-0.52883 2.8929-1.2265 4.9828-0.20553 0.61565-0.75434 2.5845-0.90248 3.2377-0.0558 0.24585-0.0734 0.53868-0.0736 1.2193-3.8e-4 1.6238 0.22247 2.546 0.75184 3.1119 0.25334 0.27084 0.51804 0.42768 0.88268 0.52299 0.37527 0.0981 0.4504 0.0965 0.66811-0.0144zm0.55539-0.052c0-8e-3 0.10708-0.0883 0.23795-0.17848 0.13088-0.0901 0.28949-0.23144 0.35247-0.31401 0.0724-0.095 0.22147-0.19863 0.40567-0.28215 0.33683-0.15273 0.45527-0.25255 0.60829-0.51272 0.12231-0.20794 0.17087-0.22055 0.0999-0.0259-0.0428 0.11718-0.0352 0.11371 0.10555-0.0486 0.12691-0.14633 0.1473-0.15758 0.12519-0.0691-0.0226 0.0904-0.0144 0.10107 0.057 0.0737 0.0944-0.0362 0.0201 0.0525-0.48355 0.57732-0.45482 0.47394-0.67162 0.619-1.0643 0.71213-0.33226 0.0788-0.44413 0.0959-0.44413 0.0678zm-1.4257-0.18937c-0.6304-0.3482-1.0662-1.0059-1.2474-1.8828-0.0753-0.36443-0.0849-0.53603-0.0661-1.1905 0.0248-0.86482 0.0836-1.1697 0.55432-2.8762 0.27502-0.99704 0.86595-2.9807 0.87105-2.924 2e-3 0.0183-0.0277 0.22417-0.0653 0.45753-0.11534 0.71676-0.0969 1.5069 0.0334 1.4264 0.0532-0.0328 0.37491-0.70029 0.58619-1.216 0.17345-0.42337 0.18199-0.40291 0.0412 0.0986-0.24171 0.86079-0.2198 0.98723 0.0677 0.3909 0.0956-0.19827 0.16111-0.32117 0.14556-0.2731-0.0156 0.0481-0.1836 0.55074-0.37345 1.1171-0.4916 1.4665-0.52284 1.6226-0.55052 2.7511-0.0208 0.84645 4e-5 1.2698 0.0987 2.009 0.0261 0.19556 0.0253 0.19702-0.14374 0.26637-0.20232 0.083-0.29562 0.25249-0.34044 0.61849-0.0349 0.28463 3e-3 0.31503 0.14825 0.11871 0.1494-0.20207 0.43641-0.39191 0.59137-0.39115 0.25382 1e-3 0.25846 0.0535 0.0267 0.30042-0.24509 0.26106-0.38429 0.60565-0.33059 0.81837l0.0318 0.12589 0.0671-0.13109c0.0772-0.15087 0.22971-0.32772 0.28257-0.32772 0.0198 0 0.0365 0.0344 0.037 0.0765 4.9e-4 0.042 0.0416 0.16495 0.0913 0.2731l0.0903 0.19663 0.077-0.24033c0.10021-0.31287 0.26629-0.64666 0.33482-0.67296 0.0415-0.0159 0.051 0.0882 0.0406 0.44625l-0.0136 0.46704-0.15936 0.12912c-0.12993 0.10529-0.20945 0.13217-0.43082 0.14563-0.23416 0.0142-0.30229-5.2e-4 -0.49557-0.10728zm1.4514-2.2159c-0.31471-0.5867-0.39307-0.88989-0.36278-1.4036 0.0213-0.36053 0.12387-0.77947 0.20287-0.8283 0.0178-0.011 4e-3 0.0922-0.0317 0.22936-0.0534 0.20769-0.0555 0.31511-0.0124 0.64264 0.0285 0.21629 0.0703 0.41182 0.0929 0.43449 0.0258 0.0258 0.0908-6e-3 0.17399-0.086l0.13281-0.12724-0.067 0.18982c-0.12956 0.36721-0.0747 0.59301 0.22467 0.92435l0.1556 0.17223-0.1166 0.15288c-0.0641 0.0841-0.12391 0.15288-0.13283 0.15288-9e-3 0-0.12571-0.2041-0.25951-0.45355zm-3.2101-3.2388c-0.27358-0.2545-0.56821-0.65609-0.69551-0.94802-0.1087-0.24927-0.21416-0.73657-0.24875-1.1494l-0.0256-0.30587 0.19705 0.39326 0.19705 0.39327-0.0316-0.30587c-0.072601-0.70215-0.0115-1.5404 0.12902-1.7697 0.0272-0.0443 0.0299-0.0302 9e-3 0.0437-0.0577 0.19977-0.0313 1.234 0.042 1.6452 0.091901 0.51513 0.29703 1.0791 0.51556 1.4172 0.16029 0.248 0.17199 0.2872 0.16004 0.53614l-0.0129 0.26859zm8.8337-2.7507c-0.67648-0.21142-1.2479-0.9387-1.624-2.0668-0.15772-0.47317-0.31276-1.1983-0.30743-1.4379 3e-3 -0.13428 0.0331-0.0672 0.1501 0.33458 0.16563 0.56868 0.18081 0.52202 0.0847-0.26031-0.037-0.30144-0.096-0.78092-0.13108-1.0655-0.11819-0.95892-0.0729-0.83211 0.15728 0.44044 0.0793 0.43831 0.15087 0.7902 0.15909 0.78198 8e-3 -8e-3 -0.016-0.29504-0.0537-0.63738-0.0757-0.68601-0.0664-0.90319 0.0168-0.39347 0.075 0.45928 0.40979 1.8171 0.57505 2.332 0.29861 0.93041 0.56748 1.3689 0.94543 1.542 0.45834 0.20983 0.98306 0.0816 1.4091-0.34448 0.33128-0.33127 0.42054-0.54588 0.41469-0.99692-5e-3 -0.35162-0.12195-0.80837-0.24091-0.93729-0.0211-0.0228-0.0383-0.0583-0.0383-0.0789s0.0503 0.0178 0.11187 0.0852c0.0986 0.10807 0.10596 0.11049 0.0619 0.0204-0.0869-0.17789-0.3585-0.44774-0.58686-0.58315-0.21248-0.12599-0.21507-0.12982-0.0708-0.10461 0.22093 0.0386 0.12893-0.0212-0.1375-0.0894l-0.23073-0.0591 0.34957 0.0141c0.69036 0.0278 0.98746 0.33988 1.0684 1.1223 0.14867 1.437-0.51107 2.4484-1.5928 2.4417-0.16823-1e-3 -0.38873-0.0278-0.49001-0.0594zm-6.1998-3.5088c0.125-0.61199 0.17585-1.317 0.11967-1.6593-0.089-0.54193-0.28138-0.75878-0.54103-0.60976-0.16024 0.092-0.18071 0.0784-0.1206-0.0797 0.0797-0.20975 0.0175-0.16735-0.20538 0.13983-0.40091 0.55258-0.61087 0.93744-0.9011 1.6517-0.18021 0.44351-0.19841 0.48233-0.20146 0.42972-5e-3 -0.0932 0.42208-1.3411 0.60292-1.7601 0.098-0.227 0.17125-0.41963 0.16282-0.42805-0.0573-0.0573-0.84998 1.3574-1.0768 1.9217-0.0554 0.1379-0.10897 0.24253-0.11899 0.23252-0.0464-0.0464 0.57486-1.6801 0.97684-2.5688 0.29305-0.64789 1.2934-2.6622 1.3126-2.643 8e-3 8e-3 -0.0951 0.34404-0.22806 0.74782-0.13295 0.40379-0.23356 0.74232-0.22358 0.7523 0.0422 0.0422 1.08-2.9158 1.08-3.0785 0-0.036 0.0116-0.0539 0.0257-0.0397 0.0347 0.0347-0.13653 0.92169-0.27202 1.409-0.0601 0.2163-0.18448 0.57024-0.27629 0.78654-0.0918 0.21629-0.20709 0.52376-0.25619 0.68326-0.10647 0.3459-0.20226 1.1279-0.14516 1.185 0.0235 0.0235 0.1175-0.0634 0.2325-0.21524 0.34771-0.45896 0.62394-0.9424 0.88806-1.5542 0.10648-0.24664 0.19428-0.42859 0.19512-0.40432 3e-3 0.0754-0.29162 1.1157-0.43165 1.5261-0.0733 0.21475-0.12657 0.3971-0.11847 0.4052 8e-3 8e-3 0.11986-0.21114 0.24833-0.48722 0.12848-0.27608 0.23923-0.49632 0.24613-0.48943 0.0184 0.0184-0.36073 2.1721-0.46293 2.6295-0.14993 0.6709-0.45292 1.6371-0.51337 1.6371-0.0122 0-0.0111-0.0541 2e-3 -0.12016zm1.1801-0.22941c0.19883-0.70454 1.0706-4.2636 1.2844-5.2436l0.0429-0.19663 5e-3 0.24039c4e-3 0.20128-0.0888 1.1355-0.19084 1.9226-0.0237 0.18263-0.0164 0.1733 0.10256-0.13109l0.12804-0.32772 0.0152 0.17478 0.0152 0.17479 0.1718-0.48066 0.0254 0.15293 0.0254 0.15294 0.0388-0.15294 0.0388-0.15293 0.0267 0.13109c0.025 0.12279 0.0306 0.11587 0.0885-0.10925l0.0618-0.24033 0.0534 0.30588 0.0332-0.13109c0.0632-0.24989 0.0861-0.26293 0.11504-0.0655 0.0237 0.1618 0.0308 0.12696 0.0398-0.19664 0.0128-0.45743 9e-3 -0.46537 0.25589 0.57349l0.16726 0.70458-0.17338-0.1256c-0.13734-0.0995-0.21972-0.12552-0.39624-0.12518-0.27745 5e-4 -0.61852 0.15225-0.78378 0.34865-0.24026 0.28554-0.60229 1.1351-0.99499 2.3348-0.0938 0.28651-0.18315 0.5323-0.1986 0.54621-0.0155 0.0139-0.0142-0.0239 3e-3 -0.084zm-7.9816-1.6032c-0.0421-0.011-0.0765-0.0448-0.0765-0.075 0-0.0927 0.0508-0.11243 0.11757-0.0457 0.0722 0.0722 0.49418 0.0891 0.49418 0.0198 0-0.024-0.0229-0.0437-0.051-0.0437-0.028 0-0.0394-0.0116-0.0251-0.0258 0.0347-0.0347 0.20721 0.0221 0.20721 0.0682 0 0.0939-0.43992 0.16148-0.66637 0.1023zm2.6327-0.19059c0-0.12402 0.51665-0.22036 0.55494-0.10348 0.01 0.0292-0.0329 0.0401-0.11102 0.0287-0.0696-0.0102-0.1871 0.0128-0.26118 0.0511-0.15853 0.082-0.18274 0.0851-0.18274 0.0237zm5.0427-0.28179c0.0772-0.31036 0.30183-1.5626 0.39575-2.2067 0.19441-1.3332 0.24985-2.7092 0.10916-2.7092-0.0336 0-0.19138 0.46305-0.34252 1.005-0.0369 0.13218-0.04 0.11735-0.0234-0.10924l0.0193-0.26217-0.10643 0.37141c-0.0585 0.20429-0.16799 0.54839-0.24324 0.76469-0.14526 0.41759-0.64375 1.4702-0.76563 1.6168-0.0858 0.10315-0.098 0.13967 0.24055-0.72098 0.29509-0.75022 0.51425-1.4361 0.69117-2.163 0.11399-0.46839 0.11698-0.51526 0.11698-1.8352 0-1.5601 0.0209-1.6615 0.26602-1.2911 0.2675 0.40422 0.41428 1.4644 0.41361 2.9875-7.5e-4 1.6559-0.19136 3.0084-0.58739 4.1678-0.10814 0.31658-0.23089 0.57311-0.1839 0.38431zm-8.1891-0.19377c-0.3058-0.093-0.56777-0.27821-0.56777-0.40137 0-0.23816 0.63073-0.21651 0.83024 0.0285 0.0583 0.0716 0.0583 0.0778 0 0.056-0.18403-0.0687-0.57029-0.13145-0.64077-0.10414-0.0719 0.0279-0.0656 0.0442 0.0601 0.15691 0.17845 0.16003 0.44096 0.23524 0.60434 0.17312 0.1482-0.0563 0.20215-0.0136 0.088101 0.0698-0.091801 0.0671-0.20248 0.0734-0.3742 0.0211zm0.67177-0.0431c-0.31631-0.14363-0.27802-0.31748 0.088-0.39938 0.26003-0.0582 0.49167-0.0318 0.62033 0.0707 0.078 0.0622 0.0708 0.065-0.099701 0.0396-0.22033-0.0328-0.68023 0.0532-0.65701 0.12291 0.0379 0.11376 0.40196 0.13769 0.75332 0.0495 0.083201-0.0209 0.10927-0.0104 0.10927 0.0439 0 0.16481-0.51086 0.2104-0.81418 0.0727zm1.7432-0.11447c0.14966-0.13878 0.15208-0.22842 8e-3 -0.28334-0.15867-0.0603-0.34683-0.0529-0.52292 0.0207-0.18249 0.0763-0.1941 0.17297-0.0314 0.26126l0.12017 0.0652-0.15512 2e-3c-0.31055 4e-3 -0.35425-0.20701-0.0714-0.34393 0.49544-0.23983 1.1954 0.0381 0.76182 0.30246-0.1975 0.12041-0.2517 0.10841-0.1088-0.0241zm-2.5023-0.0346c-0.17871-0.0834-0.22122-0.12019-0.19253-0.16662 0.016-0.0258 0.0618-7e-3 0.11116 0.0462 0.099901 0.10722 0.31001 0.17061 0.33335 0.10057 0.0182-0.0547 0.14149-0.0207 0.14149 0.039 0 0.0548-0.26224 0.0421-0.39347-0.0191zm2.0419-0.0558c-0.073701-0.0737-0.0185-0.10449 0.18682-0.10449 0.12016 0 0.21848 0.0197 0.21848 0.0437s-0.0442 0.044-0.098301 0.0443c-0.0541 3.7e-4 -0.13814 0.0113-0.18682 0.0244-0.0487 0.0131-0.10275 0.01-0.12016-8e-3zm0.93939-0.0414c-0.14634-0.10251-0.12638-0.26417 0.0435-0.352 0.28108-0.14536 0.99408-0.0543 1.0672 0.13624 0.0319 0.0831-0.1424 0.28484-0.24317 0.28149-0.0511-2e-3 -0.0435-0.0199 0.0295-0.0709 0.22393-0.1562 0.036-0.3201-0.3671-0.3201-0.37002 0-0.47879 0.11921-0.30899 0.33865 0.0624 0.0806-0.10076 0.0707-0.22089-0.0134zm-4.0475-0.16163c-0.27815-0.15087-0.42814-0.33894-0.40928-0.51319 0.023-0.21266 0.38115-0.13677 0.62474 0.13238 0.0734 0.0811 0.0607 0.0789-0.11212-0.0199-0.33111-0.18926-0.57755-0.11734-0.34388 0.10035 0.12122 0.11293 0.57896 0.35524 0.67108 0.35524 0.0401 0 0.0608 0.0197 0.0459 0.0437-0.0484 0.0782-0.21343 0.0441-0.47647-0.0986zm4.3436 0.0511c0-0.12632 0.42412-0.13881 0.52646-0.0155 0.0387 0.0466-7e-3 0.0575-0.23935 0.0575-0.15791 0-0.28711-0.0189-0.28711-0.042zm-4.2604-0.20004c-0.26377-0.13937-0.36208-0.2768-0.19801-0.2768 0.0565 0 0.077801 0.0214 0.0622 0.0622-0.0276 0.0718 0.12184 0.16619 0.23308 0.14717 0.0426-7e-3 0.0811 0.02 0.090101 0.0637 0.0191 0.093-0.0169 0.0938-0.18733 4e-3zm11.886-2.0231c-0.2344-0.93814-0.43407-1.7057-0.44372-1.7057-0.01 0-7e-3 0.16222 6e-3 0.36049 0.0592 0.89691 0.0636 1.0568 0.0272 0.99409-0.0209-0.036-0.0515-0.20319-0.0682-0.37142-0.0166-0.16823-0.055-0.43368-0.0854-0.5899l-0.0552-0.28402-6e-3 0.54639c-4e-3 0.34554-0.0381 0.7132-0.0937 1.0002-0.0484 0.24957-0.0934 0.4592-0.10009 0.46585-7e-3 7e-3 -0.0144-0.30579-0.0172-0.69429-6e-3 -0.77061-0.0714-1.3401-0.30258-2.617-0.16588-0.91621-0.1899-1.2573-0.0885-1.2573 0.077 0 0.33254 0.3093 0.45257 0.54775 0.27296 0.54224 0.64333 1.8921 0.90475 3.2975 0.17238 0.92675 0.33581 1.973 0.31193 1.9969-9e-3 9e-3 -0.20803-0.75133-0.44243-1.6895zm-13.631-0.0841c-0.072201-0.13956-0.092001-0.35446-0.0327-0.35446 0.0194 0 0.0735 0.0289 0.12016 0.0642 0.0768 0.0581 0.0775 0.0643 8e-3 0.0656-0.090101 2e-3 -0.10108 0.10135-0.0186 0.16978 0.0424 0.0352 0.0726 0.0337 0.11294-6e-3 0.044-0.0428 0.0521-0.0317 0.0405 0.0552-0.0214 0.15952-0.14932 0.16248-0.23058 5e-3zm1.5487-3.0742c-0.70705-0.60201-1.1554-1.0878-1.9804-2.1457-0.18454-0.23663-0.33552-0.41268-0.33552-0.39122 0 0.0215 0.078501 0.27259 0.17438 0.55808 0.095901 0.28549 0.1661 0.52735 0.15598 0.53748-0.0292 0.0292-0.39826-0.49063-0.51148-0.72057-0.21045-0.42738-0.15159-1.3712 0.13972-2.2408 0.32381-0.96649 1.0241-2.1789 1.7903-3.0996 0.33818-0.40636 0.82927-0.75265 1.4628-1.0315l0.26218-0.1154-0.36147 0.33635c-0.43398 0.40383-0.56623 0.60375-0.20439 0.309 0.45317-0.36915 0.48667-0.33225 0.077101 0.0849-0.44279 0.45105-0.64883 0.74073-0.29346 0.41259 0.17923-0.16549 0.58009-0.48311 0.84776-0.67171 0.0361-0.0254-0.12145 0.15-0.35 0.38978-0.22855 0.23979-0.48395 0.52446-0.56756 0.63261-0.14588 0.1887-0.13881 0.18505 0.17522-0.0904 0.2727-0.23922 0.61409-0.50861 0.96083-0.75817 0.0361-0.026-0.12206 0.15929-0.35137 0.41164-0.94031 1.0348-1.1 1.2725-0.42565 0.63359 0.25366-0.24033 0.55684-0.5047 0.67373-0.58748 0.20721-0.14675 0.20454-0.14203-0.10664 0.18835-0.28666 0.30433-0.83819 1.0097-0.83918 1.0732-2.5e-4 0.0138 0.20294-0.1716 0.45145-0.41193s0.57804-0.52408 0.7323-0.63055l0.28047-0.19359-0.3964 0.4165c-0.41999 0.44128-0.89841 1.0516-1.0652 1.3588l-0.10042 0.18496 0.21156-0.24033c0.43283-0.49171 0.8799-0.93514 1.2194-1.2095 0.63654-0.51438 0.62895-0.43652-0.0226 0.23143-0.9616 0.98585-1.6013 1.8141-1.7894 2.317-0.21503 0.57471-0.0148 1.0499 0.39312 0.93291 0.33563-0.0963 0.73282-0.45042 1.6316-1.4548 0.18912-0.21134 0.35266-0.37543 0.36344-0.36466 0.0108 0.0108-0.0313 0.12012-0.0936 0.24299-0.15509 0.30604-0.36267 0.94072-0.39427 1.2054-0.0514 0.43092 0.16691 0.58374 0.44159 0.30906 0.085901-0.0859 0.16117-0.15613 0.16733-0.15613 6e-3 0 0.0225 0.25071 0.0362 0.55713 0.0581 1.2913 0.35122 1.614 0.9665 1.0639 0.10847-0.097 0.12199-0.10077 0.093101-0.0261-0.24866 0.64212-0.24354 1.2256 0.0179 2.0385 0.0716 0.22258 0.12368 0.41114 0.11579 0.41903-0.024 0.024-0.48607-0.60304-0.68382-0.92813-0.25657-0.42177-0.43554-0.82044-0.8141-1.8134-0.17866-0.46864-0.37757-0.96978-0.44203-1.1136-0.11452-0.25563-0.11782-0.25861-0.14512-0.13109-0.0438 0.20474-0.0407 0.71288 7e-3 1.0481 0.1008 0.71638 0.37513 1.3106 1.0669 2.3112 0.23085 0.33389 0.41032 0.61648 0.39882 0.62798-0.0454 0.0454-0.419-0.21817-0.60946-0.43001-0.35416-0.39391-0.84084-1.2902-1.0303-1.8974-0.1213-0.38884-0.4971-1.289-0.53812-1.289-0.0486 0-0.0161 0.50145 0.0608 0.93947 0.10828 0.6167 0.48995 1.5813 0.87102 2.2014l0.17777 0.28926-0.48031-0.48795c-0.26417-0.26837-0.51509-0.55349-0.55759-0.63359-0.061-0.11491-0.080801-0.12891-0.094201-0.0663-0.0254 0.11949 0.11858 0.7194 0.23693 0.98704 0.0574 0.12986 0.098301 0.24219 0.090901 0.24961-7e-3 7e-3 -0.12172-0.0714-0.25399-0.17527-0.26985-0.21179-0.60046-0.63957-0.84782-1.097-0.091001-0.16823-0.25603-0.45335-0.36678-0.6336l-0.20137-0.32772-0.0148 0.17479c-0.0341 0.40223 0.2158 1.0564 0.66929 1.7521 0.13499 0.2071 0.2396 0.39406 0.23245 0.41545-7e-3 0.0214-0.18015-0.1034-0.38443-0.27734zm5.1343-0.0311c-0.13807-0.0571-0.27532-0.22855-0.34809-0.43479-0.082701-0.2344-0.083201-0.2782-1e-3 -0.13527 0.0612 0.10705 0.0625 0.10529 0.0651-0.0874l3e-3 -0.19664 0.10141 0.29761c0.16884 0.49551 0.16876 0.49551 0.66746 0.0393 0.23678-0.21661 0.54788-0.51375 0.69133-0.66033 0.1554-0.15878 0.29789-0.2665 0.35256-0.2665 0.0505 0 0.19551-0.0308 0.32232-0.0685 0.47215-0.14021 0.78952-0.59993 0.79098-1.1457 5e-4 -0.17728 0.0129-0.23062 0.043-0.18407 0.0233 0.0361 0.0425 0.20319 0.0426 0.37142 2.5e-4 0.37774-0.12372 0.67076-0.3827 0.90422-0.30675 0.27652-0.53366 0.35617-0.79874 0.28038-0.10217-0.0292-0.12985-5e-3 -0.31614 0.27502-0.25835 0.38852-0.73095 0.89165-0.92325 0.98291-0.16439 0.078-0.18453 0.0798-0.30911 0.0283zm0.092101-0.50608c-0.0858-0.0858-0.15564-0.32479-0.18794-0.64296-0.014-0.13819-0.0411-0.25125-0.0601-0.25125s-0.075601 0.10323-0.12569 0.2294l-0.091101 0.22941 0.0131-0.31746 0.0131-0.31747-0.080101 0.14268c-0.0693 0.12351-0.0773 0.128-0.0592 0.0334 0.0115-0.0601 0.0335-0.20756 0.049-0.32772l0.0282-0.21849-0.17165 0.17727c-0.18168 0.18763-0.3442 0.55446-0.38835 0.87655-0.0143 0.10424-0.043 0.17898-0.0639 0.1661-0.0605-0.0374-0.0439-0.51724 0.0304-0.87676 0.0375-0.18175 0.0599-0.33882 0.0497-0.34906-0.0281-0.0281-0.20394 0.39998-0.23101 0.5625-0.0723 0.43428-0.086101 0.43334-0.14904-0.0101-0.0549-0.38734 6e-3 -0.92246 0.13997-1.2347 0.0491-0.11415 0.091801-0.20755 0.094901-0.20755 3e-3 0 0.14387 0.13272 0.31278 0.29495 0.73292 0.70391 1.5572 0.88556 2.3787 0.52425l0.1979-0.087-0.44591-0.0767c-0.30934-0.0532-0.51607-0.11636-0.67495-0.20612-0.31457-0.17772-0.32004-0.25614-8e-3 -0.10979 0.22662 0.10617 0.30503 0.11928 0.71342 0.11928 0.38692 0 0.4862-0.0148 0.6336-0.0943 0.20137-0.10866 0.38926-0.29435 0.45724-0.45189 0.0373-0.0864 0.0433-0.0354 0.029 0.24421-0.0137 0.26661-0.0472 0.41475-0.13622 0.60298-0.15909 0.33629-0.33207 0.44628-0.79134 0.50316-0.19467 0.0241-0.4076 0.0683-0.47318 0.0982-0.0668 0.0304-0.26378 0.25267-0.44796 0.50539-0.36345 0.49874-0.45176 0.5734-0.55548 0.46968zm0.30062-1.6283c-0.36312-0.12556-0.63654-0.31048-1.0087-0.68222-0.25384-0.25354-0.39238-0.43462-0.49012-0.64065-0.17287-0.36438-0.27115-0.74039-0.26711-1.0219l3e-3 -0.22022 0.0812 0.32772c0.10237 0.41291 0.18035 0.59749 0.39798 0.94209 0.34952 0.55343 0.93228 0.98838 1.6631 1.2413l0.36387 0.12592-0.26218 2e-3c-0.14419 9.9e-4 -0.36075-0.0322-0.48122-0.0739zm0.38005-0.47031c-0.44356-0.11937-0.87726-0.45723-1.2586-0.98046-0.39798-0.54614-0.58736-1.0075-0.58168-1.4171 4e-3 -0.27323 0.0765-0.48522 0.081201-0.237 8e-3 0.40586 0.38405 1.275 0.75019 1.733 0.25865 0.32359 0.70598 0.66654 1.0444 0.80075 0.41733 0.16547 0.39885 0.21772-0.0356 0.1008zm0.26896-0.21125c-0.19582-0.0631-0.45181-0.22683-0.45181-0.28907 0-0.021 0.0934 5e-3 0.20756 0.0568 0.16802 0.0769 0.28871 0.095 0.6336 0.0949 0.23432-9e-5 0.42604 5e-3 0.42604 0.0106 0 6e-3 -0.0543 0.0389-0.12074 0.0732-0.18546 0.0959-0.49018 0.11941-0.69465 0.0536zm-4.5121-0.35773c2e-3 -0.0509 0.0125-0.0613 0.0264-0.0264 0.0126 0.0315 0.0111 0.0692-3e-3 0.0837-0.0145 0.0145-0.0249-0.0113-0.023-0.0573zm5.4149 0.0284c0-0.0198 0.061-0.0613 0.13549-0.0921 0.21334-0.0884 0.55652-0.45325 0.68584-0.72922 0.0995-0.21226 0.11813-0.31101 0.11807-0.6246-4e-5 -0.33523-0.015-0.40296-0.14931-0.67729-0.26053-0.53211-1.0254-1.2039-1.5382-1.351l-0.23505-0.0674 0.30416 0.0237c0.20988 0.0163 0.38846 0.0639 0.5762 0.15353 0.47804 0.22814 1.0602 0.92427 1.2184 1.4569 0.1676 0.56437-0.0315 1.3388-0.44762 1.7412-0.14733 0.14244-0.20287 0.16675-0.41889 0.18333-0.13697 0.0105-0.24904 3e-3 -0.24904-0.0169zm-1.2638-0.15975c-0.0739-0.0622-0.13444-0.15469-0.13444-0.2055 0-0.0818 0.0189-0.0739 0.1657 0.0694 0.0911 0.089 0.18829 0.16181 0.2159 0.16181 0.0276 0 0.0624 0.0197 0.0772 0.0437 0.0572 0.0926-0.19629 0.0383-0.32437-0.0694zm-0.70493-0.45031c-0.33517-0.27627-0.5646-0.9369-0.52515-1.5121 6e-3 -0.0896 0.0406-7e-3 0.10894 0.26218 0.16102 0.63354 0.31001 0.95839 0.56618 1.2344 0.16819 0.18124 0.0641 0.19202-0.14997 0.0155zm0.72342-0.0475c-0.12016-0.0712-0.25797-0.1644-0.30625-0.20715-0.26105-0.23118-0.40758-0.56861-0.33049-0.76111 0.0227-0.0567 0.0426-0.0793 0.0441-0.0501 2e-3 0.0476 0.21887 0.2423 0.65874 0.59276 0.14191 0.11307 0.14412 0.11841 0.032 0.0774-0.18085-0.0661-0.39442-0.17926-0.48037-0.25461-0.0421-0.0369-0.0765-0.0461-0.0765-0.0206 0 0.0579 0.40585 0.4801 0.61175 0.63647 0.2042 0.15508 0.11861 0.14773-0.15294-0.0131zm0.98318-0.17306c0-0.0226 0.02-0.0535 0.0445-0.0686 0.0583-0.0361 0.26135-0.43768 0.26135-0.51704 0-0.0339-0.029-0.0857-0.0643-0.11503-0.0513-0.0426-0.0777-0.04-0.13041 0.0127-0.0363 0.0363-0.24219 0.10743-0.45742 0.15796-0.3463 0.0813-0.41097 0.0851-0.56183 0.0331-0.2333-0.0804-0.45974-0.26122-0.5597-0.44699-0.0699-0.12992-0.10109-0.15101-0.19265-0.13028-0.10567 0.0239-0.1047 0.0205 0.0295-0.10373 0.2466-0.22833 0.93587-0.23999 1.4088-0.0238 0.42451 0.19405 0.83398 0.51574 0.83398 0.6552 0 0.0423-0.53362 0.58765-0.57498 0.58765-0.0202 0-0.0368-0.0185-0.0368-0.0411zm0.0746-0.84929c-0.0302-0.0907-0.16203-0.0833-0.16203 9e-3 0 0.0656 0.0216 0.0809 0.0892 0.0632 0.0491-0.0128 0.0818-0.0454 0.0729-0.0724zm-0.25258-0.0381c0.0497-0.12946 0.0278-0.14724-0.27913-0.22715-0.48951-0.12743-0.54974-0.0555-0.15362 0.18346 0.27734 0.16731 0.38129 0.17781 0.43275 0.0437zm0.57043-0.20117c-0.23091-0.2457-0.73226-0.50968-1.092-0.57497-0.18347-0.0333-0.29775-0.0289-0.4806 0.0185-0.13194 0.0342-0.24587 0.0563-0.25317 0.049-7e-3 -7e-3 0.0582-0.0575 0.14552-0.11143 0.32023-0.19791 0.76422-0.15681 1.2263 0.11353l0.25812 0.15101-0.15294-0.13515c-0.18487-0.16337-0.39289-0.2749-0.65569-0.35154-0.17684-0.0516-0.18437-0.0589-0.0757-0.0731 0.34058-0.0445 0.8408 0.24717 1.0571 0.61647 0.10271 0.17532 0.2557 0.51083 0.23198 0.50874-6e-3 -6.2e-4 -0.10034-0.0955-0.20892-0.21108zm-2.5768-0.65896c-9.9e-4 -0.20509 0.25006-0.59933 0.32944-0.51733 6e-3 7e-3 -0.065 0.1496-0.15868 0.31783-0.12646 0.22721-0.17038 0.27852-0.17076 0.1995zm5.5968 24.916c0.13969-0.0825 0.17789-0.17388 0.0424-0.10136-0.14259 0.0763-0.18974 0.0551-0.16503-0.0741 0.0213-0.11162 0.0188-0.11391-0.0386-0.0353-0.0653 0.0894-0.0803 0.20858-0.0323 0.25664 0.0408 0.0408 0.0509 0.0384 0.19353-0.0458zm0.18128-0.22667c0.0963-0.0366 0.33992-0.41373 0.29388-0.45493-0.0113-0.0101-0.0934-0.0315-0.18244-0.0476-0.15098-0.0273-0.16683-0.0196-0.23496 0.11437l-0.0731 0.14363 0.10669-0.0983c0.20715-0.19089 0.23064-0.0825 0.0355 0.16386-0.17998 0.22725-0.16885 0.2639 0.0544 0.17903zm-1.3579-0.48135c0.016-2e-3 -0.0853-0.19527-0.22528-0.42959-0.3636-0.6088-0.41397-0.80629-0.41336-1.6209l5e-4 -0.67053-0.0964 0.12091c-0.13157 0.16499-0.1904 0.42735-0.1904 0.84901 0 0.47981 0.12404 1.2604 0.21063 1.3255 0.037 0.0279 0.15545 0.13964 0.26314 0.24842 0.1853 0.18716 0.22883 0.20426 0.45117 0.1772zm2.4703-0.0489c-0.0152-0.0582 0.0133-0.12567 0.0823-0.19464 0.1212-0.12121 0.14462-0.26498 0.0364-0.22345-0.0439 0.0169-0.0625 7e-3 -0.051-0.0281 0.0275-0.0827 0.16389-0.0945 0.16389-0.0142 0 0.0378 0.0197 0.0687 0.0437 0.0687 0.0576 0 0.0557-0.11447-4e-3 -0.22546-0.0471-0.0879-0.0483-0.0878-0.1587 0.0138-0.13619 0.12536-0.27227 0.40998-0.27357 0.57216-7.4e-4 0.0935 0.0195 0.12016 0.0915 0.12016 0.0716 0 0.0872-0.0202 0.0692-0.0891zm-0.937-0.26601c-0.025-0.0957-0.0245-0.0959-0.0919 0.034-0.0425 0.0818-0.0383 0.0913 0.0327 0.0727 0.0557-0.0146 0.0745-0.0483 0.0592-0.10669zm9.3486-0.0429c0.11547-0.0618 0.0958-0.16553-0.0416-0.21922-0.13055-0.051-0.74276-0.024-0.79962 0.0353-0.0188 0.0196-0.0408 0.0749-0.0488 0.12275-0.0115 0.069 0.0171 0.0932 0.13836 0.11658 0.18642 0.036 0.64383 2e-3 0.75162-0.0554zm-0.79-0.0348c-0.0331-0.021-0.0467-0.06-0.0302-0.0867 0.0388-0.0628 0.15596-0.0631 0.15596-4.8e-4 0 0.0503 0.28512 0.0345 0.46973-0.026 0.0594-0.0195 0.0983-0.0144 0.0983 0.0129 0 0.0462-0.36386 0.14035-0.53743 0.13914-0.0529-3.5e-4 -0.12327-0.0178-0.15639-0.0388zm-0.23953-0.0135c0.0637-0.0637 0.061-0.0742-0.0311-0.12354-0.0554-0.0297-0.27122-0.0636-0.47957-0.0755l-0.37883-0.0216-0.024 0.12576c-0.0139 0.0725-3e-3 0.1406 0.0266 0.16077 0.0928 0.0642 0.81022 0.0109 0.88699-0.0659zm-0.7599 0.0243c-0.10594-0.0228-0.12789-0.079-0.0497-0.12735 0.0267-0.0165 0.0641-5e-3 0.0832 0.0259 0.0254 0.0411 0.10765 0.0483 0.31 0.0272 0.20719-0.0217 0.26299-0.0164 0.22528 0.0213-0.0542 0.0542-0.40923 0.0872-0.56872 0.0529zm2.3028-0.0358c0.0685-0.0354 0.17574-0.156 0.23831-0.26795l0.11377-0.20355-0.16875 0.0226c-0.20559 0.0276-0.4868 0.15602-0.51766 0.23646-0.0261 0.0681 0.0982 0.27681 0.16493 0.27681 0.0247 0 0.1009-0.029 0.1694-0.0644zm-9.5459-0.0742c0.14535-0.11434 0.28215-0.39942 0.28347-0.59076 1e-3 -0.19131-0.0545-0.20949-0.21886-0.0712-0.18315 0.15412-0.33949 0.52002-0.30938 0.72409 9e-3 0.0619 0.12427 0.0327 0.24477-0.0621zm-0.15254-0.16623c0-0.0763 0.0186-0.12583 0.0418-0.11146 0.0481 0.0297 0.18719-0.21406 0.14577-0.25549-0.0151-0.0151 8e-3 -0.0274 0.0509-0.0274 0.0649 0 0.0735 0.0243 0.0505 0.14201-0.0298 0.15206-0.15195 0.34394-0.23703 0.3723-0.0328 0.0109-0.052-0.0333-0.052-0.11998zm7.0998-0.0182c-0.12337-0.18828-0.49428-0.32364-0.80788-0.29481-0.0363 3e-3 -0.0918 0.0475-0.12343 0.0981-0.0503 0.0806-0.0449 0.1055 0.0441 0.20065 0.15678 0.16765 0.25032 0.20315 0.60409 0.22931 0.28487 0.021 0.3295 0.0146 0.34135-0.0497 7e-3 -0.0406-0.0187-0.12324-0.0582-0.18357zm-0.58899 0.0717c-0.18696-0.0934-0.21281-0.24676-0.0437-0.25925 0.0631-5e-3 0.0769 1e-3 0.0328 0.0141-0.0421 0.0122-0.0765 0.0397-0.0765 0.0611 0 0.10399 0.3585 0.17733 0.41556 0.085 0.0401-0.0649 0.1088-8e-3 0.1088 0.0907 0 0.11117-0.22255 0.11539-0.43697 8e-3zm2.2285-0.0966c0.15621-0.0174 0.33687-0.0136 0.40146 9e-3 0.0946 0.0324 0.14426 0.0204 0.25522-0.0615l0.13779-0.10164-0.21322-0.0269c-0.27927-0.0352-0.49386-0.14742-0.49386-0.25827 0-0.0623-0.0296-0.0863-0.10654-0.0863-0.0884 0-0.10515 0.0199-0.0983 0.1169 0.0118 0.1677-0.22158 0.32012-0.48982 0.3199-0.21145-1.7e-4 -0.45874-0.11776-0.56433-0.26835-0.053-0.0756-0.0627-0.0764-0.1286-0.0106-0.0558 0.0558-0.12912 0.0666-0.33787 0.0498-0.28223-0.0227-0.49817-0.1098-0.67782-0.27354-0.082-0.0747-0.14425-0.0941-0.24938-0.0777l-0.14014 0.0219 0.11829 0.14825c0.0787 0.0986 0.15548 0.14825 0.22928 0.14825 0.19463 1e-5 0.62762 0.13241 0.72154 0.22064 0.0723 0.0679 0.15682 0.0859 0.41564 0.0888 0.17869 2e-3 0.41339 0.0292 0.52154 0.0606 0.10814 0.0314 0.24579 0.0472 0.30587 0.035 0.0601-0.0122 0.23705-0.0364 0.39327-0.0538zm-9.265-0.40278c7.5e-4 -0.0163-0.0429-0.036-0.0969-0.0437-0.14165-0.0201-0.26174-0.27403-0.23407-0.49493 0.0318-0.25359 0.20538-0.61701 0.43666-0.91403 0.11088-0.14239 0.2016-0.27219 0.2016-0.28843 0-0.0671-0.0982-0.30476-0.12593-0.30476-0.0325 0-0.40284 0.41345-0.56229 0.62771-0.1218 0.16367-0.1257 0.30947-0.0104 0.39021 0.0864 0.0606 0.0857 0.064-0.0437 0.21003-0.15063 0.16997-0.30633 0.46638-0.30633 0.58316 0 0.13711 0.17405 0.36832 0.36135 0.48001l0.18013 0.10741 0.0993-0.16147c0.0546-0.0888 0.0999-0.17486 0.10068-0.19122zm6.4875 0.22745c0.16384-0.0623 0.14962-0.23017-0.0312-0.36808-0.21593-0.1647-0.51381-0.28641-0.70361-0.28748-0.16898-9.6e-4 -0.16949-4.4e-4 -0.14518 0.14939 0.019 0.11687 0.0109 0.14516-0.0363 0.12705-0.0334-0.0128-0.0726-0.0608-0.0872-0.10666-0.0261-0.0824-0.15165-0.11941-0.15165-0.0447 0 0.047 0.30761 0.32913 0.4308 0.39505 0.0766 0.041 0.49465 0.16679 0.58229 0.17521 0.0165 2e-3 0.0804-0.0163 0.14202-0.0397zm-0.44628-0.18108c-0.1899-0.094-0.29742-0.22397-0.24946-0.30156 0.0444-0.0718 0.15715-0.0481 0.14337 0.0301-8e-3 0.0443 0.0441 0.10658 0.13205 0.15864 0.11559 0.0684 0.16566 0.0763 0.24758 0.039 0.0819-0.0373 0.10789-0.0332 0.12835 0.0201 0.0648 0.16878-0.11971 0.19346-0.40189 0.0538zm2.9373 0.0443 0.17229-0.0478-0.10375-0.0782c-0.18287-0.13794-0.73896-0.13514-0.89299 4e-3 -0.0626 0.0568 0.2345 0.16633 0.45552 0.16797 0.10815 8.1e-4 0.27417-0.02 0.36892-0.0464zm1.8029-0.094c0.13174-0.19408 0.21566-0.41232 0.24351-0.6333 0.0129-0.10214 0.0162-0.18571 7e-3 -0.18571-9e-3 0-0.0906 0.0779-0.18155 0.17318-0.091 0.0952-0.26164 0.22085-0.37922 0.27911-0.18712 0.0927-0.2021 0.10963-0.12016 0.13563 0.11806 0.0375 0.12097 0.17125 6e-3 0.28601l-0.0874 0.0874 0.20756-3.1e-4c0.18502-2.6e-4 0.218-0.0157 0.30375-0.14201zm-0.52492-0.012c0.16607-0.10881 0.10107-0.17399-0.16841-0.16887-0.35447 7e-3 -0.56081 0.0546-0.56081 0.12994 0 0.1561 0.50893 0.18327 0.72922 0.0389zm-2.303-0.0751c-1e-3 -0.11189-0.0734-0.15556-0.40656-0.24664-0.36305-0.0992-0.423-0.0933-0.423 0.0417 0 0.18202 0.15018 0.2596 0.5025 0.2596 0.23341 0 0.32753-0.0157 0.32706-0.0546zm0.19987-0.0532c0.0813-0.0615 0.0798-0.0642-0.0353-0.0655-0.0783-9.1e-4 -0.12017 0.0214-0.12017 0.0641 0 0.0827 0.0474 0.0831 0.15551 1e-3zm-6.2684-0.1434c0.0142-0.37091 0.033-0.48901 0.10715-0.67411 0.0739-0.18444 0.0756-0.21756 0.0179-0.33952-0.0614-0.1296-0.0681-0.1323-0.16296-0.0658-0.30273 0.21214-0.36428 0.84185-0.10977 1.1231 0.098 0.1083 0.14241 0.0952 0.14773-0.0436zm-0.16721-0.28487c-0.0585-0.1955 0.0247-0.55629 0.12826-0.55629 0.0248 0 0.0297 0.0331 0.0114 0.0765-0.0177 0.0421-0.0453 0.20428-0.0613 0.3605l-0.0291 0.28402zm8.2369 0.29533c0.4889-0.11526 0.77924-0.30186 0.93143-0.59862 0.10758-0.20978 0.10478-0.29632-0.0177-0.54816-0.16685-0.34302-0.32289-0.56365-0.58168-0.82243-0.61401-0.61401-1.284-0.85876-2.0704-0.75633-0.20427 0.0266-0.39671 0.0621-0.42763 0.0789-0.0323 0.0175 0.20039 0.11943 0.54621 0.23921 1.0908 0.37779 1.5433 0.62885 1.7407 0.96564 0.33726 0.57548-0.0966 1.0933-0.9613 1.1472-1.0803 0.0674-1.9889-0.35153-3.1705-1.4618-0.48798-0.45855-1.2155-1.2827-1.6384-1.8561-0.20416-0.27682-0.36399-0.44642-0.48066-0.51002-0.0961-0.0524-0.27801-0.19516-0.40419-0.31722-0.12617-0.12206-0.2294-0.20655-0.2294-0.18775 0 0.1286 0.91145 1.6876 1.2546 2.1461 0.70456 0.94114 2.0293 1.8672 3.2361 2.2622 0.83624 0.27369 1.6918 0.35623 2.2727 0.21927zm-1.2669-0.0547c-0.0412-0.0177 0.14564-0.0323 0.41512-0.0323 0.40892 0 0.99028-0.0823 0.93957-0.13301-8e-3 -8e-3 -0.20044 0.0141-0.4284 0.0483-0.41955 0.063-0.64172 0.0789-0.60621 0.0434 0.0107-0.0107 0.1521-0.0407 0.31421-0.0665 0.41284-0.066 0.77045-0.20921 0.93716-0.37541 0.27256-0.27175 0.16488-0.69149-0.30505-1.189-0.15792-0.1672-0.22304-0.25807-0.15376-0.21456 0.21108 0.13258 0.12881 3e-3 -0.12017-0.18871-0.13218-0.10198-0.24033-0.19401-0.24033-0.20451s0.11839 0.044 0.26309 0.12112c0.53362 0.28442 1.0915 1.0376 1.0915 1.4736 0 0.17094-0.0218 0.21712-0.16773 0.35598-0.26195 0.24919-0.65158 0.3613-1.318 0.37923-0.30041 8e-3 -0.57988 1.7e-4 -0.62104-0.0176zm-2.831-1.284c-0.30911-0.1758-1.032-0.9027-1.4315-1.4394-0.33439-0.44925-0.92871-1.3622-0.90391-1.3885 8e-3 -9e-3 0.12283 0.0605 0.25458 0.15397 0.15313 0.10864 0.35933 0.32979 0.57162 0.61309 0.18264 0.24374 0.46945 0.60213 0.63734 0.79643 0.1679 0.1943 0.2886 0.35327 0.26822 0.35327-0.0616 0-0.64706-0.61503-0.86311-0.9067-0.11126-0.1502-0.21152-0.2731-0.2228-0.2731-0.0423 0 0.27743 0.53903 0.48706 0.82126 0.29507 0.39724 0.824 0.91702 1.2065 1.1856 0.35629 0.25022 0.35449 0.28801-4e-3 0.0841zm-0.43521 1.1499c0.0754-0.061 0.0921-0.10687 0.0704-0.19326-0.094-0.37435-0.765-0.72626-0.90084-0.47243-0.0249 0.0465-0.0445 0.11039-0.0437 0.14202 2e-3 0.0564 0.67303 0.60369 0.74074 0.60369 0.019 0 0.079-0.036 0.13336-0.08zm-0.35677-0.13253c-0.22633-0.14353-0.38782-0.33041-0.38782-0.44879 0-0.0873 0.14839-0.11587 0.19664-0.0378 0.0148 0.024 6e-3 0.0437-0.0193 0.0437-0.10591 0-0.034 0.13944 0.13506 0.2619 0.21022 0.15228 0.24266 0.15894 0.26739 0.0549 0.0142-0.0597 0.0293-0.0494 0.0691 0.0474 0.0492 0.11965 0.0363 0.20389-0.0312 0.20389-0.0179 0-0.12137-0.0563-0.22991-0.12516zm1.6647 0.14848c0.0851-0.1026 0.0424-0.14742-0.33086-0.34686-0.29284-0.15646-0.36492-0.17936-0.42537-0.13516-0.098 0.0716-0.0916 0.16081 0.0218 0.30501 0.16994 0.21604 0.61331 0.32291 0.7344 0.17701zm-0.50129-0.12354c-0.10748-0.0607-0.18016-0.13618-0.18875-0.19591-0.018-0.12548 0.0463-0.12541 0.10192 9e-5 0.0544 0.12267 0.28611 0.25433 0.3138 0.17831 0.025-0.0686 0.14445-0.0215 0.14445 0.0568 0 0.091-0.17334 0.0726-0.37142-0.0393zm0.74097 0.10324c0.0138-0.0224 5e-3 -0.053-0.0193-0.0681-0.0244-0.0151-0.0444 3e-3 -0.0444 0.0407 0 0.0768 0.0262 0.0881 0.0637 0.0274zm-1.0799-0.12319c-0.0632-0.0661-0.13092-0.1636-0.15049-0.21669-0.0487-0.1321-0.12511-0.07-0.15618 0.12694l-0.0255 0.1615 0.18258 0.0166c0.10042 9e-3 0.201 0.02 0.22353 0.0242 0.0225 4e-3 -0.0108-0.0464-0.074-0.11254zm-4.5923-0.1727c0.10642-0.25471-2e-3 -0.62475-0.18323-0.62475-0.13828 0-0.2428 0.15529-0.26779 0.39788-0.0229 0.2222-0.0157 0.25163 0.0773 0.3168 0.17488 0.12249 0.29721 0.093 0.37367-0.0899zm-0.26141 2e-3c-0.0458-0.0458-0.034-0.10308 0.0186-0.091 0.0263 6e-3 0.0704-0.0235 0.0981-0.0656 0.0619-0.0941-0.0119-0.23257-0.11913-0.22333-0.0926 8e-3 -0.0911-0.11013 2e-3 -0.14582 0.15156-0.0582 0.29056 0.268 0.207 0.48575-0.0267 0.0696-0.15251 0.094-0.20652 0.04zm2.2554-0.14202c0.13041-0.0496 0.24988-0.29135 0.24988-0.50567 0-0.13298-0.05-0.22335-0.28625-0.51775-0.15743-0.19616-0.35437-0.45876-0.43765-0.58356-0.0833-0.12481-0.21-0.26865-0.28163-0.31966-0.16166-0.11511-0.34906-0.42747-0.34906-0.58182 0-0.0636-0.10627-0.33719-0.23615-0.60791-0.25413-0.52968-0.8198-2.2899-0.9235-2.8737-0.032-0.18025-0.12569-0.50469-0.20817-0.72099-0.18759-0.492-0.29238-0.94744-0.29353-1.2758-4.9e-4 -0.15227-0.0487-0.40572-0.12061-0.63451l-0.11973-0.38095-0.1651 0.4752-0.16511 0.4752 0.11342 0.95447c0.26142 2.1999 0.56007 3.8953 0.7854 4.4584 0.063 0.1575 0.096 0.1856 0.26899 0.22916 0.22959 0.0578 0.40865 0.21732 0.40865 0.36403 0 0.0638 0.0811 0.18699 0.21326 0.32414 0.24026 0.24927 0.37938 0.566 0.44675 1.0171 0.0902 0.60408 0.0662 0.55791 0.33867 0.65022 0.27314 0.0925 0.59982 0.11586 0.76148 0.0544zm-0.67868-0.22259c-0.0978-0.0531-0.16386-0.12144-0.16386-0.16946 0-0.0443-0.0366-0.12735-0.0814-0.18467-0.0448-0.0573-0.1051-0.24185-0.13409-0.41008-0.0667-0.38705-0.16156-0.59896-0.39122-0.87393-0.16198-0.19393-0.42192-0.66826-0.38594-0.70424 8e-3 -7e-3 0.0904 0.0833 0.18425 0.20173 0.0938 0.11846 0.17671 0.20927 0.18418 0.2018 7e-3 -7e-3 -0.0358-0.12531-0.0962-0.26187-0.13038-0.2948-0.14141-0.37853-0.0194-0.14748 0.12281 0.23262 0.1369 0.2031 0.039-0.0816-0.0464-0.135-0.0738-0.26266-0.0608-0.28369 0.013-0.021-0.0269-0.22814-0.0887-0.46025-0.0618-0.23212-0.10583-0.42851-0.0979-0.43645 0.0229-0.0229 0.50116 1.1559 0.59769 1.4733 0.093 0.30579 0.31135 0.65173 0.41135 0.65173 0.0331 0 0.18403 0.17205 0.3354 0.38234 0.15136 0.21029 0.35029 0.47356 0.44205 0.58504 0.0918 0.11149 0.16685 0.24079 0.16685 0.28734 0 0.26388-0.51824 0.40588-0.84117 0.23048zm-1.7078-3.1781c-0.23446-0.77416-0.43675-1.8336-0.66548-3.4851-0.12011-0.86728-0.12263-1.2354-0.0103-1.5075 0.0622-0.15082 0.0639-0.1454 0.11863 0.39326 0.065 0.63926 0.14076 0.98018 0.2907 1.3078 0.0932 0.20359 0.54529 1.9331 0.54201 2.0733-6.1e-4 0.0269-0.0398-0.0296-0.087-0.12579-0.0472-0.0961-0.0771-0.13545-0.0664-0.0874 0.0107 0.0481 0.0498 0.22134 0.087 0.38506 0.10214 0.44989 0.0763 0.44576-0.0854-0.0136-0.0803-0.22831-0.14762-0.39211-0.1495-0.36399-2e-3 0.0281 0.0457 0.27849 0.10581 0.55639 0.0601 0.27789 0.10789 0.53017 0.10625 0.56062-2e-3 0.0305-0.0915-0.21009-0.19958-0.53454-0.20539-0.6163-0.31462-0.83609-0.21481-0.43225 0.19286 0.78035 0.37921 1.6211 0.36293 1.6374-0.0104 0.0104-0.0711-0.15321-0.13487-0.36366zm4.7338 3.1976c0-0.10428-0.08-0.23186-0.23298-0.37132-0.172-0.15685-0.27732-0.19438-0.35786-0.12753-0.0908 0.0753 0.0214 0.27186 0.2494 0.43704 0.19677 0.14254 0.34144 0.16873 0.34144 0.0618zm0.26218 0.0247c0-0.024-0.0197-0.0437-0.0437-0.0437s-0.0437 0.0197-0.0437 0.0437 0.0197 0.0437 0.0437 0.0437 0.0437-0.0197 0.0437-0.0437zm-1.1379-0.20371 0.25159 0.0263-0.0703-0.15019c-0.0387-0.0826-0.0998-0.15092-0.13584-0.15179-0.036-8.8e-4 -0.13098-0.0415-0.21095-0.0902l-0.14541-0.0887 0.0312 0.0997c0.0172 0.0549 0.0403 0.12389 0.0514 0.15341 0.0111 0.0295-0.038 0.11188-0.10918 0.18302-0.0923 0.0923-0.1159 0.14281-0.0823 0.17637 0.0336 0.0336 0.0644 0.0139 0.10761-0.0686 0.0577-0.11011 0.0726-0.11438 0.31218-0.0893zm-0.43748-0.16283c0.0504-0.13636-0.0367-0.28471-0.22308-0.3798-0.18711-0.0955-0.38496-0.11033-0.38935-0.0293-2e-3 0.03-0.0243 0.0104-0.0504-0.0437-0.0521-0.10795-0.12145-0.13135-0.12145-0.041 0 0.0316 0.12977 0.1865 0.28839 0.34434 0.30422 0.30272 0.42561 0.33929 0.49587 0.14938zm-0.4012-0.1542c-0.0785-0.0701-0.13002-0.14013-0.11456-0.15559 0.0155-0.0155 0.0805 0.0243 0.14444 0.0882 0.0748 0.0748 0.14667 0.10841 0.20127 0.0941 0.0544-0.0142 0.0849-9e-5 0.0849 0.0392 0 0.10319-0.16535 0.0687-0.31608-0.066zm0.92061-0.30703c8e-3 -0.055-7e-3 -0.12126-0.0328-0.14733-0.0341-0.0341-0.0477-0.0296-0.0484 0.016-5e-4 0.0348-0.0396-0.0218-0.0869-0.12595-0.0587-0.12931-0.12697-0.2048-0.21545-0.2382-0.0824-0.0311-0.12632-0.0765-0.12069-0.12475 9e-3 -0.0758 5e-4 -0.0813-0.12224-0.0813-0.17026 0 0.0646 0.43047 0.38674 0.70881 0.15785 0.1364 0.21889 0.13456 0.23963-7e-3zm-6.2851-0.53058c0-0.0373 0.4665-0.44018 0.58909-0.50878 0.0575-0.0322 0.0449-0.0918-0.0906-0.42879-0.0866-0.21527-0.16208-0.39632-0.16774-0.40234-6e-3 -6e-3 -0.0857 0.0986-0.17793 0.23246-0.0922 0.13386-0.28613 0.35063-0.43098 0.48171l-0.26335 0.23831-0.0541 0.38131c-0.0978 0.68962-0.10996 0.67435 0.26789 0.33618 0.18025-0.16132 0.32773-0.30985 0.32773-0.33006zm-0.49976 0.0912c0.0172-0.15622 0.0467-0.32558 0.0655-0.37636 0.0188-0.0508 0.19659-0.26343 0.39501-0.47254l0.36078-0.3802 0.21468 0.53656-0.16981 0.13686c-0.0934 0.0753-0.33354 0.295-0.53366 0.48828l-0.36385 0.35142zm6.0008 0.1437c-0.0455-0.0892-0.0827-0.20578-0.0827-0.25906 0-0.12043 0.10904-0.23421 0.22444-0.23421 0.081 0 0.0785-0.0119-0.0351-0.16996l-0.12216-0.16995-0.05 0.19675c-0.045 0.17742-0.11448 0.27171-0.20145 0.27358-0.0172 3.4e-4 -0.0998-0.0595-0.18355-0.13306-0.17854-0.15676-0.34208-0.55062-0.32267-0.77709 0.0108-0.12644 0.0359-0.1603 0.14421-0.19512 0.0721-0.0232 0.13593-0.0459 0.14184-0.0505 6e-3 -5e-3 -0.0503-0.12106-0.12483-0.25875-0.12547-0.23165-0.1412-0.24525-0.21083-0.18223-0.18176 0.16449-0.55916-7e-3 -0.72604-0.32949-0.12854-0.24857-0.0512-0.65023 0.1527-0.79304 0.0807-0.0565 0.0818-0.0704 0.0195-0.25107-0.0362-0.10518-0.12618-0.2599-0.19987-0.34384-0.25668-0.29234-0.27114-0.3704-0.2601-1.4043 0.0123-1.1496-0.0635-3.432-0.12481-3.7588-0.10107-0.53884-0.40344-0.91671-0.73354-0.91671-0.25519 0-0.42319 0.23384-0.69061 0.96131-0.0309 0.0841-0.10396 0.2831-0.16231 0.44218l-0.10609 0.28925 0.14851 0.49729c0.09 0.30129 0.1643 0.66951 0.18858 0.93425 0.0378 0.41193 0.102 0.65363 0.39765 1.4966 0.0722 0.20596 0.11626 0.2731 0.17905 0.2731 0.11553 0 0.29802 0.19369 0.29662 0.31482-1e-3 0.0974-3e-3 0.0969-0.075-0.0188-0.12038-0.19413-0.27337-0.20833-0.27337-0.0254 0 0.0499 0.0221 0.16438 0.0491 0.25447l0.0491 0.16381 0.12025-0.069c0.1109-0.0636 0.12951-0.063 0.23906 9e-3 0.23615 0.15472 0.50178 0.94584 0.5031 1.4983 7.4e-4 0.28723-9e-3 0.32125-0.11442 0.40422l-0.11517 0.0906 0.0724 0.18947c0.0802 0.20998 0.1981 0.3878 0.20029 0.30206 3e-3 -0.12461 0.1722-0.0363 0.45466 0.23745 0.40689 0.39439 0.51399 0.65862 0.33326 0.82218-0.0973 0.0881-0.0982 0.086-0.0878-0.21261 7e-3 -0.20419-2e-3 -0.22192-0.23552-0.44788-0.32037-0.31031-0.39438-0.31154-0.35298-6e-3 0.0405 0.29875 0.10998 0.42771 0.3132 0.58094 0.0915 0.069 0.17299 0.14107 0.181 0.16009 8e-3 0.019 0.0732 0.0346 0.14489 0.0346 0.23926 0 0.52581 0.21816 0.6061 0.46144 0.033 0.10003 0.0683 0.13582 0.12117 0.12286 0.041-0.0101 0.13359 0.0201 0.20568 0.0669 0.18556 0.12062 0.1978 0.11236 0.10453-0.0706zm-1.4764-0.95361c-0.13496-0.15369-0.16834-0.2943-0.0967-0.40733 0.0455-0.0718 0.0718-0.0328 0.11376 0.16853 0.0385 0.18485 0.13739 0.30587 0.24996 0.30587 0.0458 0 0.0711 0.0197 0.0562 0.0437-0.0539 0.0872-0.1905 0.0404-0.32319-0.11077zm-0.80514-3.4723c-0.0125-0.036-0.0466-0.1737-0.0757-0.30588-0.0776-0.35255-0.11381-0.40537-0.26315-0.38345-0.11605 0.017-0.12882 6e-3 -0.1525-0.13763-0.0142-0.0859-0.0733-0.29853-0.13132-0.47248-0.11048-0.33128-0.23703-0.97515-0.23742-1.2079-1.2e-4 -0.075-0.0686-0.37225-0.15227-0.66065-0.0836-0.28839-0.15235-0.55936-0.15272-0.60214-3.7e-4 -0.0428 0.0497-0.20009 0.11131-0.34957 0.37034-0.89893 0.58034-1.1632 0.80138-1.0083 0.13238 0.0927 0.29032 0.42584 0.3935 0.82994 0.0738 0.2892 0.0996 0.63366 0.15473 2.0685 0.0364 0.94682 0.0587 1.7289 0.0496 1.738-9e-3 9e-3 -0.0441-0.13713-0.0779-0.32491l-0.0614-0.34143-0.0496 0.50251c-0.051 0.51652-0.11368 0.77882-0.15664 0.65545zm1.5558 4.2713c-0.0597-0.1502-0.13422-0.3-0.16551-0.33289-0.0618-0.0649-0.15267-0.0333-0.15267 0.0532 0 0.0625 0.35174 0.55283 0.39659 0.55283 0.0166 0-0.0187-0.1229-0.0784-0.27311zm0.51051-0.51056c0.0249-0.0465 0.0423-0.15955 0.0387-0.25125-6e-3 -0.14786-9e-3 -0.15189-0.0252-0.0356-0.0295 0.20719-0.0888 0.22189-0.0835 0.0207 4e-3 -0.14457-0.0177-0.2009-0.10383-0.27174-0.0709-0.0584-0.0897-0.096-0.054-0.10851 0.0943-0.0331 0.0594-0.10602-0.0437-0.0914-0.0833 0.0118-0.0969 0.0381-0.0894 0.17213 0.0104 0.18286 0.20523 0.6502 0.27113 0.6502 0.0245 0 0.0649-0.038 0.0898-0.0845zm-3.5054-0.47216c0.30212-0.0229 0.32322-0.0309 0.30305-0.11628-0.0119-0.0505-0.0816-0.32136-0.1548-0.60202-0.16239-0.62249-0.40189-2.0365-0.56854-3.3568-0.11122-0.88123-0.12961-0.96957-0.17734-0.85208-0.0646 0.15901-0.87958 2.7304-0.98656 3.1127l-0.0762 0.27244 0.71834 1.7813 0.30868-0.10735c0.16977-0.059 0.4548-0.1184 0.6334-0.1319zm-0.98819-0.21893c-0.0459-0.0901-0.19365-0.4255-0.32824-0.74529-0.29322-0.69665-0.3105-0.52712 0.21238-2.084 0.42412-1.2628 0.48752-1.4254 0.51969-1.3327 0.0281 0.081 0.33466 2.7008 0.32997 2.8198-2e-3 0.0473-0.0412-0.0123-0.0875-0.13247l-0.0841-0.21848 0.0256 0.17479c0.0141 0.0961 0.0338 0.23377 0.0438 0.30587s-0.0302-7e-3 -0.0894-0.17478l-0.10758-0.30588 0.0225 0.28403c0.0123 0.15621 0.0336 0.34301 0.0471 0.41511 0.04 0.21262-0.0321 0.0931-0.16376-0.27168-0.14164-0.3923-0.15005-0.36439-0.0621 0.20614 0.0989 0.64145 0.0751 0.6383-0.14839-0.0197-0.13158-0.38738-0.21986-0.58886-0.24218-0.55274-0.0518 0.0838 0.0115 0.76254 0.12251 1.314 0.0533 0.26506 0.0916 0.48193 0.0851 0.48193-7e-3 0-0.0495-0.0737-0.0954-0.16387zm-6.4223-0.0584c0.50941-0.12112 1.6101-0.47286 1.6101-0.51452 0-0.0952-0.13601-0.98684-0.15314-1.004-0.0109-0.0109-0.13886 0.0336-0.28433 0.0989-0.50375 0.22607-0.88945 0.33751-1.2448 0.35969-0.46581 0.0291-0.69018-0.0763-0.85209-0.40009-0.21174-0.42349-0.10668-1.2718 0.22187-1.7916 0.34743-0.54959 1.0635-1.2104 2.0268-1.8704 0.28748-0.19697 0.57945-0.41711 0.64882-0.4892 0.082801-0.086 0.22976-0.39399 0.42756-0.89578 0.16579-0.42058 0.3015-0.76922 0.30158-0.77477 4.9e-4 -0.0357-0.4505 0.0538-0.61958 0.12295-0.37319 0.15258-0.77222 0.21971-1.3059 0.21971-0.34682 0-0.52812 0.017-0.55592 0.0522-0.0227 0.0287-0.0762 0.15919-0.11887 0.28997-0.10618 0.32526-0.40617 0.62525-0.70133 0.7013l-0.21578 0.0556-9e-3 0.2018c-5e-3 0.11099-0.0206 0.24772-0.0345 0.30383-0.0243 0.0981-0.0215 0.0994 0.0736 0.0328 0.0544-0.0381 0.14366-0.0693 0.19839-0.0693 0.080101 0 0.099501-0.0241 0.099501-0.1236 0-0.29009 0.4421-0.73589 0.77392-0.7804 0.14473-0.0194 0.18918-3e-3 0.31454 0.11378 0.11763 0.10988 0.15821 0.12624 0.20883 0.0842 0.0543-0.0451 0.0536-0.0573-5e-3 -0.0904-0.089801-0.0502-0.0866-0.18607 8e-3 -0.34634 0.15477-0.26201 0.9814-0.57113 1.13-0.42257 0.0543 0.0543 0.0148 0.10367-0.29878 0.37352-0.73471 0.63217-2.2593 2.2307-2.6005 2.7267-0.50867 0.73932-0.85741 1.7645-0.95147 2.7971-0.0281 0.30849-0.0219 0.34829 0.0815 0.52476 0.27012 0.46092 0.66106 0.6698 1.1714 0.62585 0.1599-0.0138 0.45485-0.0641 0.65544-0.11177zm-1.2029-0.1041c-0.21686-0.0773-0.44853-0.30194-0.51307-0.4975-0.0522-0.15812-0.0254-0.88243 0.0439-1.1862 0.0326-0.14272 0.0374-0.13251 0.0724 0.15294l0.0375 0.30588 0.0362-0.31274c0.0199-0.172 0.0739-0.4178 0.11996-0.5462l0.0838-0.23347-0.0255 0.43696c-0.014 0.24033-0.0148 0.42713-2e-3 0.41512 0.0131-0.012 0.0543-0.19903 0.0916-0.41559 0.0647-0.37592 0.23698-1.0079 0.26607-0.976 8e-3 8e-3 -0.0345 0.20195-0.093501 0.43027-0.19245 0.74434-0.14388 1.1812 0.15499 1.394 0.41654 0.29661 1.4252 0.28856 2.092-0.0167 0.1338-0.0613 0.24963-0.10503 0.25739-0.0973 8e-3 8e-3 0.0269 0.15203 0.0426 0.32059l0.0285 0.30647-0.21675 0.0932c-0.4987 0.21454-1.6936 0.49224-2.1016 0.48843-0.11294-1e-3 -0.28154-0.0291-0.37468-0.0623zm1.6769-4.8783c0.7165-0.707 0.69759-0.73539-0.0743-0.11151-0.2033 0.16431-0.3785 0.28989-0.38934 0.27905-0.0227-0.0227 1.8429-1.8566 2.1932-2.1558 0.12868-0.10994 0.25265-0.19312 0.27548-0.18485 0.0228 8e-3 -0.089601 0.32827-0.24985 0.71112l-0.29137 0.69609-0.5899 0.41065c-0.73628 0.51254-0.82058 0.55827-0.54621 0.29631 0.27848-0.26587 0.19506-0.21248-0.34394 0.22014-0.72922 0.58529-0.72801 0.5732 0.0162-0.16115zm5.1357 4.7476c0.0789-0.13472 0.1033-0.22343 0.0832-0.30331-0.0401-0.15987-0.0941-0.10397-0.17731 0.18366-0.0396 0.13697-0.0826 0.27684-0.0954 0.31082-0.0469 0.12426 0.0792-3e-3 0.18945-0.19117zm-2.2722 0.0344c0.0867-0.0867 0.0664-0.2864-0.0537-0.52737-0.0998-0.2003-0.20423-0.26877-0.30819-0.20202-0.12222 0.0785-0.0977 0.40544 0.0468 0.62379 0.12845 0.19411 0.20191 0.21873 0.31504 0.1056zm-0.14429-0.0892c-0.13237-0.0485-0.26072-0.5368-0.1411-0.5368 0.024 0 0.0437 0.0599 0.0437 0.13308 0 0.0847 0.0409 0.17397 0.11262 0.24569 0.10847 0.10847 0.0996 0.20008-0.0152 0.15803zm0.40266-0.38621c0.0422-0.22508-0.0498-0.61247-0.17896-0.75295l-0.10904-0.11863 0.0256 0.18571c0.0305 0.22125-0.0305 0.24391-0.13139 0.0488-0.0474-0.0916-0.0673-0.22531-0.0602-0.40419 0.0175-0.44141-5e-3 -0.50584-0.0704-0.20177-0.0659 0.30643-0.18961 0.45977-0.33939 0.4206-0.0788-0.0206-0.0827-5e-3 -0.0557 0.22428 0.0342 0.29061 0.0436 0.30526 0.13643 0.2124 0.0389-0.0389 0.10799-0.0708 0.1535-0.0708 0.12802 0 0.37532 0.24359 0.46333 0.45637 0.091 0.21996 0.12497 0.21998 0.16622 8e-5zm6.6225-2.3e-4c0-0.0346-0.027-0.063-0.06-0.063-0.0364 0-0.0712-0.0704-0.0886-0.17937-0.0158-0.0986-0.06-0.23983-0.0982-0.31373l-0.0695-0.13435-0.1262 0.21234 0.024-0.10924c0.0132-0.0601 0.0243-0.12399 0.0246-0.14202 3.7e-4 -0.018 0.0411-0.0328 0.0906-0.0328s0.0778-0.0197 0.063-0.0437c-0.0427-0.0691-0.22825-0.0508-0.2575 0.0254-0.0481 0.12533-0.027 0.2557 0.0777 0.48053 0.14715 0.31602 0.42016 0.51085 0.42016 0.29985zm1.5478-0.22683c-4e-3 -0.11409 0.0357-0.12563 0.11271-0.0328 0.0797 0.096 0.4184 0.0841 0.58792-0.0206l0.13942-0.0862-0.0398 0.2719 0.16971-0.0889c0.0933-0.0489 0.28364-0.14378 0.42288-0.21083 0.44102-0.21238 0.71564-0.59532 0.89054-1.2418 0.0924-0.34147 0.11144-1.6946 0.0265-1.879-0.0441-0.0957-0.0507-0.0733-0.0531 0.18089-5e-3 0.55947-0.22629 1.4127-0.46287 1.7875-0.0548 0.0868-0.17035 0.2245-0.25685 0.30609-0.13441 0.12678-0.15354 0.16827-0.13156 0.28543 0.0213 0.11364 5e-3 0.15307-0.0931 0.23057-0.20176 0.15871-0.71882 0.11222-0.71882-0.0646 0-0.10328-0.10725-0.0452-0.12369 0.0669-0.0189 0.1289-0.27118 0.23788-0.45981 0.19863-0.17679-0.0368-0.50736-0.22648-0.51408-0.29499-3e-3 -0.029-1e-3 -0.0719 3e-3 -0.0953 5e-3 -0.0234-0.0312-7e-3 -0.0795 0.0371-0.18595 0.16828-0.65704-0.0279-0.80838-0.33667-0.081-0.16534-0.081-0.1666 0.0161-0.26992l0.0975-0.1038-0.0971-0.15712c-0.0774-0.12524-0.10937-0.14695-0.15756-0.10696-0.0332 0.0276-0.0946 0.0371-0.13624 0.0211-0.0612-0.0235-0.0643-0.0362-0.016-0.0661 0.042-0.026 0.0519-0.086 0.0331-0.20143-0.0332-0.20444-0.10249-0.28509-0.1663-0.19349-0.0331 0.0475-0.0384 0.0147-0.0195-0.12053 0.0231-0.16553 0.0163-0.18571-0.062-0.18571-0.0727 0-0.0879 0.0288-0.0879 0.167 0 0.24085 0.12399 0.56917 0.24486 0.64836 0.0683 0.0447 0.1455 0.058 0.22455 0.0384 0.0773-0.0191 0.10484-0.0148 0.0768 0.0121-0.26624 0.25515-0.7136-0.21054-0.6671-0.69444 0.0114-0.11884 0.0548-0.25368 0.0964-0.29966 0.0722-0.0797 0.0687-0.10092-0.0752-0.45915l-0.15079-0.37557-0.0211 0.68901c-0.0116 0.37895-4e-3 0.75199 0.0175 0.82898 0.0212 0.077 0.1187 0.2414 0.21669 0.36537 0.098 0.12396 0.19787 0.29693 0.22195 0.38438 0.0609 0.22112 0.19721 0.39896 0.35716 0.46599 0.0745 0.0312 0.18262 0.10705 0.24019 0.16849 0.0576 0.0614 0.12158 0.10126 0.14225 0.0885 0.0207-0.0128 0.12105 0.0442 0.22306 0.12666 0.28931 0.23381 0.52523 0.33779 0.73168 0.32248 0.083-6e-3 0.10841-0.0318 0.10577-0.10642zm-2.6641-0.34595c0.0507-0.20178 0.0297-0.77057-0.0364-0.9889-0.12333-0.40732-0.2748-0.52149-0.44393-0.33461-0.0684 0.0756-0.0738 0.11414-0.0353 0.25126 0.30523 1.0858 0.34096 1.1888 0.41251 1.1888 0.0436 0 0.0859-0.0478 0.10313-0.11655zm-0.25128-0.41873c-0.14859-0.40226-0.2043-0.73192-0.12369-0.73192 0.0209 0 0.0512 0.0991 0.0673 0.2202s0.0492 0.27283 0.0737 0.33716c0.0358 0.094 0.0524 0.10442 0.085 0.0529 0.0286-0.0453 0.0407-0.01 0.0412 0.12165 3.7e-4 0.10214-0.0163 0.18571-0.0371 0.18571s-0.0686-0.0836-0.10635-0.18571zm-8.6536 0.25199c0.28243-0.0666 1.0502-0.35915 1.0834-0.41281 0.0106-0.0172 0.0405-0.48051 0.0665-1.0297 0.0259-0.54915 0.077201-1.2136 0.11386-1.4765 0.0367-0.26292 0.0587-0.48601 0.0489-0.49575-0.0452-0.0452-0.97465 0.70177-1.3887 1.1162-0.60098 0.60146-0.7751 0.92567-0.81276 1.5133-0.0308 0.48104 0.0373 0.68858 0.25737 0.78419 0.18291 0.0795 0.29801 0.0797 0.63147 1e-3zm11.905-6e-3c0.0531-0.064 0.0453-0.0682-0.0779-0.0411-0.0819 0.018-0.1485 0.0115-0.16559-0.0162-0.0386-0.0625-0.21204-0.0586-0.27686 6e-3 -0.0408 0.0408-0.0524 0.0351-0.0524-0.0255 0-0.0799-0.0919-0.0789-0.11867 1e-3 -0.0453 0.13591 0.58424 0.20445 0.69144 0.0753zm-14.103-0.99186c0.10932-0.28559 0.11115-0.30433 0.0427-0.43661-0.0393-0.076-0.0811-0.27257-0.092801-0.43678-0.0183-0.25605-0.0301-0.28984-0.082601-0.23732-0.047 0.047-0.0506 0.0891-0.0157 0.18089 0.025 0.0658 0.0429 0.23144 0.0398 0.36806l-6e-3 0.24841-0.0312-0.24141c-0.0171-0.13277-0.0561-0.28792-0.086501-0.34476l-0.0553-0.10336-0.093101 0.14714c-0.10197 0.16104-0.15412 0.70911-0.078201 0.82186 0.0603 0.0896 0.17516 0.0267 0.2497-0.13679l0.0651-0.14268-0.027 0.15294c-0.0149 0.0841-0.0646 0.23288-0.1106 0.33059-0.10366 0.22035-0.10392 0.20884 0.013 0.5715l0.096601 0.29956 0.0289-0.37142c0.0183-0.23506 0.0708-0.48097 0.14309-0.66982zm-0.42436-0.17269c-0.0261-0.1039 0.0356-0.59036 0.080501-0.63529 0.0501-0.0501 0.12452 0.0747 0.0789 0.13228-0.096401 0.12179-0.10334 0.46203-8e-3 0.40322 0.0728-0.045 0.0397 0.0543-0.043 0.12917-0.078101 0.0706-0.083401 0.0692-0.10818-0.0294zm15.327 1.1425c0.12644-0.0576 0.17993-0.16381 0.11513-0.22861-0.031-0.031-0.0452-0.0253-0.0453 0.0182-9e-5 0.0432-0.0514 0.0645-0.16143 0.067-0.0887 2e-3 -0.16899 0.0267-0.17839 0.0549-9e-3 0.0282-0.0351 0.0401-0.0571 0.0266-0.0548-0.0339-0.13464 0.0207-0.10364 0.0709 0.0349 0.0565 0.29918 0.051 0.43064-9e-3zm-8.9926-0.59846c0.0253-0.12915-5e-3 -0.1948-0.26674-0.58203-0.16238-0.24004-0.31065-0.42033-0.32947-0.40063-0.0684 0.0716-0.0574 0.21569 0.0348 0.45817 0.0518 0.13616 0.10793 0.35245 0.12473 0.48066 0.0192 0.1466 0.0723 0.28808 0.14296 0.38125l0.11241 0.14816 0.0764-0.17c0.042-0.0935 0.0892-0.23552 0.1049-0.31558zm-1.0072 0.27806c0.0741-0.17734 0.0814-0.459 0.0177-0.68804-0.0737-0.26529-0.14725-0.26013-0.1117 8e-3 0.0248 0.18708 0.0162 0.24598-0.046 0.31467-0.0635 0.0702-0.0682 0.10638-0.0278 0.2134 0.0396 0.10488 0.0372 0.1289-0.0131 0.1289-0.0696 0-0.0725 9e-3 -0.0352 0.10567 0.0448 0.11682 0.14947 0.0769 0.21604-0.0824zm8.1035 0.0633c0-0.0724-0.0197-0.0833-0.10974-0.0607-0.087 0.0218-0.10439 0.0136-0.084-0.0396 0.0297-0.0773-0.16895-0.22883-0.24134-0.18409-0.0251 0.0155-0.0456 9e-3 -0.0456-0.0144s0.0246-0.0514 0.0546-0.0621 0.0403-0.0348 0.0229-0.0536c-0.0503-0.054-0.16492 0.0667-0.16492 0.17361 0 0.15618 0.23546 0.31978 0.46974 0.32638 0.0704 2e-3 0.0983-0.0223 0.0983-0.0855zm-6.5857-1.6487c0.63254-2.2152 0.7883-3.1347 0.62572-3.694-0.0399-0.13729-0.088-0.24962-0.10687-0.24962-0.0728 0-0.26927 0.25623-0.47954 0.62546-0.27845 0.48896-0.59966 1.2698-0.91262 2.2184l-0.2455 0.74419 0.41116 0.60844c0.22613 0.33464 0.42242 0.60882 0.43618 0.60928 0.0138 4.6e-4 0.13592-0.3875 0.27146-0.86215zm-0.64743 0.1245-0.29679-0.43873 0.13419-0.51858c0.1953-0.75473 1.1952-2.9829 1.2783-2.8485 0.0197 0.0319 0.0484 0.20712 0.0637 0.38944 0.0242 0.28827 2e-3 0.45911-0.17065 1.3108-0.19466 0.96037-0.28245 1.2691-0.22427 0.78868 0.0285-0.2354-0.0197-0.49538-0.0753-0.40554-0.04 0.0647-0.2328 1.1418-0.29583 1.6526-0.0297 0.24033-0.068 0.45308-0.0852 0.47278s-0.16487-0.1616-0.3281-0.4029zm8.815 0.17227c0.15688-0.17212 0.22395-0.44057 0.19881-0.79574-0.0251-0.35438-0.1232-0.53717-0.38142-0.71059-0.25936-0.17419-0.57128-0.20115-0.8257-0.0714-0.10149 0.0518-0.19647 0.12526-0.21106 0.16328-0.0556 0.14498 0.28207 1.005 0.52312 1.3321 0.20843 0.2829 0.48375 0.31545 0.69624 0.0823zm-9.5995-0.0486c0.0415-0.18894 2e-3 -0.20254-0.0548-0.0187-0.0258 0.0841-0.0307 0.1529-0.0108 0.1529s0.0494-0.0604 0.0656-0.13421zm-4.6396-0.0161c0.0167-0.0435-0.0121-0.067-0.093601-0.0765-0.097301-0.0112-0.12014-0.0381-0.1314-0.15467-7e-3 -0.0776 7e-3 -0.17591 0.0314-0.21848 0.0397-0.0682 0.0453-0.0644 0.0471 0.0318 1e-3 0.0601 0.0192 0.13641 0.0402 0.16962 0.0527 0.0832 0.15674-0.0817 0.22536-0.35701 0.0544-0.21814 0.0324-0.30221-0.0559-0.21389-0.0828 0.0828-0.12898 0.0597-0.0765-0.0383 0.0308-0.0576 0.082501-0.0851 0.14355-0.0765 0.086901 0.0124 0.095001 0.0377 0.091101 0.28686-4e-3 0.25338 5e-4 0.26654 0.0605 0.18079 0.0356-0.0509 0.074501-0.1786 0.086301-0.28385 0.0281-0.24945-0.0425-0.3402-0.23992-0.30817-0.17922 0.0291-0.14899-0.0424 0.0537-0.12712 0.11345-0.0474 0.14871-0.0929 0.1732-0.22344 0.0169-0.0901 0.0605-0.22148 0.096901-0.29185l0.0661-0.12793-0.16822 0.10149c-0.30783 0.18573-0.33358 0.21121-0.34927 0.34557-9e-3 0.0734-0.0225 0.19267-0.031 0.26498-8e-3 0.0723-0.0497 0.16933-0.0916 0.21559-0.18308 0.2023-0.25636 0.68757-0.13088 0.86671 0.077 0.10986 0.21636 0.12876 0.25263 0.0342zm-0.44901-0.55033c0.12871-0.0689 0.25758-0.36115 0.28813-0.65345 0.0151-0.14449 0.0135-0.26271-3e-3 -0.26271-0.1776 0-0.35447 0.31441-0.40138 0.71352-0.0305 0.25944-0.0208 0.27625 0.11673 0.20264zm3e-3 -0.30981c0.0223-0.0991 0.0686-0.23183 0.10285-0.29495l0.0624-0.11477 2e-3 0.10878c2e-3 0.11778-0.13341 0.48069-0.17932 0.48096-0.0155 8e-5 -0.01-0.0809 0.0124-0.18002zm1.2403-0.36053c5e-4 -3e-3 0.095201-0.12828 0.21027-0.27835 0.22777-0.29697 0.29864-0.52613 0.19047-0.6159-0.1009-0.0837-0.2731-0.0172-0.44338 0.17127-0.26219 0.29021-0.36371 0.64644-0.2096 0.73548 0.058 0.0335 0.24565 0.0242 0.25224-0.0125zm-0.18044-0.18385c0.0146-0.038 0.0265-0.0853 0.0265-0.10515 0-0.0198 0.0368-0.0264 0.0818-0.0146 0.10232 0.0268 0.28659-0.21495 0.25525-0.33481-0.0129-0.0492 5e-3 -0.0927 0.0454-0.10809 0.17853-0.0685 0.10438 0.18633-0.12737 0.43775-0.17765 0.19273-0.33434 0.26223-0.28165 0.12494zm-3.1014-0.17589c0.038-0.0146 0.0691-0.0468 0.0691-0.0716s-0.14444-0.19627-0.32097-0.38105c-0.37289-0.3903-0.63615-0.76323-0.82766-1.1725-0.11767-0.25146-0.13581-0.3381-0.13423-0.64135 3e-3 -0.54513 0.21729-1.1052 0.58116-1.5176l0.18145-0.20568-0.37322-0.50438c-0.20527-0.27742-0.38341-0.50439-0.39586-0.50439-0.0478 0-0.33431 0.49204-0.48165 0.82714-0.25314 0.57574-0.34204 0.99452-0.33925 1.598 4e-3 0.89993 0.2321 1.5134 0.7549 2.0319 0.44538 0.44168 0.97039 0.66272 1.2862 0.54153zm-0.79378-0.58119c-0.58322-0.58322-0.84438-1.4841-0.714-2.463 0.0281-0.21085 0.0616-0.41732 0.0744-0.45882 0.0187-0.0603 0.0128-0.0588-0.0296 8e-3 -0.0721 0.1133-0.25945 0.80424-0.25945 0.9567 0 0.0806-0.0171 0.11249-0.0496 0.0924-0.092201-0.057-0.0178-0.91076 0.11597-1.3291 0.11028-0.34497 0.38953-0.96132 0.43556-0.96132 0.0111 0 0.13788 0.16037 0.28175 0.35638l0.26158 0.35638-0.12853 0.16229c-0.0707 0.0892-0.18726 0.28646-0.25904 0.43824-0.40816 0.86304-0.23997 1.8736 0.49591 2.9799 0.12281 0.18462 0.0577 0.14468-0.22496-0.13797zm3.7156 0.15842c0.1037-0.11987 0.24977-0.47817 0.24977-0.6127 0-0.0997-0.1247 0.0747-0.15006 0.20994-0.0291 0.15496-0.11212 0.25395-0.11212 0.13364 0-0.0375-0.0154-0.0681-0.0343-0.0681-0.0541 0-0.19214 0.25768-0.16318 0.30453 0.0143 0.0232-0.014 0.0672-0.063 0.0978-0.12716 0.0794-0.11006 0.13636 0.0311 0.10349 0.0661-0.0154 0.17491-0.0913 0.24182-0.1686zm1.0145-0.0314c0.0149-0.024 6e-3 -0.0437-0.0193-0.0437-0.0255 0-0.0463 0.0197-0.0463 0.0437s9e-3 0.0437 0.0193 0.0437c0.0106 0 0.0314-0.0197 0.0463-0.0437zm0.48409-0.46618c0.17836-0.16027 0.3243-0.30634 0.3243-0.3246 0-0.0749-0.14519-0.17054-0.25884-0.17054-0.24936 0-0.61509 0.36326-0.61509 0.61093 0 0.26881 0.15886 0.23534 0.54963-0.11579zm-0.41854 0.07c0-0.14596 0.0777-0.25365 0.16634-0.23048 0.0493 0.0129 0.13352-0.029 0.21905-0.10886 0.0764-0.0714 0.13896-0.12055 0.13896-0.10923 0 0.0586-0.27205 0.40417-0.3674 0.46665-0.14155 0.0927-0.15695 0.091-0.15695-0.0181zm-0.30259-0.54604c0.19795-0.10058 0.52107-0.50807 0.52107-0.65711 0-0.0113-0.0367-8.7e-4 -0.081601 0.0231-0.0449 0.024-0.092801 0.0984-0.10653 0.1654-0.0137 0.0669-0.0538 0.16067-0.089001 0.20827-0.0607 0.0819-0.0628 0.0797-0.0399-0.0404l0.0243-0.12698-0.13765 0.098c-0.076601 0.0545-0.13764 0.13715-0.13764 0.18623 0 0.0579-0.0451 0.10522-0.13109 0.13769-0.0721 0.0272-0.13109 0.0662-0.13109 0.0865 0 0.0417 0.14029 5e-3 0.30916-0.0808zm1.5341-0.26701c0.01-0.0836 0.0407-0.1187 0.10822-0.1235 0.1308-9e-3 0.32072-0.14104 0.32072-0.22248 0-0.0459 0.026-0.0592 0.0812-0.0417 0.0447 0.0142 0.11626 0.0123 0.15906-4e-3 0.0724-0.0278 0.0727-0.0336 5e-3 -0.0834-0.23929-0.17497-1.0285 0.36183-0.82752 0.56284 0.0652 0.0652 0.14068 0.0222 0.15368-0.0877zm-0.58985-0.89114c0.14639-0.0555 0.31965-0.2094 0.31965-0.284 0-0.0864-0.19876-0.11119-0.50219-0.0627-0.32939 0.0526-0.50283 0.12199-0.50283 0.20112 0 0.14284 0.44381 0.23712 0.68537 0.14559zm-0.46652-0.0806c-0.0519-0.035-0.0541-0.055-0.0109-0.0982 0.0412-0.0412 0.0543-0.0416 0.0543-2e-3 0 0.0288 0.0462 0.0524 0.10272 0.0524 0.13743 0 0.37794-0.0861 0.37794-0.13536 0-0.0217 0.0295-0.0394 0.0655-0.0394 0.0888 0 0.082501 0.0585-0.0159 0.14751-0.096501 0.0874-0.48081 0.13753-0.57368 0.0749zm-2.0624-0.16777c-0.012-0.14509-0.0359-0.17513-0.20853-0.26218-0.25414-0.12815-0.59058-0.13524-0.65557-0.0138-0.0648 0.12104-0.0637 0.12275 0.13808 0.22571 0.26498 0.13518 0.47641 0.20753 0.61678 0.21105 0.11563 3e-3 0.12201-6e-3 0.10924-0.16078zm-0.49979-0.0724c-0.26509-0.12343-0.31296-0.18125-0.17965-0.21698 0.15254-0.0409 0.17841-0.0326 0.11968 0.0381-0.0459 0.0553-0.0283 0.0765 0.11238 0.13522 0.15189 0.0635 0.17127 0.0635 0.21722 7.4e-4 0.0581-0.0795 0.10736-0.0482 0.10736 0.068 0 0.10819-0.10594 0.10114-0.37699-0.0251zm-0.71462-0.50463c-0.0759-0.1833-0.1366-0.21121-0.10392-0.0478 0.0201 0.10037 0.0107 0.13326-0.0378 0.13326-0.14847 0-0.6791-0.47852-0.62596-0.5645 0.0358-0.058 0.0702-0.0586 0.15513-3e-3 0.0514 0.0337 0.0536 0.0507 0.0102 0.0788-0.0392 0.0254 8.7e-4 0.0762 0.13823 0.17479 0.22006 0.15803 0.26784 0.16849 0.30674 0.0671 0.0557-0.14508-0.39529-0.47015-0.61685-0.44464-0.27027 0.0311-0.13622 0.2278 0.46054 0.67573 0.21076 0.15819 0.25635 0.17672 0.30843 0.12532 0.0508-0.0501 0.0516-0.0832 5e-3 -0.19522zm-1.1021-0.90234c9e-3 -0.0884-0.0254-0.17858-0.10924-0.28676-0.19897-0.25687-0.54664-0.456-0.47635-0.27283 0.053 0.13825 0.48634 0.71206 0.52893 0.70047 0.024-7e-3 0.0495-0.0699 0.0567-0.14088zm4.313-1.0162c1.0166-0.2137 1.9889-0.80611 2.2892-1.3948l0.095301-0.18687-0.18725-0.2235c-0.23043-0.27507-0.88051-0.84326-1.0649-0.93074-0.12844-0.0609-0.15651-0.0561-0.51049 0.0882-1.1727 0.47809-2.3234 0.53721-3.3002 0.16955-0.24714-0.093-0.27632-0.0965-0.24595-0.0293 0.12003 0.26548 0.033 0.95236-0.20254 1.5976l-0.12872 0.35269 0.12021 0.1265c0.37535 0.395 1.0816 0.5678 2.174 0.53194 0.31365-0.0103 0.74418-0.0557 0.96133-0.10132zm1.0484 0.0382c0.0153-0.0248-2e-3 -0.0321-0.0411-0.0172-0.0757 0.029-0.089501 0.0604-0.0267 0.0604 0.0226 0 0.0531-0.0194 0.0678-0.0432zm-6.2011-0.24243c0.0505-0.12081 0.0545-0.1919 0.0185-0.32573-0.0511-0.18976-0.23742-0.43736-0.32913-0.43736-0.0924 0-0.1283 0.0955-0.0559 0.14865 0.036 0.0264 0.079101 0.12109 0.095801 0.21044 0.0167 0.0893 0.0601 0.19212 0.096301 0.22838 0.0511 0.0511 0.0552 0.086 0.0181 0.15524-0.0496 0.0926-0.0268 0.17492 0.0484 0.17492 0.0238 0 0.0724-0.0695 0.10792-0.15454zm7.0535-0.26653c0-0.012-0.059 0.0202-0.13109 0.0715-0.0721 0.0513-0.13109 0.10317-0.13109 0.11519 0 0.012 0.059-0.0202 0.13109-0.0715 0.0721-0.0513 0.13109-0.10317 0.13109-0.11519zm0.19938-0.15791 0.12834-0.14201-0.14201 0.12834c-0.13238 0.11963-0.1621 0.15568-0.12834 0.15568 8e-3 0 0.0714-0.0639 0.14201-0.14201zm1.4647-3.1078c0.11168-0.24594 0.10965-0.90131-3e-3 -0.90131-0.018 0-0.12499 0.15884-0.23779 0.35297l-0.20509 0.35297 0.11268 0.11269c0.062 0.062 0.12422 0.15862 0.13831 0.21478 0.0332 0.13235 0.093 0.0918 0.19468-0.1321zm6.1921-2.0179c-0.031-0.029-0.20259-0.0848-0.38133-0.12409-0.41456-0.0911-0.4834-0.15228-0.4834-0.42938 0-0.11802-0.02-0.252-0.0445-0.29774-0.0495-0.0925-0.42638-0.32871-0.46419-0.2909-0.0133 0.0132 0.0338 0.10904 0.10464 0.21287 0.14068 0.20631 0.73762 1.2684 0.86268 1.5349l0.0781 0.16637 0.1922-0.35971c0.15526-0.29058 0.18137-0.36983 0.13584-0.41236z" stroke-width=".043696"/>
</svg>
