<?xml version="1.0" encoding="UTF-8"?>
<svg width="35mm" height="35mm" version="1.1" viewBox="0 0 35 35" xmlns="http://www.w3.org/2000/svg" xmlns:cc="http://creativecommons.org/ns#" xmlns:dc="http://purl.org/dc/elements/1.1/" xmlns:rdf="http://www.w3.org/1999/02/22-rdf-syntax-ns#">
 <metadata>
  <rdf:RDF>
   <cc:Work rdf:about="">
    <dc:format>image/svg+xml</dc:format>
    <dc:type rdf:resource="http://purl.org/dc/dcmitype/StillImage"/>
    <dc:title/>
   </cc:Work>
  </rdf:RDF>
 </metadata>
 <path d="m10.883 28.484c1.1626-1.1491 1.4054-2.0089 1.4083-4.9864l0.0013-1.3682h1.3297l-0.04818 0.24089c-0.0265 0.13249-0.04818 0.29992-0.04818 0.37207 0 0.10115-0.05159 0.12361-0.22534 0.09811-0.21463-0.0315-0.2274-0.01711-0.26854 0.30241-0.02376 0.18452-0.08017 0.95986-0.12537 1.723-0.10568 1.7845-0.19838 2.1696-0.6723 2.7931-0.20627 0.27136-0.99088 0.87197-1.5921 1.2187-0.37662 0.21722-0.37549 0.21538 0.24066-0.39365zm-1.1001-0.45628c0.19237-0.23618 0.4754-0.64785 0.62894-0.91482 0.23894-0.41545 0.32238-0.49694 0.57894-0.56542 0.36833-0.09831 0.37686-0.04562 0.07719 0.4767-0.26351 0.45928-0.86382 1.0396-1.3119 1.2682l-0.32298 0.16477zm-2.6934-0.39039c0.44036-0.39988 1.463-1.0659 2.0042-1.3054 0.57846-0.25594 1.5146-0.4799 2.2916-0.54822 0.65088-0.05723 0.77936 0.017 0.60223 0.34798-0.06865 0.12828-0.15995 0.16019-0.45834 0.16019-1.2021 0-2.7756 0.50375-4.3241 1.3843l-0.42396 0.24109zm6.358-1.3029-0.50243-0.08112 0.0403-0.23125c0.03124-0.17928 0.08569-0.23652 0.24228-0.25471 0.19882-0.02309 0.20285-0.03566 0.25718-0.80212 0.03036-0.42826 0.0731-0.82528 0.09496-0.88227 0.02514-0.06552 0.16729-0.10361 0.38664-0.10361 0.29508 0 0.33935 0.01961 0.29649 0.13132-0.02771 0.07222-0.08887 0.60121-0.1359 1.1755-0.04703 0.57432-0.10611 1.0634-0.1313 1.0868-0.02518 0.02342-0.27188 0.0061-0.54822-0.03854zm-2.4382-0.78939c0.0924-0.31836 0.12783-1.1689 0.06436-1.5451l-0.06805-0.40339 0.25808-0.03984c0.14194-0.02191 0.37948-0.05875 0.52787-0.08187l0.26979-0.04203v0.31183c0 0.25138-0.02749 0.31183-0.14181 0.31183-0.12163 0-0.15489 0.10639-0.23368 0.74757-0.05053 0.41116-0.09945 0.75344-0.10871 0.76061-0.0093 0.0072-0.14994 0.03712-0.31261 0.06655-0.26177 0.04737-0.29111 0.03747-0.25524-0.08613zm5.8312-1.2697c-0.5341-0.22066-1.6172-0.37112-2.6787-0.3721l-1.0984-1e-3v-0.26524c0-0.14588 0.03837-0.28896 0.08526-0.31794 0.04689-0.02898 0.73722-0.05293 1.5341-0.05321l1.4488-5.46e-4 0.04615-0.23076c0.02538-0.1269 0.04615-0.41394 0.04615-0.63785 0-0.43794-0.03211-0.41665 0.47036-0.31195 0.19446 0.04052 0.20193 0.06356 0.24506 0.75621 0.02447 0.39293 0.09897 0.8662 0.16558 1.0517 0.18325 0.51044 0.15253 0.55491-0.26433 0.38269zm4.1633-0.73065c-0.12761-0.28144-0.23202-0.5561-0.23202-0.61036 0-0.51535-0.38022-0.45948-0.9477 0.13925-0.25114 0.26498-0.4333 0.43817-0.40479 0.38487 0.02938-0.05491-0.0026-0.11778-0.07375-0.14509-0.08126-0.03118-0.21661 0.04003-0.38344 0.20173l-0.25785 0.24992-0.41155-0.13467c-0.22635-0.07407-0.54163-0.19999-0.70061-0.27983-0.2475-0.12429-0.28906-0.18225-0.28906-0.40304 0-0.28735-0.08939-0.27838 0.86964-0.08732l0.29152 0.05808-0.17589-0.27721c-0.14519-0.22883-0.26334-0.30388-0.67693-0.43004-0.81575-0.24882-1.7519-0.45568-2.3119-0.51086-0.47035-0.04635-0.52834-0.03688-0.56616 0.09242-0.02317 0.07923-0.11692 0.39554-0.20832 0.70291l-0.16619 0.55886h-0.33937c-0.22111 0-0.33871-0.03358-0.33748-0.09635 3e-3 -0.15408 0.14316-0.74418 0.32261-1.3583l0.16602-0.56822 0.57292 0.05192c0.50861 0.04609 1.9611 0.28313 2.4824 0.40512l0.19271 0.0451-0.2264-0.2417c-0.17707-0.18903-0.29044-0.2417-0.52031-0.2417-0.26053 0-0.29391-0.02145-0.29391-0.18888 0-0.10388 0.05774-0.22119 0.12832-0.26069 0.0952-0.05328-0.01917-0.09494-0.44323-0.16146-0.80255-0.12588-0.91842-0.1543-0.91842-0.2252 0-0.03435 0.13159-0.25048 0.29242-0.4803 0.25654-0.36659 0.32038-0.41468 0.52031-0.39195 0.1862 0.02116 0.21001 0.0075 0.13013-0.07464-0.05515-0.05672-0.33405-0.1139-0.63981-0.13117-0.67096-0.03791-1.2525 0.15384-2.0374 0.67176-0.80761 0.53291-0.81809 0.52934-0.20459-0.06964 0.71767-0.70069 1.297-0.9887 2.0821-1.0352l0.55538-0.03288 0.02438-0.67916c0.0266-0.74099 0.1194-1.0312 0.61152-1.9125 0.5322-0.95303 1.1844-1.4984 2.2193-1.8555 1.0581-0.36519 1.9791-0.32604 3.0537 0.12981l0.32511 0.1379 0.2474-0.46416c0.38562-0.72349 0.99483-1.1937 2.0816-1.6068 0.56708-0.21554 0.5646-0.20104-0.02631 0.15351-0.9401 0.56406-1.6105 1.2779-1.831 1.9495-0.11126 0.33888-0.06384 0.43661 0.13027 0.2685 0.11576-0.10026 1.0935-0.31452 1.1607-0.25437 0.0128 0.01145-0.06066 0.31097-0.16323 0.66561-0.19778 0.6838-0.18156 0.75698 0.16823 0.75924 0.15138 9.83e-4 0.17452 0.0307 0.13595 0.17462-0.02556 0.09539-0.04695 0.2168-0.04753 0.26979-6.12e-4 0.05299-0.05308 0.09635-0.11668 0.09635-0.15133 0-0.14166 0.13167 0.0339 0.46144l0.14306 0.26873 0.08029-0.30727c0.04416-0.169 0.13663-0.53274 0.20548-0.80832 0.17255-0.69057 0.56296-1.9433 0.6453-2.0705 0.05066-0.07831 0.16698-0.09126 0.45894-0.0511 0.41641 0.05727 1.4683 0.31344 1.5266 0.3718 0.01919 0.01919-0.02628 0.16318-0.10104 0.31997-0.1165 0.2443-0.16383 0.27869-0.33091 0.24049-0.10723-0.02452-0.44141-0.06641-0.74261-0.0931l-0.54764-0.04851-0.1617 0.60768c-0.13613 0.51156-0.4774 2.4074-0.4774 2.6521 0 0.04148 0.05031 0.07541 0.1118 0.07541 0.06149 0 0.14587 0.0607 0.18752 0.1349 0.08783 0.15645 0.11925 0.09592 0.1987-0.38271 0.05888-0.3547 0.09309-0.3742 0.4179-0.23809l0.26072 0.10925-0.05088 0.51593c-0.08864 0.8988-0.12385 1.0141-0.3251 1.0646-0.1012 0.0254-0.18833 0.09445-0.19363 0.15345-0.03596 0.40038-0.2247 0.63549-0.61392 0.76477-0.20339 0.06755-0.45848 0.19259-0.56687 0.27784-0.19886 0.15642-0.2662 0.37508-0.11552 0.37508 0.11579 0 0.76637 0.67442 0.76637 0.79446 0 0.20506-0.19566 0.50287-0.44068 0.67076-0.13919 0.09537-0.25307 0.20362-0.25307 0.24055 0 0.03693-0.04832 0.06715-0.10738 0.06715-0.05906 0-0.12734 0.05203-0.15175 0.11562-0.0244 0.06359-0.08915 0.11562-0.14387 0.11562-0.05473 0-0.14283 0.06938-0.19578 0.15417-0.05295 0.08479-0.14377 0.15417-0.20181 0.15417-0.05804 0-0.14872 0.05203-0.20149 0.11563-0.05278 0.06359-0.15738 0.11562-0.23244 0.11562-0.07506 0-0.15645 0.05203-0.18085 0.11563-0.0244 0.06359-0.09055 0.11562-0.147 0.11562-0.05644 0-0.14282 0.04019-0.19194 0.08931-0.04912 0.04912-0.20227 0.10168-0.34034 0.11679-0.13806 0.01511-0.28519 0.06164-0.32694 0.1034-0.16171 0.16171-0.2833 0.05716-0.50682-0.43579zm0.48342 0.31016c0.02606-0.02606-0.0065-0.13879-0.07237-0.25052-0.11965-0.20298-0.11961-0.20298 0.04898 0.0088 0.17663 0.22191 0.31004 0.27456 0.31004 0.12237 0-0.19047-0.47311-0.82649-0.58333-0.78419-0.17388 0.06673-0.12982-0.0079 0.10889-0.18436l0.21932-0.16215-0.03723 0.19476c-0.03354 0.17544-0.019 0.18897 0.14654 0.13643 0.10107-0.03208 0.22204-0.11066 0.26881-0.17463 0.06747-0.09227 0.07822-0.0698 0.05202 0.10871-0.03631 0.24738 0.21606 0.6467 0.4087 0.6467 0.16936 0 0.1309-0.22788-0.0866-0.51304-0.10815-0.14179-0.16479-0.2578-0.12587-0.2578s0.16258 0.13875 0.27481 0.30833c0.21899 0.33091 0.28961 0.36562 0.42123 0.20702 0.06295-0.07584 0.03555-0.17274-0.10897-0.38542-0.18119-0.26665-0.27092-0.3231-0.45729-0.28772-0.0424 8e-3 -0.03745-0.02575 0.011-0.0751 0.06587-0.0671 0.12904-0.06781 0.25052-0.0028 0.08934 0.04782 0.16244 0.11573 0.16244 0.15091 0 0.03519 0.07182 0.15528 0.1596 0.26688 0.13025 0.16558 0.18696 0.18826 0.30834 0.12331 0.20539-0.10992 0.18853-0.18717-0.11258-0.51574-0.23653-0.2581-0.27426-0.27444-0.39795-0.17231-0.12032 0.09936-0.13191 0.09902-0.09703-0.0028 0.02178-0.06359 0.1137-0.11292 0.20426-0.10961 0.0976 0.0036 0.18358-0.05364 0.21114-0.14047 0.02721-0.08573 0.09156-0.12919 0.15515-0.10479 0.07012 0.02691 0.10866-0.01052 0.10866-0.1055 0-0.08096 0.03145-0.16664 0.0699-0.1904 0.03844-0.02376 0.05158 0.02684 0.0292 0.11243-0.02463 0.09417 0.03952 0.27685 0.16245 0.46261 0.34663 0.52379 0.51083 0.3193 0.17314-0.21562-0.20131-0.31889-0.16302-0.67247 0.0634-0.58558 0.07748 0.02973 0.11858 1e-3 0.11858-0.08292 0-0.07582 0.03567-0.10638 0.08708-0.0746 0.05285 0.03267 0.07307 0.01173 0.05143-0.05326-0.0512-0.15375-0.29268-0.18317-0.29268-0.03566 0 0.0667-0.0384 0.12128-0.08533 0.12128s-0.06428-0.05203-0.03854-0.11562c0.02573-0.06359 0.06784-0.16766 0.09358-0.23125 0.02573-0.06359 0.0086-0.11562-0.03806-0.11562-0.11286 0-0.54839-0.60648-0.54803-0.76313 1.54e-4 -0.06783 0.0739-0.0019 0.16387 0.14646 0.22838 0.37667 0.2804 0.3915 0.52285 0.14906 0.1175-0.1175 0.36654-0.25285 0.55342-0.30078 0.48433-0.12421 0.5325-0.14392 0.5325-0.21793 0-0.03638-0.11274-0.05487-0.25052-0.04108-0.23128 0.02314-0.21428 0.0047 0.09635-0.10469 0.09187-0.03235 0.08395-0.05373-0.03854-0.1041-0.09006-0.03703-0.10861-0.06565-0.04461-0.06881 0.12609-0.0062 0.39149-0.22824 0.39149-0.32748 0-0.0368-0.09539-0.0077-0.21198 0.06458l-0.21198 0.13149 0.17344-0.17126c0.39607-0.39109 0.07205-1.0834-0.50979-1.0892-0.07265-7e-4 -0.09481 0.06908-0.07176 0.22613 0.01834 0.12495 0.0089 0.21209-0.0209 0.19366-0.02983-0.01844-0.07733-0.1875-0.10555-0.3757-0.07323-0.48835-0.32489-0.82122-0.80466-1.0643-0.36586-0.1854-0.78057-0.5938-0.78057-0.7687 0-0.13427 0.13418-0.05166 0.21921 0.13495 0.04938 0.10838 0.12258 0.17678 0.16267 0.15201 0.04009-0.02478 0.11057 0.02536 0.15662 0.11141 0.04605 0.08605 0.21256 0.21527 0.37002 0.28716 0.15746 0.07189 0.31176 0.14392 0.34291 0.16007 0.10646 0.05521-0.33872-1.0226-0.60068-1.4542-0.28157-0.46396-0.87377-1.0619-1.236-1.2479-0.39345-0.20209-1.3761-0.44097-1.814-0.44097-0.53519 0-1.5308 0.2577-2.033 0.52623-0.55631 0.29744-1.1168 0.89322-1.4075 1.4961-0.79043 1.6395-0.82473 2.0494-0.28604 3.419 0.19862 0.50497 0.44564 1.0306 0.54894 1.168 0.23407 0.31136 1.2606 1.2015 1.3186 1.1435 0.02354-0.02354-0.05111-0.12984-0.1659-0.23622-0.23141-0.21446-0.43198-0.6338-0.43242-0.90408-1.54e-4 -0.09675-0.07071-0.29142-0.15678-0.4326-0.08607-0.14118-0.12063-0.23452-0.0768-0.20743 0.04384 0.02709 0.0797 0.01457 0.0797-0.02783s-0.03525-0.09887-0.07834-0.1255-0.05745-0.08223-0.03191-0.12355c0.02554-0.04132 0.0045-0.12565-0.04672-0.18738-0.05124-0.06174-0.07106-0.11225-0.04404-0.11225 0.09152 0 0.3546 0.49999 0.35489 0.67448 1.55e-4 0.09539 0.03874 0.17344 0.08573 0.17344 0.05199 0 0.06703 0.07334 0.03842 0.18736-0.07351 0.29288 0.0806 0.59044 0.51384 0.99214 0.22154 0.20541 0.36566 0.39408 0.32385 0.42396-0.04143 0.02961-0.12365 0.14766-0.18272 0.26233-0.09403 0.18255-0.09148 0.23276 0.02047 0.40362 0.19134 0.29203 0.48822 0.46641 0.61496 0.36123 0.05668-0.04704 0.12505-0.06355 0.15192-0.03667 0.02687 0.02687 0.1104 0.0012 0.18562-0.05715 0.11517-0.08928 0.11358-0.07884-0.01008 0.0661-0.23103 0.27078 0.01157 0.20945 0.27129-0.06858 0.14366-0.15379 0.20603-0.18858 0.17275-0.09635-0.04588 0.12713-0.02987 0.12415 0.13424-0.02495 0.10248-0.09311 0.30127-0.21761 0.44174-0.27668l0.25541-0.10739-0.205-0.24363c-0.11275-0.134-0.16647-0.24363-0.11937-0.24363 0.11111 0 0.54474 0.68337 0.54474 0.85846 0 0.07399 0.02993 0.15302 0.06651 0.17563 0.03658 0.02261 0.11134 0.20676 0.16613 0.40924 0.13175 0.48686 0.26442 0.65476 0.40571 0.51346zm-0.33002-0.60783c-0.0801-0.09651-0.06931-0.11562 0.06523-0.11562 0.11161 0 0.14754 0.03557 0.11682 0.11562-0.0244 0.06359-0.05376 0.11563-0.06522 0.11563-0.01147 0-0.06404-0.05203-0.11682-0.11563zm0.53958-0.74298c0-0.03652 0.06103-0.06639 0.13562-0.06639 0.07459 0 0.17599-0.06463 0.22532-0.14363 0.09583-0.15344 0.40989-0.27412 0.40989-0.15749 0 0.03843-0.07262 0.06987-0.16138 0.06987-0.09375 0-0.17744 0.06141-0.1997 0.14652-0.03763 0.14389-0.40975 0.28114-0.40975 0.15113zm-2.3178-0.72677c0.14547-0.06312 0.3189-0.15281 0.38542-0.19931 0.06651-0.0465 0.02361 0.0065-0.09535 0.11778-0.11895 0.11128-0.29239 0.20097-0.38542 0.19931-0.13385-0.0024-0.11396-0.02696 0.09535-0.11778zm3.6282-0.06737c0-0.06109 0.03145-0.13052 0.0699-0.15427 0.03844-0.02376 0.05174 0.02623 0.02955 0.11108-0.04707 0.17999-0.09945 0.20274-0.09945 0.0432zm-4.0854-0.09871c-0.06359-0.0239-0.2077-0.10788-0.32023-0.18662-0.27622-0.19329-0.35122-0.18043-0.17653 0.03026 0.10626 0.12816 0.08775 0.12117-0.07089-0.02678-0.27342-0.25498-0.34888-0.71538-0.173-1.0555 0.06831-0.13209 0.27782-0.34586 0.46559-0.47505 0.2885-0.1985 0.41388-0.23488 0.80928-0.23488 0.51372 0 0.61635-0.11852 0.29656-0.3425-0.16557-0.11597-0.16605-0.12-0.01442-0.12 0.33902 0 0.81151 0.7446 0.79329 1.2501l-0.0091 0.253-0.05884-0.23125c-0.04854-0.19074-0.06044-0.20044-0.06796-0.05534-0.03643 0.70272-0.90624 1.4077-1.4737 1.1945zm4.3649-0.08296c-0.0209-0.03382-0.0071-0.11143 0.03058-0.17247 0.05172-0.08368 0.06539-0.06855 0.05559 0.06149-0.01409 0.18712-0.02802 0.20506-0.08617 0.11097zm-2.1258-0.39423c-0.04338-0.08106-0.12164-0.39678-0.17392-0.7016-0.08807-0.51359-0.08453-0.5619 0.04827-0.65901 0.1759-0.12862 0.24558-0.09113 0.84989 0.45731l0.45808 0.41574-0.1425 0.21749-0.1425 0.21749-0.29631-0.33389c-0.32807-0.36969-0.3511-0.36317-0.17826 0.05048 0.06492 0.15538 0.1007 0.32771 0.0795 0.38294-0.05911 0.15403-0.41236 0.121-0.50225-0.04696zm0.96634-0.82386c-0.16605-0.14415-0.2688-0.26209-0.22834-0.26209 0.10239 0 0.61608 0.43876 0.56879 0.48582-0.0212 0.0211-0.1744-0.07958-0.34045-0.22373zm-0.48242-0.82095c-0.38314-0.39798-0.49081-0.59693-0.47706-0.88139 0.0088-0.18179 0.01592-0.18888 0.0439-0.04361 0.01837 0.09539 0.06264 0.17344 0.09836 0.17344 0.03573 0 0.22479-0.22399 0.42015-0.49776 0.45075-0.63167 0.60259-0.73558 1.0749-0.73558 0.34319 0 0.40871 0.02997 0.67301 0.3078 0.32219 0.33869 0.44836 0.75455 0.31157 1.0269-0.07535 0.15005-0.0795 0.1432-0.03812-0.06286 0.06344-0.31589-0.08113-0.1643-0.20095 0.21068-0.155 0.48511-0.85646 0.82916-1.3828 0.67822-0.21714-0.06227-0.23967-0.05669-0.15975 0.03961 0.21219 0.25567-0.07196 0.08712-0.36328-0.21549zm1.2083 0.29668c0-0.05804 0.55889-0.36088 0.59654-0.32324 0.02064 0.02064-0.07913 0.10864-0.22169 0.19555-0.24795 0.15116-0.37484 0.19439-0.37484 0.12768zm-2.4008-0.56809c-0.09657-0.12323-0.09282-0.12456 0.04972-0.01765 0.14108 0.10581 0.14566 0.10475 0.054-0.0125-0.05509-0.07047-0.272-0.16934-0.48201-0.21973-0.48982-0.11751-0.58346-0.25109-0.15428-0.2201 0.30991 0.02238 0.46431-0.07072 0.46431-0.27996 0-0.0424-0.03363-0.02505-0.07472 0.03854-0.12286 0.19012-0.0872 0.03913 0.07539-0.31919l0.15247-0.33602 0.0021 0.38542c0.0026 0.465 0.13591 0.98471 0.23668 0.92243 0.0401-0.02479 0.07292-0.02689 0.07292-0.0047 0 0.02221-0.06573 0.07556-0.14607 0.11856-0.11174 0.0598-0.17062 0.04685-0.25052-0.0551zm1.5199 4.0766c-0.21184-0.33557-0.35247-0.40746-0.35247-0.18018 0 0.14187 0.20005 0.47716 0.34176 0.5728 0.18946 0.12786 0.19566-0.09963 0.0107-0.39262zm-2.278-0.20343c0.14895-0.17948 0.04267-0.2133-0.11674-0.03715-0.07697 0.08505-0.10413 0.15464-0.06036 0.15464 0.04378 0 0.12347-0.05287 0.1771-0.11749zm3.8933-0.3484c0.0923-0.14934-0.37927-0.72838-0.52156-0.64044-0.11053 0.06831-0.05857 0.24669 0.1409 0.48374 0.21132 0.25114 0.29978 0.28755 0.38066 0.15669zm0.57603-0.46789c0-0.1408-0.32452-0.6747-0.43615-0.71753-0.15914-0.06107-0.12692 0.24615 0.05702 0.54377 0.15412 0.24937 0.37913 0.3525 0.37913 0.17376zm0.19358-0.22388c0.02668-0.04317-0.02624-0.20794-0.11759-0.36615l-0.1661-0.28766 0.19884 0.23125c0.216 0.25121 0.27416 0.17928 0.07961-0.09847-0.1326-0.18931-0.17506-0.20175-0.33758-0.09891-0.09477 0.05997-0.09031 0.11528 0.03098 0.38424 0.14332 0.31783 0.22359 0.3785 0.31184 0.2357zm-9.1123 0.88718c-0.34774-0.04502-0.65486-0.10448-0.68251-0.13212-0.02764-0.02765-0.01731-0.14782 0.02298-0.26706 0.07193-0.21291 0.08381-0.21673 0.66322-0.21297 0.32449 0.0021 0.61752 0.0368 0.65118 0.07708 0.03366 0.04029 0.04234 0.19558 0.01929 0.34509l-0.04191 0.27184zm-11.676-4.4283c-0.46345-0.08478-1.2203-0.30464-1.2203-0.35449 0-0.02119 0.22225-0.01577 0.4939 0.01207 1.1689 0.11976 3.0428-0.42258 4.0203-1.1636 0.22662-0.17179 0.2342-0.19614 0.18894-0.60735-0.02594-0.23561-0.07244-0.45368-0.10335-0.48459-0.0704-0.0704-0.78682 0.27383-1.4173 0.68099-1.1729 0.75746-2.6322 0.79657-4.1076 0.11009l-0.42396-0.19727 0.42396 0.05614c0.6935 0.09184 1.8516 0.04587 2.385-0.09466 0.60042-0.1582 0.97036-0.34053 1.5994-0.78827l0.47702-0.33956 0.64069 0.1182c0.35238 0.06501 0.83996 0.12391 1.0835 0.13088 0.30849 0.0088 0.42275 0.0383 0.37667 0.09715-0.17763 0.22688-0.16443 0.93506 0.02905 1.5585 0.04508 0.14527-0.03863 0.20793-0.74575 0.55819-0.43809 0.217-1.074 0.46512-1.4132 0.55138-0.7082 0.18011-1.7625 0.2521-2.287 0.15615zm22.876-0.69836c-0.20783-0.15941-0.65309-0.43649-0.98947-0.61572-0.52634-0.28045-0.60545-0.3488-0.56746-0.49037 0.02428-0.09048 0.04462-0.22314 0.04519-0.2948 9.39e-4 -0.11704 0.05737-0.11115 0.55414 0.05781 0.6423 0.21846 0.75734 0.22978 0.75734 0.0745 0-0.34283 1.035-2.5843 1.1934-2.5843 0.06039 0 0.19634 0.03943 0.3021 0.08762l0.1923 0.08762-0.18027 0.35575c-0.53359 1.053-0.80612 1.9661-0.87959 2.9472l-0.04977 0.66459zm-15.005-0.27359c-0.11333-0.13656-0.43453-0.32138-0.86852-0.49976l-0.29461-0.12109 0.27944-0.08576c0.25999-0.07979 0.29821-0.06929 0.54907 0.15097 0.1483 0.13021 0.32078 0.33565 0.3833 0.45655 0.12566 0.243 0.10525 0.28457-0.04868 0.0991zm-2.8961-0.6155c-0.14118-0.21546-0.25567-0.6628-0.2583-1.0092-0.0021-0.27292 0.09637-0.3359 0.52478-0.33575 0.28441 7.7e-5 1.139-0.09526 2.1243-0.23704 0.55953-0.08052 1.1208-0.28663 1.6165-0.59356 0.38566-0.23884 0.33495-0.11181-0.09954 0.24935-0.75117 0.62439-1.5248 0.85453-2.6455 0.78703l-0.75156-0.04527v0.61022l0.3276 4.59e-4c0.18018 2.4e-4 0.46527 0.03865 0.63354 0.08536l0.30593 0.08493-0.1903 0.09907c-0.10467 0.05449-0.47734 0.18697-0.82817 0.2944l-0.63787 0.19534-0.12142-0.18532zm1.2044-0.04904c0.10599-0.04807 0.40084-0.1757 0.65521-0.28362 0.77614-0.3293 1.5055-0.79486 2.0649-1.3181 0.58873-0.55064 1.0524-1.1589 0.88338-1.1589-0.05715 0-0.13686 0.03193-0.17714 0.07096-0.04028 0.03903-0.31604 0.19183-0.61281 0.33956-2.0952 1.043-5.0113 1.2758-7.0917 0.56614l-0.53958-0.18405 2.6136 0.0168 0.20058-0.53958c0.4553-1.2248 1.1443-2.2664 2.0877-3.1565 0.53246-0.5023 1.5354-1.2168 1.8466-1.3156 0.22176-0.07039 0.18638-0.14291-0.16649-0.34123l-0.31689-0.1781 0.0322-0.44522c0.03652-0.50481 0.32056-0.96539 0.67875-1.1006 0.12472-0.04708 0.43964-0.39222 0.79835-0.87498 0.60597-0.81553 0.69443-0.88993 1.8092-1.5217 0.89584-0.50768 1.4721-0.63997 2.2793-0.52326l0.62502 0.09037 0.61966-0.59685c0.35342-0.34041 0.86667-0.73599 1.1946-0.92068 0.58958-0.3321 1.722-0.74605 2.2707-0.83004 0.30205-0.04624 0.29969-0.04346-0.11562 0.13649-1.1613 0.50315-1.9454 1.0005-2.5837 1.6388-0.40213 0.40213-0.68762 0.82216-0.61093 0.89885 0.02019 0.02019 0.32232-0.1114 0.67141-0.29242 1.8544-0.96165 4.5704-1.2845 6.5316-0.7765 1.2628 0.32713 1.251 0.35452-0.1444 0.33611-1.054-0.0139-1.2727 0.0024-1.3262 0.09898-0.03527 0.06359-0.18261 0.41564-0.32744 0.78232-0.4788 1.2123-1.4864 2.5467-2.4996 3.3103-0.24364 0.18362-0.45375 0.34016-0.46691 0.34786-0.01316 0.0077-0.05707 0.2481-0.09759 0.5342-0.15944 1.1258-0.68026 1.8331-1.9983 2.7136-1.2453 0.83193-1.4524 1.0046-1.4786 1.2327-0.03471 0.302-0.70056 0.63739-1.2654 0.63739-0.55182 0-0.62705-0.04147-0.84095-0.46359-0.20502-0.40458-0.3861-0.61632-0.52527-0.61419-0.04997 7.72e-4 -0.20677 0.14098-0.34845 0.31158-0.25328 0.30499-0.25434 0.30937-0.0634 0.26145 0.10681-0.02681 0.25037-0.01731 0.31902 0.02111 0.10839 0.06066 0.08336 0.13194-0.19024 0.54165-0.85718 1.2836-2.4484 2.2306-4.3557 2.592-0.22539 0.04271-0.22637 0.04161-0.03854-0.04357zm-1.4895-2c0.67274 0.05796 2.285-0.41118 2.7614-0.8035 0.19323-0.15914 0.21224-0.20276 0.11562-0.2653-0.12194-0.07893-0.37314-0.11049-0.69375-0.08715-0.17779 0.01294-0.16585-0.01163 0.15417-0.3173 0.19078-0.18223 0.46033-0.41873 0.59899-0.52555 0.24056-0.18532 0.24802-0.20644 0.16292-0.46082-0.04906-0.14662-0.12425-0.30128-0.1671-0.34367-0.05228-0.05172-0.06304-0.03465-0.03271 0.05191 0.03267 0.09322-0.01737 0.1508-0.18044 0.20765-0.65119 0.227-2.0269 1.3593-2.7283 2.2457-0.31521 0.39829-0.16843 0.05503 0.23768-0.55584 0.43174-0.64944 1.4435-1.7304 1.9812-2.1167 0.21866-0.15709 0.41201-0.29644 0.42967-0.30966 0.01766-0.01322 0.01062-0.04554-0.01565-0.07181-0.08499-0.08499-0.7928 0.49394-1.4534 1.1888-0.79462 0.83577-1.905 2.4434-1.5257 2.209 0.05959-0.03683 0.21954-0.05738 0.35544-0.04567zm7.1143-0.91902c-0.04664-0.08714-0.06794-0.19988-0.04734-0.25052 0.02179-0.05357 0.04-0.03961 0.04354 0.03338 0.0033 0.069 0.05539 0.16638 0.11565 0.21639 0.09041 0.07503 0.10296 0.05984 0.07178-0.08692-0.03619-0.17036-0.03378-0.17136 0.05729-0.02368 0.10567 0.17136 0.22496 0.26683 0.33564 0.26861 0.04028 6.12e-4 0.0316-0.04044-0.01927-0.09132-0.05088-0.05088-0.0925-0.12273-0.0925-0.15967 0-0.03694 0.05451-0.01266 0.12113 0.05396 0.16309 0.16309 0.40531 0.15207 0.70752-0.03219 0.20878-0.12729 0.25052-0.1995 0.25052-0.43331 0-0.27392-0.0059-0.27955-0.25052-0.23779l-0.25052 0.04277 0.26979-0.10975c0.77744-0.31626 1.1059-0.63835 1.2027-1.1792 0.0468-0.26169 0.25586-0.51322 0.5878-0.70723 0.10383-0.06069 0.12374-0.05328 0.0904 0.03362-0.02352 0.0613-0.09432 0.13123-0.15732 0.15541-0.063 0.02418-0.09583 0.07425-0.07294 0.11128 0.02288 0.03703-0.03144 0.13267-0.12073 0.21252-0.15909 0.14229-0.48355 0.79324-0.42472 0.85208 0.01642 0.01642 0.28612-0.11688 0.59934-0.29622 0.72906-0.41744 1.4771-1.1564 1.7301-1.709 0.27614-0.60316 0.40014-1.6165 0.27319-2.2323-0.20003-0.97043-0.89583-2.1172-1.5454-2.5471-0.61411-0.4064-2.2959-0.86504-2.9438-0.80279-0.36989 0.03554-0.60421 0.13799-1.7104 0.74787-0.64923 0.35793-1.1579 0.9012-1.5561 1.6618l-0.20174 0.38542 0.217-0.24133c0.2497-0.2777 0.69918-0.56734 0.88108-0.56776 0.06848-1.62e-4 0.21125-0.06853 0.31728-0.15193 0.10603-0.0834 0.21393-0.13049 0.23978-0.10464 0.02585 0.02585 0.09987 0.0031 0.16449-0.05051 0.06462-0.05363 0.11749-0.07054 0.11749-0.03758s0.07805-0.0048 0.17344-0.08387c0.11863-0.09836 0.10841-0.0742-0.03234 0.07645-0.11986 0.1283-0.4103 0.28908-0.69566 0.38511-0.59316 0.19962-0.75124 0.3082-0.96888 0.6655-0.20448 0.33569-0.53609 0.65316-0.45769 0.43816 0.03581-0.09819 0.0096-0.1349-0.09625-0.1349-0.07999 0-0.199-0.02055-0.26445-0.04567-0.07294-0.02799-0.19765 0.03914-0.32217 0.17344-0.30516 0.3291-0.36094 0.46538-0.23764 0.58055 0.08975 0.08384 0.08689 0.11418-0.01855 0.19717-0.11124 0.08755-0.09596 0.12284 0.14226 0.32859 0.30504 0.26346 0.2527 0.30908-0.08154 0.07108-0.12313-0.08768-0.22388-0.12566-0.22388-0.08441 0 0.04125 0.1559 0.16637 0.34645 0.27804s0.39956 0.30574 0.46448 0.43128c0.13923 0.26924 0.19714 0.28041 0.38387 0.07409 0.07674-0.08479 0.17684-0.15417 0.22244-0.15417 0.13901 0-0.35475 0.4376-0.72349 0.6412-0.23242 0.12833-0.34979 0.24553-0.35571 0.35519-0.01081 0.20026 0.10649 0.28576 0.22689 0.16536 0.06727-0.06727 0.06092-0.10674-0.02599-0.16169-0.06324-0.03998-0.07933-0.07323-0.03576-0.07387 0.04357-6.16e-4 0.13862 0.0682 0.21122 0.15299 0.12564 0.14674 0.12461 0.15417-0.02141 0.15417-0.2381 0-0.17624 0.31758 0.07784 0.39965 0.07397 0.02389 0.04306 0.05125-0.08581 0.07594-0.16636 0.03187-0.195 0.01396-0.16445-0.10287 0.05677-0.2171-0.17237-0.17508-0.46154 0.08463-0.20055 0.18013-0.23236 0.24574-0.1564 0.32273 0.07626 0.0773 0.13784 0.05905 0.30778-0.0912 0.15224-0.1346 0.17438-0.14242 0.07811-0.0276-0.14277 0.17028-0.17619 0.38293-0.07045 0.44828 0.03514 0.02172 0.19124-0.06548 0.34688-0.19377 0.15564-0.12829 0.28298-0.21115 0.28298-0.18413 0 0.02702-0.10406 0.13669-0.23125 0.24371-0.23414 0.19702-0.31345 0.48922-0.13278 0.48922 0.17213 0 0.45304-0.24279 0.56884-0.49166 0.07324-0.15739 0.09968-0.18064 0.07642-0.06719-0.02904 0.14166-0.0016 0.17344 0.14994 0.17344 0.13195 0 0.18549 0.043 0.18549 0.14897 0 0.08194 0.06883 0.17082 0.15295 0.19752 0.21529 0.06833 0.15905 0.27729-0.14862 0.55219-0.26466 0.23647-0.27819 0.48129-0.01892 0.3424 0.27529-0.14748 0.56756-0.47835 0.52364-0.59279-0.02701-0.0704-0.01246-0.09673 0.03667-0.06636 0.0448 0.02769 0.06284 0.09887 0.04008 0.15817-0.0273 0.07114 0.01332 0.10783 0.11936 0.10783 0.12387 0 0.1513 0.03609 0.1196 0.15733-0.03333 0.12746-0.01309 0.14843 0.10664 0.11043 0.1043-0.0331 0.14778-0.01002 0.14778 0.07847 0 0.06895 0.03469 0.10393 0.07708 0.07773 0.12057-0.07452 0.09031-0.34688-0.03854-0.34688-0.06359 0-0.11562-0.05031-0.11562-0.1118 0-0.06149-0.0607-0.14715-0.1349-0.19036-0.15023-0.0875-0.09803-0.10864 0.09005-0.03647 0.06706 0.02573 0.12193 0.09257 0.12193 0.14852 0 0.22302 0.27578 0.15268 0.52712-0.13444 0.14153-0.16168 0.33231-0.33204 0.42396-0.37857 0.11071-0.0562 0.08255-0.0056-0.08388 0.15075-0.13779 0.12944-0.25052 0.25571-0.25052 0.28059 0 0.02488 0.11929 0.14998 0.26509 0.27799 0.1458 0.12801 0.30641 0.36109 0.35692 0.51796 0.05051 0.15687 0.12625 0.32857 0.16831 0.38156 0.12439 0.15673 0.2244 0.10983 0.1324-0.06209zm0.96583-1.1407c0.22755-0.05883 0.2257-0.06075-0.11562-0.12-0.19078-0.03312-0.42448-0.10942-0.51932-0.16956-0.24577-0.15584-0.4817-0.6616-0.48902-1.0483l-0.0063-0.33068-0.22536 0.4625 0.04672-0.23125c0.10992-0.54401 0.7214-1.1266 1.1638-1.1088 0.16086 0.0065 0.17962 0.01917 0.06799 0.04602-0.31764 0.0764-0.25822 0.15894 0.35022 0.48642 0.68889 0.37078 0.84458 0.56922 0.84458 1.0765 0 0.25824-0.05271 0.37166-0.29194 0.62812-0.25273 0.27094-0.3433 0.31672-0.67448 0.34086-0.29075 0.0212-0.32705 0.01355-0.1513-0.03189zm-3.141-0.33194c0.03099-0.11849 0.04438-0.11865 0.18045-0.0021 0.08084 0.06922 0.14698 0.12681 0.14698 0.12799 0 0.0012-0.0812 0.0021-0.18045 0.0021-0.1302 0-0.17113-0.03564-0.14698-0.12799zm2.1906-0.01218c-0.09202-0.09796-0.16732-0.22189-0.16732-0.2754 0-0.05351 0.09104 0.01089 0.2023 0.14312 0.23784 0.28266 0.20894 0.39193-0.03498 0.13228zm-2.4405-0.20796c0.02663-0.04309 0.08071-0.05839 0.12018-0.03399 0.10692 0.06608 0.08698 0.11233-0.04842 0.11233-0.0661 0-0.09839-0.03525-0.07176-0.07834zm-0.27057-0.37774c0-0.08126-0.04336-0.16524-0.09635-0.18662-0.06163-0.02487-0.06483-0.04107-0.0089-0.04496 0.04812-0.0033 0.14431 0.08063 0.21376 0.18662 0.11054 0.16871 0.11165 0.19271 0.0089 0.19271-0.06457 0-0.1174-0.06649-0.1174-0.14774zm1.8604-0.37741c0.0989-0.17184 0.19161-0.30064 0.20603-0.28622 0.04069 0.0407-0.20494 0.48685-0.30058 0.54596-0.0469 0.02898-0.0043-0.0879 0.09455-0.25974zm-2.1687 0.02411c0-0.06359-0.05203-0.11563-0.11563-0.11563-0.06359 0-0.11562-0.03591-0.11562-0.07979 0-0.0541 0.04964-0.05323 0.15417 0.0027 0.134 0.07172 0.22273 0.30834 0.11562 0.30834-0.0212 0-0.03854-0.05203-0.03854-0.11563zm1.5463 0.0056c-0.07349-0.08855-0.03592-0.17141 0.19224-0.42396 0.30908-0.34211 0.28012-0.39904-0.08123-0.15973-0.29951 0.19836-0.41416 0.19388-0.4934-0.01927-0.10125-0.27238-0.03517-0.33638 0.56845-0.55067 0.67183-0.23851 0.78186-0.24598 0.88145-0.05989 0.05931 0.11083-2e-3 0.26748-0.28635 0.73206-0.37242 0.60838-0.57315 0.7321-0.78116 0.48145zm1.46-1.6629c-0.07547-0.14102-0.05093-0.18516 0.09166-0.16486 0.06633 0.0094 0.11245-0.15492 0.17744-0.63231 0.05698-0.4186 0.14082-0.42003 0.15785-0.0027 0.0062 0.15107 0.06005 0.3056 0.11974 0.34338 0.16633 0.1053 0.22364 0.08451 0.17592-0.06383-0.02597-0.08075-0.01727-0.10205 0.02169-0.05307 0.0358 0.045 0.18649 0.11771 0.33488 0.16156l0.26979 0.07974-0.38542 0.05991c-0.49606 0.0771-0.91108 0.24706-0.84892 0.34764 0.02675 0.04329 0.03047 0.0787 0.0083 0.0787-0.02221 0-0.07751-0.06938-0.12289-0.15417zm-1.1563-0.07708c0.17139-0.05489 0.16046-0.06257-0.09883-0.0694-0.41561-0.01095-0.75217-0.17284-1.0394-0.49993-0.29563-0.3367-0.32893-0.7065-0.10346-1.1488 0.16697-0.32751 0.07288-0.39603-0.10177-0.07411-0.06325 0.11659-0.11639 0.16595-0.11809 0.1097-0.0047-0.15465 0.41184-0.53805 0.64923-0.59763 0.31958-0.08021 0.74499 0.08493 1.0662 0.41387 0.23316 0.23878 0.29864 0.37289 0.33597 0.68803 0.06414 0.54155 0.1445 0.64718 0.32711 0.42994 0.19064-0.2268 0.26244-0.1368 0.1163 0.14579-0.14394 0.27834-0.76266 0.6823-1.0291 0.6719l-0.19689-0.0077zm-1.459-0.66561c-0.08787-0.11171-0.15574-0.27647-0.15082-0.36615 0.0085-0.15578 0.01066-0.15617 0.04754-0.0089 0.02123 0.08479 0.10629 0.24956 0.18902 0.36615 0.19194 0.27049 0.12546 0.27738-0.08574 0.0089zm-1.2488-0.08596c-0.09786-0.12478-0.09423-0.12642 0.04837-0.02181 0.08479 0.0622 0.16862 0.1229 0.18629 0.1349 0.01766 0.012-0.0041 0.02181-0.04838 0.02181-0.04427 0-0.1281-0.0607-0.18628-0.1349zm2.1682 4.7214c0.09957-0.10599 0.14635-0.19271 0.10396-0.19271-0.0424 0-0.15855 0.08672-0.25812 0.19271-0.09957 0.10599-0.14635 0.19271-0.10396 0.19271 0.0424 0 0.15855-0.08672 0.25812-0.19271zm-0.13611-0.11337c0.20267-0.18436 0.22401-0.22943 0.10947-0.23125-0.16156-0.0026-0.59003 0.27948-0.59003 0.38841 0 0.14337 0.23447 0.06669 0.48056-0.15716zm-0.30541-0.16204c0.31285-0.25788 0.36291-0.38156 0.15246-0.37667-0.18547 0.0043-0.66509 0.42693-0.60142 0.52995 0.0774 0.12524 0.13486 0.10563 0.44896-0.15328zm-0.32583-0.69464c0.06261-0.11698 0.05298-0.16041-0.04378-0.19754-0.18133-0.06958-0.67963 0.4265-0.56598 0.56345 0.06822 0.0822 0.12594 0.0714 0.30677-0.05735 0.1225-0.08723 0.25885-0.22608 0.30299-0.30855zm-0.43136-0.09713c0.23628-0.30978 0.24892-0.43595 0.04368-0.43595-0.23188 0-0.63894 0.39502-0.57602 0.55899 0.08158 0.21259 0.31803 0.15795 0.53234-0.12303zm-1.0856-1.2895c0.18062-0.14208 0.27901-0.37982 0.15719-0.37982-0.11401 0-0.49367 0.33008-0.49367 0.42921 0 0.15256 0.09804 0.13817 0.33648-0.04939zm-0.10572-0.29888c0.14812-0.12278 0.24514-0.24741 0.21561-0.27694-0.08054-0.08054-0.55773 0.22334-0.58666 0.37361-0.03567 0.1852 0.06161 0.15986 0.37106-0.09667zm9.8267-3.394c0.49352-0.38075 1.2969-1.2128 1.7133-1.7744 0.45517-0.6139 0.88606-1.3104 0.81066-1.3104-0.03575 0-0.27713 0.324-0.5364 0.71999-0.69083 1.0551-2.129 2.5175-2.4758 2.5175-0.08583 0-0.31926-0.39064-0.31926-0.53429 0-0.04369 0.08885-0.10174 0.19744-0.129 0.3011-0.07557 1.2496-0.72136 1.7771-1.21 0.52172-0.48324 1.1563-1.2654 1.0846-1.337-0.07506-0.07506-1.2825 0.12759-1.8643 0.3129-0.56348 0.17948-1.1949 0.5308-1.1949 0.66485 0 0.10564 0.34038 0.22794 0.64096 0.2303l0.2455 0.0019-0.30833 0.28828c-0.16958 0.15855-0.4296 0.38204-0.57783 0.49665l-0.26949 0.20837 0.14185 0.40716c0.16874 0.48432 0.32956 0.75403 0.4496 0.75403 0.0481 0 0.26643-0.13808 0.48517-0.30684zm4.704 8.6282c-0.08479-0.03329-0.21198-0.07857-0.28263-0.10062-0.11906-0.03716-0.11801-0.08073 0.01426-0.59497 0.16648-0.64723 0.21301-0.70887 0.5095-0.67499 0.20093 0.02296 0.21971 0.05021 0.20339 0.29509-0.0099 0.14839-0.07926 0.46469-0.15417 0.7029-0.11974 0.38078-0.15482 0.4258-0.29036 0.37258zm-23.692-0.13805c-0.07278-0.04892 0.06911-0.10901 0.46584-0.19727 0.63986-0.14236 1.3727-0.46534 1.8761-0.82687 0.3249-0.23333 0.34583-0.2378 0.61351-0.13103l0.27714 0.11054-0.4848 0.36145c-0.67803 0.50552-1.1912 0.69297-1.9879 0.7262-0.36036 0.01503-0.70231-0.0043-0.75987-0.04302zm26.57-0.61315c-0.53707-0.19956-0.99684-0.38322-1.0217-0.40814-0.05951-0.05964 0.1066-0.53281 0.18706-0.53281 0.03428 0 0.40288 0.11865 0.8191 0.26367 0.76791 0.26755 0.87641 0.27729 0.87641 0.07866 0-0.11739 0.49844-0.16435 0.56526-0.05326 0.06185 0.10282-0.25946 1.0215-0.35608 1.018-0.05146-0.0018-0.53298-0.16659-1.07-0.36615zm-21.538-0.97531c0.05146-0.27434 0.04879-0.27807-0.16361-0.22816-0.11876 0.02791-0.40672 0.12176-0.63989 0.20855-0.23318 0.08679-0.66677 0.1698-0.96354 0.18447l-0.53958 0.02667 0.3708-0.34584c0.574-0.53537 1.2471-0.83217 1.9839-0.87483 0.47223-0.02734 0.61935-0.01131 0.6502 0.07085 0.02192 0.0584-0.05871 0.34899-0.17918 0.64576-0.17107 0.42141-0.25763 0.54526-0.39522 0.56551-0.16349 0.02405-0.17241 0.0058-0.12385-0.25298zm22.707 0.04446c-0.36037-0.12337-1.1235-0.40151-1.6958-0.61809s-1.0806-0.39385-1.1294-0.39394c-0.04885-7.7e-5 -0.12509 0.1039-0.16943 0.23109-0.09195 0.26377-0.08479 0.26168-0.48559 0.1416-0.344-0.10306-0.34333-0.12488 0.02632-0.8618 0.27024-0.53874 0.13146-0.55017 1.8105 0.14912 1.7698 0.73708 2.2747 0.89275 3.0414 0.93778 0.76462 0.0449 1.4944-0.13046 2.2133-0.53183 0.5885-0.32857 0.43283-0.16072-0.32085 0.34596-0.9284 0.62413-1.2886 0.7665-2.0185 0.7979-0.52311 0.0225-0.71608-0.0075-1.2719-0.19778zm0.29175-0.70853c-0.11903-0.06938-0.09725-0.13638 0.21853-0.67214 0.67485-1.145 1.2631-1.8157 2.1433-2.4438 0.50532-0.36059 1.4377-0.90764 1.4781-0.86723 0.01346 0.01346-0.22556 0.21379-0.53114 0.44519-1.1838 0.89645-2.0409 1.9147-2.8454 3.3805-0.13738 0.2503-0.24275 0.28611-0.4634 0.15749zm0.94197-0.50446c2.4e-4 -0.03795 0.07826-0.15962 0.17344-0.2704 0.14879-0.17317 0.27172-0.21372 0.8769-0.28924 0.38711-0.04831 0.8554-0.13919 1.0406-0.20195l0.33679-0.11411-0.26979 0.23298c-0.42945 0.37085-1.0291 0.61704-1.6245 0.66696-0.29621 0.02483-0.5337 0.01404-0.53348-0.02424zm-1.5707-0.19238c-0.29131-0.08304-0.60075-0.18903-0.68765-0.23554-0.12628-0.06759-0.17748-0.05792-0.25503 0.04814-0.07257 0.09924-0.15649 0.11964-0.33282 0.08091-0.31855-0.06996-0.35284-0.1552-0.16727-0.4158 0.08642-0.12136 0.19289-0.31473 0.2366-0.4297 0.04371-0.11497 0.10528-0.19579 0.13682-0.1796 0.61782 0.31722 1.4238 0.67257 1.6183 0.71348 0.13779 0.02898 0.25052 0.06901 0.25052 0.08894 0 0.0489-0.23067 0.49253-0.2525 0.48562-0.0095-3e-3 -0.25563-0.07341-0.54694-0.15645zm-5.9836-7.3345c1.54e-4 -0.0106 0.10139-0.27943 0.22497-0.5974 0.18965-0.48798 0.25509-0.58187 0.41965-0.60213 0.18463-0.02273 0.19126-0.01107 0.12499 0.21998l-0.06997 0.24398 0.28598-0.05278c0.15729-0.02903 0.50128-0.13847 0.76443-0.24321 0.49585-0.19736 1.2876-0.24377 1.2335-0.0723-0.05278 0.16712-0.98136 0.80436-1.4008 0.96128-0.29748 0.1113-0.61221 0.16185-1.0078 0.16185-0.31638 0-0.57511-0.0087-0.57495-0.01927zm-4.6253-1.2893c0.74097-0.6732 1.6854-0.95817 2.8929-0.87295l0.65292 0.04608v-0.61929l-0.57948-0.03719c-0.59156-0.03796-0.76439-0.09838-0.58993-0.2062 0.22242-0.13746 1.4132-0.48233 1.5216-0.44071 0.17721 0.068 0.34153 0.53455 0.34153 0.96968 0 0.35774 0.01434 0.38789 0.18446 0.38789 0.10146 0 0.20552-0.05487 0.23125-0.12193 0.08709-0.22695 0.04745-1.0377-0.06375-1.3038l-0.11054-0.26457 0.41083-0.23505c0.5999-0.34323 1.4068-0.66049 2.0552-0.80808 0.95372-0.21709 2.3091-0.14904 3.0242 0.15184 0.22161 0.09324 0.16984 0.10222-0.60559 0.10501-0.59554 0.0021-1.0315 0.0502-1.4646 0.16145-0.66421 0.17061-1.7728 0.66711-2.1761 0.97464-0.24532 0.18704-0.24833 0.19704-0.20119 0.66885 0.02632 0.26344 0.05544 0.48852 0.0647 0.50018 0.04269 0.05375 0.79009-0.32253 1.3352-0.6722 0.72391-0.46437 1.1021-0.60632 1.7841-0.66971 0.61105-0.05679 1.5032 0.10342 2.2424 0.40271 0.27322 0.11061 0.50257 0.20631 0.50967 0.21267 0.0071 0.0064-0.5479 0.01156-1.2333 0.01156-1.1109 0-1.3037 0.01985-1.7755 0.1827-0.29109 0.10049-0.8073 0.37312-1.1471 0.60585l-0.61787 0.42315-0.74478-0.12408c-0.93254-0.15536-1.9631-0.15765-3.2258-0.0072-1.3917 0.16584-1.6963 0.23851-2.3388 0.55796-0.7667 0.38121-0.77376 0.3816-0.37658 0.02075zm7.4834-0.15274-0.25473-0.13173 0.38454-0.28228c0.86675-0.63625 1.7786-0.91132 2.6085-0.78687 0.43122 0.06467 0.36053 0.12496-0.31649 0.26998-0.58783 0.12591-1.1744 0.38506-1.73 0.76429l-0.43707 0.29834zm-5.9982-1.9131c-0.13114-0.11547-0.30218-0.31283-0.38008-0.43856l-0.14164-0.22861 0.34688 0.23697c0.19078 0.13033 0.47693 0.28353 0.63589 0.34043 0.30588 0.1095 0.2993 0.17728-0.02456 0.25326-0.14811 0.03475-0.25817-0.0065-0.43649-0.16348z" stroke-width=".077084"/>
</svg>
