<?xml version="1.0" encoding="UTF-8"?>
<svg width="35mm" height="35mm" version="1.1" viewBox="0 0 35 35" xmlns="http://www.w3.org/2000/svg" xmlns:cc="http://creativecommons.org/ns#" xmlns:dc="http://purl.org/dc/elements/1.1/" xmlns:rdf="http://www.w3.org/1999/02/22-rdf-syntax-ns#">
 <metadata>
  <rdf:RDF>
   <cc:Work rdf:about="">
    <dc:format>image/svg+xml</dc:format>
    <dc:type rdf:resource="http://purl.org/dc/dcmitype/StillImage"/>
    <dc:title/>
   </cc:Work>
  </rdf:RDF>
 </metadata>
 <path d="m28.067 23.738c-0.5346-0.35699-0.93062-0.80867-1.2646-1.4423-0.32658-0.61961-0.42116-0.94172-0.64481-2.196-0.10109-0.56688-0.25026-1.1628-0.33149-1.3243-0.28545-0.5674-1.1698-1.7325-1.8457-2.4317-0.72259-0.7475-1.1774-1.0946-1.9356-1.4772-0.46772-0.236-1.4344-0.5933-1.4805-0.54722-0.0136 0.0136 0.035 0.1021 0.10787 0.1967 0.35829 0.46474 0.7284 1.1958 0.7284 1.4388 0 0.39944-0.19465 0.58521-0.59726 0.56998-0.88176-0.0334-2.1386-0.7721-3.4492-2.0273l-0.57468-0.55041-0.92073-0.0736c-1.0892-0.087-1.0945-0.0853-1.8277 0.60637-0.57818 0.54543-0.84026 0.93067-1.1942 1.7554-0.14166 0.33009-0.32386 0.67263-0.40489 0.76122-0.42459 0.4642-1.5563-0.17278-1.9458-1.0952-0.22768-0.53913-0.38806-1.0732-0.50714-1.6887l-0.11967-0.61855-0.68968-0.0852c-2.4645-0.30442-3.8361-0.83067-4.9025-1.881-0.26981-0.26575-0.53042-0.48318-0.57912-0.48318-0.25 0-0.99653-0.4778-1.4614-0.93536-0.62796-0.61807-1.227-1.4517-1.227-1.7075 0-0.27859 0.44432-0.89257 1.1746-1.6231 1.713-1.7136 3.9288-2.8186 6.6995-3.3411 0.70749-0.1334 1.0848-0.15567 2.6843-0.15841 2.1474-4e-3 1.946 0.0493 3.1138-0.81968 1.078-0.80218 2.1229-1.288 3.2486-1.5105 0.47137-0.0932 0.79447-0.0533 0.98796 0.12178 0.17929 0.16225 0.1709 0.7438-0.0185 1.2832-0.21229 0.60457-0.25539 1.3866-0.10809 1.9608 0.1644 0.64092 0.53012 1.2806 0.88049 1.54 0.15951 0.11811 0.5434 0.39926 0.8531 0.6248 2.8447 2.0717 5.1654 5.4242 6.1249 8.8482 0.0901 0.32134 0.20167 0.58427 0.24806 0.58427 0.0464 0 0.35264-0.0629 0.68055-0.13977 0.96655-0.22658 2.4223-0.36124 3.889-0.35972 1.8378 2e-3 2.5412 0.16234 2.5412 0.57968 0 0.2507-0.41222 0.60887-0.98252 0.85366-0.5875 0.25219-0.89473 0.44-1.8808 1.1498-0.58591 0.42175-1.7841 1.066-1.9826 1.066-0.0617 0-0.0842 0.0576-0.0628 0.16106 0.10671 0.51696 0.10051 0.91548-0.0291 1.8708-0.0795 0.58602-0.14457 1.4105-0.14457 1.8322 0 0.65182-0.0196 0.78441-0.13091 0.88514-0.1832 0.16579-0.22729 0.15517-0.71875-0.173zm0.39321-2.7397c0.10078-0.72823 0.10448-0.93761 0.0262-1.4837-0.0735-0.51248-0.0736-0.65692-5.4e-4 -0.74481 0.0498-0.06 0.12682-0.10962 0.17121-0.11035 0.0444-8.1e-4 0.34096-0.10853 0.65906-0.23958 0.58295-0.24016 1.0444-0.52584 2.0402-1.263 0.29846-0.22094 0.7897-0.51027 1.0916-0.64297 0.30194-0.13269 0.54897-0.2635 0.54897-0.29069 0-0.0844-1.5324-0.15364-2.3063-0.10424-0.90451 0.0577-2.3965 0.23003-2.8403 0.32799-0.7889 0.17413-0.86627 0.20779-0.86627 0.37687 0 0.27843-0.2531 0.4207-0.48577 0.27307-0.0506-0.0321-0.18676-0.43061-0.30247-0.88552-1.5696-6.1705-6.3672-10.754-12.576-12.016-0.92488-0.18793-2.897-0.26033-3.859-0.14166-2.6156 0.32267-4.9962 1.3328-6.7009 2.8431-0.52949 0.46914-1.4156 1.4672-1.4156 1.5945 0 0.13879 0.65427 0.93266 1.1348 1.3769 0.91157 0.84279 1.7678 0.94399 2.5393 0.30009 0.34252-0.28586 0.6869-0.15542 0.59164 0.22411-0.0494 0.19676-0.65897 0.63984-0.99083 0.72019-0.10827 0.0262-0.19686 0.0748-0.19686 0.10787 0 0.10507 0.8986 0.70615 1.3862 0.92725 1.36 0.61666 3.6493 0.90102 8.349 1.0371 1.4916 0.0432 1.5343 0.0406 1.3848-0.0851-0.38833-0.32644-2.1479-1.8643-2.2946-2.0054-0.0902-0.0868-0.164-0.20529-0.164-0.26333 0-0.13707 0.19489-0.33048 0.33302-0.33048 0.14881 0 1.8027 1.4306 3.8987 3.3722 1.1116 1.0298 1.8282 1.556 2.4888 1.8277 0.70592 0.29039 0.73533 0.22164 0.23541-0.55039-1.321-2.04-1.6386-2.8394-1.5662-3.9425 0.0384-0.5858 0.11767-0.80445 0.33336-0.91989 0.30919-0.16547 0.48941 0.10563 0.3659 0.55041-0.17358 0.62508-0.0329 1.5052 0.35711 2.2336l0.21393 0.39953 0.86574 0.28016c2.0168 0.65268 3.1194 1.4759 4.6237 3.4521 0.87002 1.143 1.0224 1.4841 1.2384 2.772 0.24747 1.4752 0.53248 2.1639 1.1684 2.823l0.29705 0.30788 0.0531-0.63c0.0292-0.3465 0.10592-1.0116 0.17046-1.4779zm-16.198-10.251c-0.0235-0.0613 0.0467-0.27567 0.15597-0.47648 0.15165-0.27863 0.20893-0.50213 0.24184-0.94368 0.037-0.49635 0.0628-0.58234 0.18156-0.60503 0.44758-0.0856 0.42567 1.0827-0.0339 1.8074-0.21556 0.3399-0.46101 0.43789-0.54547 0.21778zm-1.1427-0.208c-0.0221-0.0575 0.0483-0.28552 0.15651-0.5066 0.1414-0.28902 0.20618-0.55012 0.2305-0.92917 0.0249-0.38778 0.0632-0.53844 0.14477-0.56976 0.47083-0.18067 0.42598 1.2162-0.061 1.9002-0.15924 0.22364-0.40433 0.27849-0.47076 0.10538zm-7.8115-1.5168c-0.13227-0.0546-0.1113-0.4308 0.027-0.48386 0.16882-0.0648 0.32368 0.0954 0.29877 0.30896-0.0211 0.18065-0.14741 0.24849-0.32574 0.1749zm3.0599-0.44372c-0.38919-0.38919-0.35063-1.1118 0.0786-1.4729 0.27967-0.23532 0.56574-0.23534 0.84537-5e-5 0.35843 0.3016 0.42523 0.87635 0.15955 1.3728-0.19724 0.36856-0.76286 0.42087-1.0835 0.10021zm5.9179 7.3449c0.28619-0.68365 0.70207-1.3045 1.1821-1.7649l0.36615-0.35108-0.52967-0.041c-0.29133-0.0226-1.037-0.0608-1.6571-0.0849-0.96016-0.0374-1.1274-0.0284-1.1274 0.0605 0 0.20474 0.34628 1.465 0.50199 1.827 0.17531 0.4075 0.72402 0.96683 0.9128 0.93047 0.0724-0.0139 0.21091-0.24127 0.35111-0.57614zm6.0098-10.901c-0.31259-0.81459-0.32015-1.7508-0.0219-2.7178 0.10041-0.32563 0.14992-0.60107 0.1148-0.63851-0.11217-0.11956-1.2925 0.22783-2.0346 0.5988-0.62486 0.31238-2.0338 1.2575-2.0384 1.3675-8.2e-4 0.0216 0.36071 0.14461 0.80362 0.27332 0.84581 0.24579 2.2278 0.77041 2.7738 1.053 0.38292 0.19816 0.45894 0.21019 0.40273 0.0637z" stroke-width=".071582"/>
</svg>
