<?xml version="1.0" encoding="UTF-8"?>
<svg width="35mm" height="35mm" version="1.1" viewBox="0 0 35 35" xmlns="http://www.w3.org/2000/svg" xmlns:cc="http://creativecommons.org/ns#" xmlns:dc="http://purl.org/dc/elements/1.1/" xmlns:rdf="http://www.w3.org/1999/02/22-rdf-syntax-ns#">
 <metadata>
  <rdf:RDF>
   <cc:Work rdf:about="">
    <dc:format>image/svg+xml</dc:format>
    <dc:type rdf:resource="http://purl.org/dc/dcmitype/StillImage"/>
    <dc:title/>
   </cc:Work>
  </rdf:RDF>
 </metadata>
 <path d="m17.534 27.257c0.0572-0.05712 1.059-0.61562 2.2263-1.2411l2.1224-1.1373-1.6838 0.12895c-0.92606 0.07093-2.0373 0.18267-2.4695 0.24833-1.7941 0.27256-0.12174-0.36491 3.592-1.3692 2.9054-0.78573 4.0305-1.188 4.3194-1.5443 1.0031-1.2374 2.4082-4.3889 2.6492-5.942 0.13663-0.88064 0.19326-1.6904 0.12583-1.7995-0.0674-0.1091-0.98783-0.26856-2.0453-0.35437l-1.9228-0.15601-1.7315 1.4329c-2.7667 2.2896-2.8509 2.254-0.76179-0.32262l1.1942-1.4729 2.3417-0.27752c2.0541-0.24343 2.3417-0.32993 2.3417-0.70432 0-0.50166-0.44275-0.53191-2.8062-0.1917l-1.5715 0.2262-1.9947 1.9582c-1.0971 1.077-1.9154 1.8067-1.8186 1.6215 0.0968-0.18521 0.62342-1.0649 1.1702-1.955l0.9941-1.6182 2.5638-0.84383c2.2508-0.74078 2.5237-0.88396 2.2352-1.1724-0.28849-0.28849-0.60581-0.2512-2.5986 0.30536l-2.27 0.63398-1.5493 2.3812c-0.85211 1.3096-1.5517 2.2801-1.5547 2.1567-3e-3 -0.12348 0.36017-1.169 0.80705-2.3235 0.72387-1.87 0.89647-2.1341 1.582-2.4205 0.42325-0.17685 0.89138-0.25161 1.0403-0.16615 0.14891 0.08546 0.19022 0.06708 0.0918-0.04084-0.0984-0.10792 0.55825-0.56965 1.4592-1.026 1.6191-0.82016 1.631-0.83261 1.0193-1.0695-0.54469-0.21098-0.85414-0.11392-2.5817 0.80983l-1.9629 1.0495-1.0081 2.1194c-1.4432 3.0341-1.6178 3.1369-0.97846 0.57597l0.56607-2.2673 1.7766-1.4022c0.97715-0.77122 1.7766-1.489 1.7766-1.5951 0-0.10611-0.33893-0.25652-0.75317-0.33423-0.58742-0.1102-1.1511 0.04061-2.5615 0.6853l-1.8083 0.8266-3.2194-0.46458c-1.7707-0.25552-4.6338-0.53659-6.3624-0.62459-1.8977-0.09661-2.9206-0.22376-2.5817-0.3209 0.52823-0.15142 2.3509-0.09321 4.3777 0.13983 0.84227 0.09684 0.87038 0.08194 0.45293-0.24002-0.31376-0.24199-0.87676-0.32857-1.9082-0.29347-1.9497 0.06635-5.4961-0.28207-5.1361-0.50459 0.15616-0.09651 0.7482-0.23933 1.3156-0.31738 1.8372-0.25268 1.6415-0.47973-0.66726-0.77396-1.241-0.15816-2.3054-0.36676-2.3652-0.46357-0.0934-0.15119 2.3825-1.2063 4.7723-2.0336 1.0441-0.36147 0.90045-0.65341-0.33675-0.68423-0.58651-0.0146-1.3694-0.09612-1.7399-0.18113-0.58828-0.13501-0.47463-0.1908 0.898-0.44088 0.86432-0.15747 3.7148-0.5771 6.3344-0.93252 4.2998-0.58337 5.0093-0.62482 7.2962-0.4263 1.3933 0.12095 3.8977 0.30337 5.5653 0.40538 3.4349 0.21012 4.4335 0.53464 6.3564 2.0657 1.5275 1.2162 2.7426 2.9678 3.4003 4.9017 0.4977 1.4633 0.523 1.7644 0.36403 4.3335-0.14573 2.3551-0.2843 3.0586-0.94275 4.7864-0.74252 1.9483-2.8098 5.1659-4.0648 6.3264-0.34264 0.31686-2.2632 0.96378-5.8012 1.9541-5.1122 1.4309-5.7928 1.5991-5.5702 1.3765zm5.828-1.6977c1.7522-0.4843 3.2301-0.92473 3.2841-0.97872 0.054-0.054-0.7431-0.048-1.7713 0.01334-1.5642 0.0933-2.172 0.25332-3.7216 0.97987-1.7038 0.79882-2.4618 1.3373-1.4146 1.0049 0.24066-0.07638 1.8712-0.53512 3.6235-1.0194zm0.62487-1.1085c1.5277-0.11724 2.8326-0.26814 2.8998-0.33533 0.0672-0.0672-0.0144-0.12218-0.18139-0.12218-0.16696 0-0.5354-0.2178-0.81875-0.48399l-0.51519-0.484-3.1474 0.85454c-1.7311 0.47-3.1474 0.89932-3.1474 0.95406 0 0.05474 0.47988 0.03889 1.0664-0.03521s2.3163-0.23066 3.844-0.34789zm5.4435-1.3895c0.40597-0.51258 0.64176-0.89085 0.52399-0.84059-0.81397 0.34732-2.5645 1.3554-2.681 1.5438-0.0857 0.1386 0.16612 0.22877 0.63874 0.22877 0.6467 0 0.9064-0.15942 1.5183-0.93197zm-0.39789-1.3526c-0.55229-0.08348-1.2375-0.30467-1.5227-0.49153-0.51133-0.33503-0.52048-0.32548-0.65943 0.68824-0.26765 1.9527-0.31405 1.9255 1.5227 0.89156l1.6636-0.93649zm-2.419-0.35582c-0.04-0.04005-0.27722 0.27361-0.52704 0.69702-0.42206 0.71534-0.428 0.79614-0.084 1.1412 0.34421 0.34524 0.38129 0.29619 0.52704-0.69703 0.0862-0.58762 0.124-1.1012 0.084-1.1412zm4.541-0.67103c0.36645-0.46303 0.82644-1.2256 1.0222-1.6946l0.35592-0.85273-0.6093 0.47928c-0.79822 0.62788-2.9688 2.6827-2.9688 2.8104 0 0.05475 0.34509 0.09954 0.76689 0.09954 0.61806 0 0.89617-0.16337 1.4331-0.84188zm-3.0332-1.3954-0.18464-0.71255-0.99248 2.0428 0.61227 0.32284c0.59457 0.3135 0.61426 0.30457 0.68088-0.30887 0.0377-0.34743-0.0145-0.95235-0.11603-1.3442zm3.7595-1.0274c0.26204-0.31574 0.22153-0.33515-0.36147-0.17311-0.36111 0.10037-1.2509 0.15605-1.9772 0.12373l-1.3207-0.05876 0.13959 0.84452c0.0768 0.46448 0.14069 1.1833 0.14205 1.5973l3e-3 0.75275 1.5401-1.3654c0.84705-0.75097 1.6729-1.5254 1.8352-1.721zm-2.2363-1.3088c-0.37948-0.66328-0.6869-1.2947-0.68315-1.4031 4e-3 -0.10844 0.12177 0.0049 0.26225 0.25183 0.14048 0.24695 0.5013 0.84217 0.80183 1.3227l0.54642 0.87371 1.2325-2.1085c1.256-2.1486 2.0039-3.176 1.3051-1.7926-0.21251 0.42067-0.78541 1.4168-1.2731 2.2136-0.4877 0.79681-0.84514 1.4903-0.79431 1.5411 0.0508 0.05082 0.48252-0.03606 0.95933-0.19309 0.78103-0.25721 0.90524-0.40785 1.2536-1.5202 0.43794-1.3985 0.52062-2.6017 0.19273-2.8043-0.12175-0.07524-0.66301 0.12202-1.2028 0.43837-0.5398 0.31635-1.4888 0.72585-2.109 0.91-1.205 0.35786-1.4531 0.7008-1.7332 2.3961-0.13575 0.82166-0.1304 0.82854 0.71265 0.91639 0.46718 0.04868 0.9326 0.1055 1.0343 0.12625 0.10167 0.02076-0.12564-0.50494-0.50513-1.1682zm-5.6415-2.8912c0.0381-0.5119-0.74245-0.02007-1.5942 1.0045l-0.97503 1.1729 1.2784-1.0045c0.70308-0.55249 1.284-1.0803 1.2909-1.1729zm-1.1976-1.2259c-0.17566-0.18759-1.0249 0.28834-1.2199 0.68363-0.13186 0.26736-0.45877 0.83969-0.72647 1.2719-0.34782 0.56151-0.13323 0.40133 0.75192-0.56125 0.68126-0.74085 1.2188-1.3683 1.1944-1.3942zm-2.298 0.38452c0.47285-0.7139 0.71284-1.2691 0.56927-1.3169-0.36998-0.12333-0.74759 0.38901-1.3007 1.7648-0.55977 1.3924-0.43806 1.3178 0.73143-0.44787zm9.3815 1.3091c0.48079-0.14405 0.84609-0.34157 0.81179-0.43894-0.0964-0.27351-2.4835-2.0041-2.6016-1.886-0.0961 0.09607 0.35709 2.0304 0.56659 2.4185 0.11916 0.22075 0.19312 0.21509 1.2232-0.09353zm-10.73-2.0409c0.51683-1.177 0.52916-1.272 0.13783-1.0626-0.23637 0.1265-0.53921 0.65764-0.67298 1.1803-0.13376 0.52267-0.29471 1.1018-0.35767 1.2871-0.27145 0.79858 0.36499-0.20284 0.89282-1.4048zm9.1218 1.4181c0-0.40534-0.44017-0.4756-1.9547-0.31199-1.2574 0.13583-1.4069 0.19156-0.85159 0.31744 1.0347 0.23456 2.8062 0.23113 2.8062-0.0055zm3.0077-0.40613c0.2799-0.92081 1.2574-5.744 1.1798-5.8215-0.0467-0.04674-0.52816 0.46228-1.0698 1.1312-0.54168 0.66887-1.5152 1.5363-2.1635 1.9275-0.64824 0.39127-1.1744 0.7815-1.1692 0.86719 0.0104 0.173 2.7074 2.2524 2.9501 2.2745 0.0843 0.0077 0.20699-0.16279 0.27268-0.37888zm1.3329-0.20592c0.94789-0.57255 0.99723-0.65518 1.1258-1.8854 0.12559-1.2016-0.26375-3.1038-0.74543-3.6421-0.0871-0.09736-0.44129 1.1149-0.78704 2.694s-0.67595 2.9973-0.73378 3.1516c-0.15133 0.40392 0.0277 0.35399 1.1404-0.31817zm-6.6085-1.0981c1.6107-0.15872 1.7965-0.25621 1.3464-0.70633-0.18103-0.18103-0.67597-0.10247-1.8324 0.29087-0.87142 0.29639-1.6438 0.60594-1.7164 0.6879-0.0726 0.08195 0.0345 0.08953 0.23798 0.01684 0.20345-0.07269 1.0874-0.20287 1.9644-0.28928zm3.3343-1.8225c0.4013-0.29948 0.72963-0.69956 0.72963-0.88906 0-0.57121-1.1759-5.7925-1.3487-5.9885-0.0883-0.10019-0.43424 0.55648-0.76872 1.4593-0.33448 0.90278-1.0142 2.1795-1.5106 2.8372-0.49636 0.65769-0.85898 1.2393-0.80582 1.2925 0.0531 0.05316 1.0473 0.24273 2.2091 0.42128 1.6734 0.25715 1.8092 0.30161 0.65321 0.2139-0.80259-0.0609-1.8128-0.16326-2.245-0.22746l-0.78575-0.11674 1.1158 1.0052c1.2227 1.1016 1.2708 1.1014 2.7568-0.0075zm-4.9653 0.3387c1.4431-0.41931 1.6309-0.53055 1.3576-0.80394-0.27339-0.27338-0.53112-0.20758-1.8626 0.4756-1.8179 0.93278-1.743 0.98152 0.50504 0.32833zm-1.9381-1.1981c1.0417-0.52819 1.1646-0.65139 0.78575-0.78795-0.48157-0.17361-0.99749 0.12328-2.3572 1.3565-0.54493 0.49422-0.61374 0.61224-0.22451 0.38508 0.30869-0.18015 1.1169-0.60928 1.796-0.95363zm-3.4638-0.97602c1.498-0.72443 1.9504-1.0796 2.7882-2.1889 0.95704-1.2673 0.99714-1.3819 0.93351-2.669-0.0366-0.73968-0.0986-1.377-0.13791-1.4163-0.0393-0.03928-0.4497 0.55128-0.91203 1.3124-0.61802 1.0174-1.2944 1.7203-2.5544 2.6545-1.5342 1.1375-1.9545 1.3275-4.0104 1.8129-1.2631 0.29818-2.2966 0.61104-2.2966 0.69524 0 0.12314 1.9741 0.43019 4.0529 0.63038 0.19174 0.01847 1.1533-0.35556 2.1368-0.83117zm12.729-0.46438 1.0064-1.2169-0.76187-1.0605c-0.71573-0.99625-2.7049-2.8269-2.8778-2.6486-0.14408 0.14858 1.301 6.2675 1.4653 6.2046 0.0888-0.03401 0.61437-0.60943 1.1679-1.2787zm-5.2003-0.74752c0.28067-0.50871 0.12337-0.50532-2.6053 0.05612-1.2002 0.24695-2.2468 0.45692-2.3258 0.4666-0.079 0.0097 0.66454 0.30387 1.6523 0.65376l1.796 0.63616 0.63302-0.70988c0.34816-0.39044 0.73056-0.88668 0.84977-1.1028zm-11.866 0.59901c1.3274-0.32907 2.4075-0.66161 2.4003-0.73897-7e-3 -0.07737-0.95329-0.81996-2.1024-1.6502l-2.0893-1.5096-2.8416 1.2688c-1.5629 0.69785-2.7636 1.3449-2.6682 1.4379 0.36786 0.35873 4.2319 1.9471 4.5511 1.8708 0.18521-0.04425 1.4228-0.3497 2.7501-0.67877zm-7.1279-0.76316c-0.80193-0.36341-1.0421-0.37641-2.245-0.12156-1.2707 0.26922-1.3025 0.2913-0.56124 0.38993 0.43216 0.0575 1.4424 0.1122 2.245 0.12156l1.4592 0.01701zm17.062-0.14993c1.1304-0.20069 2.1857-0.51957 2.3955-0.72388 0.34204-0.33305 1.5332-2.9992 1.5332-3.4316 0-0.4499-1.7721-0.91587-3.592-0.94452l-1.9082-0.03004v1.5874c0 1.5278-0.037 1.6365-0.98766 2.8972l-0.98764 1.3098 0.76315-0.15277c0.41973-0.08402 1.6724-0.31418 2.7836-0.51147zm0.51673-2.6044c-0.91915-1.0187-1.7471-2.0037-1.8399-2.1889-0.17928-0.3578 1.295 1.2027 2.8103 2.9746 1.4945 1.7477 0.83003 1.2096-0.9704-0.78575zm-5.9336 1.5153c0.90237-0.67918 1.7517-1.4621 1.8874-1.7399 0.13572-0.27776 0.51992-0.94894 0.85376-1.4915l0.607-0.98651-0.64941 0.16996c-0.35717 0.09348-2.4652 0.59628-4.6845 1.1173l-4.0351 0.94738 2.1269 1.5976c1.1698 0.87868 2.1553 1.6027 2.1901 1.609 0.0348 0.0063 0.80152-0.54424 1.7039-1.2234zm-9.5654-0.69951c1.5726-0.69348 2.8892-1.2875 2.9258-1.3199 0.0366-0.03248-0.33929-0.38043-0.83522-0.77322l-0.90171-0.71416-1.7291 0.4852c-2.0388 0.57209-7.6645 2.74-7.3614 2.8367 0.3746 0.11964 4.0116 0.69992 4.5342 0.72342 0.2795 0.01257 1.7949-0.54455 3.3675-1.238zm-0.23596-1.1235c-0.46441-0.46442 0.40449-1.3215 1.0778-1.0632 0.57623 0.22112 0.31802 1.079-0.34815 1.1567-0.31331 0.03653-0.64164-0.0055-0.72963-0.09354zm1.0869-0.3292c0.25752-0.41668-0.28112-0.76512-0.67607-0.43734-0.19045 0.15806-0.34627 0.37603-0.34627 0.48439 0 0.28248 0.84265 0.2437 1.0223-0.04705zm7.0421-1.0968c2.1512-0.49855 3.9612-0.95644 4.0223-1.0175 0.0611-0.0611-0.23409-0.11469-0.65596-0.11909-0.42188-0.0044-1.7773-0.10061-3.012-0.21378-2.074-0.1901-2.4118-0.16139-4.4339 0.37673-1.2039 0.32038-2.1863 0.64389-2.1831 0.71891 0.0124 0.29446 1.6977 1.3449 2.0148 1.2558 0.18521-0.05204 2.0968-0.50251 4.2479-1.0011zm-7.2787-0.3362c1.4817-0.41875 2.5771-0.76836 2.4342-0.77689-0.21838-0.01305-7.6793 1.036-8.1237 1.1422-0.16172 0.03866 1.8267 0.32726 2.5465 0.3696 0.24695 0.01453 1.6613-0.3162 3.143-0.73496z" stroke-width=".2245"/>
</svg>
